<svg xmlns="http://www.w3.org/2000/svg" width="400" height="400" preserveAspectRatio="xMidYMid meet" version="1.0" viewBox="0 0 300 300"><metadata>Created by potrace 1.11, written by Peter Selinger 2001-2013</metadata><g fill="#000" stroke="none"><path d="M0 1500 l0 -1500 1500 0 1500 0 0 1500 0 1500 -1500 0 -1500 0 0 -1500z m2299 404 c146 -75 276 -147 289 -160 l22 -23 0 -452 c0 -446 0 -452 -21 -470 -24 -21 -852 -459 -867 -459 -6 0 -13 -6 -16 -12 -5 -11 -7 -11 -12 0 -3 6 -9 12 -14 12 -7 0 -372 192 -765 402 l-100 53 -3 126 -3 126 61 52 c34 29 63 51 66 48 3 -3 8 -64 11 -136 5 -102 9 -134 22 -144 35 -30 712 -377 736 -377 28 0 723 363 743 388 9 12 12 107 12 398 l0 383 -32 24 c-18 13 -138 80 -267 148 l-233 124 48 42 c27 23 51 43 53 43 2 0 124 -61 270 -136z m-107 -191 c108 -56 153 -84 159 -101 5 -13 9 -162 9 -332 0 -279 -2 -310 -17 -328 -29 -32 -594 -325 -628 -325 -20 0 -130 54 -315 153 -157 84 -293 159 -302 168 -10 8 -18 29 -18 47 0 28 8 39 58 76 31 23 60 47 64 53 4 6 8 -10 8 -35 0 -34 5 -50 23 -66 21 -20 429 -236 468 -248 13 -5 91 31 252 116 127 67 238 129 245 137 9 12 12 80 12 262 0 182 -3 250 -12 262 -7 9 -69 47 -138 84 -69 36 -127 68 -129 70 -2 2 7 12 20 23 13 10 35 28 48 40 13 12 28 21 34 21 5 0 77 -35 159 -77z" transform="translate(0.000000,300.000000) scale(0.100000,-0.100000)"/></g></svg>