<?xml version="1.0" standalone="no"?>
<!DOCTYPE svg PUBLIC "-//W3C//DTD SVG 1.1//EN" "http://www.w3.org/Graphics/SVG/1.1/DTD/svg11.dtd" >
<svg xmlns="http://www.w3.org/2000/svg" xmlns:xlink="http://www.w3.org/1999/xlink" version="1.1">
<metadata>
Created by FontForge 20170731 at Wed Sep 30 14:13:58 2020
 By Aleksey,,,
Copyright (c) 2017 by Alberto Romanos. All rights reserved.
</metadata>
<defs>
<font id="BwNistaGeo-xBd" horiz-adv-x="0" >
  <font-face 
    font-family="Bw Nista Geo xBd"
    font-weight="800"
    font-stretch="normal"
    units-per-em="2048"
    panose-1="0 0 9 0 0 0 0 0 0 0"
    ascent="1577"
    descent="-471"
    x-height="1079"
    cap-height="1577"
    bbox="-1671 -594 2955 2175"
    underline-thickness="102"
    underline-position="-307"
    unicode-range="U+000D-FB02"
  />
<missing-glyph horiz-adv-x="2609" 
d="M156 -20q-15 0 -25 10.5t-10 25.5q0 21 10 31l700 698h-663q-47 0 -47 39q0 16 14 33l696 701h-669q-41 0 -41 38v3q0 38 41 38h758q47 0 47 -41q0 -20 -17 -34l-698 -697h676q17 0 29 -12t12 -29v-669l694 692q13 16 35 16q37 0 37 -45v-663l696 692q13 16 33 16
q15 0 25 -12t10 -27q0 -18 -13 -28l-753 -762q-14 -14 -35 -14q-41 0 -41 47v663l-694 -696q-14 -14 -35 -14q-41 0 -41 47v663l-697 -696q-14 -14 -34 -14z" />
    <glyph glyph-name="fi" unicode="fi" horiz-adv-x="1480" 
d="M1354 1079v-1079h-340v842h-463v-842h-340v842h-164v237h164v72q0 201 122 323.5t322 122.5q118 0 193 -20v-244q-67 19 -121 19q-78 0 -127 -50.5t-49 -132.5v-90h803zM1180 1231q-86 0 -138.5 50t-52.5 132q0 79 52.5 127.5t138.5 48.5t139 -48.5t53 -127.5
q0 -82 -53 -132t-139 -50z" />
    <glyph glyph-name="fl" unicode="fl" horiz-adv-x="1462" 
d="M995 1577h340v-1577h-340v842h-444v-842h-340v842h-164v237h164v68q0 203 121.5 326.5t322.5 123.5q103 0 174 -22v-240q-46 17 -98 17q-81 0 -130.5 -51.5t-49.5 -135.5v-86h444v498z" />
    <glyph glyph-name="f_b" unicode="fb" horiz-adv-x="2222" 
d="M1702 1100q203 0 326.5 -153.5t123.5 -405.5q0 -253 -123.5 -407t-324.5 -154q-120 0 -220.5 53.5t-144.5 142.5h-4v-176h-340v842h-444v-842h-340v842h-164v237h164v68q0 203 121.5 326.5t322.5 123.5q103 0 174 -22v-240q-46 17 -98 17q-81 0 -130.5 -51.5
t-49.5 -135.5v-86h444v498h340v-676h4q45 92 144.5 145.5t218.5 53.5zM1571 246q106 0 170.5 81.5t64.5 213.5q0 131 -65 212t-170 81q-106 0 -171 -81t-65 -212q0 -132 65 -213.5t171 -81.5z" />
    <glyph glyph-name="f_f" unicode="ff" horiz-adv-x="1634" 
d="M1487 1352q-81 0 -130.5 -51.5t-49.5 -135.5v-86h311v-237h-311v-842h-340v842h-416v-842h-340v842h-164v237h164v68q0 203 122.5 326.5t323.5 123.5q132 0 205 -26v-246q-62 27 -131 27q-81 0 -130.5 -51.5t-49.5 -135.5v-86h416v68q0 203 122.5 326.5t323.5 123.5
q153 0 236 -36v-244q-72 35 -162 35z" />
    <glyph glyph-name="f_f_b" unicode="ffb" horiz-adv-x="2979" 
d="M2458 1100q203 0 326.5 -153.5t123.5 -405.5q0 -253 -123.5 -407t-324.5 -154q-120 0 -220.5 53.5t-144.5 142.5h-4v-176h-340v842h-444v-842h-340v842h-416v-842h-340v842h-164v237h164v68q0 203 122.5 326.5t323.5 123.5q132 0 205 -26v-246q-62 27 -131 27
q-81 0 -130.5 -51.5t-49.5 -135.5v-86h416v68q0 203 121.5 326.5t322.5 123.5q103 0 174 -22v-240q-46 17 -98 17q-81 0 -130.5 -51.5t-49.5 -135.5v-86h444v498h340v-676h4q45 92 144.5 145.5t218.5 53.5zM2327 246q106 0 170.5 81.5t64.5 213.5q0 131 -65 212t-170 81
q-106 0 -171 -81t-65 -212q0 -132 65 -213.5t171 -81.5z" />
    <glyph glyph-name="f_f_h" unicode="ffh" horiz-adv-x="2932" 
d="M2464 1100q158 0 255 -111.5t97 -294.5v-694h-340v633q0 91 -49 146t-131 55q-92 0 -148.5 -66t-56.5 -172v-596h-340v842h-444v-842h-340v842h-416v-842h-340v842h-164v237h164v68q0 203 122.5 326.5t323.5 123.5q132 0 205 -26v-246q-62 27 -131 27q-81 0 -130.5 -51.5
t-49.5 -135.5v-86h416v68q0 203 121.5 326.5t322.5 123.5q103 0 174 -22v-240q-46 17 -98 17q-81 0 -130.5 -51.5t-49.5 -135.5v-86h444v498h340v-672h4q49 89 150 142t219 53z" />
    <glyph glyph-name="f_f_i" unicode="ffi" horiz-adv-x="2238" 
d="M2109 1079v-1079h-340v842h-462v-842h-340v842h-416v-842h-340v842h-164v237h164v68q0 203 122.5 326.5t323.5 123.5q132 0 205 -26v-246q-62 27 -131 27q-81 0 -130.5 -51.5t-49.5 -135.5v-86h416v72q0 201 122 323.5t322 122.5q118 0 193 -20v-244q-67 19 -121 19
q-78 0 -127 -50.5t-49 -132.5v-90h802zM1935 1231q-86 0 -138 50t-52 132q0 80 52 128t138 48t139.5 -48.5t53.5 -127.5q0 -82 -53.5 -132t-139.5 -50z" />
    <glyph glyph-name="f_f_j" unicode="ffj" horiz-adv-x="2238" 
d="M2109 1079v-1550h-340v1313h-462v-842h-340v842h-416v-842h-340v842h-164v237h164v68q0 203 122.5 326.5t323.5 123.5q132 0 205 -26v-246q-62 27 -131 27q-81 0 -130.5 -51.5t-49.5 -135.5v-86h416v72q0 201 122 323.5t322 122.5q118 0 193 -20v-244q-67 19 -121 19
q-78 0 -127 -50.5t-49 -132.5v-90h802zM1935 1231q-86 0 -138 50t-52 132q0 80 52 128t138 48t139.5 -48.5t53.5 -127.5q0 -82 -53.5 -132t-139.5 -50z" />
    <glyph glyph-name="f_f_k" unicode="ffk" horiz-adv-x="2926" 
d="M1751 1079v498h340v-1577h-340v842h-444v-842h-340v842h-416v-842h-340v842h-164v237h164v68q0 203 122.5 326.5t323.5 123.5q132 0 205 -26v-246q-62 27 -131 27q-81 0 -130.5 -51.5t-49.5 -135.5v-86h416v68q0 203 121.5 326.5t322.5 123.5q103 0 174 -22v-240
q-46 17 -98 17q-81 0 -130.5 -51.5t-49.5 -135.5v-86h444zM2492 594l463 -594h-389l-448 584l383 495h378z" />
    <glyph glyph-name="f_f_l" unicode="ffl" horiz-adv-x="2220" 
d="M1751 1577h340v-1577h-340v842h-444v-842h-340v842h-416v-842h-340v842h-164v237h164v68q0 203 122.5 326.5t323.5 123.5q132 0 205 -26v-246q-62 27 -131 27q-81 0 -130.5 -51.5t-49.5 -135.5v-86h416v68q0 203 121.5 326.5t322.5 123.5q103 0 174 -22v-240
q-46 17 -98 17q-81 0 -130.5 -51.5t-49.5 -135.5v-86h444v498z" />
    <glyph glyph-name="f_f_t" unicode="fft" horiz-adv-x="2449" 
d="M2400 842h-309v-480q0 -59 45.5 -95t118.5 -36q81 0 145 33v-233q-112 -51 -254 -51q-178 0 -286.5 96.5t-108.5 253.5v512h-444v-842h-340v842h-416v-842h-340v842h-164v237h164v68q0 203 122.5 326.5t323.5 123.5q132 0 205 -26v-246q-62 27 -131 27
q-81 0 -130.5 -51.5t-49.5 -135.5v-86h416v68q0 203 122.5 326.5t323.5 123.5q126 0 197 -22v-244q-65 21 -123 21q-81 0 -130.5 -51.5t-49.5 -135.5v-86h460v310h324v-310h309v-237z" />
    <glyph glyph-name="f_h" unicode="fh" horiz-adv-x="2177" 
d="M1708 1100q158 0 255 -111.5t97 -294.5v-694h-340v633q0 91 -49 146t-131 55q-92 0 -148.5 -66t-56.5 -172v-596h-340v842h-444v-842h-340v842h-164v237h164v68q0 203 121.5 326.5t322.5 123.5q103 0 174 -22v-240q-46 17 -98 17q-81 0 -130.5 -51.5t-49.5 -135.5v-86
h444v498h340v-672h4q49 89 150 142t219 53z" />
    <glyph glyph-name="f_iacute" unicode="f&#xed;" horiz-adv-x="1480" 
d="M1354 1079v-1079h-340v842h-463v-842h-340v842h-164v237h164v68q0 203 122.5 326.5t323.5 123.5q153 0 236 -36v-244q-72 35 -162 35q-81 0 -130.5 -51.5t-49.5 -135.5v-86h803zM1544 1577l-272 -356h-254l182 356h344z" />
    <glyph glyph-name="f_j" unicode="fj" horiz-adv-x="1480" 
d="M1354 1079v-1550h-340v1313h-463v-842h-340v842h-164v237h164v72q0 201 122 323.5t322 122.5q118 0 193 -20v-244q-67 19 -121 19q-78 0 -127 -50.5t-49 -132.5v-90h803zM1180 1231q-86 0 -138.5 50t-52.5 132q0 79 52.5 127.5t138.5 48.5t139 -48.5t53 -127.5
q0 -82 -53 -132t-139 -50z" />
    <glyph glyph-name="f_k" unicode="fk" horiz-adv-x="2170" 
d="M995 1079v498h340v-1577h-340v842h-444v-842h-340v842h-164v237h164v68q0 203 121.5 326.5t322.5 123.5q103 0 174 -22v-240q-46 17 -98 17q-81 0 -130.5 -51.5t-49.5 -135.5v-86h444zM1737 594l463 -594h-390l-448 584l383 495h379z" />
    <glyph glyph-name="f_t" unicode="ft" horiz-adv-x="1691" 
d="M1645 842h-310v-480q0 -59 45.5 -95t118.5 -36q82 0 146 33v-233q-112 -51 -254 -51q-178 0 -287 96.5t-109 253.5v512h-444v-842h-340v842h-164v237h164v68q0 203 122.5 326.5t323.5 123.5q126 0 197 -22v-244q-65 21 -123 21q-81 0 -130.5 -51.5t-49.5 -135.5v-86h461
v310h323v-310h310v-237z" />
    <glyph glyph-name="t_t" unicode="tt" horiz-adv-x="1718" 
d="M1673 842h-311v-480q0 -59 45.5 -95t118.5 -36q83 0 147 33v-233q-115 -51 -256 -51q-177 0 -286 96.5t-109 253.5v512h-483v-480q0 -59 45 -95t118 -36q84 0 148 33v-233q-115 -51 -256 -51q-177 0 -286 96.5t-109 253.5v512h-164v237h180v310h324v-310h499v310h324
v-310h311v-237z" />
    <glyph glyph-name=".notdef" horiz-adv-x="2609" 
d="M156 -20q-15 0 -25 10.5t-10 25.5q0 21 10 31l700 698h-663q-47 0 -47 39q0 16 14 33l696 701h-669q-41 0 -41 38v3q0 38 41 38h758q47 0 47 -41q0 -20 -17 -34l-698 -697h676q17 0 29 -12t12 -29v-669l694 692q13 16 35 16q37 0 37 -45v-663l696 692q13 16 33 16
q15 0 25 -12t10 -27q0 -18 -13 -28l-753 -762q-14 -14 -35 -14q-41 0 -41 47v663l-694 -696q-14 -14 -35 -14q-41 0 -41 47v663l-697 -696q-14 -14 -34 -14z" />
    <glyph glyph-name=".null" 
 />
    <glyph glyph-name="nonmarkingreturn" horiz-adv-x="682" 
 />
    <glyph glyph-name="CR" unicode="&#xd;" horiz-adv-x="456" 
 />
    <glyph glyph-name="space" unicode=" " horiz-adv-x="456" 
 />
    <glyph glyph-name="exclam" unicode="!" horiz-adv-x="614" 
d="M193 539l-70 1038h369l-70 -1038h-229zM307 -20q-91 0 -147 53.5t-56 142.5q0 88 56 141.5t147 53.5q92 0 147.5 -53.5t55.5 -141.5q0 -89 -55.5 -142.5t-147.5 -53.5z" />
    <glyph glyph-name="quotedbl" unicode="&#x22;" horiz-adv-x="950" 
d="M109 1061v516h311v-516h-311zM530 1061v516h312v-516h-312z" />
    <glyph glyph-name="numbersign" unicode="#" horiz-adv-x="1699" 
d="M1610 983h-215l-39 -360h221l-31 -267h-219l-39 -356h-350l37 356h-350l-37 -356h-350l38 356h-217l29 267h219l41 360h-221l29 264h221l37 330h350l-39 -330h348l35 330h350l-35 -330h217zM647 612h359l41 377h-357z" />
    <glyph glyph-name="dollar" unicode="$" horiz-adv-x="1462" 
d="M1403 500q0 -222 -169 -364t-448 -154v-211h-106v211q-262 15 -430 163.5t-187 382.5h351q9 -106 80.5 -176.5t185.5 -87.5v406h-2q-66 9 -113.5 18t-111.5 26t-109 37.5t-93 54t-77.5 74.5t-48.5 99.5t-19 128.5q0 210 156.5 341.5t417.5 145.5v207h106v-207
q240 -14 396.5 -156t175.5 -366h-352q-4 93 -63.5 157t-156.5 81v-355l23 -4q69 -10 118 -19t116 -27t113.5 -39t96.5 -55.5t80 -76.5t50 -102.5t20 -132.5zM467 1137q0 -67 55 -104t158 -58v340q-97 -8 -155 -55.5t-58 -122.5zM786 262q116 9 185 62.5t69 136.5
q0 36 -13 64.5t-34.5 48t-55.5 34.5t-69 24.5t-82 18.5v-389z" />
    <glyph glyph-name="percent" unicode="%" horiz-adv-x="1638" 
d="M389 840q-149 0 -239.5 104t-90.5 275q0 170 90.5 274t239.5 104q150 0 241 -103.5t91 -274.5t-91 -275t-241 -104zM162 0l1061 1577h250l-1061 -1577h-250zM391 1030q43 0 68.5 51.5t25.5 137.5t-25.5 137t-68.5 51q-44 0 -70 -51t-26 -137t26 -137.5t70 -51.5z
M1247 -20q-149 0 -239 103.5t-90 274.5t90 275t239 104q150 0 241 -104t91 -275t-91 -274.5t-241 -103.5zM1247 170q43 0 69.5 51t26.5 137t-26.5 137.5t-69.5 51.5t-69.5 -51.5t-26.5 -137.5t26.5 -137t69.5 -51z" />
    <glyph glyph-name="ampersand" unicode="&#x26;" horiz-adv-x="1632" 
d="M1620 190l-193 -210l-256 223q-102 -102 -248 -162.5t-296 -60.5q-229 0 -368.5 120t-139.5 316q0 84 22.5 155.5t64 126.5t89.5 96t111 78q-193 196 -193 340q0 173 133.5 279t353.5 106q218 0 352 -104t134 -274q0 -57 -19 -107t-47.5 -85.5t-75.5 -71t-88.5 -58.5
t-101.5 -53l285 -242q53 126 71 250h287q-21 -239 -135 -442zM541 1206q0 -71 127 -198q99 49 149.5 95.5t50.5 108.5q0 66 -44.5 106t-118.5 40t-119 -42t-45 -110zM676 242q81 0 161 34t144 93l-383 331q-145 -103 -145 -256q0 -91 61.5 -146.5t161.5 -55.5z" />
    <glyph glyph-name="quotesingle" unicode="'" horiz-adv-x="528" 
d="M109 1061v516h311v-516h-311z" />
    <glyph glyph-name="parenleft" unicode="(" horiz-adv-x="698" 
d="M354 -471q-130 204 -203 474.5t-73 549.5t73 549.5t203 474.5h316q-129 -219 -202 -489.5t-73 -534.5q0 -267 73 -537.5t202 -486.5h-316z" />
    <glyph glyph-name="parenright" unicode=")" horiz-adv-x="696" 
d="M344 -471h-315q129 215 201.5 486t72.5 538q0 264 -72.5 535t-201.5 489h315q130 -204 203.5 -475t73.5 -549t-73.5 -549t-203.5 -475z" />
    <glyph glyph-name="asterisk" unicode="*" horiz-adv-x="792" 
d="M721 1280l-199 -57l127 -164l-137 -98l-115 169l-116 -169l-138 98l127 164l-198 57l51 160l196 -70l-6 207h168l-6 -207l195 70z" />
    <glyph glyph-name="plus" unicode="+" horiz-adv-x="1028" 
d="M954 643v-254h-270v-313h-340v313h-270v254h270v313h340v-313h270z" />
    <glyph glyph-name="comma" unicode="," horiz-adv-x="575" 
d="M281 371q98 0 158.5 -71t60.5 -187q0 -183 -118 -302.5t-312 -134.5l-15 97q115 4 196 66.5t107 164.5q-56 -24 -110 -24q-77 0 -124.5 53t-47.5 139q0 89 56.5 144t148.5 55z" />
    <glyph glyph-name="hyphen" unicode="-" horiz-adv-x="897" 
d="M113 430v238h671v-238h-671z" />
    <glyph glyph-name="period" unicode="." horiz-adv-x="569" 
d="M287 -20q-93 0 -149 53.5t-56 142.5q0 88 56.5 141.5t148.5 53.5q91 0 145.5 -53.5t54.5 -141.5q0 -89 -54.5 -142.5t-145.5 -53.5z" />
    <glyph glyph-name="slash" unicode="/" horiz-adv-x="925" 
d="M287 -471h-244l598 2048h242z" />
    <glyph glyph-name="zero" unicode="0" horiz-adv-x="1433" 
d="M717 -20q-298 0 -465.5 213.5t-167.5 594.5q0 382 167.5 595.5t465.5 213.5q297 0 465 -213.5t168 -595.5q0 -380 -168 -594t-465 -214zM717 260q125 0 194.5 139.5t69.5 388.5t-70 389t-194 140q-126 0 -196 -140t-70 -389t70 -388.5t196 -139.5z" />
    <glyph glyph-name="one" unicode="1" horiz-adv-x="901" 
d="M502 1577h241v-1577h-354v1092h-356v229q203 0 309.5 59.5t159.5 196.5z" />
    <glyph glyph-name="two" unicode="2" horiz-adv-x="1341" 
d="M451 274h819v-274h-1196v291q366 203 569 424t203 418q0 83 -50.5 133.5t-133.5 50.5q-95 0 -158 -66t-72 -174h-342q19 233 178 376.5t398 143.5q255 0 410 -132t155 -347q0 -127 -67 -254t-180.5 -234t-248 -195.5t-284.5 -155.5v-5z" />
    <glyph glyph-name="three" unicode="3" horiz-adv-x="1331" 
d="M928 809q152 -46 237.5 -140t85.5 -220q0 -211 -168 -340t-444 -129q-243 0 -403 141t-175 371h345q1 -104 67 -168t172 -64q107 0 172.5 58t65.5 153q0 97 -70.5 155t-187.5 58h-39v242h32q100 0 160 54.5t60 143.5q0 88 -54 140.5t-145 52.5t-148.5 -63.5t-60.5 -166.5
h-336q15 230 167.5 370t387.5 140q250 0 403.5 -123.5t153.5 -324.5q0 -114 -73 -201t-205 -135v-4z" />
    <glyph glyph-name="four" unicode="4" horiz-adv-x="1400" 
d="M1337 608v-272h-204v-336h-355v336h-739v289l661 952h433v-969h204zM782 1231l-424 -617v-6h428v623h-4z" />
    <glyph glyph-name="five" unicode="5" horiz-adv-x="1343" 
d="M807 1044q215 0 347 -143t132 -377q0 -245 -170.5 -394.5t-449.5 -149.5q-245 0 -407.5 126.5t-184.5 333.5h348q12 -82 79 -131t165 -49q114 0 183 72.5t69 191.5q0 118 -68 191t-178 73q-79 0 -145 -49t-95 -129h-346l127 967h958v-274h-647l-61 -388l4 -2
q134 131 340 131z" />
    <glyph glyph-name="six" unicode="6" horiz-adv-x="1419" 
d="M877 1020q219 0 341.5 -126.5t122.5 -352.5q0 -263 -165 -412t-453 -149q-310 0 -474.5 205t-164.5 591q0 387 174.5 604t486.5 217q245 0 392.5 -119t167.5 -333h-344q-12 82 -68.5 127t-147.5 45q-138 0 -217.5 -132.5t-85.5 -369.5h4q62 99 172 152t259 53zM731 260
q114 0 179 66t65 184q0 117 -65 182.5t-179 65.5q-115 0 -179.5 -64t-64.5 -180q0 -117 67 -185.5t177 -68.5z" />
    <glyph glyph-name="seven" unicode="7" horiz-adv-x="1210" 
d="M1174 1577v-289q-225 -243 -351.5 -584t-126.5 -704h-368q0 359 144.5 702.5t401.5 595.5v5h-847v274h1147z" />
    <glyph glyph-name="eight" unicode="8" horiz-adv-x="1378" 
d="M1006 823q138 -52 215 -147.5t77 -222.5q0 -214 -167.5 -343.5t-442.5 -129.5q-274 0 -442 130t-168 343q0 127 78 223.5t217 146.5v4q-116 48 -180 133t-64 197q0 198 154 319t405 121q252 0 405.5 -121t153.5 -319q0 -112 -63 -197t-178 -133v-4zM688 1317
q-88 0 -141 -51t-53 -136t53 -135.5t141 -50.5t141.5 51t53.5 135q0 85 -53.5 136t-141.5 51zM688 260q109 0 175.5 60.5t66.5 158.5t-66.5 158.5t-175.5 60.5t-176.5 -60.5t-67.5 -158.5t67.5 -158.5t176.5 -60.5z" />
    <glyph glyph-name="nine" unicode="9" horiz-adv-x="1425" 
d="M688 1597q316 0 484.5 -205t168.5 -591q0 -387 -174.5 -604t-486.5 -217q-254 0 -407 130.5t-175 364.5h344q12 -100 73 -157.5t159 -57.5q148 0 228.5 141t80.5 396h-4q-125 -195 -430 -195q-220 0 -342.5 121t-122.5 336q0 253 161 395.5t443 142.5zM694 864
q115 0 179.5 58t64.5 163t-67.5 168.5t-176.5 63.5q-115 0 -179 -59.5t-64 -167.5q0 -107 64.5 -166.5t178.5 -59.5z" />
    <glyph glyph-name="colon" unicode=":" horiz-adv-x="608" 
d="M305 709q-93 0 -149 53.5t-56 142.5q0 88 56.5 141.5t148.5 53.5q91 0 146 -53.5t55 -141.5q0 -89 -55 -142.5t-146 -53.5zM305 -20q-93 0 -149 53.5t-56 142.5q0 88 56.5 141.5t148.5 53.5q91 0 146 -53.5t55 -141.5q0 -89 -55 -142.5t-146 -53.5z" />
    <glyph glyph-name="semicolon" unicode=";" horiz-adv-x="630" 
d="M311 709q-93 0 -149 53.5t-56 142.5q0 88 56.5 141.5t148.5 53.5q91 0 146 -53.5t55 -141.5q0 -89 -55 -142.5t-146 -53.5zM313 371q98 0 158.5 -71t60.5 -187q0 -183 -118 -302.5t-312 -134.5l-14 97q115 4 196 66.5t107 164.5q-55 -24 -110 -24q-77 0 -124.5 53
t-47.5 139q0 89 56 144t148 55z" />
    <glyph glyph-name="less" unicode="&#x3c;" horiz-adv-x="1062" 
d="M946 995v-268l-588 -209l588 -209v-268l-880 360v232z" />
    <glyph glyph-name="equal" unicode="=" horiz-adv-x="1118" 
d="M119 584v254h880v-254h-880zM119 195v254h880v-254h-880z" />
    <glyph glyph-name="greater" unicode="&#x3e;" horiz-adv-x="1062" 
d="M117 995l880 -362v-232l-880 -360v268l588 209l-588 209v268z" />
    <glyph glyph-name="question" unicode="?" horiz-adv-x="1202" 
d="M420 537v14q0 50 14.5 95.5t47 92.5t55.5 74t69 78q54 56 80.5 87.5t52 82.5t25.5 100q0 69 -49 112.5t-127 43.5q-83 0 -137 -54.5t-60 -142.5h-336q15 213 166.5 345t380.5 132q243 0 391 -110.5t148 -292.5q0 -36 -8.5 -71.5t-20 -62.5t-35 -59t-40 -51.5t-50 -50
t-49.5 -44t-53 -44.5q-46 -39 -60.5 -52t-49 -48t-47.5 -56t-25.5 -53.5t-12.5 -64.5h-270zM555 -20q-93 0 -149 53.5t-56 142.5q0 88 56.5 141.5t148.5 53.5q91 0 146 -53.5t55 -141.5q0 -89 -55 -142.5t-146 -53.5z" />
    <glyph glyph-name="at" unicode="@" horiz-adv-x="2332" 
d="M1417 1040h324l-123 -694q0 -32 27 -51t71 -19q132 0 212.5 123t80.5 324q0 299 -212 482.5t-558 183.5q-205 0 -377 -66.5t-292 -186.5t-186.5 -292t-66.5 -377q0 -222 102 -392.5t288.5 -264t429.5 -93.5q137 0 302 35.5t298 93.5l75 -202q-142 -61 -328 -98.5
t-347 -37.5q-239 0 -439.5 69.5t-340 194t-217 303.5t-77.5 392q0 336 146 592.5t413 397t617 140.5q304 0 536.5 -108.5t360 -307.5t127.5 -458q0 -295 -173 -475t-456 -180q-138 0 -236.5 45.5t-121.5 119.5h-4q-51 -75 -147.5 -120t-202.5 -45q-147 0 -236.5 103.5
t-89.5 274.5q0 276 138 444.5t364 168.5q105 0 185 -46t106 -122h2zM1100 322q90 0 157 61.5t89 165.5l2 12l-2 -8l2 8q1 3 2 9.5t2 9.5l16 98l-16 -98q2 16 2 47q0 81 -46 129.5t-122 48.5q-114 0 -183 -81.5t-69 -215.5q0 -84 46 -135t120 -51z" />
    <glyph glyph-name="A" unicode="A" horiz-adv-x="1515" 
d="M1153 0l-111 334h-589l-113 -334h-352l575 1577h391l574 -1577h-375zM543 606h409l-202 606h-5z" />
    <glyph glyph-name="B" unicode="B" horiz-adv-x="1521" 
d="M1135 813q152 -45 237.5 -138.5t85.5 -219.5q0 -204 -167.5 -329.5t-440.5 -125.5h-698v1577h651q263 0 424.5 -120t161.5 -316q0 -108 -66.5 -192t-187.5 -132v-4zM819 1303h-313v-377h313q91 0 146 52t55 138q0 84 -55.5 135.5t-145.5 51.5zM866 274q100 0 162 56.5
t62 148.5t-62 148.5t-162 56.5h-360v-410h360z" />
    <glyph glyph-name="C" unicode="C" horiz-adv-x="1673" 
d="M868 -20q-236 0 -416.5 100.5t-279 284t-98.5 423.5t98.5 424t279 284.5t416.5 100.5q310 0 515 -167t231 -441h-346q-19 148 -128.5 238t-271.5 90q-192 0 -310 -145.5t-118 -383.5t118 -383t310 -145q162 0 271.5 90t128.5 238h346q-17 -181 -116 -319.5t-262.5 -213.5
t-367.5 -75z" />
    <glyph glyph-name="D" unicode="D" horiz-adv-x="1579" 
d="M152 0v1577h538q181 0 333 -57t258 -159.5t165 -250t59 -322.5q0 -234 -101.5 -413t-286.5 -277t-427 -98h-538zM506 274h203q193 0 310.5 141t117.5 373t-117.5 373.5t-310.5 141.5h-203v-1029z" />
    <glyph glyph-name="E" unicode="E" horiz-adv-x="1411" 
d="M506 274h823v-274h-1177v1577h1153v-274h-799v-359h725v-274h-725v-396z" />
    <glyph glyph-name="F" unicode="F" horiz-adv-x="1302" 
d="M1247 1303h-741v-381h629v-271h-629v-651h-354v1577h1095v-274z" />
    <glyph glyph-name="G" unicode="G" horiz-adv-x="1695" 
d="M856 842h762v-84q0 -350 -206 -564t-544 -214q-236 0 -416.5 100.5t-279 284t-98.5 423.5t98.5 424t279 284.5t416.5 100.5q306 0 509 -162t229 -427h-340q-19 140 -128 224.5t-270 84.5q-192 0 -310 -145.5t-118 -383.5t118 -383t310 -145q159 0 265 94t129 254h-406
v234z" />
    <glyph glyph-name="H" unicode="H" horiz-adv-x="1624" 
d="M1116 1577h357v-1577h-357v662h-610v-662h-354v1577h354v-641h610v641z" />
    <glyph glyph-name="I" unicode="I" horiz-adv-x="657" 
d="M152 0v1577h354v-1577h-354z" />
    <glyph glyph-name="J" unicode="J" horiz-adv-x="1245" 
d="M563 -20q-229 0 -374 160t-156 423h329q7 -136 65.5 -219.5t145.5 -83.5q80 0 129.5 65t49.5 171v1081h356v-1061q0 -242 -149.5 -389t-395.5 -147z" />
    <glyph glyph-name="K" unicode="K" horiz-adv-x="1501" 
d="M152 0v1577h354v-1577h-354zM944 854l596 -854h-418l-583 819l514 758h395z" />
    <glyph glyph-name="L" unicode="L" horiz-adv-x="1226" 
d="M506 283h684v-283h-1038v1577h354v-1294z" />
    <glyph glyph-name="M" unicode="M" horiz-adv-x="2045" 
d="M1415 1577h479v-1577h-354l10 1153h-4l-409 -1153h-271l-385 1153h-4l10 -1153h-335v1577h483l377 -1157h4z" />
    <glyph glyph-name="N" unicode="N" horiz-adv-x="1624" 
d="M1135 1577h338v-1577h-332l-658 1028h-4l10 -1028h-337v1577h331l658 -1030h4z" />
    <glyph glyph-name="O" unicode="O" horiz-adv-x="1742" 
d="M872 -20q-237 0 -418.5 100.5t-280.5 284t-99 423.5q0 180 57.5 330.5t161.5 256t252.5 164t326.5 58.5q236 0 417 -100.5t280.5 -284.5t99.5 -424q0 -363 -219.5 -585.5t-577.5 -222.5zM872 260q194 0 312.5 145t118.5 383t-118.5 383.5t-312.5 145.5
q-195 0 -313.5 -145.5t-118.5 -383.5t118.5 -383t313.5 -145z" />
    <glyph glyph-name="P" unicode="P" horiz-adv-x="1425" 
d="M770 1577q275 0 442.5 -139t167.5 -367t-167.5 -367t-442.5 -139h-264v-565h-354v1577h618zM784 838q103 0 166.5 64t63.5 169q0 104 -63 168t-165 64h-280v-465h278z" />
    <glyph glyph-name="Q" unicode="Q" horiz-adv-x="1742" 
d="M1669 788q0 -215 -79.5 -384.5t-225.5 -276.5l121 -115l-193 -221l-219 209q-90 -20 -201 -20q-237 0 -418.5 100.5t-280.5 284t-99 423.5q0 180 57.5 330.5t161.5 256t252.5 164t326.5 58.5q236 0 417 -100.5t280.5 -284.5t99.5 -424zM440 788q0 -211 95 -351t256 -169
l-78 74l192 219l223 -211q84 68 129.5 180.5t45.5 257.5q0 238 -118.5 383.5t-312.5 145.5q-195 0 -313.5 -145.5t-118.5 -383.5z" />
    <glyph glyph-name="R" unicode="R" horiz-adv-x="1521" 
d="M1083 0l-305 618h-272v-618h-354v1577h645q279 0 449.5 -126.5t170.5 -332.5q0 -150 -79 -263.5t-220 -174.5l361 -680h-396zM506 1303v-426h309q106 0 171 59.5t65 157.5q0 94 -66 151.5t-172 57.5h-307z" />
    <glyph glyph-name="S" unicode="S" horiz-adv-x="1464" 
d="M729 -20q-283 0 -467.5 150.5t-204.5 397.5h351q11 -121 100.5 -194.5t228.5 -73.5q134 0 215.5 55t81.5 146q0 32 -11 58t-26.5 44.5t-45 34.5t-55 25.5t-69.5 19t-73.5 14.5t-81.5 13q-66 9 -113.5 18t-111.5 26t-109 37.5t-93 54t-77.5 74.5t-48.5 99.5t-19 128.5
q0 221 173 355t456 134q260 0 431.5 -144t191.5 -380h-353q-5 109 -84 176.5t-204 67.5q-113 0 -181.5 -49t-68.5 -131q0 -27 10 -49t25.5 -38.5t42 -30.5t52 -23t64.5 -17.5t70.5 -14t77.5 -12.5q69 -10 118 -19t116 -27t113.5 -39t96.5 -55.5t80 -76.5t50 -102.5
t20 -132.5q0 -233 -184.5 -376.5t-483.5 -143.5z" />
    <glyph glyph-name="T" unicode="T" horiz-adv-x="1314" 
d="M1284 1577v-274h-448v-1303h-357v1303h-448v274h1253z" />
    <glyph glyph-name="U" unicode="U" horiz-adv-x="1554" 
d="M776 -20q-289 0 -465 165t-176 435v997h354v-1014q0 -136 81.5 -219.5t215.5 -83.5t215.5 83.5t81.5 219.5v1014h338v-997q0 -270 -177.5 -435t-467.5 -165z" />
    <glyph glyph-name="V" unicode="V" horiz-adv-x="1456" 
d="M1104 1577h354l-518 -1577h-424l-518 1577h377l362 -1212h4z" />
    <glyph glyph-name="W" unicode="W" horiz-adv-x="2187" 
d="M1823 1577h354l-405 -1577h-426l-250 1130h-4l-250 -1130h-424l-406 1577h377l264 -1194h4l269 1194h358l266 -1194h4z" />
    <glyph glyph-name="X" unicode="X" horiz-adv-x="1474" 
d="M-16 0l546 819l-499 758h428l289 -492h4l295 492h399l-500 -756l545 -821h-436l-328 553h-4l-332 -553h-407z" />
    <glyph glyph-name="Y" unicode="Y" horiz-adv-x="1507" 
d="M1530 1577l-606 -1030v-547h-355v551l-592 1026h408l381 -709h4l377 709h383z" />
    <glyph glyph-name="Z" unicode="Z" horiz-adv-x="1386" 
d="M481 274h840v-274h-1266v289l813 1009v5h-759v274h1183v-289l-811 -1009v-5z" />
    <glyph glyph-name="bracketleft" unicode="[" horiz-adv-x="774" 
d="M715 1305h-207v-1504h207v-272h-563v2048h563v-272z" />
    <glyph glyph-name="backslash" unicode="\" horiz-adv-x="925" 
d="M639 -471l-596 2048h242l598 -2048h-244z" />
    <glyph glyph-name="bracketright" unicode="]" horiz-adv-x="774" 
d="M623 1577v-2048h-564v272h207v1504h-207v272h564z" />
    <glyph glyph-name="asciicircum" unicode="^" horiz-adv-x="1173" 
d="M723 1577l387 -752h-281l-239 510h-4l-240 -510h-283l388 752h272z" />
    <glyph glyph-name="underscore" unicode="_" horiz-adv-x="1271" 
d="M78 -225v178h1116v-178h-1116z" />
    <glyph glyph-name="grave" unicode="`" horiz-adv-x="534" 
d="M479 1171h-254l-272 357h344z" />
    <glyph glyph-name="a" unicode="a" horiz-adv-x="1351" 
d="M887 1079h340v-1079h-340v176h-4q-42 -89 -143 -142.5t-220 -53.5q-203 0 -326.5 154t-123.5 407q0 252 124 405.5t328 153.5q118 0 217.5 -54t143.5 -145h4v178zM651 246q106 0 171 81.5t65 213.5q0 131 -65 212t-171 81q-105 0 -169 -81t-64 -212q0 -132 64 -213.5
t169 -81.5z" />
    <glyph glyph-name="b" unicode="b" horiz-adv-x="1351" 
d="M831 1100q203 0 327 -153.5t124 -405.5q0 -253 -123.5 -407t-324.5 -154q-120 0 -220.5 53.5t-144.5 142.5h-4v-176h-340v1577h340v-676h4q45 92 144 145.5t218 53.5zM700 246q106 0 171 81.5t65 213.5q0 131 -65 212t-171 81q-105 0 -170 -81t-65 -212
q0 -132 64.5 -213.5t170.5 -81.5z" />
    <glyph glyph-name="c" unicode="c" horiz-adv-x="1251" 
d="M643 -20q-260 0 -418.5 154t-158.5 407q0 252 158.5 405.5t418.5 153.5q221 0 373 -120t178 -316h-334q-14 77 -73 123.5t-144 46.5q-104 0 -166.5 -81t-62.5 -212t62.5 -212t166.5 -81q86 0 146.5 45t72.5 119h334q-25 -195 -177 -313.5t-376 -118.5z" />
    <glyph glyph-name="d" unicode="d" horiz-adv-x="1351" 
d="M887 1577h340v-1577h-340v176h-4q-42 -89 -143 -142.5t-220 -53.5q-203 0 -326.5 154t-123.5 407q0 252 124 405.5t328 153.5q118 0 217.5 -54t143.5 -145h4v676zM651 246q106 0 171 81.5t65 213.5q0 131 -65 212t-171 81q-105 0 -169 -81t-64 -212q0 -132 64 -213.5
t169 -81.5z" />
    <glyph glyph-name="e" unicode="e" horiz-adv-x="1273" 
d="M1206 524v-39h-811q14 -122 79.5 -195t164.5 -73q84 0 148.5 44.5t86.5 115.5h328q-34 -179 -188.5 -288t-374.5 -109q-258 0 -415.5 154.5t-157.5 406.5t157.5 405.5t415.5 153.5q256 0 411.5 -158t155.5 -418zM639 872q-90 0 -153 -61.5t-83 -167.5h465
q-20 107 -80.5 168t-148.5 61z" />
    <glyph glyph-name="f" unicode="f" horiz-adv-x="876" 
d="M731 1352q-81 0 -130.5 -51.5t-49.5 -135.5v-86h311v-237h-311v-842h-340v842h-164v237h164v68q0 203 122.5 326.5t323.5 123.5q153 0 236 -36v-244q-72 35 -162 35z" />
    <glyph glyph-name="g" unicode="g" horiz-adv-x="1351" 
d="M887 1079h340v-1081q0 -220 -157.5 -355t-414.5 -135q-223 0 -370 113.5t-166 300.5h323q10 -66 68.5 -105.5t144.5 -39.5q104 0 168 56.5t64 148.5v194h-4q-42 -89 -143 -142.5t-220 -53.5q-203 0 -326.5 154t-123.5 407q0 252 124 405.5t328 153.5q118 0 217.5 -54
t143.5 -145h4v178zM651 246q106 0 171 81.5t65 213.5q0 131 -65 212t-171 81q-105 0 -169 -81t-64 -212q0 -132 64 -213.5t169 -81.5z" />
    <glyph glyph-name="h" unicode="h" horiz-adv-x="1304" 
d="M838 1100q158 0 255 -111.5t97 -294.5v-694h-340v633q0 91 -49 146t-131 55q-92 0 -148.5 -66t-56.5 -172v-596h-340v1577h340v-672h4q49 89 150 142t219 53z" />
    <glyph glyph-name="i" unicode="i" horiz-adv-x="593" 
d="M293 1231q-86 0 -138.5 50t-52.5 132q0 79 52.5 127.5t138.5 48.5t139 -48.5t53 -127.5q0 -82 -53 -132t-139 -50zM127 0v1079h340v-1079h-340z" />
    <glyph glyph-name="j" unicode="j" horiz-adv-x="593" 
d="M293 1231q-86 0 -138.5 50t-52.5 132q0 79 52.5 127.5t138.5 48.5t139 -48.5t53 -127.5q0 -82 -53 -132t-139 -50zM127 -471v1550h340v-1550h-340z" />
    <glyph glyph-name="k" unicode="k" horiz-adv-x="1298" 
d="M125 0v1577h340v-1577h-340zM866 594l463 -594h-389l-448 584l382 495h379z" />
    <glyph glyph-name="l" unicode="l" horiz-adv-x="593" 
d="M127 0v1577h340v-1577h-340z" />
    <glyph glyph-name="m" unicode="m" horiz-adv-x="1949" 
d="M1501 1100q151 0 242.5 -109.5t91.5 -288.5v-702h-340v641q0 86 -45.5 139.5t-118.5 53.5q-81 0 -131.5 -64.5t-50.5 -167.5v-602h-340v641q0 87 -44.5 140t-117.5 53q-81 0 -131.5 -64.5t-50.5 -167.5v-602h-340v1079h340v-174h4q46 89 140.5 142t207.5 53
q108 0 187 -58t116 -163h4q56 102 157.5 161.5t219.5 59.5z" />
    <glyph glyph-name="n" unicode="n" horiz-adv-x="1304" 
d="M838 1100q158 0 255 -111.5t97 -294.5v-694h-340v633q0 91 -49 146t-131 55q-92 0 -148.5 -66t-56.5 -172v-596h-340v1079h340v-174h4q49 89 150 142t219 53z" />
    <glyph glyph-name="o" unicode="o" horiz-adv-x="1296" 
d="M649 -20q-263 0 -423 154t-160 407q0 252 160 405.5t423 153.5q261 0 421.5 -153.5t160.5 -405.5q0 -253 -160.5 -407t-421.5 -154zM649 248q106 0 171 81t65 212t-65 212t-171 81q-105 0 -170 -81t-65 -212t65 -212t170 -81z" />
    <glyph glyph-name="p" unicode="p" horiz-adv-x="1351" 
d="M834 1100q201 0 324.5 -153.5t123.5 -405.5q0 -253 -124 -407t-327 -154q-120 0 -219 53.5t-143 142.5h-4v-647h-340v1550h340v-178h4q45 92 144.5 145.5t220.5 53.5zM700 246q106 0 171 81.5t65 213.5q0 131 -65 212t-171 81q-105 0 -170 -81t-65 -212
q0 -132 64.5 -213.5t170.5 -81.5z" />
    <glyph glyph-name="q" unicode="q" horiz-adv-x="1351" 
d="M887 1079h340v-1550h-340v647h-4q-42 -89 -142 -142.5t-219 -53.5q-204 0 -328 154t-124 407q0 252 123.5 405.5t326.5 153.5q120 0 219.5 -54t143.5 -145h4v178zM651 246q106 0 171 81.5t65 213.5q0 131 -65 212t-171 81q-105 0 -169 -81t-64 -212q0 -132 64 -213.5
t169 -81.5z" />
    <glyph glyph-name="r" unicode="r" horiz-adv-x="948" 
d="M793 1100q71 0 129 -21v-311q-75 35 -191 35q-120 0 -193 -88.5t-73 -233.5v-481h-340v1079h340v-221h4q37 109 126 175.5t198 66.5z" />
    <glyph glyph-name="s" unicode="s" horiz-adv-x="1144" 
d="M569 -20q-222 0 -363.5 98t-150.5 258h316q3 -68 57 -109t141 -41q86 0 137.5 33.5t51.5 87.5q0 33 -18.5 56t-59 38t-75.5 22.5t-97 16.5q-42 6 -73.5 12t-72.5 16t-72 23t-65 30t-57.5 40.5t-43.5 52t-30 66.5t-10 82q0 152 133.5 245t351.5 93q211 0 345 -94.5
t141 -249.5h-314q-3 63 -50.5 101t-121.5 38q-72 0 -115.5 -28t-43.5 -74q0 -28 17.5 -48.5t55 -34t73.5 -21.5t93 -17q49 -8 85.5 -15t84.5 -20.5t82.5 -29.5t71 -41t59 -55.5t37 -73t14.5 -93.5q0 -164 -141 -264t-373 -100z" />
    <glyph glyph-name="t" unicode="t" horiz-adv-x="894" 
d="M850 842h-311v-480q0 -59 45 -95t118 -36q84 0 148 33v-233q-115 -51 -256 -51q-177 0 -286 96.5t-109 253.5v512h-164v237h180v310h324v-310h311v-237z" />
    <glyph glyph-name="u" unicode="u" horiz-adv-x="1267" 
d="M635 -20q-235 0 -379.5 122.5t-144.5 321.5v655h340v-620q0 -97 50.5 -155t133.5 -58q82 0 132 58.5t50 154.5v620h340v-655q0 -199 -144 -321.5t-378 -122.5z" />
    <glyph glyph-name="v" unicode="v" horiz-adv-x="1214" 
d="M860 1079h344l-397 -1079h-399l-400 1079h352l250 -770h4z" />
    <glyph glyph-name="w" unicode="w" horiz-adv-x="1736" 
d="M1382 1079h344l-340 -1079h-350l-166 719h-4l-164 -719h-350l-340 1079h353l174 -721h4l170 721h321l172 -721h4z" />
    <glyph glyph-name="x" unicode="x" horiz-adv-x="1165" 
d="M-10 0l407 563l-362 516h373l180 -280h4l184 280h359l-367 -512l408 -567h-388l-213 328h-4l-217 -328h-364z" />
    <glyph glyph-name="y" unicode="y" horiz-adv-x="1212" 
d="M860 1079h344l-571 -1550h-328l139 381l-436 1169h352l250 -770h4z" />
    <glyph glyph-name="z" unicode="z" horiz-adv-x="1097" 
d="M453 254h581v-254h-973v266l543 555v4h-510v254h916v-266l-557 -555v-4z" />
    <glyph glyph-name="braceleft" unicode="{" horiz-adv-x="757" 
d="M535 842q0 -184 -156 -287v-4q156 -103 156 -287v-313q0 -64 38.5 -104t100.5 -40v-278q-221 0 -356.5 120.5t-135.5 317.5v314q0 60 -35.5 96.5t-93.5 36.5v278q58 0 93.5 36.5t35.5 96.5v314q0 197 135.5 317.5t356.5 120.5v-279q-62 0 -100.5 -39.5t-38.5 -103.5v-313
z" />
    <glyph glyph-name="bar" unicode="|" horiz-adv-x="550" 
d="M152 -471v2253h247v-2253h-247z" />
    <glyph glyph-name="braceright" unicode="}" horiz-adv-x="757" 
d="M575 825q0 -60 35.5 -96.5t94.5 -36.5v-278q-59 0 -94.5 -36.5t-35.5 -96.5v-314q0 -197 -135 -317.5t-356 -120.5v278q62 0 100.5 40t38.5 104v313q0 184 156 287v4q-156 103 -156 287v313q0 64 -38.5 103.5t-100.5 39.5v279q221 0 356 -120.5t135 -317.5v-314z" />
    <glyph glyph-name="asciitilde" unicode="~" horiz-adv-x="1257" 
d="M100 328q3 164 87.5 256t230.5 92q93 0 179.5 -22.5t163 -45t144.5 -22.5q46 0 75.5 26t35.5 72h137q-1 -164 -85.5 -256t-231.5 -92q-93 0 -180 22t-163 44t-143 22q-47 0 -76.5 -25.5t-35.5 -70.5h-138z" />
    <glyph glyph-name="uni00A0" unicode="&#xa0;" horiz-adv-x="456" 
 />
    <glyph glyph-name="exclamdown" unicode="&#xa1;" horiz-adv-x="583" 
d="M293 709q-91 0 -147 54t-56 142t56 141.5t147 53.5q92 0 147.5 -53.5t55.5 -141.5t-55.5 -142t-147.5 -54zM109 -471l67 1032h232l69 -1032h-368z" />
    <glyph glyph-name="cent" unicode="&#xa2;" horiz-adv-x="1275" 
d="M1210 616q-23 -182 -158.5 -298.5t-338.5 -131.5v-186h-107v186q-239 15 -382.5 166.5t-143.5 392.5q0 239 144 391t382 167v172h107v-172q200 -15 335 -133t160 -302h-334q-10 63 -54 106.5t-107 57.5v-573q65 12 109.5 54t54.5 103h333zM428 745q0 -114 47.5 -190.5
t130.5 -95.5v573q-83 -19 -130.5 -96t-47.5 -191z" />
    <glyph glyph-name="sterling" unicode="&#xa3;" horiz-adv-x="1392" 
d="M483 274h838v-274h-1237v291q129 59 189.5 139t70.5 184h-225v252h151q-34 63 -51 96.5t-35 90.5t-18 104q0 198 155 319t408 121q239 0 398 -143.5t178 -376.5h-342q-9 107 -72.5 173.5t-157.5 66.5q-83 0 -133.5 -49t-50.5 -129q0 -25 6 -50.5t21 -57.5t25 -51t34 -60
t31 -54h415v-252h-356q-26 -190 -242 -335v-5z" />
    <glyph glyph-name="currency" unicode="&#xa4;" horiz-adv-x="1282" 
d="M1112 690q0 -105 -37 -186l121 -123l-211 -213l-121 123q-98 -43 -221 -43q-125 0 -223 45l-123 -123l-211 211l123 125q-35 84 -35 184q0 101 35 182l-123 127l211 213l123 -125q105 46 223 46q121 0 221 -46l121 123l211 -211l-121 -122q37 -81 37 -187zM641 473
q89 0 143 60t54 157t-54 157t-143 60q-88 0 -141.5 -60t-53.5 -157t53.5 -157t141.5 -60z" />
    <glyph glyph-name="yen" unicode="&#xa5;" horiz-adv-x="1619" 
d="M1587 1577l-594 -1010h295v-100h-307v-105h307v-100h-307v-262h-354v262h-293v100h293v105h-293v100h284l-583 1010h407l381 -709h4l377 709h383z" />
    <glyph glyph-name="brokenbar" unicode="&#xa6;" horiz-adv-x="550" 
d="M152 860v922h247v-922h-247zM152 -471v922h247v-922h-247z" />
    <glyph glyph-name="section" unicode="&#xa7;" horiz-adv-x="1460" 
d="M1225 244q145 -84 145 -240q0 -223 -177.5 -359.5t-467.5 -136.5q-267 0 -446.5 143t-204.5 376h350q14 -108 98.5 -174t210.5 -66q125 0 201 48.5t76 127.5q0 80 -92 143q-77 -14 -175 -14q-283 0 -455.5 129.5t-172.5 341.5q0 198 153 326q-153 84 -153 244
q0 210 167 337t443 127q247 0 412.5 -135t191.5 -358h-350q-9 97 -84 156t-188 59q-103 0 -167.5 -43t-64.5 -113q0 -41 32.5 -77.5t90.5 -61.5q78 10 145 10q282 0 454.5 -129.5t172.5 -341.5q0 -193 -145 -319zM475 563q0 -86 74 -138t194 -52t193.5 52t73.5 138
q0 88 -73.5 140.5t-193.5 52.5t-194 -53t-74 -140z" />
    <glyph glyph-name="dieresis" unicode="&#xa8;" horiz-adv-x="1013" 
d="M287 1208q-79 0 -128.5 47.5t-49.5 124.5q0 76 49 123t129 47t129 -47t49 -123q0 -77 -49.5 -124.5t-128.5 -47.5zM727 1208q-81 0 -130.5 47.5t-49.5 124.5t49 123.5t131 46.5q80 0 129 -47t49 -123q0 -77 -49.5 -124.5t-128.5 -47.5z" />
    <glyph glyph-name="copyright" unicode="&#xa9;" horiz-adv-x="1806" 
d="M903 -20q-245 0 -432.5 100.5t-290 284t-102.5 423.5t102.5 424t290 284.5t432.5 100.5t433.5 -100.5t291.5 -284.5t103 -424t-103 -423.5t-291 -284t-434 -100.5zM903 174q274 0 440 168.5t166 445.5q0 278 -166 447.5t-440 169.5q-272 0 -439 -169.5t-167 -447.5
q0 -276 167 -445t439 -169zM909 383q-186 0 -298.5 110.5t-112.5 292.5t112.5 293t298.5 111q161 0 269 -89.5t125 -234.5h-267q-9 49 -44 79t-83 30q-60 0 -95.5 -52t-35.5 -137t35.5 -136.5t95.5 -51.5q48 0 83 28.5t42 75.5h271q-17 -144 -125.5 -231.5t-270.5 -87.5z
" />
    <glyph glyph-name="ordfeminine" unicode="&#xaa;" horiz-adv-x="843" 
d="M735 1112q7 0 31 6v-147q-55 -25 -135 -25q-52 0 -87 25.5t-46 70.5l-2 5h-2q-34 -47 -92.5 -74t-127.5 -27q-92 0 -148 47t-56 125q0 38 10.5 67.5t31.5 50.5t49 36.5t68.5 28.5t83 23t99.5 22q49 10 75 16v27q0 32 -22 52.5t-57 20.5q-43 0 -69 -22.5t-26 -59.5
l-211 11q3 92 89 149t223 57q130 0 209 -62t79 -163v-217q0 -18 9.5 -30.5t23.5 -12.5zM358 1083q61 0 95 30t34 81v45q-127 -28 -161 -47q-38 -23 -39 -55q0 -25 19.5 -39.5t51.5 -14.5z" />
    <glyph glyph-name="guillemotleft" unicode="&#xab;" horiz-adv-x="1224" 
d="M635 193h-334l-240 339l240 340h334l-227 -340zM1122 193h-334l-239 339l239 340h334l-227 -340z" />
    <glyph glyph-name="logicalnot" unicode="&#xac;" horiz-adv-x="1114" 
d="M109 801h880v-549h-340v295h-540v254z" />
    <glyph glyph-name="uni00AD" unicode="&#xad;" horiz-adv-x="897" 
d="M113 430v238h671v-238h-671z" />
    <glyph glyph-name="registered" unicode="&#xae;" horiz-adv-x="1056" 
d="M528 1597q204 0 328.5 -115.5t124.5 -305.5q0 -189 -124.5 -304.5t-328.5 -115.5t-328 115.5t-124 304.5q0 190 124 305.5t328 115.5zM528 852q153 0 246.5 89t93.5 235q0 147 -93.5 236t-246.5 89q-154 0 -247 -88.5t-93 -236.5q0 -146 93 -235t247 -89zM721 1247
q0 -35 -20 -63t-56 -43l100 -164h-137l-82 143h-65v-143h-129v397h211q80 0 129 -35t49 -92zM461 1280v-78h86q43 0 43 37q0 19 -11.5 30t-31.5 11h-86z" />
    <glyph glyph-name="macron" unicode="&#xaf;" horiz-adv-x="782" 
d="M33 1255v246h717v-246h-717z" />
    <glyph glyph-name="degree" unicode="&#xb0;" horiz-adv-x="724" 
d="M362 1047q-135 0 -219 76t-84 200q0 123 84 198.5t219 75.5t218.5 -75.5t83.5 -198.5q0 -124 -83.5 -200t-218.5 -76zM360 1208q46 0 73.5 31.5t27.5 83.5q0 51 -27.5 82t-73.5 31q-43 0 -69.5 -31t-26.5 -82q0 -52 26.5 -83.5t69.5 -31.5z" />
    <glyph glyph-name="plusminus" unicode="&#xb1;" horiz-adv-x="1105" 
d="M723 840h270v-252h-270v-207h-340v207h-270v252h270v207h340v-207zM113 0v254h880v-254h-880z" />
    <glyph glyph-name="acute" unicode="&#xb4;" horiz-adv-x="565" 
d="M55 1171l183 357h344l-273 -357h-254z" />
    <glyph glyph-name="paragraph" unicode="&#xb6;" horiz-adv-x="1525" 
d="M1341 1577v-2048h-266v1794h-270v-1794h-268v1081q-218 0 -351 133t-133 353q0 217 133 349t351 132h804z" />
    <glyph glyph-name="periodcentered" unicode="&#xb7;" horiz-adv-x="583" 
d="M293 367q-93 0 -149 53.5t-56 142.5q0 88 56.5 141.5t148.5 53.5q91 0 146 -53.5t55 -141.5q0 -89 -55 -142.5t-146 -53.5z" />
    <glyph glyph-name="cedilla" unicode="&#xb8;" horiz-adv-x="628" 
d="M371 -104q91 0 146.5 -48.5t55.5 -126.5q0 -96 -87 -154.5t-228 -58.5t-229 48v129q96 -52 188 -52q62 0 100.5 21.5t38.5 56.5q0 31 -19.5 49.5t-53.5 18.5q-24 0 -48.5 -11.5t-37.5 -29.5l-97 65l150 273l127 -76l-70 -111l2 -2q35 9 62 9z" />
    <glyph glyph-name="ordmasculine" unicode="&#xba;" horiz-adv-x="827" 
d="M414 946q-160 0 -257.5 89t-97.5 237q0 146 97.5 235.5t257.5 89.5q158 0 255 -89.5t97 -235.5q0 -147 -96.5 -236.5t-255.5 -89.5zM414 1124q54 0 87.5 41t33.5 107t-33.5 106.5t-87.5 40.5t-86.5 -40.5t-32.5 -106.5t32.5 -107t86.5 -41z" />
    <glyph glyph-name="guillemotright" unicode="&#xbb;" horiz-adv-x="1224" 
d="M102 193l228 339l-228 340h334l240 -340l-240 -339h-334zM590 193l227 339l-227 340h334l239 -340l-239 -339h-334z" />
    <glyph glyph-name="onequarter" unicode="&#xbc;" horiz-adv-x="1875" 
d="M258 692v582h-195v151q115 0 177.5 35.5t93.5 116.5h162v-885h-238zM1245 1577h250l-1061 -1577h-250zM1812 354v-180h-118v-174h-238v174h-420v191l369 520h289v-531h118zM1460 655l-213 -299v-2h215v301h-2z" />
    <glyph glyph-name="onehalf" unicode="&#xbd;" horiz-adv-x="1908" 
d="M256 692v582h-195v151q115 0 177.5 35.5t93.5 116.5h162v-885h-238zM1243 1577h250l-1061 -1577h-250zM1378 180h461v-180h-706v190q201 106 314.5 222.5t113.5 216.5q0 39 -22.5 61.5t-61.5 22.5q-46 0 -74.5 -29.5t-32.5 -81.5h-229q12 140 101.5 217.5t238.5 77.5
q159 0 247.5 -71.5t88.5 -200.5q0 -56 -26.5 -113t-70 -105t-101 -91.5t-118.5 -76.5t-123 -57v-2z" />
    <glyph glyph-name="threequarters" unicode="&#xbe;" horiz-adv-x="2101" 
d="M766 948q0 -126 -96 -197t-267 -71q-148 0 -238.5 76.5t-103.5 212.5h230q3 -50 34 -77.5t83 -27.5q54 0 83 26.5t29 74.5q0 47 -33 72.5t-92 25.5h-20v160h18q49 0 76 24.5t27 67.5t-24.5 66.5t-68.5 23.5q-43 0 -69 -27.5t-29 -77.5h-223q12 136 99.5 212.5t228.5 76.5
q157 0 244 -68t87 -190q0 -126 -141 -184v-2q166 -55 166 -197zM1475 1577h249l-1060 -1577h-250zM2042 354v-180h-119v-174h-237v174h-420v191l368 520h289v-531h119zM1690 655l-213 -299v-2h215v301h-2z" />
    <glyph glyph-name="questiondown" unicode="&#xbf;" horiz-adv-x="1087" 
d="M592 709q-92 0 -148.5 54t-56.5 142t56.5 141.5t148.5 53.5q91 0 146 -53.5t55 -141.5t-55 -142t-146 -54zM543 -492q-243 0 -391 108.5t-148 285.5q0 34 12 69.5t27.5 61.5t46.5 62t51 55t61.5 57.5t57.5 54.5q54 54 75.5 77t57.5 67t50 80t14 73h268v-12
q0 -182 -188 -385q-10 -11 -43.5 -49t-45 -52.5t-31.5 -43t-27 -51t-7 -46.5q0 -60 48 -96.5t126 -36.5q83 0 138 46.5t61 121.5h336q-17 -201 -168 -324t-381 -123z" />
    <glyph glyph-name="Agrave" unicode="&#xc0;" horiz-adv-x="1515" 
d="M924 1686h-254l-273 356h344zM1153 0l-111 334h-589l-113 -334h-352l575 1577h391l574 -1577h-375zM543 606h409l-202 606h-5z" />
    <glyph glyph-name="Aacute" unicode="&#xc1;" horiz-adv-x="1515" 
d="M1118 2042l-272 -356h-254l182 356h344zM1153 0l-111 334h-589l-113 -334h-352l575 1577h391l574 -1577h-375zM543 606h409l-202 606h-5z" />
    <glyph glyph-name="Acircumflex" unicode="&#xc2;" horiz-adv-x="1515" 
d="M756 1866l-123 -180h-258l225 352h313l226 -352h-258l-121 180h-4zM1153 0l-111 334h-589l-113 -334h-352l575 1577h391l574 -1577h-375zM543 606h409l-202 606h-5z" />
    <glyph glyph-name="Atilde" unicode="&#xc3;" horiz-adv-x="1515" 
d="M594 1792q-42 0 -69 -25.5t-33 -70.5h-138q1 163 74.5 254.5t200.5 91.5q56 0 109 -22t99 -44t85 -22q42 0 69 25.5t33 70.5h137q-3 -164 -75.5 -255t-198.5 -91q-56 0 -109 22t-99 44t-85 22zM1153 0l-111 334h-589l-113 -334h-352l575 1577h391l574 -1577h-375z
M543 606h409l-202 606h-5z" />
    <glyph glyph-name="Adieresis" unicode="&#xc4;" horiz-adv-x="1515" 
d="M539 1673q-80 0 -129.5 48t-49.5 124t49.5 123t129.5 47t129 -47t49 -123q0 -77 -49.5 -124.5t-128.5 -47.5zM979 1673q-81 0 -130.5 47.5t-49.5 124.5t49 123.5t131 46.5q80 0 129 -47t49 -123q0 -77 -49.5 -124.5t-128.5 -47.5zM1153 0l-111 334h-589l-113 -334h-352
l575 1577h391l574 -1577h-375zM543 606h409l-202 606h-5z" />
    <glyph glyph-name="Aring" unicode="&#xc5;" horiz-adv-x="1515" 
d="M756 1673q-127 0 -205 68.5t-78 181.5q0 114 77.5 183t205.5 69t205 -69t77 -183q0 -113 -77.5 -181.5t-204.5 -68.5zM756 2028q-43 0 -70 -29t-27 -76q0 -46 27 -74t70 -28q44 0 70 28t26 74q0 48 -26 76.5t-70 28.5zM1153 0l-111 334h-589l-113 -334h-352l575 1577h391
l574 -1577h-375zM543 606h409l-202 606h-5z" />
    <glyph glyph-name="AE" unicode="&#xc6;" horiz-adv-x="2301" 
d="M1434 274h784v-274h-1108l-51 334h-578l-168 -334h-354l776 1577h1460v-274h-950l66 -359h811v-272h-762zM618 608h398l-92 604h-4z" />
    <glyph glyph-name="Ccedilla" unicode="&#xc7;" horiz-adv-x="1673" 
d="M868 260q162 0 271.5 90t128.5 238h346q-25 -259 -209.5 -423t-468.5 -183l-57 -93l2 -2q35 9 61 9q91 0 147 -48.5t56 -126.5q0 -96 -87 -154.5t-229 -58.5q-141 0 -229 48v129q96 -52 188 -52q62 0 101 21.5t39 56.5q0 31 -20 49.5t-54 18.5q-24 0 -48.5 -11.5
t-37.5 -29.5l-96 65l98 181q-317 31 -506.5 249t-189.5 555q0 240 98.5 424t279 284.5t416.5 100.5q310 0 515 -167t231 -441h-346q-19 148 -128.5 238t-271.5 90q-192 0 -310 -145.5t-118 -383.5t118 -383t310 -145z" />
    <glyph glyph-name="Egrave" unicode="&#xc8;" horiz-adv-x="1411" 
d="M895 1686h-254l-272 356h344zM506 274h823v-274h-1177v1577h1153v-274h-799v-359h725v-274h-725v-396z" />
    <glyph glyph-name="Eacute" unicode="&#xc9;" horiz-adv-x="1411" 
d="M1090 2042l-273 -356h-254l182 356h345zM506 274h823v-274h-1177v1577h1153v-274h-799v-359h725v-274h-725v-396z" />
    <glyph glyph-name="Ecircumflex" unicode="&#xca;" horiz-adv-x="1411" 
d="M727 1866l-123 -180h-258l225 352h314l225 -352h-258l-121 180h-4zM506 274h823v-274h-1177v1577h1153v-274h-799v-359h725v-274h-725v-396z" />
    <glyph glyph-name="Edieresis" unicode="&#xcb;" horiz-adv-x="1411" 
d="M510 1673q-79 0 -128.5 47.5t-49.5 124.5q0 76 49 123t129 47t129 -47t49 -123q0 -77 -49.5 -124.5t-128.5 -47.5zM950 1673q-81 0 -130.5 47.5t-49.5 124.5t49 123.5t131 46.5q80 0 129 -47t49 -123q0 -77 -49.5 -124.5t-128.5 -47.5zM506 274h823v-274h-1177v1577h1153
v-274h-799v-359h725v-274h-725v-396z" />
    <glyph glyph-name="Igrave" unicode="&#xcc;" horiz-adv-x="657" 
d="M496 1686h-254l-273 356h344zM152 0v1577h354v-1577h-354z" />
    <glyph glyph-name="Iacute" unicode="&#xcd;" horiz-adv-x="657" 
d="M164 1686l182 356h344l-272 -356h-254zM152 0v1577h354v-1577h-354z" />
    <glyph glyph-name="Icircumflex" unicode="&#xce;" horiz-adv-x="657" 
d="M328 1866l-123 -180h-258l225 352h313l226 -352h-258l-121 180h-4zM152 0v1577h354v-1577h-354z" />
    <glyph glyph-name="Idieresis" unicode="&#xcf;" horiz-adv-x="657" 
d="M111 1673q-80 0 -129.5 48t-49.5 124t49.5 123t129.5 47t129 -47t49 -123q0 -77 -49.5 -124.5t-128.5 -47.5zM551 1673q-81 0 -130.5 47.5t-49.5 124.5t49 123.5t131 46.5q80 0 129 -47t49 -123q0 -77 -49.5 -124.5t-128.5 -47.5zM152 0v1577h354v-1577h-354z" />
    <glyph glyph-name="Eth" unicode="&#xd0;" horiz-adv-x="1599" 
d="M713 1577q181 0 333 -57t258 -159.5t165 -250t59 -322.5q0 -234 -101.5 -413t-286.5 -277t-427 -98h-539v682h-127v238h127v657h539zM731 274q193 0 310.5 141t117.5 373t-117.5 373.5t-310.5 141.5h-203v-383h316v-238h-316v-408h203z" />
    <glyph glyph-name="Ntilde" unicode="&#xd1;" horiz-adv-x="1624" 
d="M651 1792q-42 0 -69 -25.5t-33 -70.5h-137q1 163 74 254.5t200 91.5q56 0 109 -22t99 -44t85 -22q42 0 69 25.5t33 70.5h138q-3 -164 -76 -255t-199 -91q-56 0 -109 22t-99 44t-85 22zM1135 1577h338v-1577h-332l-658 1028h-4l10 -1028h-337v1577h331l658 -1030h4z" />
    <glyph glyph-name="Ograve" unicode="&#xd2;" horiz-adv-x="1742" 
d="M1038 1686h-254l-272 356h344zM872 -20q-237 0 -418.5 100.5t-280.5 284t-99 423.5q0 180 57.5 330.5t161.5 256t252.5 164t326.5 58.5q236 0 417 -100.5t280.5 -284.5t99.5 -424q0 -363 -219.5 -585.5t-577.5 -222.5zM872 260q194 0 312.5 145t118.5 383t-118.5 383.5
t-312.5 145.5q-195 0 -313.5 -145.5t-118.5 -383.5t118.5 -383t313.5 -145z" />
    <glyph glyph-name="Oacute" unicode="&#xd3;" horiz-adv-x="1742" 
d="M707 1686l182 356h344l-272 -356h-254zM872 -20q-237 0 -418.5 100.5t-280.5 284t-99 423.5q0 180 57.5 330.5t161.5 256t252.5 164t326.5 58.5q236 0 417 -100.5t280.5 -284.5t99.5 -424q0 -363 -219.5 -585.5t-577.5 -222.5zM872 260q194 0 312.5 145t118.5 383
t-118.5 383.5t-312.5 145.5q-195 0 -313.5 -145.5t-118.5 -383.5t118.5 -383t313.5 -145z" />
    <glyph glyph-name="Ocircumflex" unicode="&#xd4;" horiz-adv-x="1742" 
d="M870 1866l-122 -180h-259l226 352h313l225 -352h-258l-121 180h-4zM872 1597q236 0 417 -100.5t280.5 -284.5t99.5 -424q0 -363 -219.5 -585.5t-577.5 -222.5q-237 0 -418.5 100.5t-280.5 284t-99 423.5q0 180 57.5 330.5t161.5 256t252.5 164t326.5 58.5zM872 260
q194 0 312.5 145t118.5 383t-118.5 383.5t-312.5 145.5q-195 0 -313.5 -145.5t-118.5 -383.5t118.5 -383t313.5 -145z" />
    <glyph glyph-name="Otilde" unicode="&#xd5;" horiz-adv-x="1742" 
d="M469 1696q1 163 74 254.5t200 91.5q56 0 109 -22t99 -44t85 -22q42 0 69.5 25.5t33.5 70.5h137q-3 -164 -76 -255t-199 -91q-56 0 -108.5 22t-98.5 44t-85 22q-42 0 -69.5 -25.5t-33.5 -70.5h-137zM872 -20q-237 0 -418.5 100.5t-280.5 284t-99 423.5q0 180 57.5 330.5
t161.5 256t252.5 164t326.5 58.5q236 0 417 -100.5t280.5 -284.5t99.5 -424q0 -363 -219.5 -585.5t-577.5 -222.5zM872 260q194 0 312.5 145t118.5 383t-118.5 383.5t-312.5 145.5q-195 0 -313.5 -145.5t-118.5 -383.5t118.5 -383t313.5 -145z" />
    <glyph glyph-name="Odieresis" unicode="&#xd6;" horiz-adv-x="1742" 
d="M653 1673q-79 0 -128.5 47.5t-49.5 124.5q0 76 49 123t129 47t129 -47t49 -123q0 -77 -49.5 -124.5t-128.5 -47.5zM1094 1673q-81 0 -131 47.5t-50 124.5t49.5 123.5t131.5 46.5q80 0 129 -47t49 -123q0 -77 -49.5 -124.5t-128.5 -47.5zM872 -20q-237 0 -418.5 100.5
t-280.5 284t-99 423.5q0 180 57.5 330.5t161.5 256t252.5 164t326.5 58.5q236 0 417 -100.5t280.5 -284.5t99.5 -424q0 -363 -219.5 -585.5t-577.5 -222.5zM872 260q194 0 312.5 145t118.5 383t-118.5 383.5t-312.5 145.5q-195 0 -313.5 -145.5t-118.5 -383.5t118.5 -383
t313.5 -145z" />
    <glyph glyph-name="multiply" unicode="&#xd7;" horiz-adv-x="1073" 
d="M993 760l-233 -234l233 -235l-221 -221l-235 233l-234 -233l-223 221l235 235l-235 234l223 221l234 -233l235 233z" />
    <glyph glyph-name="Oslash" unicode="&#xd8;" horiz-adv-x="1738" 
d="M1356 1452q149 -105 230 -276t81 -388q0 -363 -219.5 -585.5t-577.5 -222.5q-217 0 -385 83l-92 -147l-102 59l92 148q-149 107 -230 277.5t-81 387.5q0 180 57.5 330.5t161.5 256t252.5 164t326.5 58.5q213 0 383 -84l93 148l102 -62zM438 788q0 -242 121 -385l533 850
q-98 64 -222 64q-195 0 -313.5 -145.5t-118.5 -383.5zM870 260q194 0 312 145t118 383q0 243 -118 386l-535 -850q98 -64 223 -64z" />
    <glyph glyph-name="Ugrave" unicode="&#xd9;" horiz-adv-x="1554" 
d="M954 1686h-254l-272 356h344zM776 -20q-289 0 -465 165t-176 435v997h354v-1014q0 -136 81.5 -219.5t215.5 -83.5t215.5 83.5t81.5 219.5v1014h338v-997q0 -270 -177.5 -435t-467.5 -165z" />
    <glyph glyph-name="Uacute" unicode="&#xda;" horiz-adv-x="1554" 
d="M621 1686l182 356h344l-273 -356h-253zM776 -20q-289 0 -465 165t-176 435v997h354v-1014q0 -136 81.5 -219.5t215.5 -83.5t215.5 83.5t81.5 219.5v1014h338v-997q0 -270 -177.5 -435t-467.5 -165z" />
    <glyph glyph-name="Ucircumflex" unicode="&#xdb;" horiz-adv-x="1554" 
d="M784 1866l-122 -180h-259l226 352h313l225 -352h-258l-121 180h-4zM1083 1577h338v-997q0 -270 -177.5 -435t-467.5 -165q-289 0 -465 165t-176 435v997h354v-1014q0 -136 81.5 -219.5t215.5 -83.5t215.5 83.5t81.5 219.5v1014z" />
    <glyph glyph-name="Udieresis" unicode="&#xdc;" horiz-adv-x="1554" 
d="M567 1673q-79 0 -128.5 47.5t-49.5 124.5q0 76 49 123t129 47t129 -47t49 -123q0 -77 -49.5 -124.5t-128.5 -47.5zM1008 1673q-81 0 -131 47.5t-50 124.5t49.5 123.5t131.5 46.5q80 0 129 -47t49 -123q0 -77 -49.5 -124.5t-128.5 -47.5zM776 -20q-289 0 -465 165
t-176 435v997h354v-1014q0 -136 81.5 -219.5t215.5 -83.5t215.5 83.5t81.5 219.5v1014h338v-997q0 -270 -177.5 -435t-467.5 -165z" />
    <glyph glyph-name="Yacute" unicode="&#xdd;" horiz-adv-x="1507" 
d="M1128 2042l-272 -356h-254l182 356h344zM1530 1577l-606 -1030v-547h-355v551l-592 1026h408l381 -709h4l377 709h383z" />
    <glyph glyph-name="Thorn" unicode="&#xde;" horiz-adv-x="1431" 
d="M760 1323q275 0 443.5 -139.5t168.5 -366.5q0 -228 -168 -367t-444 -139h-254v-311h-354v1577h354v-254h254zM776 584q103 0 166.5 64t63.5 169q0 104 -63.5 168t-166.5 64h-270v-465h270z" />
    <glyph glyph-name="germandbls" unicode="&#xdf;" horiz-adv-x="1368" 
d="M965 885q161 -47 250.5 -155t89.5 -257q0 -223 -140.5 -358t-371.5 -135q-120 0 -201 24v252q78 -8 106 -8q117 0 188.5 71t71.5 187q0 117 -77 187.5t-203 70.5h-53v219q100 0 161.5 49.5t61.5 130.5q0 74 -49.5 120t-128.5 46q-92 0 -148.5 -55t-56.5 -144v-1130h-340
v1118q0 216 149 347.5t394 131.5q236 0 381 -110.5t145 -290.5q0 -101 -60 -180t-169 -127v-4z" />
    <glyph glyph-name="agrave" unicode="&#xe0;" horiz-adv-x="1351" 
d="M848 1221h-254l-272 356h344zM887 1079h340v-1079h-340v176h-4q-42 -89 -143 -142.5t-220 -53.5q-203 0 -326.5 154t-123.5 407q0 252 124 405.5t328 153.5q118 0 217.5 -54t143.5 -145h4v178zM651 246q106 0 171 81.5t65 213.5q0 131 -65 212t-171 81q-105 0 -169 -81
t-64 -212q0 -132 64 -213.5t169 -81.5z" />
    <glyph glyph-name="aacute" unicode="&#xe1;" horiz-adv-x="1351" 
d="M1040 1577l-272 -356h-254l182 356h344zM887 1079h340v-1079h-340v176h-4q-42 -89 -143 -142.5t-220 -53.5q-203 0 -326.5 154t-123.5 407q0 252 124 405.5t328 153.5q118 0 217.5 -54t143.5 -145h4v178zM651 246q106 0 171 81.5t65 213.5q0 131 -65 212t-171 81
q-105 0 -169 -81t-64 -212q0 -132 64 -213.5t169 -81.5z" />
    <glyph glyph-name="acircumflex" unicode="&#xe2;" horiz-adv-x="1351" 
d="M678 1405l-123 -180h-258l225 352h314l225 -352h-258l-121 180h-4zM887 1079h340v-1079h-340v176h-4q-42 -89 -143 -142.5t-220 -53.5q-203 0 -326.5 154t-123.5 407q0 252 124 405.5t328 153.5q118 0 217.5 -54t143.5 -145h4v178zM651 246q106 0 171 81.5t65 213.5
q0 131 -65 212t-171 81q-105 0 -169 -81t-64 -212q0 -132 64 -213.5t169 -81.5z" />
    <glyph glyph-name="atilde" unicode="&#xe3;" horiz-adv-x="1351" 
d="M516 1352q-42 0 -69 -26t-33 -71h-138q1 163 74.5 255t200.5 92q44 0 87.5 -14t72.5 -30.5t65 -30.5t68 -14q42 0 69 26t33 71h137q-3 -164 -75.5 -255t-198.5 -91q-56 0 -109 22t-99 44t-85 22zM887 1079h340v-1079h-340v176h-4q-42 -89 -143 -142.5t-220 -53.5
q-203 0 -326.5 154t-123.5 407q0 252 124 405.5t328 153.5q118 0 217.5 -54t143.5 -145h4v178zM651 246q106 0 171 81.5t65 213.5q0 131 -65 212t-171 81q-105 0 -169 -81t-64 -212q0 -132 64 -213.5t169 -81.5z" />
    <glyph glyph-name="adieresis" unicode="&#xe4;" horiz-adv-x="1351" 
d="M461 1241q-79 0 -128.5 47.5t-49.5 124.5q0 76 49 123t129 47t129 -47t49 -123q0 -77 -49.5 -124.5t-128.5 -47.5zM901 1241q-81 0 -130.5 47.5t-49.5 124.5t49 123.5t131 46.5q80 0 129 -47t49 -123q0 -77 -49.5 -124.5t-128.5 -47.5zM887 1079h340v-1079h-340v176h-4
q-42 -89 -143 -142.5t-220 -53.5q-203 0 -326.5 154t-123.5 407q0 252 124 405.5t328 153.5q118 0 217.5 -54t143.5 -145h4v178zM651 246q106 0 171 81.5t65 213.5q0 131 -65 212t-171 81q-105 0 -169 -81t-64 -212q0 -132 64 -213.5t169 -81.5z" />
    <glyph glyph-name="aring" unicode="&#xe5;" horiz-adv-x="1351" 
d="M680 1176q-128 0 -205.5 68.5t-77.5 180.5q0 114 77.5 183t205.5 69t205.5 -69t77.5 -183q0 -112 -77.5 -180.5t-205.5 -68.5zM680 1530q-43 0 -69.5 -29t-26.5 -76q0 -46 26.5 -74t69.5 -28q44 0 70 28t26 74q0 48 -26 76.5t-70 28.5zM887 1079h340v-1079h-340v176h-4
q-42 -89 -143 -142.5t-220 -53.5q-203 0 -326.5 154t-123.5 407q0 252 124 405.5t328 153.5q118 0 217.5 -54t143.5 -145h4v178zM651 246q106 0 171 81.5t65 213.5q0 131 -65 212t-171 81q-105 0 -169 -81t-64 -212q0 -132 64 -213.5t169 -81.5z" />
    <glyph glyph-name="ae" unicode="&#xe6;" horiz-adv-x="1941" 
d="M1872 524v-39h-791q11 -126 72 -197t170 -71q79 0 139.5 44.5t77.5 115.5h328q-31 -178 -175 -287.5t-347 -109.5q-138 0 -246.5 59t-173.5 166h-4q-62 -108 -180 -166.5t-279 -58.5q-184 0 -297 81t-113 213q0 64 17 113.5t53 86t82.5 63t117 48.5t143 40t172.5 40
q75 16 114 25v58q0 66 -43.5 105.5t-114.5 39.5q-77 0 -124.5 -43t-47.5 -113h-316q5 163 133.5 263t333.5 100q136 0 233 -50t140 -141h4q67 92 168.5 141.5t227.5 49.5q236 0 381 -158.5t145 -417.5zM1315 872q-86 0 -145.5 -61t-79.5 -168h446q-21 107 -78.5 168
t-142.5 61zM510 201q108 0 175 63t67 158v94q-190 -46 -236 -62q-118 -42 -137 -109q-4 -16 -4 -32q0 -51 37 -81.5t98 -30.5z" />
    <glyph glyph-name="ccedilla" unicode="&#xe7;" horiz-adv-x="1251" 
d="M1196 412q-23 -179 -154.5 -295t-328.5 -133l-60 -95l2 -2q35 9 62 9q91 0 147 -48.5t56 -126.5q0 -96 -87 -154.5t-229 -58.5q-141 0 -229 48v129q96 -52 188 -52q62 0 100.5 21.5t38.5 56.5q0 31 -19.5 49.5t-53.5 18.5q-24 0 -48.5 -11.5t-37.5 -29.5l-97 65l101 183
q-220 28 -350.5 177.5t-130.5 377.5q0 252 158.5 405.5t418.5 153.5q221 0 373 -120t178 -316h-334q-14 77 -73 123.5t-144 46.5q-104 0 -166.5 -81t-62.5 -212t62.5 -212t166.5 -81q86 0 146.5 45t72.5 119h334z" />
    <glyph glyph-name="egrave" unicode="&#xe8;" horiz-adv-x="1273" 
d="M807 1221h-254l-272 356h344zM1206 524v-39h-811q14 -122 79.5 -195t164.5 -73q84 0 148.5 44.5t86.5 115.5h328q-34 -179 -188.5 -288t-374.5 -109q-258 0 -415.5 154.5t-157.5 406.5t157.5 405.5t415.5 153.5q256 0 411.5 -158t155.5 -418zM639 872q-90 0 -153 -61.5
t-83 -167.5h465q-20 107 -80.5 168t-148.5 61z" />
    <glyph glyph-name="eacute" unicode="&#xe9;" horiz-adv-x="1273" 
d="M1001 1577l-272 -356h-254l182 356h344zM1206 524v-39h-811q14 -122 79.5 -195t164.5 -73q84 0 148.5 44.5t86.5 115.5h328q-34 -179 -188.5 -288t-374.5 -109q-258 0 -415.5 154.5t-157.5 406.5t157.5 405.5t415.5 153.5q256 0 411.5 -158t155.5 -418zM639 872
q-90 0 -153 -61.5t-83 -167.5h465q-20 107 -80.5 168t-148.5 61z" />
    <glyph glyph-name="ecircumflex" unicode="&#xea;" horiz-adv-x="1273" 
d="M639 1405l-123 -180h-258l225 352h314l225 -352h-258l-121 180h-4zM1206 524v-39h-811q14 -122 79.5 -195t164.5 -73q84 0 148.5 44.5t86.5 115.5h328q-34 -179 -188.5 -288t-374.5 -109q-258 0 -415.5 154.5t-157.5 406.5t157.5 405.5t415.5 153.5q256 0 411.5 -158
t155.5 -418zM639 872q-90 0 -153 -61.5t-83 -167.5h465q-20 107 -80.5 168t-148.5 61z" />
    <glyph glyph-name="edieresis" unicode="&#xeb;" horiz-adv-x="1273" 
d="M422 1241q-79 0 -128.5 47.5t-49.5 124.5q0 76 49 123t129 47t129 -47t49 -123q0 -77 -49.5 -124.5t-128.5 -47.5zM862 1241q-81 0 -130.5 47.5t-49.5 124.5t49 123.5t131 46.5q80 0 129 -47t49 -123q0 -77 -49.5 -124.5t-128.5 -47.5zM1206 524v-39h-811
q14 -122 79.5 -195t164.5 -73q84 0 148.5 44.5t86.5 115.5h328q-34 -179 -188.5 -288t-374.5 -109q-258 0 -415.5 154.5t-157.5 406.5t157.5 405.5t415.5 153.5q256 0 411.5 -158t155.5 -418zM639 872q-90 0 -153 -61.5t-83 -167.5h465q-20 107 -80.5 168t-148.5 61z" />
    <glyph glyph-name="igrave" unicode="&#xec;" horiz-adv-x="593" 
d="M463 1221h-254l-272 356h344zM127 0v1079h340v-1079h-340z" />
    <glyph glyph-name="iacute" unicode="&#xed;" horiz-adv-x="593" 
d="M131 1221l182 356h344l-272 -356h-254zM127 0v1079h340v-1079h-340z" />
    <glyph glyph-name="icircumflex" unicode="&#xee;" horiz-adv-x="593" 
d="M295 1405l-123 -180h-258l225 352h314l225 -352h-258l-121 180h-4zM127 0v1079h340v-1079h-340z" />
    <glyph glyph-name="idieresis" unicode="&#xef;" horiz-adv-x="593" 
d="M78 1241q-79 0 -128.5 47.5t-49.5 124.5q0 76 49 123t129 47t129 -47t49 -123q0 -77 -49.5 -124.5t-128.5 -47.5zM518 1241q-81 0 -130.5 47.5t-49.5 124.5t49 123.5t131 46.5q80 0 129 -47t49 -123q0 -77 -49.5 -124.5t-128.5 -47.5zM127 0v1079h340v-1079h-340z" />
    <glyph glyph-name="eth" unicode="&#xf0;" horiz-adv-x="1304" 
d="M850 1350q203 -132 290 -315.5t87 -452.5q0 -270 -160.5 -436t-421.5 -166t-420 145t-159 381t141 381t371 145q180 0 307 -82q-38 90 -106.5 155t-178.5 118l-342 -174l-96 157l205 105q-99 29 -205 55l67 231q245 -64 422 -143l283 143l96 -155zM647 248
q106 0 171 70.5t65 187.5t-65 187.5t-171 70.5t-170.5 -70.5t-64.5 -187.5t64.5 -187.5t170.5 -70.5z" />
    <glyph glyph-name="ntilde" unicode="&#xf1;" horiz-adv-x="1304" 
d="M498 1352q-42 0 -69.5 -26t-33.5 -71h-137q1 164 74 255.5t200 91.5q44 0 87.5 -14t72.5 -30.5t65 -30.5t68 -14q42 0 69.5 26t33.5 71h137q-3 -164 -75.5 -255t-198.5 -91q-56 0 -109 22t-99 44t-85 22zM838 1100q158 0 255 -111.5t97 -294.5v-694h-340v633
q0 91 -49 146t-131 55q-92 0 -148.5 -66t-56.5 -172v-596h-340v1079h340v-174h4q49 89 150 142t219 53z" />
    <glyph glyph-name="ograve" unicode="&#xf2;" horiz-adv-x="1296" 
d="M815 1221h-254l-272 356h344zM649 -20q-263 0 -423 154t-160 407q0 252 160 405.5t423 153.5q261 0 421.5 -153.5t160.5 -405.5q0 -253 -160.5 -407t-421.5 -154zM649 248q106 0 171 81t65 212t-65 212t-171 81q-105 0 -170 -81t-65 -212t65 -212t170 -81z" />
    <glyph glyph-name="oacute" unicode="&#xf3;" horiz-adv-x="1296" 
d="M483 1221l183 356h344l-273 -356h-254zM649 -20q-263 0 -423 154t-160 407q0 252 160 405.5t423 153.5q261 0 421.5 -153.5t160.5 -405.5q0 -253 -160.5 -407t-421.5 -154zM649 248q106 0 171 81t65 212t-65 212t-171 81q-105 0 -170 -81t-65 -212t65 -212t170 -81z" />
    <glyph glyph-name="ocircumflex" unicode="&#xf4;" horiz-adv-x="1296" 
d="M647 1405l-123 -180h-258l226 352h313l225 -352h-258l-121 180h-4zM649 1100q261 0 421.5 -153.5t160.5 -405.5q0 -253 -160.5 -407t-421.5 -154q-263 0 -423 154t-160 407q0 252 160 405.5t423 153.5zM649 248q106 0 171 81t65 212t-65 212t-171 81q-105 0 -170 -81
t-65 -212t65 -212t170 -81z" />
    <glyph glyph-name="otilde" unicode="&#xf5;" horiz-adv-x="1296" 
d="M246 1255q1 164 74 255.5t200 91.5q44 0 87.5 -14t72.5 -30.5t65 -30.5t68 -14q42 0 69 26t33 71h138q-3 -164 -76 -255t-199 -91q-56 0 -109 22t-99 44t-85 22q-42 0 -69 -26t-33 -71h-137zM649 -20q-263 0 -423 154t-160 407q0 252 160 405.5t423 153.5
q261 0 421.5 -153.5t160.5 -405.5q0 -253 -160.5 -407t-421.5 -154zM649 248q106 0 171 81t65 212t-65 212t-171 81q-105 0 -170 -81t-65 -212t65 -212t170 -81z" />
    <glyph glyph-name="odieresis" unicode="&#xf6;" horiz-adv-x="1296" 
d="M430 1241q-79 0 -128.5 47.5t-49.5 124.5q0 76 49 123t129 47t129 -47t49 -123q0 -77 -49.5 -124.5t-128.5 -47.5zM870 1241q-81 0 -130.5 47.5t-49.5 124.5t49 123.5t131 46.5q80 0 129.5 -47t49.5 -123t-49.5 -124t-129.5 -48zM649 -20q-263 0 -423 154t-160 407
q0 252 160 405.5t423 153.5q261 0 421.5 -153.5t160.5 -405.5q0 -253 -160.5 -407t-421.5 -154zM649 248q106 0 171 81t65 212t-65 212t-171 81q-105 0 -170 -81t-65 -212t65 -212t170 -81z" />
    <glyph glyph-name="divide" unicode="&#xf7;" horiz-adv-x="1038" 
d="M518 715q-85 0 -135.5 49t-50.5 131q0 79 51 127.5t135 48.5t135.5 -49t51.5 -127q0 -82 -51 -131t-136 -49zM78 389v254h883v-254h-883zM518 -39q-85 0 -135.5 49t-50.5 131q0 79 51 127.5t135 48.5t135.5 -49t51.5 -127q0 -82 -51 -131t-136 -49z" />
    <glyph glyph-name="oslash" unicode="&#xf8;" horiz-adv-x="1296" 
d="M1016 991q103 -75 159 -190t56 -260q0 -253 -160.5 -407t-421.5 -154q-157 0 -276 55l-88 -131l-90 57l86 127q-103 75 -159 191t-56 262q0 252 160 405.5t423 153.5q154 0 275 -56l88 132l90 -58zM414 541q0 -114 47 -185l301 447q-51 31 -113 31q-105 0 -170 -81
t-65 -212zM649 248q106 0 171 81t65 212q0 112 -47 186l-301 -448q51 -31 112 -31z" />
    <glyph glyph-name="ugrave" unicode="&#xf9;" horiz-adv-x="1267" 
d="M803 1221h-254l-273 356h345zM635 -20q-235 0 -379.5 122.5t-144.5 321.5v655h340v-620q0 -97 50.5 -155t133.5 -58q82 0 132 58.5t50 154.5v620h340v-655q0 -199 -144 -321.5t-378 -122.5z" />
    <glyph glyph-name="uacute" unicode="&#xfa;" horiz-adv-x="1267" 
d="M469 1221l182 356h344l-272 -356h-254zM635 -20q-235 0 -379.5 122.5t-144.5 321.5v655h340v-620q0 -97 50.5 -155t133.5 -58q82 0 132 58.5t50 154.5v620h340v-655q0 -199 -144 -321.5t-378 -122.5z" />
    <glyph glyph-name="ucircumflex" unicode="&#xfb;" horiz-adv-x="1267" 
d="M633 1405l-123 -180h-258l225 352h314l225 -352h-258l-121 180h-4zM817 1079h340v-655q0 -199 -144 -321.5t-378 -122.5q-235 0 -379.5 122.5t-144.5 321.5v655h340v-620q0 -97 50.5 -155t133.5 -58q82 0 132 58.5t50 154.5v620z" />
    <glyph glyph-name="udieresis" unicode="&#xfc;" horiz-adv-x="1267" 
d="M416 1241q-79 0 -128.5 47.5t-49.5 124.5q0 76 49 123t129 47t129 -47t49 -123q0 -77 -49.5 -124.5t-128.5 -47.5zM856 1241q-81 0 -130.5 47.5t-49.5 124.5t49 123.5t131 46.5q80 0 129 -47t49 -123q0 -77 -49.5 -124.5t-128.5 -47.5zM635 -20q-235 0 -379.5 122.5
t-144.5 321.5v655h340v-620q0 -97 50.5 -155t133.5 -58q82 0 132 58.5t50 154.5v620h340v-655q0 -199 -144 -321.5t-378 -122.5z" />
    <glyph glyph-name="yacute" unicode="&#xfd;" horiz-adv-x="1212" 
d="M973 1577l-273 -356h-254l183 356h344zM860 1079h344l-571 -1550h-328l139 381l-436 1169h352l250 -770h4z" />
    <glyph glyph-name="thorn" unicode="&#xfe;" horiz-adv-x="1351" 
d="M834 1100q201 0 324.5 -153.5t123.5 -405.5q0 -253 -124 -407t-327 -154q-120 0 -219 53.5t-143 142.5h-4v-647h-340v2048h340v-676h4q45 92 144.5 145.5t220.5 53.5zM700 246q106 0 171 81.5t65 213.5q0 131 -65 212t-171 81q-105 0 -170 -81t-65 -212
q0 -132 64.5 -213.5t170.5 -81.5z" />
    <glyph glyph-name="ydieresis" unicode="&#xff;" horiz-adv-x="1212" 
d="M393 1241q-79 0 -128.5 47.5t-49.5 124.5q0 76 49 123t129 47t129 -47t49 -123q0 -77 -49.5 -124.5t-128.5 -47.5zM834 1241q-81 0 -131 47.5t-50 124.5t49.5 123.5t131.5 46.5q80 0 129 -47t49 -123q0 -77 -49.5 -124.5t-128.5 -47.5zM860 1079h344l-571 -1550h-328
l139 381l-436 1169h352l250 -770h4z" />
    <glyph glyph-name="Amacron" unicode="&#x100;" horiz-adv-x="1515" 
d="M1116 1946v-246h-717v246h717zM1153 0l-111 334h-589l-113 -334h-352l575 1577h391l574 -1577h-375zM543 606h409l-202 606h-5z" />
    <glyph glyph-name="amacron" unicode="&#x101;" horiz-adv-x="1351" 
d="M1038 1546v-246h-716v246h716zM887 1079h340v-1079h-340v176h-4q-42 -89 -143 -142.5t-220 -53.5q-203 0 -326.5 154t-123.5 407q0 252 124 405.5t328 153.5q118 0 217.5 -54t143.5 -145h4v178zM651 246q106 0 171 81.5t65 213.5q0 131 -65 212t-171 81q-105 0 -169 -81
t-64 -212q0 -132 64 -213.5t169 -81.5z" />
    <glyph glyph-name="Abreve" unicode="&#x102;" horiz-adv-x="1515" 
d="M758 1675q-157 0 -255.5 99.5t-101.5 263.5h222q3 -75 40 -120.5t95 -45.5q57 0 93.5 45.5t39.5 120.5h223q-3 -164 -100.5 -263.5t-255.5 -99.5zM1153 0l-111 334h-589l-113 -334h-352l575 1577h391l574 -1577h-375zM543 606h409l-202 606h-5z" />
    <glyph glyph-name="abreve" unicode="&#x103;" horiz-adv-x="1351" 
d="M680 1214q-157 0 -255 99.5t-101 263.5h221q3 -75 40 -120.5t95 -45.5q57 0 93.5 45.5t39.5 120.5h223q-3 -164 -100.5 -263.5t-255.5 -99.5zM887 1079h340v-1079h-340v176h-4q-42 -89 -143 -142.5t-220 -53.5q-203 0 -326.5 154t-123.5 407q0 252 124 405.5t328 153.5
q118 0 217.5 -54t143.5 -145h4v178zM651 246q106 0 171 81.5t65 213.5q0 131 -65 212t-171 81q-105 0 -169 -81t-64 -212q0 -132 64 -213.5t169 -81.5z" />
    <glyph glyph-name="Aogonek" unicode="&#x104;" horiz-adv-x="1515" 
d="M1346 -238q0 -29 19 -48t50 -19q54 0 115 37v-181q-78 -43 -203 -43q-111 0 -179.5 51t-68.5 134q0 64 60.5 146t163.5 161h-150l-111 334h-589l-113 -334h-352l575 1577h391l574 -1575l2 -2q-82 -62 -133 -128.5t-51 -109.5zM543 606h409l-202 606h-5z" />
    <glyph glyph-name="aogonek" unicode="&#x105;" horiz-adv-x="1351" 
d="M1044 -238q0 -29 19.5 -48t50.5 -19q54 0 115 37v-181q-78 -43 -203 -43q-111 0 -179.5 51t-68.5 134q0 64 60 146.5t163 160.5h-114v176h-4q-42 -89 -143 -142.5t-220 -53.5q-203 0 -326.5 154t-123.5 407q0 252 124 405.5t328 153.5q118 0 217.5 -54t143.5 -145h4v178
h340v-1077l2 -2q-83 -63 -134 -129t-51 -109zM651 246q106 0 171 81.5t65 213.5q0 131 -65 212t-171 81q-105 0 -169 -81t-64 -212q0 -132 64 -213.5t169 -81.5z" />
    <glyph glyph-name="Cacute" unicode="&#x106;" horiz-adv-x="1673" 
d="M702 1686l183 356h344l-273 -356h-254zM868 -20q-236 0 -416.5 100.5t-279 284t-98.5 423.5t98.5 424t279 284.5t416.5 100.5q310 0 515 -167t231 -441h-346q-19 148 -128.5 238t-271.5 90q-192 0 -310 -145.5t-118 -383.5t118 -383t310 -145q162 0 271.5 90t128.5 238
h346q-17 -181 -116 -319.5t-262.5 -213.5t-367.5 -75z" />
    <glyph glyph-name="cacute" unicode="&#x107;" horiz-adv-x="1251" 
d="M479 1221l183 356h344l-273 -356h-254zM643 -20q-260 0 -418.5 154t-158.5 407q0 252 158.5 405.5t418.5 153.5q221 0 373 -120t178 -316h-334q-14 77 -73 123.5t-144 46.5q-104 0 -166.5 -81t-62.5 -212t62.5 -212t166.5 -81q86 0 146.5 45t72.5 119h334
q-25 -195 -177 -313.5t-376 -118.5z" />
    <glyph glyph-name="Cdotaccent" unicode="&#x10a;" horiz-adv-x="1673" 
d="M866 1692q-86 0 -138 50t-52 130t52 129t138 49t139.5 -49t53.5 -129t-53.5 -130t-139.5 -50zM868 -20q-236 0 -416.5 100.5t-279 284t-98.5 423.5t98.5 424t279 284.5t416.5 100.5q310 0 515 -167t231 -441h-346q-19 148 -128.5 238t-271.5 90q-192 0 -310 -145.5
t-118 -383.5t118 -383t310 -145q162 0 271.5 90t128.5 238h346q-17 -181 -116 -319.5t-262.5 -213.5t-367.5 -75z" />
    <glyph glyph-name="cdotaccent" unicode="&#x10b;" horiz-adv-x="1251" 
d="M641 1247q-86 0 -138 50t-52 130t52 129.5t138 49.5t139.5 -49.5t53.5 -129.5t-53.5 -130t-139.5 -50zM643 -20q-260 0 -418.5 154t-158.5 407q0 252 158.5 405.5t418.5 153.5q221 0 373 -120t178 -316h-334q-14 77 -73 123.5t-144 46.5q-104 0 -166.5 -81t-62.5 -212
t62.5 -212t166.5 -81q86 0 146.5 45t72.5 119h334q-25 -195 -177 -313.5t-376 -118.5z" />
    <glyph glyph-name="Ccaron" unicode="&#x10c;" horiz-adv-x="1673" 
d="M711 1683l-226 353h258l123 -181h4l121 181h258l-225 -353h-313zM868 260q162 0 271.5 90t128.5 238h346q-17 -181 -116 -319.5t-262.5 -213.5t-367.5 -75q-236 0 -416.5 100.5t-279 284t-98.5 423.5t98.5 424t279 284.5t416.5 100.5q310 0 515 -167t231 -441h-346
q-19 148 -128.5 238t-271.5 90q-192 0 -310 -145.5t-118 -383.5t118 -383t310 -145z" />
    <glyph glyph-name="ccaron" unicode="&#x10d;" horiz-adv-x="1251" 
d="M487 1223l-225 352h258l123 -180h4l121 180h258l-225 -352h-314zM862 412h334q-25 -195 -177 -313.5t-376 -118.5q-260 0 -418.5 154t-158.5 407q0 252 158.5 405.5t418.5 153.5q221 0 373 -120t178 -316h-334q-14 77 -73 123.5t-144 46.5q-104 0 -166.5 -81t-62.5 -212
t62.5 -212t166.5 -81q86 0 146.5 45t72.5 119z" />
    <glyph glyph-name="Dcaron" unicode="&#x10e;" horiz-adv-x="1579" 
d="M551 1683l-225 353h258l123 -181h4l120 181h259l-226 -353h-313zM690 1577q181 0 333 -57t258 -159.5t165 -250t59 -322.5q0 -234 -101.5 -413t-286.5 -277t-427 -98h-538v1577h538zM709 274q193 0 310.5 141t117.5 373t-117.5 373.5t-310.5 141.5h-203v-1029h203z" />
    <glyph glyph-name="dcaron" unicode="&#x10f;" horiz-adv-x="1536" 
d="M1405 1597l281 -67l-130 -463l-262 68zM887 901v676h340v-1577h-340v176h-4q-42 -89 -143 -142.5t-220 -53.5q-203 0 -326.5 154t-123.5 407q0 252 124 405.5t328 153.5q118 0 217.5 -54t143.5 -145h4zM651 246q106 0 171 81.5t65 213.5q0 131 -65 212t-171 81
q-105 0 -169 -81t-64 -212q0 -132 64 -213.5t169 -81.5z" />
    <glyph glyph-name="Dcroat" unicode="&#x110;" horiz-adv-x="1599" 
d="M713 1577q181 0 333 -57t258 -159.5t165 -250t59 -322.5q0 -234 -101.5 -413t-286.5 -277t-427 -98h-539v682h-127v238h127v657h539zM731 274q193 0 310.5 141t117.5 373t-117.5 373.5t-310.5 141.5h-203v-383h316v-238h-316v-408h203z" />
    <glyph glyph-name="dcroat" unicode="&#x111;" horiz-adv-x="1351" 
d="M1341 1444v-238h-114v-1206h-340v176h-4q-42 -89 -143 -142.5t-220 -53.5q-203 0 -326.5 154t-123.5 407q0 252 124 405.5t328 153.5q118 0 217.5 -54t143.5 -145h4v305h-340v238h340v133h340v-133h114zM651 246q106 0 171 81.5t65 213.5q0 131 -65 212t-171 81
q-105 0 -169 -81t-64 -212q0 -132 64 -213.5t169 -81.5z" />
    <glyph glyph-name="Emacron" unicode="&#x112;" horiz-adv-x="1411" 
d="M1087 1946v-246h-716v246h716zM506 274h823v-274h-1177v1577h1153v-274h-799v-359h725v-274h-725v-396z" />
    <glyph glyph-name="emacron" unicode="&#x113;" horiz-adv-x="1273" 
d="M999 1546v-246h-716v246h716zM1206 524v-39h-811q14 -122 79.5 -195t164.5 -73q84 0 148.5 44.5t86.5 115.5h328q-34 -179 -188.5 -288t-374.5 -109q-258 0 -415.5 154.5t-157.5 406.5t157.5 405.5t415.5 153.5q256 0 411.5 -158t155.5 -418zM639 872q-90 0 -153 -61.5
t-83 -167.5h465q-20 107 -80.5 168t-148.5 61z" />
    <glyph glyph-name="Edotaccent" unicode="&#x116;" horiz-adv-x="1411" 
d="M725 1692q-86 0 -138 50t-52 130t52 129t138 49t139.5 -49t53.5 -129t-53.5 -130t-139.5 -50zM506 274h823v-274h-1177v1577h1153v-274h-799v-359h725v-274h-725v-396z" />
    <glyph glyph-name="edotaccent" unicode="&#x117;" horiz-adv-x="1273" 
d="M637 1247q-86 0 -138.5 50t-52.5 130t52.5 129.5t138.5 49.5t139 -49.5t53 -129.5t-53 -130t-139 -50zM1206 524v-39h-811q14 -122 79.5 -195t164.5 -73q84 0 148.5 44.5t86.5 115.5h328q-34 -179 -188.5 -288t-374.5 -109q-258 0 -415.5 154.5t-157.5 406.5t157.5 405.5
t415.5 153.5q256 0 411.5 -158t155.5 -418zM639 872q-90 0 -153 -61.5t-83 -167.5h465q-20 107 -80.5 168t-148.5 61z" />
    <glyph glyph-name="Eogonek" unicode="&#x118;" horiz-adv-x="1411" 
d="M506 274h823v-274h-131q-82 -62 -133 -128.5t-51 -109.5q0 -29 19 -48t50 -19q54 0 115 37v-181q-78 -43 -203 -43q-110 0 -178.5 51t-68.5 134q0 64 60 146.5t163 160.5h-819v1577h1153v-274h-799v-359h725v-274h-725v-396z" />
    <glyph glyph-name="eogonek" unicode="&#x119;" horiz-adv-x="1273" 
d="M1206 524v-39h-811q14 -122 79.5 -195t164.5 -73q84 0 148.5 44.5t86.5 115.5h328q-26 -137 -126.5 -236t-250.5 -139l4 -2q-82 -62 -133 -128.5t-51 -109.5q0 -29 19.5 -48t50.5 -19q53 0 114 37v-181q-78 -43 -202 -43q-111 0 -179.5 51t-68.5 134q0 61 53.5 137
t147.5 152q-234 19 -374 171t-140 388q0 252 157.5 405.5t415.5 153.5q256 0 411.5 -158t155.5 -418zM639 872q-90 0 -153 -61.5t-83 -167.5h465q-20 107 -80.5 168t-148.5 61z" />
    <glyph glyph-name="Ecaron" unicode="&#x11a;" horiz-adv-x="1411" 
d="M571 1683l-225 353h258l123 -181h4l121 181h258l-225 -353h-314zM506 274h823v-274h-1177v1577h1153v-274h-799v-359h725v-274h-725v-396z" />
    <glyph glyph-name="ecaron" unicode="&#x11b;" horiz-adv-x="1273" 
d="M483 1223l-225 352h258l123 -180h4l121 180h258l-225 -352h-314zM1206 524v-39h-811q14 -122 79.5 -195t164.5 -73q84 0 148.5 44.5t86.5 115.5h328q-34 -179 -188.5 -288t-374.5 -109q-258 0 -415.5 154.5t-157.5 406.5t157.5 405.5t415.5 153.5q256 0 411.5 -158
t155.5 -418zM639 872q-90 0 -153 -61.5t-83 -167.5h465q-20 107 -80.5 168t-148.5 61z" />
    <glyph glyph-name="Gbreve" unicode="&#x11e;" horiz-adv-x="1695" 
d="M874 1675q-157 0 -255 99.5t-101 263.5h221q3 -75 40 -120.5t95 -45.5q57 0 94 45.5t40 120.5h223q-3 -164 -101 -263.5t-256 -99.5zM856 842h762v-84q0 -350 -206 -564t-544 -214q-236 0 -416.5 100.5t-279 284t-98.5 423.5t98.5 424t279 284.5t416.5 100.5
q306 0 509 -162t229 -427h-340q-19 140 -128 224.5t-270 84.5q-192 0 -310 -145.5t-118 -383.5t118 -383t310 -145q159 0 265 94t129 254h-406v234z" />
    <glyph glyph-name="gbreve" unicode="&#x11f;" horiz-adv-x="1351" 
d="M680 1214q-157 0 -255 99.5t-101 263.5h221q3 -75 40 -120.5t95 -45.5q57 0 93.5 45.5t39.5 120.5h223q-3 -164 -100.5 -263.5t-255.5 -99.5zM887 1079h340v-1081q0 -220 -157.5 -355t-414.5 -135q-223 0 -370 113.5t-166 300.5h323q10 -66 68.5 -105.5t144.5 -39.5
q104 0 168 56.5t64 148.5v194h-4q-42 -89 -143 -142.5t-220 -53.5q-203 0 -326.5 154t-123.5 407q0 252 124 405.5t328 153.5q118 0 217.5 -54t143.5 -145h4v178zM651 246q106 0 171 81.5t65 213.5q0 131 -65 212t-171 81q-105 0 -169 -81t-64 -212q0 -132 64 -213.5
t169 -81.5z" />
    <glyph glyph-name="Gdotaccent" unicode="&#x120;" horiz-adv-x="1695" 
d="M870 1692q-86 0 -138 50t-52 130t52 129t138 49t139.5 -49t53.5 -129t-53.5 -130t-139.5 -50zM856 842h762v-84q0 -350 -206 -564t-544 -214q-236 0 -416.5 100.5t-279 284t-98.5 423.5t98.5 424t279 284.5t416.5 100.5q306 0 509 -162t229 -427h-340q-19 140 -128 224.5
t-270 84.5q-192 0 -310 -145.5t-118 -383.5t118 -383t310 -145q159 0 265 94t129 254h-406v234z" />
    <glyph glyph-name="gdotaccent" unicode="&#x121;" horiz-adv-x="1351" 
d="M676 1245q-86 0 -138.5 50t-52.5 130t52.5 129.5t138.5 49.5t139 -49.5t53 -129.5t-53 -130t-139 -50zM887 1079h340v-1081q0 -220 -157.5 -355t-414.5 -135q-223 0 -370 113.5t-166 300.5h323q10 -66 68.5 -105.5t144.5 -39.5q104 0 168 56.5t64 148.5v194h-4
q-42 -89 -143 -142.5t-220 -53.5q-203 0 -326.5 154t-123.5 407q0 252 124 405.5t328 153.5q118 0 217.5 -54t143.5 -145h4v178zM651 246q106 0 171 81.5t65 213.5q0 131 -65 212t-171 81q-105 0 -169 -81t-64 -212q0 -132 64 -213.5t169 -81.5z" />
    <glyph glyph-name="Gcommaaccent" unicode="&#x122;" horiz-adv-x="1695" 
d="M856 842h762v-84q0 -350 -206 -564t-544 -214q-236 0 -416.5 100.5t-279 284t-98.5 423.5t98.5 424t279 284.5t416.5 100.5q306 0 509 -162t229 -427h-340q-19 140 -128 224.5t-270 84.5q-192 0 -310 -145.5t-118 -383.5t118 -383t310 -145q159 0 265 94t129 254h-406
v234zM872 -102q75 0 121.5 -52t46.5 -137q0 -125 -76.5 -209t-201.5 -94l-14 59q72 9 122.5 49.5t67.5 102.5q-48 -25 -92 -25q-63 0 -101 38t-38 100q0 75 45 121.5t120 46.5z" />
    <glyph glyph-name="gcommaaccent" unicode="&#x123;" horiz-adv-x="1351" 
d="M678 1233q-75 0 -120.5 50.5t-45.5 133.5q0 111 77 187t202 88l20 -66q-149 -8 -190 -135q43 18 84 18q63 0 102 -36.5t39 -96.5q0 -64 -46.5 -103.5t-121.5 -39.5zM887 1079h340v-1081q0 -220 -157.5 -355t-414.5 -135q-223 0 -370 113.5t-166 300.5h323
q10 -66 68.5 -105.5t144.5 -39.5q104 0 168 56.5t64 148.5v194h-4q-42 -89 -143 -142.5t-220 -53.5q-203 0 -326.5 154t-123.5 407q0 252 124 405.5t328 153.5q118 0 217.5 -54t143.5 -145h4v178zM651 246q106 0 171 81.5t65 213.5q0 131 -65 212t-171 81q-105 0 -169 -81
t-64 -212q0 -132 64 -213.5t169 -81.5z" />
    <glyph glyph-name="Hbar" unicode="&#x126;" horiz-adv-x="1675" 
d="M1634 1395v-240h-135v-1155h-356v662h-611v-662h-354v1155h-137v240h137v182h354v-182h611v182h356v-182h135zM1143 936v219h-611v-219h611z" />
    <glyph glyph-name="hbar" unicode="&#x127;" horiz-adv-x="1304" 
d="M838 1100q158 0 255 -111.5t97 -294.5v-694h-340v633q0 91 -49 146t-131 55q-92 0 -148.5 -66t-56.5 -172v-596h-340v1206h-117v238h117v133h340v-133h340v-238h-340v-301h4q49 89 150 142t219 53z" />
    <glyph glyph-name="Imacron" unicode="&#x12a;" horiz-adv-x="657" 
d="M-29 1700v246h717v-246h-717zM152 0v1577h354v-1577h-354z" />
    <glyph glyph-name="imacron" unicode="&#x12b;" horiz-adv-x="593" 
d="M-8 1516h612v-246h-612v246zM127 0v1079h340v-1079h-340z" />
    <glyph glyph-name="Iogonek" unicode="&#x12e;" horiz-adv-x="657" 
d="M324 -238q0 -29 19 -48t50 -19q54 0 115 37v-181q-78 -43 -203 -43q-111 0 -179.5 51t-68.5 134q0 64 60.5 146t163.5 161h-129v1577h354v-1575l2 -2q-82 -62 -133 -128.5t-51 -109.5z" />
    <glyph glyph-name="iogonek" unicode="&#x12f;" horiz-adv-x="593" 
d="M293 1247q-86 0 -138.5 50t-52.5 130t52.5 129.5t138.5 49.5t139 -49.5t53 -129.5t-53 -130t-139 -50zM127 0v1079h340v-1079q-82 -62 -133 -128.5t-51 -109.5q0 -29 19 -48t50 -19q54 0 115 37v-181q-78 -43 -203 -43q-111 0 -179.5 51t-68.5 134q0 64 60.5 146
t163.5 161h-113z" />
    <glyph glyph-name="Idotaccent" unicode="&#x130;" horiz-adv-x="657" 
d="M326 1692q-86 0 -138.5 50t-52.5 130t52.5 129t138.5 49t139 -49t53 -129t-53 -130t-139 -50zM152 0v1577h354v-1577h-354z" />
    <glyph glyph-name="dotlessi" unicode="&#x131;" horiz-adv-x="593" 
d="M127 0v1079h340v-1079h-340z" />
    <glyph glyph-name="Kcommaaccent" unicode="&#x136;" horiz-adv-x="1501" 
d="M152 0v1577h354v-1577h-354zM944 854l596 -854h-418l-583 819l514 758h395zM776 -102q75 0 121.5 -52t46.5 -137q0 -125 -76.5 -209t-201.5 -94l-15 59q72 9 123 49.5t68 102.5q-48 -25 -92 -25q-63 0 -101.5 38t-38.5 100q0 75 45.5 121.5t120.5 46.5z" />
    <glyph glyph-name="kcommaaccent" unicode="&#x137;" horiz-adv-x="1298" 
d="M125 0v1577h340v-1577h-340zM866 594l463 -594h-389l-448 584l382 495h379zM664 -102q75 0 121 -52t46 -137q0 -125 -76.5 -209t-201.5 -94l-14 59q72 9 122.5 49.5t67.5 102.5q-48 -25 -92 -25q-63 0 -101 38t-38 100q0 75 45.5 121.5t120.5 46.5z" />
    <glyph glyph-name="Lacute" unicode="&#x139;" horiz-adv-x="1226" 
d="M690 2042l-272 -356h-254l182 356h344zM506 283h684v-283h-1038v1577h354v-1294z" />
    <glyph glyph-name="lacute" unicode="&#x13a;" horiz-adv-x="593" 
d="M131 1686l182 356h344l-272 -356h-254zM127 0v1577h340v-1577h-340z" />
    <glyph glyph-name="Lcommaaccent" unicode="&#x13b;" horiz-adv-x="1226" 
d="M506 283h684v-283h-1038v1577h354v-1294zM631 -102q75 0 121.5 -52t46.5 -137q0 -125 -76.5 -209t-202.5 -94l-14 59q72 9 122.5 49.5t67.5 102.5q-48 -25 -92 -25q-63 0 -101 38t-38 100q0 75 45.5 121.5t120.5 46.5z" />
    <glyph glyph-name="lcommaaccent" unicode="&#x13c;" horiz-adv-x="593" 
d="M127 1577h340v-1577h-340v1577zM297 -102q75 0 121.5 -52t46.5 -137q0 -125 -76.5 -209t-202.5 -94l-14 59q72 9 122.5 49.5t67.5 102.5q-48 -25 -92 -25q-63 0 -101 38t-38 100q0 75 45.5 121.5t120.5 46.5z" />
    <glyph glyph-name="Lcaron" unicode="&#x13d;" horiz-adv-x="1280" 
d="M1153 1530l-129 -463l-262 68l108 462zM506 283h684v-283h-1038v1577h354v-1294z" />
    <glyph glyph-name="lcaron" unicode="&#x13e;" horiz-adv-x="776" 
d="M797 1067l-262 68l110 462l281 -67zM127 0v1577h340v-1577h-340z" />
    <glyph glyph-name="Lslash" unicode="&#x141;" horiz-adv-x="1263" 
d="M543 283h684v-283h-1039v532l-141 -53v269l141 53v776h355v-664l366 146v-266l-366 -150v-360z" />
    <glyph glyph-name="lslash" unicode="&#x142;" horiz-adv-x="710" 
d="M639 1059v-260l-117 -64v-735h-340v578l-114 -62v262l114 62v737h340v-582z" />
    <glyph glyph-name="Nacute" unicode="&#x143;" horiz-adv-x="1624" 
d="M1174 2042l-273 -356h-254l182 356h345zM1135 1577h338v-1577h-332l-658 1028h-4l10 -1028h-337v1577h331l658 -1030h4z" />
    <glyph glyph-name="nacute" unicode="&#x144;" horiz-adv-x="1304" 
d="M1020 1577l-272 -356h-254l182 356h344zM838 1100q158 0 255 -111.5t97 -294.5v-694h-340v633q0 91 -49 146t-131 55q-92 0 -148.5 -66t-56.5 -172v-596h-340v1079h340v-174h4q49 89 150 142t219 53z" />
    <glyph glyph-name="Ncommaaccent" unicode="&#x145;" horiz-adv-x="1624" 
d="M1135 1577h338v-1577h-332l-658 1028h-4l10 -1028h-337v1577h331l658 -1030h4zM813 -102q75 0 121.5 -52t46.5 -137q0 -125 -76.5 -209t-202.5 -94l-14 59q72 9 123 49.5t68 102.5q-48 -25 -93 -25q-63 0 -101 38t-38 100q0 75 45.5 121.5t120.5 46.5z" />
    <glyph glyph-name="ncommaaccent" unicode="&#x146;" horiz-adv-x="1304" 
d="M838 1100q158 0 255 -111.5t97 -294.5v-694h-340v633q0 91 -49 146t-131 55q-92 0 -148.5 -66t-56.5 -172v-596h-340v1079h340v-174h4q49 89 150 142t219 53zM659 -102q75 0 121.5 -52t46.5 -137q0 -125 -76.5 -209t-201.5 -94l-14 59q72 9 122.5 49.5t67.5 102.5
q-48 -25 -92 -25q-63 0 -101 38t-38 100q0 75 45 121.5t120 46.5z" />
    <glyph glyph-name="Ncaron" unicode="&#x147;" horiz-adv-x="1624" 
d="M655 1683l-225 353h258l123 -181h4l121 181h258l-225 -353h-314zM1135 1577h338v-1577h-332l-658 1028h-4l10 -1028h-337v1577h331l658 -1030h4z" />
    <glyph glyph-name="ncaron" unicode="&#x148;" horiz-adv-x="1304" 
d="M502 1223l-226 352h259l122 -180h5l120 180h258l-225 -352h-313zM838 1100q158 0 255 -111.5t97 -294.5v-694h-340v633q0 91 -49 146t-131 55q-92 0 -148.5 -66t-56.5 -172v-596h-340v1079h340v-174h4q49 89 150 142t219 53z" />
    <glyph glyph-name="Eng" unicode="&#x14a;" horiz-adv-x="1624" 
d="M1135 1577h338v-1587q0 -217 -136.5 -349.5t-359.5 -132.5q-139 0 -254 41l68 271q64 -33 151 -33q78 0 126 56t48 147v45l-633 993h-4l10 -1028h-337v1577h331l658 -1030h4z" />
    <glyph glyph-name="eng" unicode="&#x14b;" horiz-adv-x="1304" 
d="M838 1100q158 0 255 -111.5t97 -294.5v-743q0 -199 -117.5 -321t-310.5 -122q-82 0 -163.5 19.5t-133.5 50.5l72 238q70 -39 141 -39q78 0 125 49t47 129v678q0 91 -49 146t-131 55q-92 0 -148.5 -66t-56.5 -172v-596h-340v1079h340v-174h4q49 89 150 142t219 53z" />
    <glyph glyph-name="Omacron" unicode="&#x14c;" horiz-adv-x="1742" 
d="M514 1700v246h717v-246h-717zM872 -20q-237 0 -418.5 100.5t-280.5 284t-99 423.5q0 180 57.5 330.5t161.5 256t252.5 164t326.5 58.5q236 0 417 -100.5t280.5 -284.5t99.5 -424q0 -363 -219.5 -585.5t-577.5 -222.5zM872 260q194 0 312.5 145t118.5 383t-118.5 383.5
t-312.5 145.5q-195 0 -313.5 -145.5t-118.5 -383.5t118.5 -383t313.5 -145z" />
    <glyph glyph-name="omacron" unicode="&#x14d;" horiz-adv-x="1296" 
d="M291 1300v246h717v-246h-717zM649 -20q-263 0 -423 154t-160 407q0 252 160 405.5t423 153.5q261 0 421.5 -153.5t160.5 -405.5q0 -253 -160.5 -407t-421.5 -154zM649 248q106 0 171 81t65 212t-65 212t-171 81q-105 0 -170 -81t-65 -212t65 -212t170 -81z" />
    <glyph glyph-name="Ohungarumlaut" unicode="&#x150;" horiz-adv-x="1742" 
d="M526 1686l162 356h344l-252 -356h-254zM936 1686l162 356h344l-252 -356h-254zM872 -20q-237 0 -418.5 100.5t-280.5 284t-99 423.5q0 180 57.5 330.5t161.5 256t252.5 164t326.5 58.5q236 0 417 -100.5t280.5 -284.5t99.5 -424q0 -363 -219.5 -585.5t-577.5 -222.5z
M872 260q194 0 312.5 145t118.5 383t-118.5 383.5t-312.5 145.5q-195 0 -313.5 -145.5t-118.5 -383.5t118.5 -383t313.5 -145z" />
    <glyph glyph-name="ohungarumlaut" unicode="&#x151;" horiz-adv-x="1296" 
d="M303 1221l162 356h344l-252 -356h-254zM713 1221l161 356h345l-252 -356h-254zM649 -20q-263 0 -423 154t-160 407q0 252 160 405.5t423 153.5q261 0 421.5 -153.5t160.5 -405.5q0 -253 -160.5 -407t-421.5 -154zM649 248q106 0 171 81t65 212t-65 212t-171 81
q-105 0 -170 -81t-65 -212t65 -212t170 -81z" />
    <glyph glyph-name="OE" unicode="&#x152;" horiz-adv-x="2523" 
d="M1642 274h799v-274h-1106v248h-4q-86 -129 -217 -198.5t-295 -69.5q-333 0 -538 222.5t-205 585.5t205 586t538 223q164 0 295 -69.5t217 -198.5h4v248h1084v-274h-777v-359h703v-274h-703v-396zM866 260q190 0 306 145t116 383t-116 383.5t-306 145.5
q-191 0 -307.5 -145.5t-116.5 -383.5t116.5 -383t307.5 -145z" />
    <glyph glyph-name="oe" unicode="&#x153;" horiz-adv-x="2052" 
d="M1982 524v-39h-790q11 -126 72 -197t170 -71q78 0 139 45t78 115h329q-32 -179 -176 -288t-348 -109q-138 0 -246.5 60t-173.5 169h-4q-65 -109 -175 -169t-251 -60q-243 0 -390.5 154t-147.5 407q0 252 147.5 405.5t390.5 153.5q140 0 250.5 -60t177.5 -168h4
q64 107 172.5 167.5t245.5 60.5q236 0 381 -158.5t145 -417.5zM1427 872q-87 0 -147 -61t-80 -168h447q-20 107 -78 168t-142 61zM639 248q101 0 163 81t62 212t-62 212t-163 81t-163 -81t-62 -212t62 -212t163 -81z" />
    <glyph glyph-name="Racute" unicode="&#x154;" horiz-adv-x="1521" 
d="M1044 2042l-272 -356h-254l182 356h344zM1083 0l-305 618h-272v-618h-354v1577h645q279 0 449.5 -126.5t170.5 -332.5q0 -150 -79 -263.5t-220 -174.5l361 -680h-396zM506 1303v-426h309q106 0 171 59.5t65 157.5q0 94 -66 151.5t-172 57.5h-307z" />
    <glyph glyph-name="racute" unicode="&#x155;" horiz-adv-x="948" 
d="M842 1577l-273 -356h-254l183 356h344zM793 1100q71 0 129 -21v-311q-75 35 -191 35q-120 0 -193 -88.5t-73 -233.5v-481h-340v1079h340v-221h4q37 109 126 175.5t198 66.5z" />
    <glyph glyph-name="Rcommaaccent" unicode="&#x156;" horiz-adv-x="1521" 
d="M1118 680l361 -680h-396l-305 618h-272v-618h-354v1577h645q279 0 449.5 -126.5t170.5 -332.5q0 -150 -79 -263.5t-220 -174.5zM506 1303v-426h309q106 0 171 59.5t65 157.5q0 94 -66 151.5t-172 57.5h-307zM745 -102q75 0 121.5 -52t46.5 -137q0 -125 -76.5 -209
t-201.5 -94l-14 59q72 9 122.5 49.5t67.5 102.5q-48 -25 -92 -25q-63 0 -101 38t-38 100q0 75 45 121.5t120 46.5z" />
    <glyph glyph-name="rcommaaccent" unicode="&#x157;" horiz-adv-x="948" 
d="M793 1100q71 0 129 -21v-311q-75 35 -191 35q-120 0 -193 -88.5t-73 -233.5v-481h-340v1079h340v-221h4q37 109 126 175.5t198 66.5zM291 -102q75 0 121.5 -52t46.5 -137q0 -125 -76.5 -209t-202.5 -94l-14 59q72 9 122.5 49.5t67.5 102.5q-48 -25 -92 -25q-63 0 -101 38
t-38 100q0 75 45.5 121.5t120.5 46.5z" />
    <glyph glyph-name="Rcaron" unicode="&#x158;" horiz-adv-x="1521" 
d="M524 1683l-225 353h258l123 -181h4l121 181h258l-225 -353h-314zM1083 0l-305 618h-272v-618h-354v1577h645q279 0 449.5 -126.5t170.5 -332.5q0 -150 -79 -263.5t-220 -174.5l361 -680h-396zM506 1303v-426h309q106 0 171 59.5t65 157.5q0 94 -66 151.5t-172 57.5h-307z
" />
    <glyph glyph-name="rcaron" unicode="&#x159;" horiz-adv-x="948" 
d="M324 1223l-226 352h258l123 -180h4l121 180h258l-225 -352h-313zM793 1100q71 0 129 -21v-311q-75 35 -191 35q-120 0 -193 -88.5t-73 -233.5v-481h-340v1079h340v-221h4q37 109 126 175.5t198 66.5z" />
    <glyph glyph-name="Sacute" unicode="&#x15a;" horiz-adv-x="1464" 
d="M563 1686l182 356h345l-273 -356h-254zM729 -20q-283 0 -467.5 150.5t-204.5 397.5h351q11 -121 100.5 -194.5t228.5 -73.5q134 0 215.5 55t81.5 146q0 32 -11 58t-26.5 44.5t-45 34.5t-55 25.5t-69.5 19t-73.5 14.5t-81.5 13q-66 9 -113.5 18t-111.5 26t-109 37.5
t-93 54t-77.5 74.5t-48.5 99.5t-19 128.5q0 221 173 355t456 134q260 0 431.5 -144t191.5 -380h-353q-5 109 -84 176.5t-204 67.5q-113 0 -181.5 -49t-68.5 -131q0 -27 10 -49t25.5 -38.5t42 -30.5t52 -23t64.5 -17.5t70.5 -14t77.5 -12.5q69 -10 118 -19t116 -27t113.5 -39
t96.5 -55.5t80 -76.5t50 -102.5t20 -132.5q0 -233 -184.5 -376.5t-483.5 -143.5z" />
    <glyph glyph-name="sacute" unicode="&#x15b;" horiz-adv-x="1144" 
d="M403 1221l183 356h344l-273 -356h-254zM569 -20q-222 0 -363.5 98t-150.5 258h316q3 -68 57 -109t141 -41q86 0 137.5 33.5t51.5 87.5q0 33 -18.5 56t-59 38t-75.5 22.5t-97 16.5q-42 6 -73.5 12t-72.5 16t-72 23t-65 30t-57.5 40.5t-43.5 52t-30 66.5t-10 82
q0 152 133.5 245t351.5 93q211 0 345 -94.5t141 -249.5h-314q-3 63 -50.5 101t-121.5 38q-72 0 -115.5 -28t-43.5 -74q0 -28 17.5 -48.5t55 -34t73.5 -21.5t93 -17q49 -8 85.5 -15t84.5 -20.5t82.5 -29.5t71 -41t59 -55.5t37 -73t14.5 -93.5q0 -164 -141 -264t-373 -100z
" />
    <glyph glyph-name="Scedilla" unicode="&#x15e;" horiz-adv-x="1464" 
d="M1397 500q0 -219 -164 -360t-436 -158l-58 -93l2 -2q35 9 62 9q91 0 147 -48.5t56 -126.5q0 -96 -87 -154.5t-229 -58.5q-141 0 -229 48v129q96 -52 188 -52q62 0 100.5 21.5t38.5 56.5q0 31 -19.5 49.5t-53.5 18.5q-24 0 -48.5 -11.5t-37.5 -29.5l-97 65l101 181
q-245 26 -401 172.5t-175 371.5h351q11 -121 100.5 -194.5t228.5 -73.5q134 0 215.5 55t81.5 146q0 32 -11 58t-26.5 44.5t-45 34.5t-55 25.5t-69.5 19t-73.5 14.5t-81.5 13q-66 9 -113.5 18t-111.5 26t-109 37.5t-93 54t-77.5 74.5t-48.5 99.5t-19 128.5q0 221 173 355
t456 134q260 0 431.5 -144t191.5 -380h-353q-5 109 -84 176.5t-204 67.5q-113 0 -181.5 -49t-68.5 -131q0 -27 10 -49t25.5 -38.5t42 -30.5t52 -23t64.5 -17.5t70.5 -14t77.5 -12.5q69 -10 118 -19t116 -27t113.5 -39t96.5 -55.5t80 -76.5t50 -102.5t20 -132.5z" />
    <glyph glyph-name="scedilla" unicode="&#x15f;" horiz-adv-x="1144" 
d="M1083 344q0 -152 -120.5 -249.5t-325.5 -112.5l-57 -93l2 -2q34 9 61 9q91 0 147 -48.5t56 -126.5q0 -96 -87 -154.5t-229 -58.5q-141 0 -229 48v129q96 -52 188 -52q62 0 101 21.5t39 56.5q0 31 -20 49.5t-54 18.5q-24 0 -48.5 -11.5t-37.5 -29.5l-96 65l100 183
q-184 20 -297.5 114.5t-120.5 235.5h316q3 -68 57 -109t141 -41q86 0 137.5 33.5t51.5 87.5q0 33 -18.5 56t-59 38t-75.5 22.5t-97 16.5q-42 6 -73.5 12t-72.5 16t-72 23t-65 30t-57.5 40.5t-43.5 52t-30 66.5t-10 82q0 152 133.5 245t351.5 93q211 0 345 -94.5t141 -249.5
h-314q-3 63 -50.5 101t-121.5 38q-72 0 -115.5 -28t-43.5 -74q0 -28 17.5 -48.5t55 -34t73.5 -21.5t93 -17q49 -8 85.5 -15t84.5 -20.5t82.5 -29.5t71 -41t59 -55.5t37 -73t14.5 -93.5z" />
    <glyph glyph-name="Scaron" unicode="&#x160;" horiz-adv-x="1464" 
d="M571 1683l-225 353h258l123 -181h4l121 181h258l-225 -353h-314zM803 952q69 -10 118 -19t116 -27t113.5 -39t96.5 -55.5t80 -76.5t50 -102.5t20 -132.5q0 -233 -184.5 -376.5t-483.5 -143.5q-283 0 -467.5 150.5t-204.5 397.5h351q11 -121 100.5 -194.5t228.5 -73.5
q134 0 215.5 55t81.5 146q0 32 -11 58t-26.5 44.5t-45 34.5t-55 25.5t-69.5 19t-73.5 14.5t-81.5 13q-66 9 -113.5 18t-111.5 26t-109 37.5t-93 54t-77.5 74.5t-48.5 99.5t-19 128.5q0 221 173 355t456 134q260 0 431.5 -144t191.5 -380h-353q-5 109 -84 176.5t-204 67.5
q-113 0 -181.5 -49t-68.5 -131q0 -27 10 -49t25.5 -38.5t42 -30.5t52 -23t64.5 -17.5t70.5 -14t77.5 -12.5z" />
    <glyph glyph-name="scaron" unicode="&#x161;" horiz-adv-x="1144" 
d="M412 1223l-226 352h258l123 -180h4l121 180h258l-225 -352h-313zM649 672q49 -8 85.5 -15t84.5 -20.5t82.5 -29.5t71 -41t59 -55.5t37 -73t14.5 -93.5q0 -164 -141 -264t-373 -100q-222 0 -363.5 98t-150.5 258h316q3 -68 57 -109t141 -41q86 0 137.5 33.5t51.5 87.5
q0 33 -18.5 56t-59 38t-75.5 22.5t-97 16.5q-42 6 -73.5 12t-72.5 16t-72 23t-65 30t-57.5 40.5t-43.5 52t-30 66.5t-10 82q0 152 133.5 245t351.5 93q211 0 345 -94.5t141 -249.5h-314q-3 63 -50.5 101t-121.5 38q-72 0 -115.5 -28t-43.5 -74q0 -28 17.5 -48.5t55 -34
t73.5 -21.5t93 -17z" />
    <glyph glyph-name="uni0162" unicode="&#x162;" horiz-adv-x="1314" 
d="M836 0h-103l-69 -111l2 -2q35 9 61 9q91 0 147 -48.5t56 -126.5q0 -96 -87 -154.5t-229 -58.5q-141 0 -229 48v129q96 -52 188 -52q62 0 101 21.5t39 56.5q0 31 -20 49.5t-54 18.5q-24 0 -48.5 -11.5t-37.5 -29.5l-96 65l108 197h-86v1303h-448v274h1253v-274h-448v-1303
z" />
    <glyph glyph-name="uni0163" unicode="&#x163;" horiz-adv-x="894" 
d="M848 842h-311v-480q0 -59 45 -95t118 -36q84 0 148 33v-233q-115 -51 -256 -51q-53 0 -92 8l-62 -99l2 -2q35 9 62 9q91 0 147 -48.5t56 -126.5q0 -96 -87 -154.5t-229 -58.5q-141 0 -229 48v129q96 -52 188 -52q62 0 100.5 21.5t38.5 56.5q0 31 -19.5 49.5t-53.5 18.5
q-24 0 -48.5 -11.5t-37.5 -29.5l-97 65l129 234q-78 46 -120.5 121.5t-42.5 171.5v512h-164v237h180v310h324v-310h311v-237z" />
    <glyph glyph-name="Tcaron" unicode="&#x164;" horiz-adv-x="1314" 
d="M498 1683l-226 353h258l123 -181h4l121 181h258l-225 -353h-313zM1284 1577v-274h-448v-1303h-357v1303h-448v274h1253z" />
    <glyph glyph-name="tcaron" unicode="&#x165;" horiz-adv-x="894" 
d="M721 1677l280 -67l-129 -463l-262 67zM539 1389v-310h311v-237h-311v-480q0 -59 45 -95t118 -36q84 0 148 33v-233q-115 -51 -256 -51q-177 0 -286 96.5t-109 253.5v512h-164v237h180v310h324z" />
    <glyph glyph-name="Tbar" unicode="&#x166;" horiz-adv-x="1357" 
d="M1305 1303h-449v-433h303v-237h-303v-633h-356v633h-295v237h295v433h-449v274h1254v-274z" />
    <glyph glyph-name="tbar" unicode="&#x167;" horiz-adv-x="923" 
d="M866 842h-311v-162h311v-238h-311v-80q0 -59 45.5 -95t118.5 -36q83 0 147 33v-233q-115 -51 -256 -51q-177 0 -286 96.5t-109 253.5v112h-164v238h164v162h-164v237h180v310h324v-310h311v-237z" />
    <glyph glyph-name="Umacron" unicode="&#x16a;" horiz-adv-x="1554" 
d="M428 1700v246h717v-246h-717zM776 -20q-289 0 -465 165t-176 435v997h354v-1014q0 -136 81.5 -219.5t215.5 -83.5t215.5 83.5t81.5 219.5v1014h338v-997q0 -270 -177.5 -435t-467.5 -165z" />
    <glyph glyph-name="umacron" unicode="&#x16b;" horiz-adv-x="1267" 
d="M276 1300v246h717v-246h-717zM635 -20q-235 0 -379.5 122.5t-144.5 321.5v655h340v-620q0 -97 50.5 -155t133.5 -58q82 0 132 58.5t50 154.5v620h340v-655q0 -199 -144 -321.5t-378 -122.5z" />
    <glyph glyph-name="Uring" unicode="&#x16e;" horiz-adv-x="1554" 
d="M786 1673q-127 0 -204.5 68.5t-77.5 181.5q0 114 77 183t205 69t205.5 -69t77.5 -183q0 -113 -78 -181.5t-205 -68.5zM786 1821q44 0 70.5 28t26.5 74q0 47 -26.5 76t-70.5 29q-43 0 -69.5 -29t-26.5 -76q0 -46 26.5 -74t69.5 -28zM776 -20q-289 0 -465 165t-176 435v997
h354v-1014q0 -136 81.5 -219.5t215.5 -83.5t215.5 83.5t81.5 219.5v1014h338v-997q0 -270 -177.5 -435t-467.5 -165z" />
    <glyph glyph-name="uring" unicode="&#x16f;" horiz-adv-x="1267" 
d="M635 1176q-128 0 -205.5 68.5t-77.5 180.5q0 114 77.5 183t205.5 69t205.5 -69t77.5 -183q0 -112 -77.5 -180.5t-205.5 -68.5zM635 1323q44 0 70 28t26 74q0 48 -26 76.5t-70 28.5q-43 0 -69.5 -29t-26.5 -76q0 -46 26.5 -74t69.5 -28zM635 -20q-235 0 -379.5 122.5
t-144.5 321.5v655h340v-620q0 -97 50.5 -155t133.5 -58q82 0 132 58.5t50 154.5v620h340v-655q0 -199 -144 -321.5t-378 -122.5z" />
    <glyph glyph-name="Uhungarumlaut" unicode="&#x170;" horiz-adv-x="1554" 
d="M440 1686l162 356h344l-252 -356h-254zM850 1686l162 356h344l-252 -356h-254zM776 -20q-289 0 -465 165t-176 435v997h354v-1014q0 -136 81.5 -219.5t215.5 -83.5t215.5 83.5t81.5 219.5v1014h338v-997q0 -270 -177.5 -435t-467.5 -165z" />
    <glyph glyph-name="uhungarumlaut" unicode="&#x171;" horiz-adv-x="1267" 
d="M289 1221l162 356h344l-252 -356h-254zM698 1221l162 356h344l-252 -356h-254zM635 -20q-235 0 -379.5 122.5t-144.5 321.5v655h340v-620q0 -97 50.5 -155t133.5 -58q82 0 132 58.5t50 154.5v620h340v-655q0 -199 -144 -321.5t-378 -122.5z" />
    <glyph glyph-name="Uogonek" unicode="&#x172;" horiz-adv-x="1554" 
d="M1083 1577h338v-997q0 -221 -120.5 -374t-329.5 -204l2 -2q-83 -63 -134 -129t-51 -109q0 -29 19.5 -48t50.5 -19q54 0 115 37v-181q-78 -43 -203 -43q-111 0 -179.5 51t-68.5 134q0 61 53.5 137t147.5 152q-267 15 -427.5 177.5t-160.5 420.5v997h354v-1014
q0 -136 81.5 -219.5t215.5 -83.5t215.5 83.5t81.5 219.5v1014z" />
    <glyph glyph-name="uogonek" unicode="&#x173;" horiz-adv-x="1267" 
d="M817 1079h340v-655q0 -158 -92.5 -270t-253.5 -154h2q-82 -62 -133 -128.5t-51 -109.5q0 -29 19 -48t50 -19q54 0 115 37v-181q-78 -43 -203 -43q-111 0 -179.5 51t-68.5 134q0 61 54 137t149 154q-207 19 -330.5 137.5t-123.5 302.5v655h340v-620q0 -97 50.5 -155
t133.5 -58q82 0 132 58.5t50 154.5v620z" />
    <glyph glyph-name="Wcircumflex" unicode="&#x174;" horiz-adv-x="2187" 
d="M1104 1866l-123 -180h-258l225 352h314l225 -352h-258l-121 180h-4zM1823 1577h354l-405 -1577h-426l-250 1130h-4l-250 -1130h-424l-406 1577h377l264 -1194h4l269 1194h358l266 -1194h4z" />
    <glyph glyph-name="wcircumflex" unicode="&#x175;" horiz-adv-x="1736" 
d="M868 1405l-123 -180h-258l226 352h313l225 -352h-258l-121 180h-4zM1382 1079h344l-340 -1079h-350l-166 719h-4l-164 -719h-350l-340 1079h353l174 -721h4l170 721h321l172 -721h4z" />
    <glyph glyph-name="Ycircumflex" unicode="&#x176;" horiz-adv-x="1507" 
d="M766 1866l-123 -180h-258l225 352h314l225 -352h-258l-121 180h-4zM1530 1577l-606 -1030v-547h-355v551l-592 1026h408l381 -709h4l377 709h383z" />
    <glyph glyph-name="ycircumflex" unicode="&#x177;" horiz-adv-x="1212" 
d="M610 1405l-123 -180h-258l226 352h313l225 -352h-258l-121 180h-4zM860 1079h344l-571 -1550h-328l139 381l-436 1169h352l250 -770h4z" />
    <glyph glyph-name="Ydieresis" unicode="&#x178;" horiz-adv-x="1507" 
d="M549 1673q-79 0 -128.5 47.5t-49.5 124.5q0 76 49 123t129 47t129 -47t49 -123q0 -77 -49.5 -124.5t-128.5 -47.5zM989 1673q-81 0 -130.5 47.5t-49.5 124.5t49 123.5t131 46.5q80 0 129 -47t49 -123q0 -77 -49.5 -124.5t-128.5 -47.5zM1530 1577l-606 -1030v-547h-355
v551l-592 1026h408l381 -709h4l377 709h383z" />
    <glyph glyph-name="Zacute" unicode="&#x179;" horiz-adv-x="1386" 
d="M1069 2042l-272 -356h-254l182 356h344zM481 274h840v-274h-1266v289l813 1009v5h-759v274h1183v-289l-811 -1009v-5z" />
    <glyph glyph-name="zacute" unicode="&#x17a;" horiz-adv-x="1097" 
d="M918 1577l-273 -356h-254l182 356h345zM453 254h581v-254h-973v266l543 555v4h-510v254h916v-266l-557 -555v-4z" />
    <glyph glyph-name="Zdotaccent" unicode="&#x17b;" horiz-adv-x="1386" 
d="M705 1692q-86 0 -138.5 50t-52.5 130t52.5 129t138.5 49t139 -49t53 -129t-53 -130t-139 -50zM481 274h840v-274h-1266v289l813 1009v5h-759v274h1183v-289l-811 -1009v-5z" />
    <glyph glyph-name="zdotaccent" unicode="&#x17c;" horiz-adv-x="1097" 
d="M555 1247q-86 0 -138 50t-52 130t52 129.5t138 49.5t139.5 -49.5t53.5 -129.5t-53.5 -130t-139.5 -50zM453 254h581v-254h-973v266l543 555v4h-510v254h916v-266l-557 -555v-4z" />
    <glyph glyph-name="Zcaron" unicode="&#x17d;" horiz-adv-x="1386" 
d="M551 1683l-225 353h258l123 -181h4l120 181h259l-226 -353h-313zM481 274h840v-274h-1266v289l813 1009v5h-759v274h1183v-289l-811 -1009v-5z" />
    <glyph glyph-name="zcaron" unicode="&#x17e;" horiz-adv-x="1097" 
d="M399 1223l-225 352h258l123 -180h4l121 180h258l-225 -352h-314zM453 254h581v-254h-973v266l543 555v4h-510v254h916v-266l-557 -555v-4z" />
    <glyph glyph-name="florin" unicode="&#x192;" horiz-adv-x="1503" 
d="M1233 1329q-79 0 -131.5 -51.5t-69.5 -144.5l-35 -195h267v-240h-308l-61 -354q-29 -171 -149.5 -267.5t-303.5 -96.5q-170 0 -313 73l68 242q70 -45 176 -45q78 0 131.5 52t68.5 144l43 252h-251v240h292l52 297q31 171 150 266.5t302 95.5q178 0 314 -71l-66 -240
q-77 43 -176 43z" />
    <glyph glyph-name="Scommaaccent" unicode="&#x218;" horiz-adv-x="1464" 
d="M803 952q69 -10 118 -19t116 -27t113.5 -39t96.5 -55.5t80 -76.5t50 -102.5t20 -132.5q0 -233 -184.5 -376.5t-483.5 -143.5q-283 0 -467.5 150.5t-204.5 397.5h351q11 -121 100.5 -194.5t228.5 -73.5q134 0 215.5 55t81.5 146q0 32 -11 58t-26.5 44.5t-45 34.5t-55 25.5
t-69.5 19t-73.5 14.5t-81.5 13q-66 9 -113.5 18t-111.5 26t-109 37.5t-93 54t-77.5 74.5t-48.5 99.5t-19 128.5q0 221 173 355t456 134q260 0 431.5 -144t191.5 -380h-353q-5 109 -84 176.5t-204 67.5q-113 0 -181.5 -49t-68.5 -131q0 -27 10 -49t25.5 -38.5t42 -30.5
t52 -23t64.5 -17.5t70.5 -14t77.5 -12.5zM729 -102q75 0 121.5 -52t46.5 -137q0 -125 -76.5 -209t-202.5 -94l-14 59q72 9 123 49.5t68 102.5q-48 -25 -93 -25q-63 0 -101 38t-38 100q0 75 45.5 121.5t120.5 46.5z" />
    <glyph glyph-name="scommaaccent" unicode="&#x219;" horiz-adv-x="1144" 
d="M649 672q49 -8 85.5 -15t84.5 -20.5t82.5 -29.5t71 -41t59 -55.5t37 -73t14.5 -93.5q0 -164 -141 -264t-373 -100q-222 0 -363.5 98t-150.5 258h316q3 -68 57 -109t141 -41q86 0 137.5 33.5t51.5 87.5q0 33 -18.5 56t-59 38t-75.5 22.5t-97 16.5q-42 6 -73.5 12t-72.5 16
t-72 23t-65 30t-57.5 40.5t-43.5 52t-30 66.5t-10 82q0 152 133.5 245t351.5 93q211 0 345 -94.5t141 -249.5h-314q-3 63 -50.5 101t-121.5 38q-72 0 -115.5 -28t-43.5 -74q0 -28 17.5 -48.5t55 -34t73.5 -21.5t93 -17zM569 -102q75 0 121.5 -52t46.5 -137
q0 -125 -76.5 -209t-201.5 -94l-15 59q72 9 123 49.5t68 102.5q-48 -25 -92 -25q-63 0 -101.5 38t-38.5 100q0 75 45.5 121.5t120.5 46.5z" />
    <glyph glyph-name="uni021A" unicode="&#x21a;" horiz-adv-x="1314" 
d="M1284 1577v-274h-448v-1303h-357v1303h-448v274h1253zM655 -102q75 0 121.5 -52t46.5 -137q0 -125 -76.5 -209t-201.5 -94l-15 59q72 9 123 49.5t68 102.5q-48 -25 -92 -25q-63 0 -101.5 38t-38.5 100q0 75 45.5 121.5t120.5 46.5z" />
    <glyph glyph-name="uni021B" unicode="&#x21b;" horiz-adv-x="894" 
d="M850 842h-311v-480q0 -59 45 -95t118 -36q84 0 148 33v-233q-115 -51 -256 -51q-177 0 -286 96.5t-109 253.5v512h-164v237h180v310h324v-310h311v-237zM430 -102q75 0 121.5 -52t46.5 -137q0 -125 -76.5 -209t-202.5 -94l-14 59q72 9 123 49.5t68 102.5q-48 -25 -93 -25
q-63 0 -101 38t-38 100q0 75 45.5 121.5t120.5 46.5z" />
    <glyph glyph-name="uni0237" unicode="&#x237;" horiz-adv-x="593" 
d="M127 -471v1550h340v-1550h-340z" />
    <glyph glyph-name="circumflex" unicode="&#x2c6;" horiz-adv-x="794" 
d="M553 1524l225 -353h-258l-121 181h-4l-123 -181h-258l226 353h313z" />
    <glyph glyph-name="caron" unicode="&#x2c7;" horiz-adv-x="794" 
d="M520 1522h258l-225 -353h-313l-226 353h258l123 -181h4z" />
    <glyph glyph-name="breve" unicode="&#x2d8;" horiz-adv-x="763" 
d="M383 1161q-157 0 -255 99.5t-101 263.5h221q3 -75 40 -120.5t95 -45.5q57 0 93.5 45.5t39.5 120.5h223q-3 -164 -100.5 -263.5t-255.5 -99.5z" />
    <glyph glyph-name="dotaccent" unicode="&#x2d9;" horiz-adv-x="550" 
d="M272 1198q-86 0 -138 50t-52 130t52 129t138 49t139.5 -49t53.5 -129t-53.5 -130t-139.5 -50z" />
    <glyph glyph-name="ring" unicode="&#x2da;" horiz-adv-x="638" 
d="M319 1135q-127 0 -204.5 68t-77.5 181q0 114 77 183t205 69t205.5 -69t77.5 -183q0 -112 -77.5 -180.5t-205.5 -68.5zM319 1282q44 0 70.5 28t26.5 74q0 47 -26.5 76t-70.5 29q-43 0 -69.5 -29t-26.5 -76q0 -46 26.5 -74t69.5 -28z" />
    <glyph glyph-name="ogonek" unicode="&#x2db;" horiz-adv-x="532" 
d="M287 -492q-111 0 -179.5 51t-68.5 134q0 82 94 188.5t248 198.5l108 -80q-82 -62 -133 -128.5t-51 -109.5q0 -29 19.5 -48t50.5 -19q53 0 114 37v-181q-78 -43 -202 -43z" />
    <glyph glyph-name="tilde" unicode="&#x2dc;" horiz-adv-x="929" 
d="M61 1180q1 163 74.5 254.5t200.5 91.5q56 0 109 -22t99 -44t85 -22q42 0 69 25.5t33 70.5h137q-3 -164 -75.5 -255t-198.5 -91q-56 0 -109 22t-99 44t-85 22q-42 0 -69 -25.5t-33 -70.5h-138z" />
    <glyph glyph-name="hungarumlaut" unicode="&#x2dd;" horiz-adv-x="1040" 
d="M61 1171l162 357h344l-252 -357h-254zM471 1171l162 357h344l-252 -357h-254z" />
    <glyph glyph-name="gravecomb" unicode="&#x300;" 
d="M-53 1221h-254l-273 356h344z" />
    <glyph glyph-name="acutecomb" unicode="&#x301;" 
d="M-510 1221l182 356h344l-272 -356h-254z" />
    <glyph glyph-name="uni0302" unicode="&#x302;" 
d="M-242 1577l226 -352h-258l-121 180h-4l-123 -180h-258l225 352h313z" />
    <glyph glyph-name="tildecomb" unicode="&#x303;" 
d="M-870 1255q1 164 74 255.5t200 91.5q44 0 87.5 -14t72.5 -30.5t65 -30.5t68 -14q42 0 69 26t33 71h138q-3 -164 -76 -255t-199 -91q-56 0 -109 22t-99 44t-85 22q-42 0 -69 -26t-33 -71h-137z" />
    <glyph glyph-name="uni0304" unicode="&#x304;" 
d="M-750 1300v246h717v-246h-717z" />
    <glyph glyph-name="uni0306" unicode="&#x306;" 
d="M-381 1214q-157 0 -255 99.5t-101 263.5h221q3 -75 40 -120.5t95 -45.5q57 0 93.5 45.5t39.5 120.5h223q-3 -164 -100.5 -263.5t-255.5 -99.5z" />
    <glyph glyph-name="uni0307" unicode="&#x307;" 
d="M-279 1214q-86 0 -138 50.5t-52 130.5t52 129t138 49t139.5 -49t53.5 -129t-53.5 -130.5t-139.5 -50.5z" />
    <glyph glyph-name="uni0308" unicode="&#x308;" 
d="M-727 1241q-79 0 -128.5 47.5t-49.5 124.5q0 76 49 123t129 47t129 -47t49 -123q0 -77 -49.5 -124.5t-128.5 -47.5zM-287 1241q-81 0 -130.5 47.5t-49.5 124.5t49 123.5t131 46.5q80 0 129 -47t49 -123q0 -77 -49.5 -124.5t-128.5 -47.5z" />
    <glyph glyph-name="uni030A" unicode="&#x30a;" 
d="M-319 1176q-128 0 -205.5 68.5t-77.5 180.5q0 114 77.5 183t205.5 69t205 -69t77 -183q0 -113 -77.5 -181t-204.5 -68zM-319 1323q44 0 70 28t26 74q0 48 -26 76.5t-70 28.5q-43 0 -70 -29t-27 -76q0 -46 27 -74t70 -28z" />
    <glyph glyph-name="uni030B" unicode="&#x30b;" 
d="M-979 1221l162 356h344l-252 -356h-254zM-569 1221l161 356h345l-252 -356h-254z" />
    <glyph glyph-name="uni030C" unicode="&#x30c;" 
d="M-274 1575h258l-226 -352h-313l-225 352h258l123 -180h4z" />
    <glyph glyph-name="uni0312" unicode="&#x312;" 
d="M-162 1509q63 0 102.5 -36.5t39.5 -96.5q0 -64 -46.5 -103.5t-121.5 -39.5t-120.5 50.5t-45.5 133.5q0 111 76.5 187t201.5 88l21 -66q-150 -8 -191 -135q44 18 84 18z" />
    <glyph glyph-name="uni0326" unicode="&#x326;" 
d="M-139 -102q75 0 121.5 -52t46.5 -137q0 -125 -76.5 -209t-202.5 -94l-14 59q72 9 122.5 49.5t67.5 102.5q-48 -25 -92 -25q-63 0 -101 38t-38 100q0 75 45.5 121.5t120.5 46.5z" />
    <glyph glyph-name="uni0327" unicode="&#x327;" 
d="M-258 -104q91 0 147 -48.5t56 -126.5q0 -96 -87 -154.5t-229 -58.5q-141 0 -229 48v129q96 -52 188 -52q62 0 101 21.5t39 56.5q0 31 -20 49.5t-54 18.5q-24 0 -48.5 -11.5t-37.5 -29.5l-96 65l149 273l127 -76l-70 -111l3 -2q35 9 61 9z" />
    <glyph glyph-name="uni0328" unicode="&#x328;" 
d="M-246 -492q-111 0 -179.5 51t-68.5 134q0 82 94 188.5t248 198.5l109 -80q-82 -62 -133 -128.5t-51 -109.5q0 -29 19 -48t50 -19q54 0 115 37v-181q-78 -43 -203 -43z" />
    <glyph glyph-name="uni0335" unicode="&#x335;" 
d="M-868 625v237h796v-237h-796z" />
    <glyph glyph-name="uni0336" unicode="&#x336;" 
d="M-1671 713v239h1593v-239h-1593z" />
    <glyph glyph-name="uni0337" unicode="&#x337;" 
d="M-776 -98l-90 57l817 1215l90 -58z" />
    <glyph glyph-name="uni0338" unicode="&#x338;" 
d="M-1057 -86l-102 59l1055 1686l102 -62z" />
    <glyph glyph-name="uni0394" unicode="&#x394;" horiz-adv-x="1515" 
d="M954 1577l574 -1577h-1540l575 1577h391zM745 1212l-313 -938h631l-313 938h-5z" />
    <glyph glyph-name="uni03A9" unicode="&#x3a9;" horiz-adv-x="1732" 
d="M1647 893q0 -203 -96 -369t-265 -262l324 8v-270h-631v254q135 44 217 193.5t82 349.5q0 233 -113 376.5t-297 143.5q-187 0 -301 -143t-114 -377q0 -198 83 -347.5t218 -195.5v-254h-631v270l328 -8q-172 98 -268.5 263.5t-96.5 367.5q0 157 56.5 288.5t158.5 223
t247.5 142t319.5 50.5q231 0 408 -87t274 -247t97 -370z" />
    <glyph glyph-name="uni03BC" unicode="&#x3bc;" horiz-adv-x="1294" 
d="M829 1079h340v-1079h-340v172h-4q-46 -86 -144.5 -139t-213.5 -53h-2v-451h-340v1550h340v-639q0 -87 47.5 -140.5t124.5 -53.5q87 0 139.5 64t52.5 167v602z" />
    <glyph glyph-name="pi" unicode="&#x3c0;" horiz-adv-x="1452" 
d="M1413 1071v-237h-190v-834h-340v834h-314v-834h-340v834h-190v237h1374z" />
    <glyph glyph-name="Wgrave" unicode="&#x1e80;" horiz-adv-x="2187" 
d="M1272 1686h-254l-273 356h345zM1823 1577h354l-405 -1577h-426l-250 1130h-4l-250 -1130h-424l-406 1577h377l264 -1194h4l269 1194h358l266 -1194h4z" />
    <glyph glyph-name="wgrave" unicode="&#x1e81;" horiz-adv-x="1736" 
d="M1036 1221h-254l-272 356h344zM1382 1079h344l-340 -1079h-350l-166 719h-4l-164 -719h-350l-340 1079h353l174 -721h4l170 721h321l172 -721h4z" />
    <glyph glyph-name="Wacute" unicode="&#x1e82;" horiz-adv-x="2187" 
d="M1466 2042l-272 -356h-254l182 356h344zM1823 1577h354l-405 -1577h-426l-250 1130h-4l-250 -1130h-424l-406 1577h377l264 -1194h4l269 1194h358l266 -1194h4z" />
    <glyph glyph-name="wacute" unicode="&#x1e83;" horiz-adv-x="1736" 
d="M1231 1577l-273 -356h-253l182 356h344zM1382 1079h344l-340 -1079h-350l-166 719h-4l-164 -719h-350l-340 1079h353l174 -721h4l170 721h321l172 -721h4z" />
    <glyph glyph-name="Wdieresis" unicode="&#x1e84;" horiz-adv-x="2187" 
d="M887 1673q-79 0 -128.5 47.5t-49.5 124.5q0 76 49 123t129 47t129 -47t49 -123q0 -77 -49.5 -124.5t-128.5 -47.5zM1327 1673q-81 0 -130.5 47.5t-49.5 124.5t49 123.5t131 46.5q80 0 129 -47t49 -123q0 -77 -49.5 -124.5t-128.5 -47.5zM1823 1577h354l-405 -1577h-426
l-250 1130h-4l-250 -1130h-424l-406 1577h377l264 -1194h4l269 1194h358l266 -1194h4z" />
    <glyph glyph-name="wdieresis" unicode="&#x1e85;" horiz-adv-x="1736" 
d="M651 1241q-79 0 -128.5 47.5t-49.5 124.5q0 76 49 123t129 47t129 -47t49 -123q0 -77 -49.5 -124.5t-128.5 -47.5zM1092 1241q-81 0 -131 47.5t-50 124.5t49.5 123.5t131.5 46.5q80 0 129 -47t49 -123q0 -77 -49.5 -124.5t-128.5 -47.5zM1382 1079h344l-340 -1079h-350
l-166 719h-4l-164 -719h-350l-340 1079h353l174 -721h4l170 721h321l172 -721h4z" />
    <glyph glyph-name="uni1E9E" unicode="&#x1e9e;" horiz-adv-x="1767" 
d="M1266 903q202 -60 320 -191t118 -300q0 -195 -149 -313.5t-394 -118.5q-224 0 -369 130.5t-159 344.5h342q8 -88 60 -141.5t130 -53.5q77 0 124.5 50t47.5 132q0 101 -79 176t-207 97l-103 16v236l260 331v5h-702v-1303h-354v1577h1460v-289z" />
    <glyph glyph-name="Ygrave" unicode="&#x1ef2;" horiz-adv-x="1507" 
d="M936 1686h-254l-272 356h344zM1530 1577l-606 -1030v-547h-355v551l-592 1026h408l381 -709h4l377 709h383z" />
    <glyph glyph-name="ygrave" unicode="&#x1ef3;" horiz-adv-x="1212" 
d="M780 1221h-254l-272 356h344zM860 1079h344l-571 -1550h-328l139 381l-436 1169h352l250 -770h4z" />
    <glyph glyph-name="endash" unicode="&#x2013;" horiz-adv-x="1271" 
d="M113 430v238h1046v-238h-1046z" />
    <glyph glyph-name="emdash" unicode="&#x2014;" horiz-adv-x="1855" 
d="M113 430v238h1630v-238h-1630z" />
    <glyph glyph-name="quoteleft" unicode="&#x2018;" horiz-adv-x="583" 
d="M319 1294q77 0 125 -53t48 -139q0 -89 -56.5 -144t-148.5 -55q-98 0 -158.5 71t-60.5 187q0 183 118 302t312 134l14 -96q-115 -4 -196 -66.5t-107 -164.5q55 24 110 24z" />
    <glyph glyph-name="quoteright" unicode="&#x2019;" horiz-adv-x="591" 
d="M313 1597q98 0 158.5 -71t60.5 -187q0 -183 -118 -302t-312 -134l-14 96q115 4 196 67t107 165q-58 -25 -110 -25q-77 0 -124.5 53.5t-47.5 139.5q0 89 56 143.5t148 54.5z" />
    <glyph glyph-name="quotesinglbase" unicode="&#x201a;" horiz-adv-x="577" 
d="M281 371q98 0 158.5 -71t60.5 -187q0 -183 -118 -302.5t-312 -134.5l-15 97q115 4 196 66.5t107 164.5q-56 -24 -110 -24q-77 0 -124.5 53t-47.5 139q0 89 56.5 144t148.5 55z" />
    <glyph glyph-name="quotedblleft" unicode="&#x201c;" horiz-adv-x="1058" 
d="M514 1501q-115 -4 -196 -66.5t-107 -164.5q55 24 111 24q77 0 124.5 -53t47.5 -139q0 -89 -56.5 -144t-148.5 -55q-98 0 -158.5 71t-60.5 187q0 183 118 302t312 134zM797 1294q77 0 124.5 -53t47.5 -139q0 -89 -56.5 -144t-148.5 -55q-98 0 -158.5 71t-60.5 187
q0 183 118 302t312 134l14 -96q-115 -4 -196 -66.5t-107 -164.5q56 24 111 24z" />
    <glyph glyph-name="quotedblright" unicode="&#x201d;" horiz-adv-x="1069" 
d="M313 1597q98 0 158.5 -71t60.5 -187q0 -183 -118 -302t-312 -134l-14 96q115 4 196 67t107 165q-58 -25 -110 -25q-77 0 -124.5 53.5t-47.5 139.5q0 89 56 143.5t148 54.5zM788 1597q98 0 159 -71.5t61 -186.5q0 -183 -118 -302t-312 -134l-15 96q115 4 196 67t107 165
q-58 -25 -110 -25q-77 0 -124.5 53.5t-47.5 139.5q0 89 56 143.5t148 54.5z" />
    <glyph glyph-name="quotedblbase" unicode="&#x201e;" horiz-adv-x="1052" 
d="M281 371q98 0 158.5 -71t60.5 -187q0 -183 -118 -302.5t-312 -134.5l-15 97q115 4 196 66.5t107 164.5q-56 -24 -110 -24q-77 0 -124.5 53t-47.5 139q0 89 56.5 144t148.5 55zM756 371q98 0 158.5 -71t60.5 -187q0 -183 -118 -302.5t-312 -134.5l-15 97q115 4 196.5 66.5
t107.5 164.5q-56 -24 -111 -24q-77 0 -124.5 53t-47.5 139q0 89 56.5 144t148.5 55z" />
    <glyph glyph-name="dagger" unicode="&#x2020;" horiz-adv-x="763" 
d="M696 1337v-149h-229v-551h-168v551h-229v149h229v240h168v-240h229z" />
    <glyph glyph-name="daggerdbl" unicode="&#x2021;" horiz-adv-x="800" 
d="M715 1188h-230v-164h230v-150h-230v-237h-170v237h-229v150h229v164h-229v149h229v240h170v-240h230v-149z" />
    <glyph glyph-name="bullet" unicode="&#x2022;" horiz-adv-x="823" 
d="M412 344q-126 0 -203.5 71t-77.5 189t77.5 190t203.5 72t203 -72t77 -190t-77 -189t-203 -71z" />
    <glyph glyph-name="ellipsis" unicode="&#x2026;" horiz-adv-x="1554" 
d="M287 -20q-93 0 -149 53.5t-56 142.5q0 88 56.5 141.5t148.5 53.5q91 0 145.5 -53.5t54.5 -141.5q0 -89 -54.5 -142.5t-145.5 -53.5zM780 -20q-93 0 -149 53.5t-56 142.5q0 88 56.5 141.5t148.5 53.5q91 0 146 -53.5t55 -141.5q0 -89 -55 -142.5t-146 -53.5zM1270 -20
q-93 0 -149 53.5t-56 142.5q0 88 56.5 141.5t148.5 53.5q91 0 145.5 -53.5t54.5 -141.5q0 -89 -54.5 -142.5t-145.5 -53.5z" />
    <glyph glyph-name="perthousand" unicode="&#x2030;" horiz-adv-x="2381" 
d="M389 840q-149 0 -239.5 104t-90.5 275q0 170 90.5 274t239.5 104q150 0 241 -103.5t91 -274.5t-91 -275t-241 -104zM162 0l1061 1577h250l-1061 -1577h-250zM391 1030q43 0 68.5 51.5t25.5 137.5t-25.5 137t-68.5 51q-44 0 -70 -51t-26 -137t26 -137.5t70 -51.5z
M1247 -20q-149 0 -239 103.5t-90 274.5t90 275t239 104q150 0 241 -104t91 -275t-91 -274.5t-241 -103.5zM1999 -20q-149 0 -239.5 104t-90.5 274q0 171 90.5 275t239.5 104q150 0 241 -104t91 -275t-91 -274.5t-241 -103.5zM1247 170q43 0 69.5 51t26.5 137t-26.5 137.5
t-69.5 51.5t-69.5 -51.5t-26.5 -137.5t26.5 -137t69.5 -51zM2001 170q43 0 68.5 51t25.5 137t-25.5 137.5t-68.5 51.5q-44 0 -70 -51.5t-26 -137.5t26 -137t70 -51z" />
    <glyph glyph-name="guilsinglleft" unicode="&#x2039;" horiz-adv-x="737" 
d="M635 193h-334l-240 339l240 340h334l-227 -340z" />
    <glyph glyph-name="guilsinglright" unicode="&#x203a;" horiz-adv-x="737" 
d="M102 193l228 339l-228 340h334l240 -340l-240 -339h-334z" />
    <glyph glyph-name="fraction" unicode="&#x2044;" horiz-adv-x="387" 
d="M-461 0l1061 1577h250l-1061 -1577h-250z" />
    <glyph glyph-name="Euro" unicode="&#x20ac;" horiz-adv-x="1490" 
d="M1292 389l148 -231q-102 -80 -239 -129t-261 -49q-288 0 -482 170t-241 460h-160v103h148q-2 25 -2 75q0 49 2 74h-148v103h160q48 291 241 461.5t482 170.5q119 0 247.5 -33.5t217.5 -88.5l-143 -252q-55 43 -139 68.5t-167 25.5q-138 0 -235 -93.5t-133 -256.5h547
l-60 -105h-504q-2 -25 -2 -74q0 -48 2 -73h433l-58 -105h-358q36 -163 133 -256.5t235 -93.5q85 0 177 35.5t159 93.5z" />
    <glyph glyph-name="trademark" unicode="&#x2122;" horiz-adv-x="1486" 
d="M66 1427v150h516v-150h-158v-440h-199v440h-159zM1090 1577h268v-590h-199l6 352h-2l-110 -352h-144l-100 352h-2l6 -352h-188v590h268l94 -354h2z" />
    <glyph glyph-name="oneeighth" unicode="&#x215b;" horiz-adv-x="1908" 
d="M256 692v582h-195v151q115 0 177.5 35.5t93.5 116.5h162v-885h-238zM1243 1577h250l-1061 -1577h-250zM1681 463q76 -30 119 -83.5t43 -121.5q0 -121 -99.5 -195.5t-262.5 -74.5t-262 74t-99 196q0 68 42 122t118 83v2q-62 28 -96.5 74.5t-34.5 105.5q0 114 91.5 183
t240.5 69q150 0 242 -69t92 -183q0 -59 -35.5 -105.5t-98.5 -74.5v-2zM1481 713q-38 0 -63 -24t-25 -62q0 -39 24.5 -62.5t63.5 -23.5q40 0 65 23.5t25 62.5q0 38 -25 62t-65 24zM1481 172q53 0 84.5 28.5t31.5 75.5q0 49 -31.5 78t-84.5 29t-85 -29t-32 -78q0 -47 32 -75.5
t85 -28.5z" />
    <glyph glyph-name="threeeighths" unicode="&#x215c;" horiz-adv-x="2134" 
d="M764 948q0 -126 -96 -197t-267 -71q-148 0 -238.5 76.5t-103.5 212.5h230q3 -50 34 -77.5t83 -27.5q54 0 83 26.5t29 74.5q0 47 -33 72.5t-92 25.5h-20v160h18q49 0 76 24.5t27 67.5t-24.5 66.5t-68.5 23.5q-43 0 -69 -27.5t-29 -77.5h-223q12 136 99.5 212.5t228.5 76.5
q157 0 244 -68t87 -190q0 -126 -141 -184v-2q166 -55 166 -197zM1473 1577h249l-1060 -1577h-250zM1909 463q76 -30 119 -83.5t43 -121.5q0 -121 -100 -195.5t-263 -74.5t-261.5 74t-98.5 196q0 69 42 122.5t117 82.5v2q-62 28 -96.5 74.5t-34.5 105.5q0 114 91.5 183
t240.5 69q150 0 242 -69t92 -183q0 -59 -35 -105.5t-98 -74.5v-2zM1708 713q-38 0 -63 -24t-25 -62q0 -39 24.5 -62.5t63.5 -23.5q40 0 65 23.5t25 62.5q0 38 -25 62t-65 24zM1708 172q53 0 85 28.5t32 75.5q0 49 -32 78t-85 29t-85 -29t-32 -78q0 -47 32 -75.5t85 -28.5z
" />
    <glyph glyph-name="fiveeighths" unicode="&#x215d;" horiz-adv-x="2140" 
d="M782 985q0 -143 -97.5 -224t-270.5 -81q-151 0 -243.5 69t-107.5 193h232q9 -37 40 -57.5t77 -20.5q59 0 92 32t33 89q0 58 -32 90.5t-89 32.5q-40 0 -71 -20.5t-44 -55.5h-231l73 545h572v-180h-365l-31 -178l5 -2q68 59 184 59q129 0 201.5 -76.5t72.5 -214.5z
M1479 1577h250l-1061 -1577h-250zM1917 463q76 -30 119 -83.5t43 -121.5q0 -121 -100 -195.5t-263 -74.5t-261.5 74t-98.5 196q0 68 42 122t118 83v2q-132 60 -132 180q0 114 91.5 183t240.5 69q150 0 242 -69t92 -183q0 -59 -35 -105.5t-98 -74.5v-2zM1716 713
q-38 0 -63 -24t-25 -62q0 -39 24.5 -62.5t63.5 -23.5q40 0 65 23.5t25 62.5q0 38 -25 62t-65 24zM1716 172q53 0 85 28.5t32 75.5q0 49 -32 78t-85 29t-85 -29t-32 -78q0 -47 32 -75.5t85 -28.5z" />
    <glyph glyph-name="seveneighths" unicode="&#x215e;" horiz-adv-x="1988" 
d="M219 692q0 193 82 378.5t229 324.5v2h-475v180h674v-188q-125 -131 -194.5 -316t-69.5 -381h-246zM1321 1577h250l-1061 -1577h-250zM1757 463q76 -30 119 -83.5t43 -121.5q0 -121 -100 -195.5t-263 -74.5t-261.5 74t-98.5 196q0 68 42 122t118 83v2q-62 28 -96.5 74.5
t-34.5 105.5q0 114 91 183t240 69q150 0 242 -69t92 -183q0 -59 -35 -105.5t-98 -74.5v-2zM1556 713q-38 0 -63 -24t-25 -62q0 -39 24.5 -62.5t63.5 -23.5q40 0 65.5 23.5t25.5 62.5q0 38 -25.5 62t-65.5 24zM1556 172q53 0 85 28.5t32 75.5q0 49 -32 78t-85 29t-84.5 -29
t-31.5 -78q0 -47 31.5 -75.5t84.5 -28.5z" />
    <glyph glyph-name="partialdiff" unicode="&#x2202;" horiz-adv-x="1419" 
d="M688 1536q296 0 478 -212.5t182 -559.5q0 -233 -90.5 -411t-256.5 -275.5t-383 -97.5q-255 0 -410 126.5t-155 333.5q0 228 247 376t658 167q-36 129 -111 201.5t-175 72.5q-91 0 -179.5 -47t-140.5 -123l-223 173q98 124 251.5 200t307.5 76zM621 258q155 0 253.5 122
t110.5 325q-255 -2 -410 -76t-155 -195q0 -78 55.5 -127t145.5 -49z" />
    <glyph glyph-name="emptyset" unicode="&#x2205;" horiz-adv-x="1234" 
d="M1047 850q104 -135 104 -336q0 -239 -146 -385.5t-384 -146.5q-208 0 -347 108l-90 -88l-86 84l92 90q-104 135 -104 338q0 238 147 384t388 146q207 0 344 -110l84 84l84 -82zM227 512q0 -140 62 -240l579 570q-99 86 -250 86q-177 0 -284 -114t-107 -302zM618 94
q173 0 280.5 115.5t107.5 302.5q0 138 -60 240l-581 -572q103 -86 253 -86z" />
    <glyph glyph-name="product" unicode="&#x220f;" horiz-adv-x="1816" 
d="M1763 1577v-311h-264v-1737h-340v1737h-502v-1737h-340v1737h-266v311h1712z" />
    <glyph glyph-name="summation" unicode="&#x2211;" horiz-adv-x="1466" 
d="M61 -471v213l519 817l-496 805v213h1296v-272h-897l484 -746l-510 -758h944v-272h-1340z" />
    <glyph glyph-name="minus" unicode="&#x2212;" horiz-adv-x="1118" 
d="M119 389v254h880v-254h-880z" />
    <glyph glyph-name="radical" unicode="&#x221a;" horiz-adv-x="1472" 
d="M1145 1577h377l-656 -1802h-362l-203 557h-297v272h571l111 -395z" />
    <glyph glyph-name="infinity" unicode="&#x221e;" horiz-adv-x="1671" 
d="M1182 926q186 0 298.5 -113.5t112.5 -298.5t-112.5 -298.5t-298.5 -113.5q-119 0 -208.5 53t-137.5 148q-48 -95 -137 -148t-207 -53q-186 0 -299 113.5t-113 298.5t113 298.5t299 113.5q118 0 207 -53t137 -148q48 95 137.5 148t208.5 53zM553 373q58 0 92.5 38
t34.5 103t-34.5 103t-92.5 38q-57 0 -92 -38.5t-35 -102.5t35 -102.5t92 -38.5zM1120 373q57 0 92 38.5t35 102.5t-35 102.5t-92 38.5q-58 0 -92.5 -38t-34.5 -103t34.5 -103t92.5 -38z" />
    <glyph glyph-name="integral" unicode="&#x222b;" horiz-adv-x="1011" 
d="M246 -492q-82 0 -162.5 19.5t-132.5 50.5l69 238q70 -39 144 -39q78 0 125 49t47 129v1184q0 206 117.5 332t310.5 126q83 0 164.5 -19t132.5 -50l-72 -238q-70 39 -141 39q-78 0 -125 -49t-47 -129v-1184q0 -206 -118.5 -332.5t-311.5 -126.5z" />
    <glyph glyph-name="approxequal" unicode="&#x2248;" horiz-adv-x="1263" 
d="M104 532q3 164 87.5 256.5t230.5 92.5q93 0 179.5 -22.5t163 -45t144.5 -22.5q46 0 75.5 26t35.5 72h137q-1 -164 -85.5 -256t-231.5 -92q-93 0 -180 22t-163 44t-143 22q-47 0 -76.5 -26t-35.5 -71h-138zM104 123q3 164 87.5 256t230.5 92q93 0 179.5 -22.5t163 -45
t144.5 -22.5q46 0 75.5 26t35.5 72h137q-1 -164 -85.5 -256t-231.5 -92q-93 0 -180 22t-163 44t-143 22q-47 0 -76.5 -25.5t-35.5 -70.5h-138z" />
    <glyph glyph-name="notequal" unicode="&#x2260;" horiz-adv-x="1118" 
d="M999 584h-362l-39 -135h401v-254h-475l-57 -195h-121l57 195h-284v254h358l39 135h-397v254h471l59 200h121l-59 -200h288v-254z" />
    <glyph glyph-name="lessequal" unicode="&#x2264;" horiz-adv-x="1099" 
d="M983 1049v-252l-514 -113l514 -115v-254l-883 250v234zM102 0v254h881v-254h-881z" />
    <glyph glyph-name="greaterequal" unicode="&#x2265;" horiz-adv-x="1099" 
d="M117 1049l882 -250v-234l-882 -250v254l514 115l-514 113v252zM117 0v254h880v-254h-880z" />
    <glyph glyph-name="lozenge" unicode="&#x25ca;" horiz-adv-x="1091" 
d="M547 -70l-494 590l494 588l493 -588zM547 315l158 205l-158 203l-162 -203z" />
    <glyph glyph-name="uniF8FF" unicode="&#xf8ff;" horiz-adv-x="2609" 
d="M156 -20q-15 0 -25 10.5t-10 25.5q0 21 10 31l700 698h-663q-47 0 -47 39q0 16 14 33l696 701h-669q-41 0 -41 38v3q0 38 41 38h758q47 0 47 -41q0 -20 -17 -34l-698 -697h676q17 0 29 -12t12 -29v-669l694 692q13 16 35 16q37 0 37 -45v-663l696 692q13 16 33 16
q15 0 25 -12t10 -27q0 -18 -13 -28l-753 -762q-14 -14 -35 -14q-41 0 -41 47v663l-694 -696q-14 -14 -35 -14q-41 0 -41 47v663l-697 -696q-14 -14 -34 -14z" />
    <glyph glyph-name="uni00A40301" horiz-adv-x="1245" 
d="M756 1686l182 356h344l-272 -356h-254zM563 -20q-229 0 -374 160t-156 423h329q7 -136 65.5 -219.5t145.5 -83.5q80 0 129.5 65t49.5 171v1081h356v-1061q0 -242 -149.5 -389t-395.5 -147z" />
    <glyph glyph-name="i.loclTRK" horiz-adv-x="593" 
d="M293 1231q-86 0 -138.5 50t-52.5 130t52.5 129t138.5 49t139 -49t53 -129t-53 -130t-139 -50zM127 0v1079h340v-1079h-340z" />
    <glyph glyph-name="uni006A0301" horiz-adv-x="593" 
d="M129 1221l182 356h344l-272 -356h-254zM127 -471v1550h340v-1550h-340z" />
    <glyph glyph-name="zero.lf" horiz-adv-x="1433" 
d="M717 -20q-298 0 -465.5 213.5t-167.5 594.5q0 382 167.5 595.5t465.5 213.5q297 0 465 -213.5t168 -595.5q0 -380 -168 -594t-465 -214zM717 260q125 0 194.5 139.5t69.5 388.5t-70 389t-194 140q-126 0 -196 -140t-70 -389t70 -388.5t196 -139.5z" />
    <glyph glyph-name="one.lf" horiz-adv-x="901" 
d="M502 1577h241v-1577h-354v1092h-356v229q203 0 309.5 59.5t159.5 196.5z" />
    <glyph glyph-name="two.lf" horiz-adv-x="1341" 
d="M451 274h819v-274h-1196v291q366 203 569 424t203 418q0 83 -50.5 133.5t-133.5 50.5q-95 0 -158 -66t-72 -174h-342q19 233 178 376.5t398 143.5q255 0 410 -132t155 -347q0 -127 -67 -254t-180.5 -234t-248 -195.5t-284.5 -155.5v-5z" />
    <glyph glyph-name="three.lf" horiz-adv-x="1331" 
d="M928 809q152 -46 237.5 -140t85.5 -220q0 -211 -168 -340t-444 -129q-243 0 -403 141t-175 371h345q1 -104 67 -168t172 -64q107 0 172.5 58t65.5 153q0 97 -70.5 155t-187.5 58h-39v242h32q100 0 160 54.5t60 143.5q0 88 -54 140.5t-145 52.5t-148.5 -63.5t-60.5 -166.5
h-336q15 230 167.5 370t387.5 140q250 0 403.5 -123.5t153.5 -324.5q0 -114 -73 -201t-205 -135v-4z" />
    <glyph glyph-name="four.lf" horiz-adv-x="1400" 
d="M1337 608v-272h-204v-336h-355v336h-739v289l661 952h433v-969h204zM782 1231l-424 -617v-6h428v623h-4z" />
    <glyph glyph-name="five.lf" horiz-adv-x="1343" 
d="M807 1044q215 0 347 -143t132 -377q0 -245 -170.5 -394.5t-449.5 -149.5q-245 0 -407.5 126.5t-184.5 333.5h348q12 -82 79 -131t165 -49q114 0 183 72.5t69 191.5q0 118 -68 191t-178 73q-79 0 -145 -49t-95 -129h-346l127 967h958v-274h-647l-61 -388l4 -2
q134 131 340 131z" />
    <glyph glyph-name="six.lf" horiz-adv-x="1419" 
d="M877 1020q219 0 341.5 -126.5t122.5 -352.5q0 -263 -165 -412t-453 -149q-310 0 -474.5 205t-164.5 591q0 387 174.5 604t486.5 217q245 0 392.5 -119t167.5 -333h-344q-12 82 -68.5 127t-147.5 45q-138 0 -217.5 -132.5t-85.5 -369.5h4q62 99 172 152t259 53zM731 260
q114 0 179 66t65 184q0 117 -65 182.5t-179 65.5q-115 0 -179.5 -64t-64.5 -180q0 -117 67 -185.5t177 -68.5z" />
    <glyph glyph-name="seven.lf" horiz-adv-x="1210" 
d="M1174 1577v-289q-225 -243 -351.5 -584t-126.5 -704h-368q0 359 144.5 702.5t401.5 595.5v5h-847v274h1147z" />
    <glyph glyph-name="eight.lf" horiz-adv-x="1378" 
d="M1006 823q138 -52 215 -147.5t77 -222.5q0 -214 -167.5 -343.5t-442.5 -129.5q-274 0 -442 130t-168 343q0 127 78 223.5t217 146.5v4q-116 48 -180 133t-64 197q0 198 154 319t405 121q252 0 405.5 -121t153.5 -319q0 -112 -63 -197t-178 -133v-4zM688 1317
q-88 0 -141 -51t-53 -136t53 -135.5t141 -50.5t141.5 51t53.5 135q0 85 -53.5 136t-141.5 51zM688 260q109 0 175.5 60.5t66.5 158.5t-66.5 158.5t-175.5 60.5t-176.5 -60.5t-67.5 -158.5t67.5 -158.5t176.5 -60.5z" />
    <glyph glyph-name="nine.lf" horiz-adv-x="1425" 
d="M688 1597q316 0 484.5 -205t168.5 -591q0 -387 -174.5 -604t-486.5 -217q-254 0 -407 130.5t-175 364.5h344q12 -100 73 -157.5t159 -57.5q148 0 228.5 141t80.5 396h-4q-125 -195 -430 -195q-220 0 -342.5 121t-122.5 336q0 253 161 395.5t443 142.5zM694 864
q115 0 179.5 58t64.5 163t-67.5 168.5t-176.5 63.5q-115 0 -179 -59.5t-64 -167.5q0 -107 64.5 -166.5t178.5 -59.5z" />
    <glyph glyph-name="zero.osf" horiz-adv-x="1333" 
d="M668 -20q-268 0 -432 168t-164 444q0 275 164.5 442.5t431.5 167.5t430.5 -167.5t163.5 -442.5q0 -276 -163.5 -444t-430.5 -168zM668 248q112 0 179.5 95t67.5 249t-67.5 249t-179.5 95t-181 -95t-69 -249t69 -249t181 -95z" />
    <glyph glyph-name="one.osf" horiz-adv-x="831" 
d="M467 1182h227v-1182h-340v717h-313v221q183 0 280.5 57t145.5 187z" />
    <glyph glyph-name="two.osf" horiz-adv-x="1236" 
d="M420 254h743v-254h-1091v268q340 117 529.5 258t189.5 277q0 63 -47.5 102t-122.5 39q-87 0 -143 -54.5t-62 -144.5h-326q12 206 154.5 331.5t365.5 125.5q233 0 375.5 -109.5t142.5 -289.5q0 -191 -188 -336t-520 -209v-4z" />
    <glyph glyph-name="three.osf" horiz-adv-x="1222" 
d="M870 506q135 -45 210 -131.5t75 -200.5q0 -189 -156.5 -304.5t-412.5 -115.5q-226 0 -374 127t-161 332h322q4 -91 63.5 -145t153.5 -54q100 0 159.5 50t59.5 135q0 83 -65.5 133.5t-172.5 50.5h-32v238h26q92 0 147.5 45t55.5 120q0 70 -50 114t-130 44t-132.5 -52
t-58.5 -138h-315q14 201 156 324.5t360 123.5q232 0 374 -108t142 -285q0 -100 -63.5 -177t-180.5 -122v-4z" />
    <glyph glyph-name="four.osf" horiz-adv-x="1304" 
d="M1266 254v-254h-197v-225h-340v225h-686v270l657 916h369v-932h197zM733 788l-371 -530v-4h375v534h-4z" />
    <glyph glyph-name="five.osf" horiz-adv-x="1255" 
d="M750 727q204 0 329 -129t125 -340q0 -227 -160 -365.5t-423 -138.5q-233 0 -388.5 116.5t-175.5 307.5h336q12 -69 75 -112t153 -43q106 0 171.5 64.5t65.5 170.5q0 101 -62 163t-165 62q-77 0 -139.5 -39.5t-88.5 -103.5h-337l120 842h924v-254h-621l-55 -310l4 -4
q122 113 312 113z" />
    <glyph glyph-name="six.osf" horiz-adv-x="1333" 
d="M831 950q200 0 312 -117.5t112 -326.5q0 -247 -154 -386.5t-425 -139.5q-288 0 -441 193.5t-153 555.5q0 361 163 563.5t453 202.5q225 0 362.5 -112.5t160.5 -313.5h-320q-11 74 -63 116t-136 42q-132 0 -207 -122t-81 -343h4q121 188 413 188zM686 248q107 0 167 59.5
t60 165.5q0 107 -60 167t-167 60q-106 0 -166.5 -58.5t-60.5 -162.5q0 -108 61.5 -169.5t165.5 -61.5z" />
    <glyph glyph-name="seven.osf" horiz-adv-x="1124" 
d="M1092 1182v-269q-223 -215 -348.5 -516t-125.5 -622h-352q0 317 143.5 621t399.5 528v4h-782v254h1065z" />
    <glyph glyph-name="eight.osf" horiz-adv-x="1323" 
d="M971 770q130 -48 203 -137.5t73 -206.5q0 -201 -160.5 -323.5t-424.5 -122.5q-263 0 -424.5 122.5t-161.5 323.5q0 117 73 206.5t203 137.5v4q-107 45 -167 124t-60 181q0 187 147.5 301.5t389.5 114.5q243 0 389.5 -114t146.5 -302q0 -102 -60 -181t-167 -124v-4z
M662 1227q-87 0 -140 -48t-53 -126t52.5 -125t140.5 -47q86 0 139 47t53 125t-53 126t-139 48zM662 248q107 0 172 56.5t65 148.5t-65 148t-172 56t-172.5 -56t-65.5 -148t65.5 -148.5t172.5 -56.5z" />
    <glyph glyph-name="nine.osf" horiz-adv-x="1308" 
d="M627 1202q294 0 451 -184t157 -526q0 -349 -164 -543.5t-457 -194.5q-223 0 -358.5 106t-157.5 296h318q14 -63 65.5 -98t132.5 -35q129 0 204.5 111.5t84.5 311.5h-4q-122 -176 -414 -176q-199 0 -310.5 114t-111.5 318q0 234 150.5 367t413.5 133zM631 518
q107 0 167 54t60 151q0 99 -61.5 155t-165.5 56q-106 0 -167 -54.5t-61 -152.5q0 -99 60.5 -154t167.5 -55z" />
    <glyph glyph-name="zero.tf" horiz-adv-x="1419" 
d="M709 -20q-188 0 -331 100.5t-221.5 284t-78.5 423.5t78.5 424t221.5 284.5t331 100.5q189 0 333 -100.5t222.5 -284.5t78.5 -424t-78.5 -423.5t-222.5 -284t-333 -100.5zM709 260q120 0 193 145t73 383t-73 383.5t-193 145.5t-192.5 -145.5t-72.5 -383.5t72.5 -383
t192.5 -145z" />
    <glyph glyph-name="one.tf" horiz-adv-x="1419" 
d="M928 274h387v-274h-1172v274h430v805h-346v230q199 0 303 62t156 206h242v-1303z" />
    <glyph glyph-name="two.tf" horiz-adv-x="1419" 
d="M489 274h820v-274h-1196v291q366 203 569 424t203 418q0 83 -51 133.5t-134 50.5q-94 0 -157 -66.5t-72 -173.5h-342q19 233 178 376.5t398 143.5q255 0 410 -132t155 -347q0 -102 -44.5 -205.5t-119.5 -192.5t-176.5 -172.5t-211.5 -149.5t-229 -119v-5z" />
    <glyph glyph-name="three.tf" horiz-adv-x="1419" 
d="M973 809q152 -46 237.5 -140t85.5 -220q0 -211 -168 -340t-444 -129q-243 0 -403 141t-175 371h345q1 -104 67 -168t172 -64q107 0 172.5 58t65.5 153q0 97 -70 155t-186 58h-41v242h33q100 0 159.5 54.5t59.5 143.5q0 88 -54 140.5t-145 52.5t-148.5 -63.5t-60.5 -166.5
h-336q15 230 167.5 370t387.5 140q250 0 403.5 -123.5t153.5 -324.5q0 -114 -73 -201t-205 -135v-4z" />
    <glyph glyph-name="four.tf" horiz-adv-x="1419" 
d="M1354 608v-272h-215v-336h-357v336h-737v289l660 952h434v-969h215zM786 1231l-421 -617v-6h426v623h-5z" />
    <glyph glyph-name="five.tf" horiz-adv-x="1419" 
d="M844 1044q217 0 348 -142.5t131 -377.5q0 -245 -170.5 -394.5t-450.5 -149.5q-244 0 -406.5 126.5t-184.5 333.5h348q12 -82 78.5 -131t164.5 -49q114 0 183 72.5t69 191.5t-66.5 191.5t-178.5 72.5q-78 0 -144.5 -49t-95.5 -129h-346l127 967h958v-274h-647l-61 -388
l4 -2q134 131 340 131z" />
    <glyph glyph-name="six.tf" horiz-adv-x="1419" 
d="M874 1020q220 0 343.5 -126.5t123.5 -352.5q0 -263 -165.5 -412t-454.5 -149q-309 0 -473 205t-164 591q0 387 173.5 604t485.5 217q244 0 392 -119t170 -333h-344q-12 82 -69.5 127t-148.5 45q-137 0 -217 -133t-86 -369h4q62 99 171.5 152t258.5 53zM729 260
q116 0 180 66t64 184q0 117 -64.5 182.5t-179.5 65.5t-179.5 -64t-64.5 -180q0 -117 67 -185.5t177 -68.5z" />
    <glyph glyph-name="seven.tf" horiz-adv-x="1419" 
d="M1282 1577v-289q-227 -243 -354 -583.5t-127 -704.5h-369q0 359 146 702.5t405 595.5v5h-856v274h1155z" />
    <glyph glyph-name="eight.tf" horiz-adv-x="1419" 
d="M1026 823q139 -52 217 -147.5t78 -222.5q0 -214 -168 -343.5t-444 -129.5q-274 0 -442.5 130t-168.5 343q0 127 78 223.5t217 146.5v4q-115 48 -179 133.5t-64 196.5q0 198 154 319t405 121q252 0 406.5 -121t154.5 -319q0 -111 -64.5 -196.5t-179.5 -133.5v-4zM709 1317
q-88 0 -141.5 -51t-53.5 -136q0 -84 53.5 -135t141.5 -51t141 50.5t53 135.5t-53 136t-141 51zM709 260q110 0 176.5 60t66.5 159t-66.5 159t-176.5 60q-109 0 -175.5 -60.5t-66.5 -158.5t66.5 -158.5t175.5 -60.5z" />
    <glyph glyph-name="nine.tf" horiz-adv-x="1419" 
d="M684 1597q318 0 485.5 -205t167.5 -591q0 -387 -173.5 -604t-485.5 -217q-256 0 -409 130.5t-175 364.5h344q12 -100 73 -157.5t159 -57.5q148 0 229.5 141t81.5 396h-4q-128 -195 -430 -195q-220 0 -343.5 121t-123.5 336q0 252 161.5 395t442.5 143zM692 864
q115 0 179.5 58t64.5 163t-67.5 168.5t-176.5 63.5q-116 0 -179.5 -59t-63.5 -168q0 -107 64 -166.5t179 -59.5z" />
    <glyph glyph-name="zero.dnom" horiz-adv-x="864" 
d="M432 -12q-169 0 -272 125t-103 329t103 329.5t272 125.5t272 -125.5t103 -329.5t-103 -329t-272 -125zM432 172q59 0 95 74.5t36 195.5t-36 196t-95 75t-95 -75t-36 -196t36 -195.5t95 -74.5z" />
    <glyph glyph-name="one.dnom" horiz-adv-x="571" 
d="M299 885h162v-885h-238v582h-194v151q115 0 177 35.5t93 116.5z" />
    <glyph glyph-name="two.dnom" horiz-adv-x="819" 
d="M303 180h461v-180h-707v190q201 106 314.5 222.5t113.5 216.5q0 39 -22.5 61.5t-61.5 22.5q-46 0 -73.5 -29t-32.5 -82h-229q12 140 101.5 217.5t238.5 77.5q158 0 246.5 -71.5t88.5 -200.5q0 -56 -26.5 -113t-70 -105t-101 -91.5t-118 -76.5t-122.5 -57v-2z" />
    <glyph glyph-name="three.dnom" horiz-adv-x="806" 
d="M584 453q166 -55 166 -197q0 -126 -96 -197t-267 -71q-148 0 -238.5 76t-103.5 212h229q3 -49 33.5 -76.5t83.5 -27.5q54 0 83.5 26.5t29.5 73.5t-33 73t-92 26h-21v159h19q49 0 75.5 25t26.5 68t-24 66.5t-68 23.5q-43 0 -69 -27.5t-29 -77.5h-223q12 136 99 212.5
t228 76.5q157 0 244.5 -68t87.5 -190q0 -126 -141 -184v-2z" />
    <glyph glyph-name="four.dnom" horiz-adv-x="858" 
d="M811 354v-180h-119v-174h-237v174h-420v191l368 520h289v-531h119zM459 655l-213 -299v-2h215v301h-2z" />
    <glyph glyph-name="five.dnom" horiz-adv-x="821" 
d="M498 584q129 0 201.5 -76.5t72.5 -214.5q0 -143 -98 -224t-271 -81q-151 0 -243 69t-107 193h232q9 -37 39.5 -57.5t76.5 -20.5q59 0 92 32t33 89q0 58 -31.5 90.5t-88.5 32.5q-40 0 -71 -20.5t-44 -55.5h-232l74 545h572v-180h-365l-31 -179l4 -2q69 60 185 60z" />
    <glyph glyph-name="six.dnom" horiz-adv-x="862" 
d="M543 571q126 0 195 -69.5t69 -194.5q0 -150 -99 -234.5t-274 -84.5q-180 0 -277.5 118t-97.5 334t103 336.5t289 120.5q144 0 232 -68t103 -190h-229q-7 35 -35 54.5t-71 19.5q-69 0 -110 -67t-44 -185h2q75 110 244 110zM444 172q56 0 86.5 29.5t30.5 83.5
q0 55 -30.5 84.5t-86.5 29.5t-87 -29t-31 -83t31.5 -84.5t86.5 -30.5z" />
    <glyph glyph-name="seven.dnom" horiz-adv-x="729" 
d="M700 885v-189q-125 -131 -194.5 -315.5t-69.5 -380.5h-246q0 192 82 377.5t230 324.5v3h-475v180h673z" />
    <glyph glyph-name="eight.dnom" horiz-adv-x="833" 
d="M616 463q76 -30 119 -83.5t43 -121.5q0 -121 -99.5 -195.5t-262.5 -74.5t-262 74t-99 196q0 68 42 122t118 83v2q-62 28 -96.5 74.5t-34.5 105.5q0 114 91.5 183t240.5 69q150 0 242 -69t92 -183q0 -59 -35.5 -105.5t-98.5 -74.5v-2zM416 713q-38 0 -63 -24t-25 -62
q0 -39 24.5 -62.5t63.5 -23.5q40 0 65 23.5t25 62.5q0 38 -25 62t-65 24zM416 172q53 0 84.5 28.5t31.5 75.5q0 49 -31.5 78t-84.5 29t-85 -29t-32 -78q0 -47 32 -75.5t85 -28.5z" />
    <glyph glyph-name="nine.dnom" horiz-adv-x="866" 
d="M420 897q184 0 285.5 -119t101.5 -334t-103 -335.5t-288 -120.5q-151 0 -242 74t-106 208h227q9 -46 41.5 -72t79.5 -26q72 0 112.5 72t40.5 198h-2q-75 -104 -243 -104q-126 0 -195.5 66t-69.5 186q0 144 96 225.5t265 81.5zM422 510q55 0 86 26.5t31 73.5t-31.5 75
t-85.5 28q-56 0 -87.5 -27t-31.5 -74q0 -49 31.5 -75.5t87.5 -26.5z" />
    <glyph glyph-name="zero.numr" horiz-adv-x="864" 
d="M432 680q-169 0 -272 125.5t-103 329.5t103 329t272 125t272 -125t103 -329t-103 -329.5t-272 -125.5zM432 864q59 0 95 75t36 196t-36 195.5t-95 74.5t-95 -74.5t-36 -195.5t36 -196t95 -75z" />
    <glyph glyph-name="one.numr" horiz-adv-x="571" 
d="M299 1577h162v-885h-238v582h-194v151q115 0 177 35.5t93 116.5z" />
    <glyph glyph-name="two.numr" horiz-adv-x="817" 
d="M303 872h461v-180h-707v191q201 106 314.5 222t113.5 216q0 39 -22.5 61.5t-61.5 22.5q-46 0 -73.5 -29t-32.5 -82h-229q12 140 101.5 217.5t238.5 77.5q158 0 246.5 -71.5t88.5 -200.5q0 -56 -26.5 -113t-70 -105t-101 -91.5t-118 -76.5t-122.5 -57v-2z" />
    <glyph glyph-name="three.numr" horiz-adv-x="804" 
d="M582 1145q166 -55 166 -197q0 -126 -96 -197t-267 -71q-148 0 -238.5 76.5t-103.5 212.5h229q3 -50 34 -77.5t83 -27.5q54 0 83.5 27t29.5 74t-33 72.5t-92 25.5h-21v160h19q49 0 75.5 24.5t26.5 67.5t-24 66.5t-68 23.5q-43 0 -69 -27.5t-29 -77.5h-224
q12 136 99.5 212.5t228.5 76.5q157 0 244.5 -68t87.5 -190q0 -126 -141 -184v-2z" />
    <glyph glyph-name="four.numr" horiz-adv-x="858" 
d="M811 1047v-181h-119v-174h-237v174h-420v191l368 520h289v-530h119zM459 1348l-213 -299v-2h215v301h-2z" />
    <glyph glyph-name="five.numr" horiz-adv-x="817" 
d="M496 1276q129 0 201.5 -76.5t72.5 -214.5q0 -143 -98 -224t-271 -81q-151 0 -243 69t-107 193h232q9 -37 39.5 -57.5t76.5 -20.5q59 0 92 32t33 89q0 58 -32 90.5t-89 32.5q-40 0 -70 -20.5t-44 -55.5h-232l74 545h571v-180h-364l-31 -178l4 -2q68 59 185 59z" />
    <glyph glyph-name="six.numr" horiz-adv-x="862" 
d="M543 1264q126 0 195 -70t69 -195q0 -150 -99 -234.5t-274 -84.5q-180 0 -277.5 118.5t-97.5 334.5t103 336t289 120q144 0 232 -68t103 -190h-229q-7 35 -35 54.5t-71 19.5q-69 0 -110 -67t-44 -185h2q76 111 244 111zM444 864q56 0 86.5 29.5t30.5 83.5q0 55 -30.5 85
t-86.5 30t-87 -29.5t-31 -83.5t31.5 -84.5t86.5 -30.5z" />
    <glyph glyph-name="seven.numr" horiz-adv-x="729" 
d="M700 1577v-188q-125 -131 -194.5 -316t-69.5 -381h-246q0 192 82.5 378t229.5 325v2h-475v180h673z" />
    <glyph glyph-name="eight.numr" horiz-adv-x="833" 
d="M616 1155q76 -30 119 -83.5t43 -121.5q0 -121 -99.5 -195.5t-262.5 -74.5t-262 74t-99 196q0 68 42 122t118 83v2q-62 28 -96.5 74.5t-34.5 105.5q0 114 91.5 183t240.5 69q150 0 242 -69t92 -183q0 -59 -35.5 -105.5t-98.5 -74.5v-2zM416 1405q-38 0 -63 -24t-25 -62
q0 -39 24.5 -62.5t63.5 -23.5q40 0 65 23.5t25 62.5q0 38 -25 62t-65 24zM416 864q52 0 84 29t32 76q0 49 -31.5 77.5t-84.5 28.5t-85 -28.5t-32 -77.5q0 -47 32 -76t85 -29z" />
    <glyph glyph-name="nine.numr" horiz-adv-x="862" 
d="M418 1589q184 0 285.5 -118.5t101.5 -333.5t-103.5 -336t-287.5 -121q-150 0 -241.5 74.5t-106.5 208.5h227q9 -46 41.5 -72.5t79.5 -26.5q72 0 112.5 72.5t40.5 198.5h-2q-76 -105 -243 -105q-126 0 -195.5 66t-69.5 186q0 144 96 225.5t265 81.5zM420 1202q55 0 86 27
t31 74t-31.5 74.5t-85.5 27.5q-56 0 -87.5 -26.5t-31.5 -73.5q0 -49 31.5 -76t87.5 -27z" />
    <glyph glyph-name="backslash.case" horiz-adv-x="913" 
d="M623 -205l-580 1987h242l583 -1987h-245z" />
    <glyph glyph-name="exclamdown.case" horiz-adv-x="626" 
d="M516 1401q0 -88 -55.5 -141.5t-147.5 -53.5q-91 0 -146.5 53.5t-55.5 141.5q0 89 55.5 142.5t146.5 53.5q92 0 147.5 -53.5t55.5 -142.5zM199 1038h229l70 -1038h-369z" />
    <glyph glyph-name="questiondown.case" horiz-adv-x="1110" 
d="M604 1597q93 0 149 -53.5t56 -142.5q0 -88 -56.5 -141.5t-148.5 -53.5q-91 0 -146 53.5t-55 141.5q0 89 55 142.5t146 53.5zM739 1040v-14q0 -50 -14.5 -95.5t-47 -92.5t-55.5 -74t-69 -78q-54 -56 -80.5 -87.5t-52 -82.5t-25.5 -100q0 -69 49 -112.5t127 -43.5
q83 0 137 54.5t60 142.5h336q-15 -213 -166.5 -345t-380.5 -132q-243 0 -391 110.5t-148 292.5q0 36 8.5 71.5t20 62.5t35 59t40 51.5t50 50t49.5 44t53 44.5q46 39 60.5 52t49 48t47.5 56t25.5 53.5t12.5 64.5h270z" />
    <glyph glyph-name="slash.case" horiz-adv-x="913" 
d="M291 -205h-246l584 1987h241z" />
    <glyph glyph-name="numbersign.lf" horiz-adv-x="1699" 
d="M1610 983h-215l-39 -360h221l-31 -267h-219l-39 -356h-350l37 356h-350l-37 -356h-350l38 356h-217l29 267h219l41 360h-221l29 264h221l37 330h350l-39 -330h348l35 330h350l-35 -330h217zM647 612h359l41 377h-357z" />
    <glyph glyph-name="numbersign.osf" horiz-adv-x="1462" 
d="M1370 688h-174l-22 -192h176l-31 -252h-176l-29 -244h-328l27 244h-254l-27 -244h-327l28 244h-172l29 252h174l25 192h-176l28 254h178l29 240h326l-27 -240h250l31 240h327l-28 -240h174zM584 489h268l25 205h-269z" />
    <glyph glyph-name="braceleft.case" horiz-adv-x="768" 
d="M541 1079q0 -182 -158 -286v-5q158 -104 158 -288v-262q0 -65 38 -104.5t101 -39.5v-278q-223 0 -358.5 121t-135.5 319v262q0 60 -35 96.5t-92 36.5v279q57 0 92 36t35 97v262q0 197 136 317.5t358 120.5v-278q-63 0 -101 -39.5t-38 -104.5v-262z" />
    <glyph glyph-name="braceright.case" horiz-adv-x="768" 
d="M582 1063q0 -61 35 -97t92 -36v-279q-57 0 -92 -36.5t-35 -96.5v-262q0 -198 -135.5 -319t-358.5 -121v278q63 0 101 39.5t38 104.5v262q0 184 158 288v5q-158 104 -158 286v262q0 65 -38 104.5t-101 39.5v278q222 0 358 -120.5t136 -317.5v-262z" />
    <glyph glyph-name="bracketleft.case" horiz-adv-x="792" 
d="M721 1493h-209v-1409h209v-270h-563v1949h563v-270z" />
    <glyph glyph-name="bracketright.case" horiz-adv-x="792" 
d="M635 1763v-1949h-563v270h209v1409h-209v270h563z" />
    <glyph glyph-name="parenleft.case" horiz-adv-x="706" 
d="M358 -186q-130 193 -203 450t-73 524t73 525t203 450h316q-129 -213 -202 -470t-73 -505q0 -251 73 -509t202 -465h-316z" />
    <glyph glyph-name="parenright.case" horiz-adv-x="706" 
d="M348 -186h-315q129 207 201.5 464.5t72.5 509.5q0 248 -72.5 505t-201.5 470h315q130 -192 203.5 -450t73.5 -525t-73 -523.5t-204 -450.5z" />
    <glyph glyph-name="emdash.case" horiz-adv-x="1865" 
d="M119 635v237h1630v-237h-1630z" />
    <glyph glyph-name="endash.case" horiz-adv-x="1282" 
d="M119 635v237h1046v-237h-1046z" />
    <glyph glyph-name="hyphen.case" horiz-adv-x="907" 
d="M119 635v237h672v-237h-672z" />
    <glyph glyph-name="uni00AD.case" horiz-adv-x="907" 
d="M119 635v237h672v-237h-672z" />
    <glyph glyph-name="guillemotleft.case" horiz-adv-x="1230" 
d="M641 397h-334l-239 340l239 340h334l-227 -340zM1128 397h-333l-240 340l240 340h333l-227 -340z" />
    <glyph glyph-name="guillemotright.case" horiz-adv-x="1230" 
d="M102 397l228 340l-228 340h334l240 -340l-240 -340h-334zM590 397l227 340l-227 340h334l239 -340l-239 -340h-334z" />
    <glyph glyph-name="guilsinglleft.case" horiz-adv-x="743" 
d="M641 397h-334l-239 340l239 340h334l-227 -340z" />
    <glyph glyph-name="guilsinglright.case" horiz-adv-x="743" 
d="M102 397l228 340l-228 340h334l240 -340l-240 -340h-334z" />
    <glyph glyph-name="cent.osf" horiz-adv-x="1267" 
d="M1208 459q-23 -181 -157 -297t-336 -133v-176h-107v176q-240 14 -385 166t-145 393q0 239 145 391t385 166v182h107v-182q199 -17 332.5 -134.5t158.5 -299.5h-334q-10 62 -52 105t-105 58v-573q63 14 106 56t53 102h334zM426 588q0 -116 48.5 -193t133.5 -96v578
q-85 -19 -133.5 -96t-48.5 -193z" />
    <glyph glyph-name="dollar.osf" horiz-adv-x="1208" 
d="M1139 393q0 -173 -131.5 -284t-350.5 -123v-170h-106v170q-200 15 -333 128t-155 289h318q10 -63 55.5 -106t114.5 -57v241q-52 7 -90.5 13.5t-88.5 19.5t-86 29t-73.5 41.5t-61 57.5t-38.5 77t-15 100q0 161 123.5 264t329.5 115v168h106v-168q182 -14 304.5 -121.5
t142.5 -275.5h-316q-6 52 -40.5 89t-90.5 52v-205l15 -2q53 -8 91.5 -15t90.5 -21t89 -30.5t76.5 -42.5t64 -58t40 -76.5t15.5 -98.5zM424 848q0 -36 32.5 -57.5t94.5 -34.5v192q-58 -6 -92.5 -33t-34.5 -67zM657 236q72 7 114 38.5t42 77.5q0 48 -40.5 74t-115.5 41v-231z
" />
    <glyph glyph-name="Euro.osf" horiz-adv-x="1222" 
d="M1038 322l131 -205q-78 -60 -187.5 -96.5t-209.5 -36.5q-231 0 -388 126.5t-198 342.5h-129v82h119q-2 18 -2 59q0 31 2 47h-119v82h127q38 219 196 348t392 129q92 0 194 -25.5t177 -66.5l-125 -219q-41 28 -104.5 44.5t-125.5 16.5q-99 0 -168.5 -60t-97.5 -165h414
l-49 -84h-379q-2 -14 -2 -47q0 -39 2 -57h326l-48 -84h-262q30 -102 99 -161t165 -59q57 0 126 25t124 64z" />
    <glyph glyph-name="sterling.osf" horiz-adv-x="1132" 
d="M438 244h627v-244h-989v256q94 36 142.5 84.5t62.5 112.5h-175v209h117q-27 43 -40.5 67t-27.5 64.5t-14 74.5q0 149 124.5 240.5t328.5 91.5q191 0 317.5 -107.5t141.5 -285.5h-308q-8 65 -47.5 104t-99.5 39q-50 0 -80.5 -27t-30.5 -71q0 -21 11 -48t20 -42t34.5 -53
t31.5 -47h299v-209h-260q-39 -117 -185 -207v-2z" />
    <glyph glyph-name="yen.osf" horiz-adv-x="1327" 
d="M1292 1182l-450 -752h202v-84h-227v-82h227v-82h-227v-182h-321v182h-213v82h213v82h-213v84h192l-440 752h368l269 -498h4l272 498h344z" />
    <glyph glyph-name="plus.case" horiz-adv-x="1024" 
d="M952 848v-254h-270v-313h-340v313h-270v254h270v313h340v-313h270z" />
    <glyph glyph-name="minus.case" horiz-adv-x="1114" 
d="M117 594v254h880v-254h-880z" />
    <glyph glyph-name="multiply.case" horiz-adv-x="1071" 
d="M991 965l-233 -234l233 -235l-221 -222l-235 234l-234 -234l-223 222l235 235l-235 234l223 221l234 -234l235 234z" />
    <glyph glyph-name="divide.case" horiz-adv-x="1044" 
d="M520 920q-85 0 -135.5 49t-50.5 131q0 79 51 127.5t135 48.5t135.5 -49t51.5 -127q0 -82 -51 -131t-136 -49zM80 594v254h883v-254h-883zM520 166q-85 0 -135.5 49t-50.5 131q0 79 51 127.5t135 48.5t135.5 -49t51.5 -127q0 -82 -51 -131t-136 -49z" />
    <glyph glyph-name="equal.case" horiz-adv-x="1114" 
d="M117 788v254h880v-254h-880zM117 399v254h880v-254h-880z" />
    <glyph glyph-name="notequal.case" horiz-adv-x="1114" 
d="M997 788h-362l-39 -135h401v-254h-475l-57 -194h-121l57 194h-284v254h358l39 135h-397v254h471l59 201h121l-59 -201h288v-254z" />
    <glyph glyph-name="greater.case" horiz-adv-x="1064" 
d="M119 1200l880 -362v-232l-880 -360v268l588 209l-588 209v268z" />
    <glyph glyph-name="less.case" horiz-adv-x="1064" 
d="M944 1200v-268l-588 -209l588 -209v-268l-881 360v232z" />
    <glyph glyph-name="greaterequal.case" horiz-adv-x="1146" 
d="M143 1253l883 -249v-234l-883 -250v254l514 115l-514 112v252zM143 205v254h881v-254h-881z" />
    <glyph glyph-name="lessequal.case" horiz-adv-x="1146" 
d="M1001 1253v-252l-514 -112l514 -115v-254l-882 250v234zM121 205v254h880v-254h-880z" />
    <glyph glyph-name="plusminus.case" horiz-adv-x="1140" 
d="M741 1044h271v-251h-271v-207h-340v207h-270v251h270v207h340v-207zM131 205v254h881v-254h-881z" />
    <glyph glyph-name="logicalnot.case" horiz-adv-x="1087" 
d="M86 1006h881v-549h-340v295h-541v254z" />
    <glyph glyph-name="percent.osf" horiz-adv-x="1359" 
d="M328 594q-122 0 -196.5 83.5t-74.5 219.5t74.5 219.5t196.5 83.5q123 0 197.5 -83t74.5 -220t-74.5 -220t-197.5 -83zM168 0l807 1184h211l-805 -1184h-213zM330 754q32 0 51.5 38.5t19.5 104.5q0 65 -19.5 104t-51.5 39q-33 0 -53.5 -39.5t-20.5 -103.5q0 -65 20.5 -104
t53.5 -39zM1030 -16q-121 0 -195.5 84t-74.5 221t74.5 221t195.5 84q123 0 198 -84t75 -221t-75 -221t-198 -84zM1030 143q34 0 54 40.5t20 105.5t-20 104t-54 39q-33 0 -53.5 -39.5t-20.5 -103.5t21 -105t53 -41z" />
    <glyph glyph-name="perthousand.osf" horiz-adv-x="1964" 
d="M328 594q-122 0 -196.5 83.5t-74.5 219.5t74.5 219.5t196.5 83.5q123 0 197.5 -83t74.5 -220t-74.5 -220t-197.5 -83zM168 0l807 1184h211l-805 -1184h-213zM330 754q32 0 51.5 38.5t19.5 104.5q0 65 -19.5 104t-51.5 39q-33 0 -53.5 -39.5t-20.5 -103.5q0 -65 20.5 -104
t53.5 -39zM1030 -16q-121 0 -195.5 84t-74.5 221t74.5 221t195.5 84q123 0 198 -84t75 -221t-75 -221t-198 -84zM1642 -16q-120 0 -195 84.5t-75 220.5t75 220.5t195 84.5q123 0 198 -84t75 -221t-75 -221t-198 -84zM1030 143q34 0 54 40.5t20 105.5t-20 104t-54 39
q-33 0 -53.5 -39.5t-20.5 -103.5t21 -105t53 -41zM1642 143q34 0 55 40.5t21 105.5q0 64 -21 103.5t-55 39.5q-32 0 -52.5 -39.5t-20.5 -103.5q0 -65 20.5 -105.5t52.5 -40.5z" />
    <glyph glyph-name="uni0308.case" 
d="M-727 1176q-79 0 -128.5 47.5t-49.5 124.5q0 76 49 123t129 47t129 -47t49 -123q0 -77 -49.5 -124.5t-128.5 -47.5zM-287 1176q-81 0 -130.5 47.5t-49.5 124.5t49 123.5t131 46.5q80 0 129 -47t49 -123q0 -77 -49.5 -124.5t-128.5 -47.5z" />
    <glyph glyph-name="uni0307.case" 
d="M-279 1163q-86 0 -138 50t-52 130t52 129.5t138 49.5t139.5 -49.5t53.5 -129.5t-53.5 -130t-139.5 -50z" />
    <glyph glyph-name="gravecomb.case" 
d="M-53 1188h-254l-273 356h344z" />
    <glyph glyph-name="acutecomb.case" 
d="M-510 1188l182 356h344l-272 -356h-254z" />
    <glyph glyph-name="uni030B.case" 
d="M-979 1188l162 356h344l-252 -356h-254zM-569 1188l161 356h345l-252 -356h-254z" />
    <glyph glyph-name="uni0302.case" 
d="M-242 1540l226 -352h-258l-121 180h-4l-123 -180h-258l225 352h313z" />
    <glyph glyph-name="uni030C.case" 
d="M-274 1538h258l-226 -352h-313l-225 352h258l123 -180h4z" />
    <glyph glyph-name="uni0306.case" 
d="M-381 1178q-157 0 -255 99t-101 263h221q3 -75 40 -120.5t95 -45.5q57 0 93.5 45.5t39.5 120.5h223q-3 -164 -100.5 -263t-255.5 -99z" />
    <glyph glyph-name="uni030A.case" 
d="M-319 1176q-128 0 -205.5 68.5t-77.5 180.5q0 114 77.5 183t205.5 69t205 -69t77 -183q0 -113 -77.5 -181t-204.5 -68zM-319 1323q44 0 70 28t26 74q0 48 -26 76.5t-70 28.5q-43 0 -70 -29t-27 -76q0 -46 27 -74t70 -28z" />
    <glyph glyph-name="tildecomb.case" 
d="M-870 1198q1 163 74 254.5t200 91.5q56 0 109 -22t99 -44t85 -22q42 0 69 25.5t33 70.5h138q-3 -164 -76 -255t-199 -91q-56 0 -109 22t-99 44t-85 22q-42 0 -69 -25.5t-33 -70.5h-137z" />
    <glyph glyph-name="uni0304.case" 
d="M-750 1202v246h717v-246h-717z" />
    </font>
</defs>
</svg>
