<svg xmlns="http://www.w3.org/2000/svg" xmlns:xlink="http://www.w3.org/1999/xlink" version="1.1"><metadata>Created by FontForge 20160407 at Fri Jun 17 17:24:21 2016 By Jimmy Wärting Copyright (c) 2013 by Carlos de Toro Hernando. All rights reserved. www.carlosdetoro.com</metadata><defs><font id="Born" horiz-adv-x="530"><font-face x-height="449" ascent="750" bbox="-41 -275 1029.5 912" cap-height="695" descent="-250" font-family="Born" font-stretch="normal" font-weight="400" panose-1="2 0 0 0 0 0 0 0 0 0" stemh="37" stemv="86" underline-position="-100" underline-thickness="50" unicode-range="U+000D-FB04" units-per-em="1000"/><glyph d="M115 215c0 0 0 27 1 70c0 38 2 68 3 95c-1 11 -4 19 -15 19l-42 1c-3 0 -4 1 -4 3v26c0 2 0 7 4 8c6 1 44 8 59 10c3 72 12 131 53 180c1 2 3 3 5 5c9 13 54 54 102 75c26 12 63 19 101 19c45 0 92 -11 119 -38c0 0 2 -4 1 -11l-14 -93c0 -2 -2 -3 -4 -3 c-11 -1 -48 0 -47 0c-3 0 -4 1 -4 4l-3 34c-4 33 -50 52 -93 52c-58 0 -107 -37 -123 -80c-10 -35 -14 -79 -15 -139c1 -3 3 -5 7 -5h175c28 0 61 3 82 6c11 2 19 3 20 3c8 0 10 -3 10 -3l20 -22v-278c0 -44 5 -100 5 -100c0 -20 14 -19 14 -19h47c10 0 10 -18 10 -36 c0 0 -73 3 -122 3c-47 0 -117 -3 -117 -3c0 19 0 36 10 36h48s15 -1 15 19c0 0 4 54 4 100v224c0 11 -6 21 -24 22h-195c-11 0 -9 -17 -9 -17v-21c0 -56 2 -142 2 -145l3 -164c1 -12 5 -19 14 -19h46c10 0 10 -18 10 -36c-37 2 -68 3 -116 3c-47 0 -80 -2 -118 -3 c0 19 0 36 10 36h48c9 0 14 7 15 19z" glyph-name="fi" horiz-adv-x="626" unicode="fi"/><glyph d="M50 33h48c9 0 14 7 15 19l2 163s0 27 1 70c0 38 2 68 3 95c-1 11 -4 19 -15 19l-42 1c-3 0 -4 1 -4 3v26c0 2 0 7 4 8c6 1 44 8 59 10c3 81 13 144 67 196c17 17 54 47 93 64c26 12 63 19 101 19c27 0 55 -4 79 -13l22 9c7 0 10 -4 10 -4l20 -18v-548 c0 -44 4 -100 4 -100c1 -12 6 -19 15 -19h47c10 0 10 -18 10 -36c-37 2 -74 3 -122 3c-47 0 -80 -2 -118 -3c0 19 0 36 10 36h49c9 0 13 7 14 19c0 0 5 54 5 100v477c-12 27 -52 42 -90 42c-58 0 -107 -37 -123 -80c-10 -35 -14 -79 -15 -139c1 -3 3 -5 7 -5h95l-17 -48h-76 c-11 0 -9 -17 -9 -17v-21c0 -56 2 -142 2 -145l3 -163c1 -12 5 -20 14 -20h46c10 0 10 -18 10 -36c-37 2 -68 3 -116 3c-47 0 -80 -2 -118 -3c0 19 0 36 10 36z" glyph-name="fl" horiz-adv-x="624" unicode="fl"/><glyph d="M40 33h48c9 0 14 7 15 19l3 233c0 38 2 68 3 95c-1 11 -4 19 -15 19l-42 1c-3 0 -4 1 -4 3v26c0 2 0 7 4 8c6 1 44 8 59 10c3 72 12 131 53 180c9 11 19 21 31 31c43 37 125 68 182 68c45 0 95 -13 122 -40c15 13 38 30 65 44c32 17 64 27 99 27c31 0 80 -7 104 -34 c0 0 2 -4 1 -11l-14 -93c0 -2 -2 -3 -4 -3c-11 -1 -48 0 -47 0c-3 0 -4 1 -4 4l-3 34c-4 33 -50 45 -76 45c-41 0 -81 -20 -97 -71c-18 -56 -18 -133 -18 -236c0 -58 1 -116 2 -177l3 -163c1 -12 5 -19 14 -19h46c10 0 10 -18 10 -36c-37 2 -68 3 -116 3 c-47 0 -85 -2 -123 -3c0 19 0 36 10 36h53c9 0 14 7 15 19l2 163s0 27 1 70c0 38 2 68 3 95c-1 11 -4 19 -15 19l-42 1c-3 0 -4 1 -4 3v26c0 2 0 7 4 8l59 10c1 48 4 99 15 142c-1 61 -67 82 -110 82c-58 0 -112 -38 -128 -81c-15 -51 -15 -121 -15 -229 c0 -57 2 -146 2 -146l3 -162c1 -12 5 -20 14 -20h46c10 0 10 -18 10 -36c-37 2 -68 3 -116 3c-47 0 -80 -2 -118 -3c0 19 0 36 10 36z" glyph-name="ff" horiz-adv-x="669" unicode="ff"/><glyph d="M760 452l20 -22v-278c0 -44 5 -100 5 -100c0 -20 14 -19 14 -19h47c10 0 10 -18 10 -36c0 0 -73 3 -122 3c-47 0 -108 -3 -108 -3c0 19 0 36 10 36h39s15 -1 15 19c0 0 4 54 4 100v224c0 12 -7 23 -28 23h-40c-4 0 -5 1 -5 4v23c0 2 0 7 5 8c6 1 121 21 124 21 c8 0 10 -3 10 -3zM40 33h48c9 0 14 7 15 19l2 163s0 27 1 70c0 38 2 68 3 95c-1 11 -4 19 -15 19l-42 1c-3 0 -4 1 -4 3v26c0 2 0 7 4 8c6 1 44 8 59 10c3 72 12 131 53 180c9 11 19 21 32 31c42 37 125 68 181 68c45 0 95 -13 122 -40c15 13 38 30 65 44c32 17 64 27 99 27 c31 0 80 -7 104 -34c0 0 2 -4 1 -11l-14 -93c0 -2 -2 -3 -4 -3c-11 -1 -48 0 -47 0c-3 0 -4 1 -4 4l-3 34c-4 33 -50 45 -76 45c-41 0 -81 -20 -98 -71c-16 -51 -17 -119 -17 -267c0 -57 2 -146 2 -146l3 -163c1 -12 5 -19 14 -19h36c10 0 10 -18 10 -36c-37 2 -58 3 -106 3 c-47 0 -85 -2 -123 -3c0 19 0 36 10 36h53c9 0 14 7 15 19l2 163s0 27 1 70c0 38 2 68 3 95c-1 11 -4 19 -15 19l-42 1c-3 0 -4 1 -4 3v26c0 2 0 7 4 8l59 10c1 48 4 99 15 142c-1 61 -67 82 -110 82c-58 0 -112 -38 -128 -81c-15 -51 -15 -121 -15 -229 c0 -57 2 -146 2 -146l3 -162c1 -12 5 -20 14 -20h56c10 0 10 -18 10 -36c-37 2 -78 3 -126 3c-47 0 -80 -2 -118 -3c0 19 0 36 10 36z" glyph-name="ffi" horiz-adv-x="920" unicode="ffi"/><glyph d="M40 33h48c9 0 14 7 15 19l2 163s0 27 1 70c0 38 2 68 3 95c-1 11 -4 19 -15 19l-42 1c-3 0 -4 1 -4 3v26c0 2 0 7 4 8c6 1 44 8 59 10c3 72 12 131 53 180c9 11 19 21 31 31c43 37 125 68 182 68c45 0 95 -13 122 -40c15 13 38 30 65 44c32 17 64 27 99 27 c21 0 52 -3 77 -15l17 8c7 0 10 -4 10 -4l14 -21v-573c0 -43 3 -96 4 -99c1 -13 6 -20 15 -20h47c10 0 10 -18 10 -36c-37 2 -74 3 -122 3c-47 0 -72 -2 -110 -3c0 19 0 36 10 36h41c9 0 13 7 14 19c0 0 5 54 5 100v507c-8 29 -51 40 -75 40c-41 0 -81 -20 -98 -71 c-16 -51 -17 -119 -17 -208c0 -68 2 -135 2 -205l3 -163c1 -12 5 -19 14 -19h36c10 0 10 -18 10 -36c-37 2 -58 3 -106 3c-47 0 -88 -2 -126 -3c0 19 0 36 10 36h56c9 0 14 7 15 19l2 163c0 1 0 28 1 70c0 38 2 68 3 95c-1 11 -4 19 -15 19l-42 1c-3 0 -4 1 -4 3v26 c0 2 0 7 4 8l59 10c1 48 4 99 15 142c-1 61 -67 82 -110 82c-58 0 -112 -38 -128 -81c-15 -51 -15 -121 -15 -229c0 -57 2 -146 2 -146l3 -162c1 -12 5 -20 14 -20h56c10 0 10 -18 10 -36c-37 2 -78 3 -126 3c-47 0 -80 -2 -118 -3c0 19 0 36 10 36z" glyph-name="ffl" horiz-adv-x="893" unicode="ffl"/><glyph glyph-name=".notdef" horiz-adv-x="190"/><glyph glyph-name="NULL" horiz-adv-x="0"/><glyph glyph-name="NULL" horiz-adv-x="0"/><glyph glyph-name="CR" horiz-adv-x="190"/><glyph glyph-name="space" horiz-adv-x="215"/><glyph d="M298 98v107c-59 -13 -106 -28 -139 -43c-23 -10 -43 -27 -43 -57c0 -36 25 -58 53 -58c39 0 93 24 129 51zM69 373c0 8 0 9 5 13c15 10 88 74 148 74c54 0 161 -27 161 -122v-167c0 -72 2 -98 2 -98c2 -22 13 -38 38 -38h19c4 0 6 -2 6 -4v-21c0 -4 0 -7 -5 -8 c-58 -9 -111 -17 -115 -17c-8 0 -10 3 -10 3l-20 22v53c-40 -38 -91 -76 -146 -76c-66 0 -116 46 -116 117c0 49 45 77 80 89c56 20 97 32 182 45v73c-1 38 -24 93 -115 93c-19 0 -49 -4 -53 -29c-2 -10 -4 -28 -7 -70c0 -3 -1 -3 -3 -4c-1 0 -32 0 -46 2c0 0 -3 0 -3 3z" glyph-name="a" horiz-adv-x="458" unicode="a"/><glyph d="M184 721l20 -18v-548c0 -44 4 -100 4 -100c1 -12 6 -19 15 -19h47c10 0 10 -18 10 -36c-37 2 -74 3 -122 3c-47 0 -80 -2 -118 -3c0 19 0 36 10 36h49c9 0 13 7 14 19c0 0 5 54 5 100v493c0 12 -7 25 -28 25h-51c-3 0 -4 1 -4 3v23c0 2 0 6 4 7c7 2 131 19 135 19 c7 0 10 -4 10 -4z" glyph-name="l" horiz-adv-x="315" unicode="l"/><glyph d="M416 83c9 -8 25 -21 15 -31c-43 -43 -103 -65 -168 -65c-159 0 -217 109 -217 235c1 133 101 238 224 238c114 0 170 -75 170 -209l-307 -15c1 -113 54 -191 155 -191c35 0 79 1 128 38zM254 419c-59 0 -112 -31 -120 -147l218 19c0 56 -28 128 -98 128z" glyph-name="e" horiz-adv-x="475" unicode="e"/><glyph d="M439 722l20 -20v-546c0 -43 5 -99 5 -99c1 -12 14 -17 27 -17h32c3 0 5 -1 5 -3v-23c0 -2 0 -7 -5 -8c-7 -1 -121 -21 -124 -21c-8 0 -10 3 -10 3l-20 22v55c-16 -16 -79 -79 -145 -79c-114 0 -178 101 -178 210c0 135 94 263 237 263c35 0 65 -5 90 -15v203 c0 12 -7 25 -28 25h-50c-4 0 -5 1 -5 3v22c0 3 0 7 5 8c6 1 131 20 134 20c8 0 10 -3 10 -3zM372 125c1 11 1 21 1 31v158c-1 13 -2 23 -4 28c-15 35 -50 72 -110 72c-92 0 -126 -110 -126 -183c0 -82 13 -183 119 -183c43 0 109 42 120 77z" glyph-name="d" horiz-adv-x="565" unicode="d"/><glyph d="M415 82c9 -8 26 -22 16 -32l-10 -9c-48 -43 -104 -54 -158 -54c-149 0 -217 127 -217 232c1 137 81 241 236 241c44 0 97 -16 123 -36c0 0 5 -3 3 -14l-12 -99c0 -2 -2 -3 -4 -3c-11 -1 -41 -1 -40 -1c-3 0 -4 1 -4 4c-2 26 -4 45 -7 60c-11 46 -58 48 -86 48 c-100 0 -119 -88 -120 -198c0 -83 54 -185 153 -185c28 0 62 0 104 29z" glyph-name="c" horiz-adv-x="470" unicode="c"/><glyph d="M350 33h49c8 0 13 7 14 19c0 0 5 54 5 100v134c0 49 -3 107 -95 108c-59 0 -120 -44 -123 -80v-162c0 -44 5 -100 5 -100c0 -20 14 -19 14 -19h47c10 0 10 -18 10 -36c0 0 -73 3 -122 3c-47 0 -117 -3 -117 -3c0 19 0 36 10 36h48s15 -1 15 19c0 0 4 54 4 100v491 c0 12 -7 25 -28 25h-40c-4 0 -5 1 -5 3v26s0 3 5 4l124 21c6 1 10 -4 10 -4l20 -20v-321c5 2 71 80 156 80c62 0 148 -46 148 -130v-175c0 -44 4 -100 4 -100c1 -12 6 -19 15 -19h47c10 0 10 -18 10 -36c-37 2 -74 3 -122 3c-47 0 -80 -2 -118 -3c0 19 0 36 10 36z" glyph-name="h" horiz-adv-x="620" unicode="h"/><glyph d="M190 455l20 -22v-264c0 -11 0 -99 -11 -191c-10 -81 -8 -145 -87 -236c-7 -7 -9 -12 -20 -12l-77 2c-3 0 -3 3 -3 3c-2 14 -2 47 -2 48c1 2 1 3 4 3c42 3 70 5 80 7c13 2 17 6 22 16c4 12 8 30 8 45v525c0 12 -7 24 -28 24h-40c-4 0 -5 1 -5 4v22c0 2 0 7 5 8 c6 1 121 21 124 21c8 0 10 -3 10 -3zM117 609c0 15 1 28 11 37c9 8 26 13 40 14s32 -1 41 -12c9 -8 12 -25 11 -39c-1 -15 -6 -25 -13 -34c-9 -12 -29 -16 -45 -16s-26 8 -35 19c-6 9 -10 19 -10 31z" glyph-name="j" horiz-adv-x="292" unicode="j"/><glyph d="M588 414h-30c-10 0 -10 17 -10 36c38 -1 68 -3 100 -3c37 0 55 2 92 5c0 -18 0 -36 -10 -36h-23c-22 0 -43 -11 -52 -31c0 0 -120 -301 -149 -387c-10 1 -18 2 -26 2c-9 0 -16 -1 -25 -2c-16 53 -66 200 -101 303c-35 -92 -94 -245 -114 -303c-9 1 -18 2 -26 2 c-9 0 -17 -1 -26 -2c-26 87 -129 393 -136 400c-6 13 -26 16 -35 16h-32c-10 0 -10 17 -10 36c38 -1 71 -3 118 -3c48 0 85 0 122 3c0 -18 0 -36 -10 -36h-36c-9 0 -25 -6 -22 -19c0 0 43 -173 87 -294l119 321c14 -2 24 -2 32 -2c9 0 18 0 30 2c0 0 42 -200 86 -321 l108 284c5 16 -4 29 -21 29z" glyph-name="w" horiz-adv-x="726" unicode="w"/><glyph d="M268 37h47c10 0 10 -22 10 -40c-37 2 -101 3 -149 3c-47 0 -102 -2 -140 -3c0 19 0 40 10 40h48c15 0 37 12 37 27c0 0 3 49 2 95v469c0 15 -24 27 -39 27h-48c-10 0 -10 21 -10 40c38 -1 93 -3 140 -3c48 0 112 1 149 3c0 -18 0 -40 -10 -40h-47c-15 0 -40 -12 -41 -27 v-248c1 -2 3 -4 8 -4h373c4 0 6 2 7 5v247c0 15 -25 27 -39 27h-49c-10 0 -10 21 -10 40c38 -1 93 -3 140 -3c49 0 112 1 149 3c0 -18 0 -40 -10 -40h-47c-14 0 -39 -12 -40 -27v-469c0 -44 3 -95 3 -95c0 -15 23 -27 37 -27h47c10 0 10 -22 10 -40c-37 2 -100 3 -149 3 c-47 0 -102 -2 -140 -3c0 19 0 40 10 40h49c14 0 37 12 37 27c0 0 3 49 2 95v166c0 1 -2 3 -7 3h-373c-5 0 -7 -3 -8 -5v-164c0 -43 3 -91 4 -94c0 -15 22 -28 37 -28z" glyph-name="H" horiz-adv-x="838" unicode="H"/><glyph d="M418 708c184 0 337 -160 337 -354c0 -230 -148 -373 -348 -373c-257 0 -360 194 -360 370c0 200 141 357 371 357zM380 651c-143 0 -219 -120 -219 -265c0 -251 132 -351 280 -351c89 0 201 77 201 298c0 189 -113 317 -262 318z" glyph-name="O" horiz-adv-x="802" unicode="O"/><glyph d="M306 396c-56 0 -117 -43 -120 -79v-174c1 -17 2 -36 5 -42c15 -35 49 -72 108 -72c89 0 128 98 128 183c0 83 -15 184 -121 184zM32 -239h49c9 0 13 7 14 19c0 0 5 54 5 100v499c0 12 -7 24 -28 24h-51c-3 0 -4 1 -4 4v22c0 2 0 7 4 8c7 1 131 21 135 21c7 0 10 -3 10 -3 l20 -22v-54s72 79 148 79c60 0 120 -30 149 -85c19 -36 31 -78 31 -125c0 -136 -85 -264 -212 -264c-54 0 -90 18 -116 42v-146c0 -44 4 -100 4 -100c1 -11 6 -19 15 -19h47c10 0 10 -18 10 -36c-37 3 -74 4 -122 4c-47 0 -80 -2 -118 -4c0 19 0 36 10 36z" glyph-name="p" horiz-adv-x="560" unicode="p"/><glyph d="M155 722l20 -20v-322s72 80 148 80c131 0 180 -86 180 -211c0 -135 -88 -263 -237 -263c-91 0 -115 23 -140 23c-9 0 -22 -18 -22 -18l-24 8c3 27 9 77 9 157v491c0 12 -7 24 -28 24h-51c-3 0 -4 2 -4 4v22c0 2 0 7 4 8c7 1 132 20 135 20c8 0 10 -3 10 -3zM175 318v-162 c0 -30 3 -65 5 -80c2 -20 50 -47 93 -47c93 0 143 71 143 181c0 83 -21 188 -121 188c-56 0 -117 -44 -120 -80z" glyph-name="b" horiz-adv-x="549" unicode="b"/><glyph d="M375 139v173c-4 40 -23 100 -110 100c-93 0 -131 -105 -131 -179c0 -84 14 -187 122 -187c47 0 115 52 119 93zM480 -239h48c10 0 10 -17 10 -36c-38 2 -70 4 -117 4c-49 0 -86 -1 -123 -4c0 18 0 36 11 36h47c9 0 13 8 14 19c0 0 5 56 5 100v189s-74 -85 -150 -85 c-105 0 -179 85 -179 210c0 135 95 264 238 264c29 0 54 -4 76 -10c24 -6 48 -12 62 -12c11 0 20 15 20 15l26 -8c-4 -21 -7 -77 -7 -99v-464c0 -46 4 -100 4 -100c1 -12 6 -19 15 -19z" glyph-name="q" horiz-adv-x="575" unicode="q"/><glyph d="M37 -3c0 19 0 36 10 36h48c1 0 15 0 15 19c0 0 4 54 4 100v228c0 12 -7 24 -28 24h-40c-4 0 -5 1 -5 4v22c0 2 0 7 5 8c6 1 121 21 124 21c8 0 10 -3 10 -3l20 -22v-65c3 13 70 91 128 91c29 0 60 -6 70 -33c0 0 2 -4 1 -12l-6 -80c0 -2 -2 -3 -4 -3c-11 -1 -37 0 -36 0 c-3 0 -4 1 -4 4c-2 18 -4 30 -6 39c-4 17 -18 21 -40 21c-44 -2 -103 -61 -103 -99v-145c0 -44 5 -100 5 -100c1 -19 32 -19 33 -19h47c10 0 10 -18 10 -36c0 0 -92 3 -141 3c-47 0 -117 -3 -117 -3z" glyph-name="r" horiz-adv-x="410" unicode="r"/><glyph d="M485 49c10 -13 24 -20 36 -20h26c10 0 10 -14 10 -32c-19 1 -43 2 -69 2c-13 0 -41 -2 -58 -2c-9 0 -15 1 -21 8c-24 30 -31 37 -35 44l-98 121c-12 13 -37 37 -67 38v-56c0 -44 4 -100 4 -100c1 -12 6 -19 15 -19h47c10 0 10 -18 10 -36c-37 2 -74 3 -122 3 c-47 0 -80 -2 -118 -3c0 19 0 36 10 36h49c9 0 13 7 14 19c0 0 5 54 5 100v495c0 12 -7 25 -28 25h-51c-3 0 -4 1 -4 3v23c0 2 0 6 4 7c7 2 131 20 135 20c7 0 10 -4 10 -4l20 -19v-453c4 0 28 2 52 19c42 46 107 118 107 119c13 15 18 27 -9 27h-35c-10 0 -10 17 -10 36 c38 -1 68 -2 101 -2c37 0 55 0 92 2c0 -18 0 -36 -10 -36h-32c-18 0 -32 -12 -47 -27l-104 -117c-6 -6 -6 -12 -3 -18z" glyph-name="k" horiz-adv-x="557" unicode="k"/><glyph d="M402 129v159c0 24 -1 56 -2 80c-2 27 -8 36 -29 36h-37c-4 0 -5 1 -5 4v22c0 2 0 7 5 8c6 1 121 21 124 21c8 0 10 -3 10 -3l20 -22v-359c0 -22 2 -35 28 -35h19c3 0 6 -2 6 -4v-21c0 -4 0 -7 -5 -8c-58 -9 -101 -20 -104 -20c-8 0 -10 3 -10 3l-20 21v52 c-5 -3 -66 -79 -151 -79c-62 0 -148 44 -148 128v176c0 24 -2 56 -3 80c-2 27 -7 36 -28 36h-37c-4 0 -5 1 -5 4v22c0 2 0 7 5 8c6 1 121 21 124 21c8 0 10 -3 10 -3l20 -22v-281c0 -49 16 -107 94 -107c48 0 115 43 119 83z" glyph-name="u" horiz-adv-x="578" unicode="u"/><glyph d="M132 -193l76 187c-27 89 -148 395 -155 402c-7 13 -22 18 -34 18h-34c-10 0 -10 17 -10 36c38 -1 70 -3 117 -3c49 0 86 0 123 3c0 -18 0 -36 -11 -36h-36c-9 0 -21 -4 -21 -13c0 -1 0 -3 1 -5c0 0 64 -165 108 -286c54 134 110 274 110 274c7 16 -3 30 -20 30h-32 c-10 0 -10 17 -10 36c38 -1 68 -3 101 -3c37 0 55 0 92 3c0 -18 0 -36 -10 -36h-29c-21 0 -39 -13 -46 -30l-214 -535c-18 -45 -25 -61 -65 -107c-7 -7 -9 -12 -20 -12l-78 2c-3 0 -3 3 -3 3c-2 14 -2 46 -2 47c0 2 1 3 4 3c42 3 66 4 76 6c13 3 17 6 22 16z" glyph-name="y" horiz-adv-x="492" unicode="y"/><glyph d="M115 215c0 0 0 27 1 70c0 38 2 68 3 95c-1 11 -4 19 -15 19l-42 1c-3 0 -4 1 -4 3v26c0 2 0 7 4 8c6 1 44 8 59 10c4 95 17 167 99 223c37 25 87 54 121 55c24 0 53 -12 65 -37c0 0 2 -4 1 -11l-14 -93c0 -2 -2 -3 -4 -3c-11 -1 -33 0 -32 0c-3 0 -4 1 -4 4l-3 34 c-4 33 -24 41 -60 41c-37 0 -56 -20 -69 -51c-20 -47 -21 -102 -22 -157c1 -3 3 -5 7 -5h95l-17 -48h-76c-8 0 -9 -9 -9 -14c0 -56 1 -112 5 -332c1 -12 5 -20 14 -20h63c10 0 10 -18 10 -36c-37 2 -85 3 -133 3c-47 0 -80 -2 -118 -3c0 19 0 36 10 36h48c9 0 14 7 15 19z" glyph-name="f" horiz-adv-x="368" unicode="f"/><glyph glyph-name="_0129" horiz-adv-x="0"/><glyph d="M107 400c-5 9 -20 14 -37 14h-29c-10 0 -10 17 -10 36c38 -1 71 -3 118 -3c48 0 67 0 104 3c0 -18 0 -36 -10 -36h-27c-20 0 -18 -8 -14 -14l73 -118c43 58 78 105 78 106c11 16 11 27 -13 27h-31c-10 0 -10 17 -10 36c38 -1 68 -2 101 -2c37 0 54 0 91 2 c0 -18 0 -36 -10 -36h-28c-18 0 -39 -11 -50 -27l-105 -142l122 -194c7 -13 34 -20 46 -20h31c10 0 10 -17 10 -35c-37 2 -74 3 -122 3c-47 0 -75 -2 -113 -3c0 19 0 35 10 35h25c20 0 24 9 16 20l-77 123l-85 -115c-8 -10 -10 -26 16 -26h29c10 0 10 -17 10 -36 c-38 1 -72 2 -104 2c-37 0 -55 0 -92 -2c0 18 0 36 10 36h29c18 0 33 6 52 26c0 0 55 74 112 152z" glyph-name="x" horiz-adv-x="522" unicode="x"/><glyph d="M298 65c16 -25 10 -35 0 -42c-24 -17 -69 -31 -101 -31c-75 0 -107 32 -107 117v268c-1 9 -4 16 -14 16l-42 1c-3 0 -4 1 -4 4v25c0 3 0 7 4 8l56 10v95c0 3 0 5 4 8l48 51s2 3 10 3c3 0 13 -4 20 -7c4 -1 4 -5 4 -7v-136c1 -4 3 -7 7 -7l118 1c0 -31 0 -48 -21 -48h-95 c-6 0 -8 -5 -9 -10v-275c0 -54 27 -64 48 -64c39 0 74 20 74 20z" glyph-name="t" horiz-adv-x="343" unicode="t"/><glyph d="M315 655h-47c-15 0 -40 -12 -41 -27v-469c0 -44 3 -95 3 -95c0 -14 23 -27 38 -27h47c10 0 10 -22 10 -40c-37 2 -101 3 -149 3c-47 0 -102 -2 -140 -3c0 19 0 40 10 40h48c15 0 37 13 37 27c0 0 3 49 2 95v469c0 15 -24 27 -39 27h-48c-10 0 -10 21 -10 40 c38 -1 93 -3 140 -3c48 0 112 1 149 3c0 -18 0 -40 -10 -40z" glyph-name="I" horiz-adv-x="361" unicode="I"/><glyph d="M286 37h47c10 0 10 -22 10 -40c-37 2 -101 3 -149 3c-47 0 -102 -2 -140 -3c0 19 0 40 10 40h48c22 0 39 12 49 44c18 59 22 545 23 545c0 20 -35 27 -49 27h-48c-10 0 -10 21 -10 40c38 -1 93 -3 140 -3c20 0 38 1 60 1l17 -43l229 -498s231 501 230 500l20 43 c23 0 28 -1 48 -1c47 0 97 2 135 3c0 -19 0 -40 -10 -40h-48c-15 0 -41 -12 -41 -27c8 -520 13 -564 13 -564c0 -16 22 -27 36 -27h48c10 0 10 -22 10 -40c-37 2 -101 3 -149 3c-47 0 -102 -2 -140 -3c0 19 0 40 10 40h48c14 0 37 11 37 27c0 0 1 10 1 76s-1 187 -5 407 l-252 -544s-1 -3 -6 -3h-9c-3 0 -4 3 -4 3l-266 574c-2 -77 -4 -234 -4 -352c0 -69 0 -92 3 -144c3 -36 39 -44 58 -44z" glyph-name="M" horiz-adv-x="1000" unicode="M"/><glyph d="M407 644c-7 -1 -8 -6 -8 -12v-473c0 -44 4 -95 4 -95c0 -20 28 -27 42 -27h55c10 0 10 -22 10 -40c-37 2 -111 3 -159 3c-47 0 -123 -2 -161 -3c0 19 0 40 10 40h61c14 0 42 7 42 27c0 0 3 49 3 95v477c-1 4 -3 7 -8 8h-134c-43 0 -73 -34 -85 -98c-1 -3 -1 -4 -4 -4 l-35 1c-4 0 -5 1 -5 4l8 115c0 8 3 10 3 10l18 21l107 -1h366l107 1l23 -22s3 -2 3 -10l-6 -115c0 -3 -1 -4 -5 -4h-32c-3 0 -3 1 -4 4c-14 65 -30 98 -79 98h-137z" glyph-name="T" horiz-adv-x="705" unicode="T"/><glyph d="M268 37h47c10 0 10 -23 10 -40c-37 2 -101 3 -149 3c-47 0 -102 -2 -140 -3c0 19 0 40 10 40h48c22 0 44 14 48 44c6 36 7 230 7 376v169c0 24 -40 29 -55 29h-48c-10 0 -10 21 -10 40c38 -1 93 -3 140 -3h45l449 -558v266c0 63 -1 169 -10 228c-4 16 -22 27 -42 27h-63 c-10 0 -10 22 -10 40c37 -2 101 -3 149 -3c47 0 87 2 125 3c0 -19 0 -40 -10 -40h-33c-17 0 -42 -7 -46 -27c-8 -58 -10 -164 -10 -228v-402c-13 1 -24 2 -36 2c-14 0 -31 -2 -31 -2c-92 125 -386 490 -449 567c0 -126 2 -435 5 -484c2 -33 40 -44 59 -44z" glyph-name="N" horiz-adv-x="855" unicode="N"/><glyph d="M417 708c184 0 337 -160 337 -354c0 -185 -96 -314 -237 -357c59 -19 121 -55 120 -54c135 -67 215 -81 265 -81c13 0 76 3 107 18c2 1 7 4 9 2l11 -13s2 -3 -2 -7c-7 -6 -23 -17 -62 -37c-30 -15 -82 -28 -142 -28c-71 0 -152 18 -225 71c-109 80 -177 106 -214 114 c-206 0 -338 167 -338 369c0 200 141 357 371 357zM379 651c-143 0 -219 -120 -219 -265c0 -251 132 -351 280 -351c89 0 201 77 201 298c0 189 -113 317 -262 318z" glyph-name="Q" horiz-adv-x="827" unicode="Q"/><glyph d="M767 363c-4 -207 -146 -368 -399 -368c-37 0 -109 5 -157 5c-47 0 -120 0 -158 -1c0 19 0 43 10 43h48c37 0 55 14 55 28c0 0 2 25 2 299c0 68 -1 155 -1 257c0 15 -24 27 -39 27h-47c-10 0 -10 21 -10 40c38 -1 93 -1 140 -1c23 0 50 -1 76 -2c53 2 99 2 152 2 c184 0 328 -148 328 -329zM658 321c-2 255 -137 329 -315 329c-7 0 -15 0 -38 -1c-15 -1 -42 -9 -42 -27c0 -102 -2 -183 -2 -251c0 -195 1 -261 1 -286c7 -39 111 -43 158 -43c157 0 238 133 238 279z" glyph-name="D" horiz-adv-x="814" unicode="D"/><glyph d="M63 658h-52c-11 0 -11 17 -11 36c39 -1 121 -2 168 -2c49 0 86 0 123 2c0 -18 0 -36 -11 -36h-62c-8 0 -17 -3 -17 -10c0 -2 147 -409 193 -535c204 521 205 525 205 528c0 11 -12 16 -33 16h-67c-10 0 -10 17 -10 36c38 -1 132 -2 164 -2c37 0 55 0 92 2 c0 -18 0 -36 -10 -36h-40c-18 0 -33 -5 -40 -27c0 0 -229 -553 -258 -639c-9 1 -21 2 -32 2s-20 -1 -29 -2c-26 87 -230 646 -237 654c-7 12 -19 13 -36 13z" glyph-name="V" horiz-adv-x="742" unicode="V"/><glyph d="M369 577l-92 -251c1 -1 2 -1 4 -1h170c3 0 4 1 5 2zM731 37c10 0 10 -22 10 -40c-37 2 -92 3 -140 3c-47 0 -102 -2 -140 -3c0 19 0 40 10 40h40c14 0 46 4 37 27c0 0 -34 98 -73 212c-2 1 -3 1 -5 1h-208c-2 0 -3 0 -4 -1l-77 -211c-6 -16 9 -27 38 -27h47 c11 0 11 -22 11 -40c-37 2 -68 3 -116 3c-47 0 -102 -2 -140 -3c0 19 0 40 10 40h48c13 0 37 9 44 27c0 0 208 542 238 628l8 -1c7 -1 14 0 22 0c11 0 18 0 27 1c25 -87 225 -621 231 -629c8 -15 24 -27 41 -27h41z" glyph-name="A" horiz-adv-x="721" unicode="A"/><glyph d="M40 324c0 90 73 135 166 135c26 0 46 -4 45 -4l46 -7l25 -26c3 -3 3 -8 2 -13l-15 -99c0 -2 -2 -3 -4 -3c-11 -1 -30 0 -29 0c-3 0 -4 1 -4 4c-7 91 -18 92 -36 102c-10 4 -25 11 -48 11c-45 0 -73 -33 -73 -60c0 -38 4 -57 73 -94c68 -37 147 -65 147 -146 c0 -98 -90 -138 -181 -138c-31 0 -60 4 -109 21c-3 1 -8 3 -8 14l-2 109c0 2 1 3 3 3c11 3 30 5 29 4c3 1 4 0 5 -3c12 -62 25 -83 51 -97c17 -9 32 -13 57 -13c47 0 74 22 74 70c0 29 -15 61 -98 98c-58 26 -116 67 -116 132z" glyph-name="s" horiz-adv-x="375" unicode="s"/><glyph d="M137 447c-1 0 224 1 224 1l18 -18c-43 -78 -185 -313 -226 -380c-7 -11 5 -10 15 -11c8 -1 25 -1 45 -1h77c33 4 39 25 60 95c1 3 2 4 5 4c1 0 24 -4 35 -7c3 -1 3 -3 3 -5l-17 -115c-3 -12 -12 -12 -12 -12l-50 1s-212 1 -266 1l-17 18c58 88 201 310 237 381 c2 5 1 8 -1 8h-125c-42 -1 -46 -4 -69 -80c-1 -3 -2 -4 -5 -3c1 0 -24 4 -35 7c-2 0 -3 1 -3 3l17 103c3 12 12 12 12 12z" glyph-name="z" horiz-adv-x="428" unicode="z"/><glyph d="M311 40c60 -6 136 -44 136 -104c0 -50 -16 -90 -42 -119c-34 -37 -114 -87 -199 -87c-94 0 -181 70 -181 140c0 17 4 37 17 54s53 45 94 72c-34 14 -67 34 -68 61c0 5 1 9 6 14l80 64c-78 18 -110 80 -110 158c0 107 97 167 186 167c33 0 62 -7 88 -17 c12 -4 45 -15 84 -11c7 0 30 5 44 19c2 2 3 5 6 1l16 -22c2 -2 1 -6 1 -6c-3 -27 -22 -54 -51 -54c-39 0 -43 17 -48 13c-1 -1 -2 -3 0 -7c11 -23 17 -49 17 -79c0 -87 -87 -163 -173 -167h-5c-15 -1 -45 -8 -45 -40c0 -17 12 -40 56 -43c22 -1 53 -3 91 -7zM162 -29 c-24 -18 -63 -44 -63 -78c0 -81 104 -100 162 -100c69 0 133 35 133 94s-70 91 -178 93c-26 0 -46 -3 -54 -9zM199 424c-65 0 -79 -62 -79 -105c0 -94 35 -148 117 -148c66 0 74 50 74 97c0 93 -32 155 -112 156z" glyph-name="g" horiz-adv-x="478" unicode="g"/><glyph d="M669 9c-67 -15 -138 -30 -219 -30c-83 0 -368 45 -368 359c0 338 296 372 370 372c38 0 89 -2 229 -18l21 -20s4 -2 4 -10c0 -3 -8 -109 -9 -116c-1 -4 -4 -4 -6 -4h-38c-3 0 -4 1 -5 4c0 0 1 12 -8 34c-17 47 -41 56 -78 68c0 0 -52 18 -122 18 c-158 0 -245 -139 -245 -296c0 -61 12 -342 302 -342c55 0 122 26 148 86c7 16 10 29 15 52c1 3 4 4 7 3c10 -2 20 -6 35 -11c4 -2 5 -2 5 -7c0 0 -16 -98 -24 -133c-2 -5 -5 -7 -14 -9z" glyph-name="C" horiz-adv-x="752" unicode="C"/><glyph d="M658 13l-32 -9c-34 -8 -121 -20 -121 -20c-28 -4 -60 -5 -90 -5c-83 0 -368 45 -368 359c0 211 140 373 380 373c45 0 113 -4 219 -19l22 -21s3 -2 3 -10l-10 -115c0 -3 -1 -4 -5 -4h-40c-3 0 -4 1 -4 4c2 102 -125 121 -207 121c-49 0 -105 -16 -149 -55 c-90 -81 -96 -196 -96 -225c0 -200 81 -356 302 -359c61 0 100 7 106 40c2 13 3 26 3 44l1 108c0 22 -18 29 -34 31l-77 11c-10 1 -10 18 -10 36c37 -2 98 -3 146 -3c47 0 102 2 140 3c0 -19 2 -33 -9 -35l-36 -8c-17 -4 -27 -14 -27 -35l1 -197c0 -4 -2 -8 -8 -10z" glyph-name="G" horiz-adv-x="759" unicode="G"/><glyph d="M339 655h-47c-14 0 -40 -7 -39 -27v-193c0 -30 1 -211 1 -211c0 -22 -1 -115 -12 -211c-7 -61 -11 -125 -43 -184c-13 -24 -31 -52 -54 -79c-10 -10 -13 -16 -29 -16l-106 1c-4 0 -4 4 -4 4c-2 20 -2 64 -2 65c1 3 1 4 5 4c58 4 92 10 106 12c19 3 28 6 33 21 c3 7 6 33 6 46v337s1 181 1 211v193c0 18 -22 27 -36 27h-49c-10 0 -10 21 -10 40c38 -1 93 -3 140 -3c49 0 112 1 149 3c0 -18 0 -40 -10 -40z" glyph-name="J" horiz-adv-x="375" unicode="J"/><glyph d="M263 -1h-69c-47 0 -120 -2 -158 -3c0 19 0 40 10 40h66c14 0 37 12 37 27c0 0 3 46 3 92v473c0 15 -26 27 -40 27h-48c-10 0 -10 22 -10 41c38 -1 93 -4 140 -4c48 0 112 1 149 4c0 -18 0 -41 -10 -41h-47c-15 0 -41 -12 -41 -27v-473c0 -44 4 -92 4 -92 c0 -5 1 -13 13 -13c60 -5 120 -7 196 -7c29 0 52 4 81 61c8 16 10 29 15 52c1 3 4 4 7 3c10 -2 20 -6 35 -11c4 -2 5 -2 5 -7c0 0 -16 -98 -24 -133c-2 -5 -5 -8 -14 -9c-33 -3 -62 -3 -87 -3c-12 0 -24 0 -213 3z" glyph-name="L" horiz-adv-x="613" unicode="L"/><glyph d="M456 0h-310c-45 0 -92 -2 -130 -3c0 19 0 42 10 42h48c37 0 55 14 55 28c0 0 2 26 2 58c0 11 -1 22 -1 34v469c0 15 -24 27 -39 27h-47c-10 0 -10 21 -10 40c38 -1 93 -3 140 -3h336l18 -19s3 -2 3 -10l-5 -105c0 -3 -1 -4 -5 -4l-40 -2c-3 0 -4 1 -4 4 c-1 53 -8 88 -67 88h-157c-20 0 -27 -11 -28 -27v-237c1 -2 3 -3 7 -3h156c28 0 62 7 62 40l4 31c1 10 22 17 39 6c-6 -38 -8 -52 -8 -99c0 -48 1 -72 2 -109c-18 -9 -37 -3 -37 12v26c0 31 -34 45 -62 45h-156c-4 0 -6 -2 -7 -4v-250c3 -15 13 -28 32 -28h181 c29 0 52 4 81 61c8 16 10 29 15 52c1 3 4 4 7 3c10 -2 20 -6 35 -11c4 -2 5 -2 5 -7c0 0 -16 -98 -24 -133c-2 -5 -5 -8 -14 -9c-33 -3 -62 -3 -87 -3z" glyph-name="E" horiz-adv-x="611" unicode="E"/><glyph d="M461 245v27c0 30 -34 42 -62 42h-165c-5 0 -7 -3 -8 -5v-150c0 -44 2 -95 2 -95c0 -15 25 -27 40 -27h47c10 0 10 -22 10 -40c-37 2 -101 3 -149 3c-47 0 -102 -2 -140 -3c0 19 0 40 10 40h48c15 0 37 12 37 27c0 0 1 49 1 95v469c0 15 -24 27 -39 27h-47 c-10 0 -10 21 -10 40c38 -1 93 -3 140 -3h352l18 -19s3 -2 3 -10l-5 -101c0 -3 -1 -4 -5 -4l-40 -2c-3 0 -4 1 -4 4c-1 53 -8 84 -67 84h-171c-20 0 -29 -11 -30 -27l-1 -251c1 -2 3 -4 8 -4h165c28 0 62 10 62 42l4 32c1 10 22 16 39 5c-6 -38 -8 -51 -8 -98 c0 -48 1 -72 2 -109c-18 -9 -37 -3 -37 11z" glyph-name="F" horiz-adv-x="579" unicode="F"/><glyph d="M228 692c36 1 122 2 125 2c169 0 217 -113 217 -196c0 -39 -12 -126 -94 -181c-53 -36 -110 -45 -146 -45h-95s-8 0 -8 -9v-104c0 -44 4 -95 4 -95c0 -15 22 -27 37 -27h47c10 0 10 -22 10 -40c-37 2 -101 3 -149 3c-47 0 -102 -2 -140 -3c0 19 0 40 10 40h48 c15 0 37 12 37 27c0 0 3 49 3 95v469c0 18 -23 27 -40 27h-48c-10 0 -10 21 -10 40c38 -1 93 -3 140 -3h52zM227 632v-309c0 -4 2 -5 7 -5h84c21 0 148 -1 148 163c0 106 -64 175 -180 175c-49 0 -58 -11 -59 -24z" glyph-name="P" horiz-adv-x="600" unicode="P"/><glyph d="M263 690c36 1 122 2 125 2c87 0 189 -42 189 -152c0 -45 -14 -93 -77 -133c-14 -9 -30 -15 -46 -20c133 -17 172 -111 172 -164c0 -55 -23 -132 -111 -187c-51 -32 -110 -38 -163 -38c-32 0 -62 2 -86 2h-83c-45 0 -92 -2 -130 -3c0 19 0 42 10 42h48c37 0 55 14 55 28 c0 0 2 49 2 95v464c0 15 -24 27 -39 27h-48c-10 0 -10 21 -10 40c38 -1 93 -3 140 -3h52zM370 344h-100c-5 0 -7 -3 -8 -5v-177c0 -29 2 -61 3 -80c6 -30 48 -46 102 -46c89 0 156 44 156 141s-55 162 -153 167zM320 654c-48 0 -56 -11 -57 -24l-1 -4v-230c1 -2 3 -4 8 -4 h78c79 0 130 28 130 128c0 86 -71 134 -158 134z" glyph-name="B" horiz-adv-x="646" unicode="B"/><glyph d="M315 655h-47c-15 0 -41 -12 -42 -27v-469c0 -44 4 -95 4 -95c0 -15 23 -27 38 -27h47c10 0 10 -22 10 -40c-37 2 -101 3 -149 3c-47 0 -102 -2 -140 -3c0 19 0 40 10 40h48c15 0 38 12 38 27c0 0 3 49 2 95v469c0 15 -25 27 -40 27h-48c-10 0 -10 21 -10 40 c38 -1 93 -3 140 -3c48 0 112 1 149 3c0 -18 0 -40 -10 -40zM669 656h-33c-32 0 -57 -23 -86 -55l-216 -238c40 -41 295 -314 295 -314c15 -17 45 -19 57 -19h49c10 0 10 -14 10 -32c-19 1 -54 2 -80 2c-12 0 -91 -2 -108 -2c-9 0 -15 1 -21 8c-24 30 -31 37 -35 43 c-242 270 -246 276 -265 285c-2 5 -3 14 0 20c13 4 38 19 47 26c98 90 205 221 205 221c13 13 22 25 22 35c0 12 -13 19 -49 19h-40c-10 0 -10 21 -10 40c38 -1 91 -3 138 -3c48 0 93 2 130 4c0 -18 0 -40 -10 -40z" glyph-name="K" horiz-adv-x="758" unicode="K"/><glyph d="M228 692c36 1 122 2 125 2c140 0 197 -93 197 -169c0 -40 -7 -118 -98 -173l-37 -23c3 -2 84 -120 196 -273c11 -15 34 -19 52 -19h30c10 0 14 -21 14 -39c-19 1 -29 2 -55 2c-12 0 -79 -2 -97 -2c-9 0 -15 1 -20 8c-19 22 -27 33 -35 43c0 0 -107 166 -151 229 c-9 12 -18 19 -32 20h-82c-8 0 -8 -8 -8 -8v-131c0 -44 4 -95 4 -95c0 -15 22 -27 37 -27h47c10 0 10 -22 10 -40c-37 2 -101 3 -149 3c-47 0 -102 -2 -140 -3c0 19 0 40 10 40h48c15 0 37 12 37 27c0 0 3 49 3 95v469c0 15 -25 27 -40 27h-48c-10 0 -10 21 -10 40 c38 -1 93 -3 140 -3h52zM333 346c40 0 116 30 116 150c0 96 -43 160 -163 160c-50 0 -58 -12 -59 -25v-279c0 -2 2 -6 8 -6h98z" glyph-name="R" horiz-adv-x="702" unicode="R"/><glyph d="M368 638c0 0 -22 35 -100 35c-66 0 -119 -38 -119 -106c0 -60 6 -102 102 -157c117 -68 219 -90 219 -228c0 -133 -119 -202 -251 -202c-47 0 -94 9 -158 33c0 0 -3 4 -3 8c-1 4 -18 114 -18 123c0 5 1 5 4 6l38 11c3 1 5 0 6 -3c11 -34 12 -50 30 -81 c0 0 31 -56 134 -56c78 0 128 52 128 128c0 21 -11 82 -145 153c-115 62 -174 131 -174 206c0 130 97 201 223 201c49 0 95 -8 94 -8l46 -7l18 -19s4 -4 3 -13l-6 -112c0 -3 -2 -4 -4 -4c-11 -1 -39 0 -38 0c-3 0 -4 1 -4 4c-1 35 -16 76 -25 88z" glyph-name="S" horiz-adv-x="516" unicode="S"/><glyph d="M314 655h-47c-16 0 -36 -10 -36 -35v-338c0 -112 41 -236 215 -236s197 123 197 236v136c0 146 0 169 -7 202c-5 20 -31 35 -65 35h-29c-10 0 -10 22 -10 40c37 -2 83 -3 131 -3s92 1 129 3c0 -18 0 -40 -10 -40h-29c-24 0 -52 -15 -53 -35c-4 -28 -4 -66 -4 -104v-234 c0 -88 -24 -295 -261 -295c-229 0 -301 93 -301 295v338c0 23 -21 35 -41 35h-48c-10 0 -10 21 -10 40c38 -1 93 -3 140 -3c48 0 112 1 149 3c0 -18 0 -40 -10 -40z" glyph-name="U" horiz-adv-x="817" unicode="U"/><glyph d="M39 658h-48c-11 0 -11 17 -11 36c39 -1 121 -2 168 -2c49 0 86 0 123 2c0 -18 0 -36 -11 -36h-62c-9 0 -19 -2 -16 -13c0 0 89 -388 135 -522l188 536s15 -3 26 -3c9 0 23 1 29 3c12 -44 119 -394 166 -528c146 503 146 506 146 509c0 13 -9 18 -31 18h-68 c-10 0 -10 17 -10 36c38 -1 133 -2 165 -2c37 0 55 0 92 2c0 -18 0 -36 -10 -36h-41c-17 0 -32 -6 -40 -27c0 0 -147 -479 -193 -640c-8 1 -21 2 -32 2s-25 -1 -34 -2c-20 67 -118 374 -164 511c-63 -166 -156 -415 -182 -511c-9 1 -21 2 -32 2s-25 -1 -34 -2 c-26 86 -174 634 -183 653c-7 12 -27 14 -36 14z" glyph-name="W" horiz-adv-x="1000" unicode="W"/><glyph d="M702 37c10 0 10 -22 10 -40c-37 2 -110 3 -158 3c-47 0 -102 -2 -140 -3c0 19 0 40 10 40h33c20 0 34 9 23 27c0 0 -63 112 -135 236c-63 -93 -124 -185 -151 -236c-8 -15 -4 -27 15 -27h55c10 0 10 -22 10 -40c-37 2 -80 3 -128 3c-47 0 -102 -2 -140 -3 c0 19 0 40 10 40h49c23 0 40 16 51 27c60 67 129 162 205 277c-77 133 -157 267 -176 287c-16 18 -29 27 -56 27h-48c-10 0 -10 21 -10 40c38 -1 93 -3 140 -3c48 0 112 1 149 3c0 -18 0 -40 -10 -40h-36c-15 0 -25 -5 -11 -27c0 0 53 -96 120 -211c60 86 111 175 126 211 c8 20 0 27 -24 27h-48c-10 0 -10 21 -10 40c38 -1 69 -3 116 -3c48 0 112 1 149 3c0 -18 0 -40 -11 -40l-42 -1c-19 0 -39 -8 -55 -27c-31 -35 -107 -140 -178 -249c73 -125 157 -260 203 -314c12 -17 25 -27 52 -27h41z" glyph-name="X" horiz-adv-x="708" unicode="X"/><glyph d="M379 93c3 -37 18 -56 40 -56h47c10 0 10 -22 10 -40c-37 2 -105 3 -154 3c-47 0 -109 -2 -147 -3c0 19 0 40 10 40h51c19 0 43 19 43 56c0 45 2 90 2 154c0 20 -1 40 -10 58l-14 27c-49 97 -119 235 -164 296c-10 15 -23 27 -45 27h-48c-10 0 -10 21 -10 40 c38 -1 93 -3 140 -3c48 0 96 1 133 3c0 -18 0 -40 -10 -40h-39c-8 0 -11 -4 -11 -9s2 -11 5 -18c0 0 61 -136 145 -283c52 81 137 242 151 283c10 21 -8 27 -28 27h-48c-10 0 -10 21 -10 40c38 -1 80 -3 127 -3c48 0 91 1 128 3c0 -18 0 -40 -10 -40h-39 c-23 0 -37 -13 -49 -27c-52 -62 -140 -231 -195 -324c-3 -8 -4 -31 -4 -84c0 -49 1 -104 3 -127z" glyph-name="Y" horiz-adv-x="628" unicode="Y"/><glyph d="M459 -2c-42 1 -290 3 -385 4l-27 26c80 119 369 535 404 605c3 5 1 8 -1 8h-270c-59 0 -72 -23 -85 -88c-1 -3 -1 -4 -4 -4l-40 2c-4 0 -5 1 -5 4l13 108c0 8 3 10 3 10l18 19h107c-1 0 362 1 362 1l27 -26c-42 -77 -356 -544 -397 -611c-7 -11 4 -8 14 -9 c11 -1 67 -1 125 -1h141c63 0 75 31 96 102c1 3 1 4 4 4l39 -11c4 -1 5 -3 5 -6l-15 -108c-3 -19 -12 -29 -26 -29h-103z" glyph-name="Z" horiz-adv-x="608" unicode="Z"/><glyph d="M35 35c-2 24 -2 30 9 46c7 10 21 15 34 16c27 3 47 -5 55 -15c6 -8 8 -21 7 -46c-1 -11 -2 -24 -12 -33c-12 -11 -22 -13 -50 -13c-13 0 -28 7 -35 16c-5 6 -7 22 -8 29z" glyph-name="period" horiz-adv-x="169" unicode="."/><glyph d="M331 63c0 -17 13 -31 37 -31h58c11 0 11 -17 11 -35c-37 2 -103 3 -152 3c-47 0 -125 -2 -163 -3c0 19 0 35 10 35h64c23 0 37 14 37 31c0 0 3 49 3 95v415c0 15 -18 25 -50 25h-41c-3 0 -4 1 -4 3v23c0 2 0 7 4 8c7 1 146 41 149 41c8 0 10 -3 10 -3l25 -26v-486 c0 -44 2 -95 2 -95z" glyph-name="one" unicode="1"/><glyph d="M402 -1c0 0 -252 1 -284 1c-31 0 -74 -1 -86 -2c0 1 -7 8 -3 24c19 15 124 120 152 156c62 80 150 175 150 282c0 81 -44 143 -122 143c-42 0 -78 -19 -99 -32l-8 -6c-18 -19 -21 -53 -23 -80c0 -3 -1 -3 -3 -4c-1 0 -30 0 -44 2c0 0 -3 0 -3 3l-3 83c0 4 0 8 4 12 c30 22 44 41 94 66c36 18 79 33 132 33c98 0 169 -83 169 -186c0 -41 -24 -126 -121 -235c-120 -136 -111 -128 -139 -156c-8 -10 -14 -19 -14 -21c0 -3 2 -5 9 -5c14 -1 77 -2 135 -2c41 0 80 1 97 1c17 2 32 10 41 34c6 16 10 29 15 52c1 3 4 4 7 3c10 -2 20 -6 35 -11 c4 -2 5 -2 5 -7c0 0 -17 -104 -25 -139c-2 -5 -5 -9 -14 -9h-54zM400 5l1 -3v-2c0 1 0 3 -1 5z" glyph-name="two" unicode="2"/><glyph d="M221 -26c-74 0 -119 6 -146 44c-23 31 -26 81 -27 115c0 5 1 5 5 7c15 5 25 9 35 11c3 1 6 0 7 -3c8 -28 16 -69 41 -97c21 -24 57 -29 98 -29c77 0 147 42 147 137c0 117 -70 160 -173 160c-11 0 -22 0 -34 -1c-3 0 -7 -1 -6 4c1 7 5 20 11 30c3 7 5 6 8 7 c69 15 144 60 144 141c0 63 -46 120 -116 120c-27 0 -51 -8 -70 -18c-12 -10 -18 -28 -20 -40c-2 -10 -1 -4 -4 -46c0 -3 -1 -3 -3 -4c-1 0 -29 0 -43 2c0 0 -3 0 -3 3l-3 59c0 6 1 9 4 12c48 51 110 108 187 108c81 0 157 -61 157 -156s-93 -146 -95 -148 c-4 -3 -8 -8 5 -10c48 -13 151 -65 151 -169c0 -134 -130 -232 -257 -239z" glyph-name="three" unicode="3"/><glyph d="M406 170c-7 0 -10 -6 -10 -10v-5s3 -174 3 -184c-14 1 -29 2 -49 2c-14 0 -33 0 -47 -2l2 185c0 15 -7 15 -7 15h-283c-2 14 1 26 2 30c1 5 5 10 5 10l319 459c17 4 30 5 48 7c5 0 7 0 7 -6v-429c1 -5 6 -8 10 -8h97l-22 -64h-75zM101 235h201c3 0 6 2 8 7v318 c-3 2 -6 -1 -6 -1s-195 -301 -207 -319c-3 -5 0 -5 4 -5z" glyph-name="four" unicode="4"/><glyph d="M111 422l70 235c4 12 25 11 28 11h2s133 0 239 -3c5 0 8 -7 7 -13l-11 -119c0 -3 -3 -3 -3 -3c-14 -2 -45 -2 -46 -2c-2 1 -3 1 -3 4l-4 49c-1 8 -4 15 -9 15c-30 1 -59 2 -89 2h-84c-5 0 -6 -6 -9 -17c-2 -8 -21 -75 -26 -97c-3 -14 7 -17 12 -20c0 -1 149 -73 201 -112 c0 0 90 -50 90 -171c0 -122 -125 -220 -248 -228c3 1 -118 -7 -167 64c-22 32 -25 82 -26 116c0 5 1 5 5 7c15 5 25 9 35 11c3 1 6 0 7 -3c7 -25 17 -61 38 -83c32 -36 75 -60 132 -60c89 0 141 48 141 146c0 50 -27 76 -72 118c-51 43 -178 105 -178 105l-26 15 s-13 8 -6 33z" glyph-name="five" unicode="5"/><glyph d="M345 414h-30c-10 0 -10 17 -10 36c38 -1 68 -3 101 -3c37 0 54 0 91 3c0 -18 0 -36 -10 -36h-27c-18 0 -42 -13 -49 -32c0 0 -124 -298 -153 -384c-9 1 -15 2 -26 2s-17 -1 -26 -2c-26 87 -145 390 -151 397c-7 13 -21 19 -33 19h-36c-11 0 -11 17 -11 36 c39 -1 71 -3 118 -3c48 0 85 0 122 3c0 -18 0 -36 -10 -36h-34c-14 0 -27 -6 -23 -19l108 -288l109 275c9 19 -1 32 -20 32z" glyph-name="v" horiz-adv-x="483" unicode="v"/><glyph d="M189 690c9 1 17 0 16 -12c0 0 -37 -472 -37 -476c0 -3 -2 -6 -7 -5c0 0 -27 4 -32 6c-4 1 -5 3 -5 7c0 0 -32 426 -34 443c-2 10 1 16 9 18c0 0 73 17 90 19zM101 43c0 15 1 28 12 37c8 8 25 13 39 14s32 -1 41 -12c9 -8 12 -25 11 -39c-1 -15 -6 -25 -13 -34 c-9 -12 -29 -16 -45 -16s-26 8 -35 19c-6 9 -10 19 -10 31z" glyph-name="exclam" horiz-adv-x="287" unicode="!"/><glyph d="M35 39c-2 24 -2 30 9 46c7 10 21 15 34 16c27 3 47 -5 55 -15c6 -8 8 -21 7 -46c-1 -11 -2 -24 -12 -33c-12 -11 -22 -13 -50 -13c-13 0 -28 7 -35 16c-5 6 -7 22 -8 29zM35 319c-2 24 -2 30 9 46c7 10 21 15 34 16c27 3 47 -5 55 -15c6 -8 8 -21 7 -46 c-1 -11 -2 -24 -12 -33c-12 -11 -22 -13 -50 -13c-13 0 -28 7 -35 16c-5 6 -7 22 -8 29z" glyph-name="colon" horiz-adv-x="203" unicode=":"/><glyph d="M46 534c0 0 -3 0 -3 3c0 0 -8 42 -8 73c0 56 22 82 105 82c92 0 200 -66 200 -171c0 -27 -6 -65 -26 -88c-21 -24 -96 -90 -125 -114c-26 -21 -29 -50 6 -83c5 -4 4 -12 -1 -15c0 0 -18 -9 -27 -15c-9 -3 -19 5 -22 7c-38 29 -55 62 -54 90c0 9 1 14 9 20 c0 0 71 50 131 103c22 20 37 55 37 77c-1 71 -82 115 -149 119c-11 -1 -29 -3 -29 -20c-1 -14 -1 -28 -1 -62c0 -3 -1 -3 -3 -4c-1 0 -26 -2 -40 -2zM128 43c0 15 1 28 12 37c8 8 25 13 39 14s32 -1 41 -12c9 -8 12 -25 11 -39c-1 -15 -6 -25 -13 -34 c-9 -12 -29 -16 -45 -16s-26 8 -35 19c-6 9 -10 19 -10 31z" glyph-name="question" horiz-adv-x="378" unicode="?"/><glyph d="M350 33h49c8 0 13 7 14 19c0 0 5 54 5 100v134c0 49 -3 109 -95 110c-59 0 -120 -46 -123 -82v-162c0 -44 5 -100 5 -100c1 -12 5 -19 14 -19h47c10 0 10 -18 10 -36c-37 2 -73 3 -122 3c-47 0 -79 -2 -117 -3c0 19 0 36 10 36h48c9 0 13 7 15 19c0 0 4 54 4 100v224 c0 12 -7 26 -28 26h-40c-4 0 -5 1 -5 4v22c0 2 0 7 5 8c6 1 121 21 124 21c8 0 10 -3 10 -3l20 -22v-55c5 2 71 80 156 80c78 0 148 -46 148 -130v-175c0 -43 3 -96 4 -99c1 -12 6 -20 15 -20h47c10 0 10 -18 10 -36c-37 2 -74 3 -122 3c-47 0 -80 -2 -118 -3 c0 19 0 36 10 36z" glyph-name="n" horiz-adv-x="610" unicode="n"/><glyph d="M350 33h49c8 0 13 7 14 19c0 0 5 54 5 100v134c0 49 -3 106 -95 107c-59 0 -120 -43 -123 -79v-162c0 -44 5 -100 5 -100c1 -12 5 -19 14 -19h47c10 0 10 -18 10 -36c-37 2 -73 3 -122 3c-47 0 -79 -2 -117 -3c0 19 0 36 10 36h48c9 0 13 7 15 19c0 0 4 54 4 100v224 c0 12 -7 24 -28 24h-40c-4 0 -5 1 -5 4v22c0 2 0 7 5 8c6 1 121 21 124 21c8 0 10 -3 10 -3l20 -22v-53c5 2 71 78 156 78c50 0 116 -30 139 -86c10 10 81 86 164 86c62 0 148 -44 148 -128v-175c0 -44 5 -100 5 -100c1 -12 5 -19 14 -19l47 3c10 0 10 -18 10 -36 c-36 2 -73 0 -122 0c-47 0 -79 -2 -117 -3c0 19 0 36 10 36h48c9 0 13 7 15 19c0 0 4 54 4 100v134c0 49 -2 106 -94 107c-59 0 -120 -45 -123 -81v-160c0 -44 4 -100 4 -100c1 -12 6 -19 15 -19h47c10 0 10 -18 10 -36c-37 2 -74 3 -122 3c-47 0 -80 -2 -118 -3 c0 19 0 36 10 36z" glyph-name="m" horiz-adv-x="913" unicode="m"/><glyph d="M136 245c0 -114 53 -214 147 -214c90 0 123 91 123 171c0 114 -53 214 -147 214c-90 0 -123 -91 -123 -171zM46 213c0 133 94 247 238 247c150 0 212 -99 212 -226c0 -133 -94 -247 -238 -247c-150 0 -212 99 -212 226z" glyph-name="o" horiz-adv-x="542" unicode="o"/><glyph d="M137 680c2 1 65 11 73 12s11 1 13 -4c1 -2 44 -130 47 -134c2 -5 1 -7 -1 -9c-3 -2 -10 -10 -17 -15c-5 -2 -7 -1 -10 3c-13 12 -100 127 -106 135c-6 7 -2 11 1 12z" glyph-name="grave" horiz-adv-x="298" unicode="`"/><glyph d="M25 613c0 9 1 22 12 31c9 8 25 12 39 13c9 2 27 -1 36 -11c9 -9 12 -26 11 -33c-1 -16 -7 -26 -14 -35c-9 -11 -29 -16 -39 -16c-16 0 -26 8 -35 19c-6 9 -10 19 -10 32zM227 613c0 9 1 22 11 31c9 8 26 12 39 13c9 2 27 -1 36 -11c9 -9 13 -26 11 -33 c-1 -16 -6 -26 -13 -35c-9 -11 -29 -16 -39 -16c-16 0 -26 8 -35 19c-7 9 -10 19 -10 32z" glyph-name="dieresis" horiz-adv-x="355" unicode="¨"/><glyph d="M89 690l69 -8c3 0 7 -5 1 -12c-6 -8 -95 -128 -108 -140c-3 -4 -5 -5 -10 -3c-7 5 -14 13 -17 15c-2 2 -3 4 -1 9c3 4 51 129 52 131c2 5 6 7 14 8z" glyph-name="acute" horiz-adv-x="200" unicode="´"/><glyph d="M298 98v107c-59 -13 -106 -28 -139 -43c-23 -10 -43 -27 -43 -57c0 -36 25 -58 53 -58c39 0 93 24 129 51zM69 373c0 8 0 9 5 13c15 10 88 74 148 74c54 0 161 -27 161 -122v-167c0 -72 2 -98 2 -98c2 -22 13 -38 38 -38h19c4 0 6 -2 6 -4v-21c0 -4 0 -7 -5 -8 c-58 -9 -111 -17 -115 -17c-8 0 -10 3 -10 3l-20 22v53c-40 -38 -91 -76 -146 -76c-66 0 -116 46 -116 117c0 49 45 77 80 89c56 20 97 32 182 45v73c-1 38 -24 93 -115 93c-19 0 -49 -4 -53 -29c-2 -10 -4 -28 -7 -70c0 -3 -1 -3 -3 -4c-1 0 -32 0 -46 2c0 0 -3 0 -3 3z M161 676c2 1 65 11 73 12s11 1 13 -4c1 -2 44 -130 47 -134c2 -5 1 -7 -1 -9c-3 -2 -10 -10 -17 -15c-5 -2 -7 -1 -10 3c-13 12 -100 127 -106 135c-6 7 -2 11 1 12z" glyph-name="agrave" horiz-adv-x="458" unicode="à"/><glyph d="M298 98v107c-59 -13 -106 -28 -139 -43c-23 -10 -43 -27 -43 -57c0 -36 25 -58 53 -58c39 0 93 24 129 51zM69 373c0 8 0 9 5 13c15 10 88 74 148 74c54 0 161 -27 161 -122v-167c0 -72 2 -98 2 -98c2 -22 13 -38 38 -38h19c4 0 6 -2 6 -4v-21c0 -4 0 -7 -5 -8 c-58 -9 -111 -17 -115 -17c-8 0 -10 3 -10 3l-20 22v53c-40 -38 -91 -76 -146 -76c-66 0 -116 46 -116 117c0 49 45 77 80 89c56 20 97 32 182 45v73c-1 38 -24 93 -115 93c-19 0 -49 -4 -53 -29c-2 -10 -4 -28 -7 -70c0 -3 -1 -3 -3 -4c-1 0 -32 0 -46 2c0 0 -3 0 -3 3z M263 690l69 -8c3 0 7 -5 1 -12c-6 -8 -95 -128 -108 -140c-3 -4 -5 -5 -10 -3c-7 5 -14 13 -17 15c-2 2 -3 4 -1 9c3 4 51 129 52 131c2 5 6 7 14 8z" glyph-name="aacute" horiz-adv-x="458" unicode="á"/><glyph d="M271 703c24 -56 73 -143 80 -153c3 -6 4 -10 0 -12c-3 -3 -25 -10 -33 -12c-9 -4 -11 1 -14 3c-16 17 -53 84 -58 93c-4 9 -6 6 -9 1c-6 -12 -42 -70 -51 -85c-7 -12 -22 -15 -35 -15s-12 7 -10 10c13 14 80 143 83 152c4 8 7 12 10 14c4 1 22 7 30 8c5 1 7 -4 7 -4z" glyph-name="circumflex" horiz-adv-x="455" unicode="ˆ"/><glyph d="M136 245c0 -114 53 -214 147 -214c90 0 123 91 123 171c0 114 -53 214 -147 214c-90 0 -123 -91 -123 -171zM46 213c0 133 94 247 238 247c150 0 212 -99 212 -226c0 -133 -94 -247 -238 -247c-150 0 -212 99 -212 226zM313 694c24 -56 73 -143 80 -153c3 -6 4 -10 0 -12 c-3 -3 -25 -10 -33 -12c-9 -4 -11 1 -14 3c-16 17 -53 84 -58 93c-4 9 -6 6 -9 1c-6 -12 -42 -70 -51 -85c-7 -12 -22 -15 -35 -15s-12 7 -10 10c13 14 80 143 83 152c4 8 7 12 10 14c4 1 22 7 30 8c5 1 7 -4 7 -4z" glyph-name="ocircumflex" horiz-adv-x="542" unicode="ô"/><glyph d="M136 245c0 -114 53 -214 147 -214c90 0 123 91 123 171c0 114 -53 214 -147 214c-90 0 -123 -91 -123 -171zM46 213c0 133 94 247 238 247c150 0 212 -99 212 -226c0 -133 -94 -247 -238 -247c-150 0 -212 99 -212 226zM141 613c0 9 1 22 12 31c9 8 25 12 39 13 c9 2 27 -1 36 -11c9 -9 12 -26 11 -33c-1 -16 -7 -26 -14 -35c-9 -11 -29 -16 -39 -16c-16 0 -26 8 -35 19c-6 9 -10 19 -10 32zM343 613c0 9 1 22 11 31c9 8 26 12 39 13c9 2 27 -1 36 -11c9 -9 13 -26 11 -33c-1 -16 -6 -26 -13 -35c-9 -11 -29 -16 -39 -16 c-16 0 -26 8 -35 19c-7 9 -10 19 -10 32z" glyph-name="odieresis" horiz-adv-x="542" unicode="ö"/><glyph d="M142 586c16 26 69 59 97 59c37 0 67 -27 106 -27c38 0 67 29 75 37c9 8 9 -7 6 -22c-4 -14 -21 -29 -31 -37c-15 -11 -43 -32 -78 -32c-36 0 -68 25 -106 25c-26 0 -44 -16 -64 -33c-9 -8 -10 4 -10 3c0 14 2 22 5 27z" glyph-name="tilde" horiz-adv-x="491" unicode="˜"/><glyph d="M350 33h49c8 0 13 7 14 19c0 0 5 54 5 100v134c0 49 -3 109 -95 110c-59 0 -120 -46 -123 -82v-162c0 -44 5 -100 5 -100c1 -12 5 -19 14 -19h47c10 0 10 -18 10 -36c-37 2 -73 3 -122 3c-47 0 -79 -2 -117 -3c0 19 0 36 10 36h48c9 0 13 7 15 19c0 0 4 54 4 100v224 c0 12 -7 26 -28 26h-40c-4 0 -5 1 -5 4v22c0 2 0 7 5 8c6 1 121 21 124 21c8 0 10 -3 10 -3l20 -22v-55c5 2 71 80 156 80c78 0 148 -46 148 -130v-175c0 -43 3 -96 4 -99c1 -12 6 -20 15 -20h47c10 0 10 -18 10 -36c-37 2 -74 3 -122 3c-47 0 -80 -2 -118 -3 c0 19 0 36 10 36zM172 584c16 26 69 59 97 59c37 0 67 -27 106 -27c38 0 67 29 75 37c9 8 9 -7 6 -22c-4 -14 -21 -29 -31 -37c-15 -11 -43 -32 -78 -32c-36 0 -68 25 -106 25c-26 0 -44 -16 -64 -33c-9 -8 -10 4 -10 3c0 14 2 22 5 27z" glyph-name="ntilde" horiz-adv-x="610" unicode="ñ"/><glyph d="M136 245c0 -114 53 -214 147 -214c90 0 123 91 123 171c0 114 -53 214 -147 214c-90 0 -123 -91 -123 -171zM46 213c0 133 94 247 238 247c150 0 212 -99 212 -226c0 -133 -94 -247 -238 -247c-150 0 -212 99 -212 226zM202 677c2 1 65 11 73 12s11 1 13 -4 c1 -2 44 -130 47 -134c2 -5 1 -7 -1 -9c-3 -2 -10 -10 -17 -15c-5 -2 -7 -1 -10 3c-13 12 -100 127 -106 135c-6 7 -2 11 1 12z" glyph-name="ograve" horiz-adv-x="542" unicode="ò"/><glyph d="M136 245c0 -114 53 -214 147 -214c90 0 123 91 123 171c0 114 -53 214 -147 214c-90 0 -123 -91 -123 -171zM46 213c0 133 94 247 238 247c150 0 212 -99 212 -226c0 -133 -94 -247 -238 -247c-150 0 -212 99 -212 226zM151 586c16 26 69 59 97 59c37 0 67 -27 106 -27 c38 0 67 29 75 37c9 8 9 -7 6 -22c-4 -14 -21 -29 -31 -37c-15 -11 -43 -32 -78 -32c-36 0 -68 25 -106 25c-26 0 -44 -16 -64 -33c-9 -8 -10 4 -10 3c0 14 2 22 5 27z" glyph-name="otilde" horiz-adv-x="542" unicode="õ"/><glyph d="M402 129v159c0 24 -1 56 -2 80c-2 27 -8 36 -29 36h-37c-4 0 -5 1 -5 4v22c0 2 0 7 5 8c6 1 121 21 124 21c8 0 10 -3 10 -3l20 -22v-359c0 -22 2 -35 28 -35h19c3 0 6 -2 6 -4v-21c0 -4 0 -7 -5 -8c-58 -9 -101 -20 -104 -20c-8 0 -10 3 -10 3l-20 21v52 c-5 -3 -66 -79 -151 -79c-62 0 -148 44 -148 128v176c0 24 -2 56 -3 80c-2 27 -7 36 -28 36h-37c-4 0 -5 1 -5 4v22c0 2 0 7 5 8c6 1 121 21 124 21c8 0 10 -3 10 -3l20 -22v-281c0 -49 16 -107 94 -107c48 0 115 43 119 83zM311 689l69 -8c3 0 7 -5 1 -12 c-6 -8 -95 -128 -108 -140c-3 -4 -5 -5 -10 -3c-7 5 -14 13 -17 15c-2 2 -3 4 -1 9c3 4 51 129 52 131c2 5 6 7 14 8z" glyph-name="uacute" horiz-adv-x="578" unicode="ú"/><glyph d="M402 129v159c0 24 -1 56 -2 80c-2 27 -8 36 -29 36h-37c-4 0 -5 1 -5 4v22c0 2 0 7 5 8c6 1 121 21 124 21c8 0 10 -3 10 -3l20 -22v-359c0 -22 2 -35 28 -35h19c3 0 6 -2 6 -4v-21c0 -4 0 -7 -5 -8c-58 -9 -101 -20 -104 -20c-8 0 -10 3 -10 3l-20 21v52 c-5 -3 -66 -79 -151 -79c-62 0 -148 44 -148 128v176c0 24 -2 56 -3 80c-2 27 -7 36 -28 36h-37c-4 0 -5 1 -5 4v22c0 2 0 7 5 8c6 1 121 21 124 21c8 0 10 -3 10 -3l20 -22v-281c0 -49 16 -107 94 -107c48 0 115 43 119 83zM182 677c2 1 65 11 73 12s11 1 13 -4 c1 -2 44 -130 47 -134c2 -5 1 -7 -1 -9c-3 -2 -10 -10 -17 -15c-5 -2 -7 -1 -10 3c-13 12 -100 127 -106 135c-6 7 -2 11 1 12z" glyph-name="ugrave" horiz-adv-x="578" unicode="ù"/><glyph d="M298 98v107c-59 -13 -106 -28 -139 -43c-23 -10 -43 -27 -43 -57c0 -36 25 -58 53 -58c39 0 93 24 129 51zM69 373c0 8 0 9 5 13c15 10 88 74 148 74c54 0 161 -27 161 -122v-167c0 -72 2 -98 2 -98c2 -22 13 -38 38 -38h19c4 0 6 -2 6 -4v-21c0 -4 0 -7 -5 -8 c-58 -9 -111 -17 -115 -17c-8 0 -10 3 -10 3l-20 22v53c-40 -38 -91 -76 -146 -76c-66 0 -116 46 -116 117c0 49 45 77 80 89c56 20 97 32 182 45v73c-1 38 -24 93 -115 93c-19 0 -49 -4 -53 -29c-2 -10 -4 -28 -7 -70c0 -3 -1 -3 -3 -4c-1 0 -32 0 -46 2c0 0 -3 0 -3 3z M84 586c16 26 69 59 97 59c37 0 67 -27 106 -27c38 0 67 29 75 37c9 8 9 -7 6 -22c-4 -14 -21 -29 -31 -37c-15 -11 -43 -32 -78 -32c-36 0 -68 25 -106 25c-26 0 -44 -16 -64 -33c-9 -8 -10 4 -10 3c0 14 2 22 5 27z" glyph-name="atilde" horiz-adv-x="458" unicode="ã"/><glyph d="M416 83c9 -8 25 -21 15 -31c-43 -43 -103 -65 -168 -65c-159 0 -217 109 -217 235c1 133 101 238 224 238c114 0 170 -75 170 -209l-307 -15c1 -113 54 -191 155 -191c35 0 79 1 128 38zM254 419c-59 0 -112 -31 -120 -147l218 19c0 56 -28 128 -98 128zM268 689l69 -8 c3 0 7 -5 1 -12c-6 -8 -95 -128 -108 -140c-3 -4 -5 -5 -10 -3c-7 5 -14 13 -17 15c-2 2 -3 4 -1 9c3 4 51 129 52 131c2 5 6 7 14 8z" glyph-name="eacute" horiz-adv-x="475" unicode="é"/><glyph d="M416 83c9 -8 25 -21 15 -31c-43 -43 -103 -65 -168 -65c-159 0 -217 109 -217 235c1 133 101 238 224 238c114 0 170 -75 170 -209l-307 -15c1 -113 54 -191 155 -191c35 0 79 1 128 38zM254 419c-59 0 -112 -31 -120 -147l218 19c0 56 -28 128 -98 128zM168 676 c2 1 65 11 73 12s11 1 13 -4c1 -2 44 -130 47 -134c2 -5 1 -7 -1 -9c-3 -2 -10 -10 -17 -15c-5 -2 -7 -1 -10 3c-13 12 -100 127 -106 135c-6 7 -2 11 1 12z" glyph-name="egrave" horiz-adv-x="475" unicode="è"/><glyph d="M416 83c9 -8 25 -21 15 -31c-43 -43 -103 -65 -168 -65c-159 0 -217 109 -217 235c1 133 101 238 224 238c114 0 170 -75 170 -209l-307 -15c1 -113 54 -191 155 -191c35 0 79 1 128 38zM254 419c-59 0 -112 -31 -120 -147l218 19c0 56 -28 128 -98 128zM267 695 c24 -56 73 -143 80 -153c3 -6 4 -10 0 -12c-3 -3 -25 -10 -33 -12c-9 -4 -11 1 -14 3c-16 17 -53 84 -58 93c-4 9 -6 6 -9 1c-6 -12 -42 -70 -51 -85c-7 -12 -22 -15 -35 -15s-12 7 -10 10c13 14 80 143 83 152c4 8 7 12 10 14c4 1 22 7 30 8c5 1 7 -4 7 -4z" glyph-name="ecircumflex" horiz-adv-x="475" unicode="ê"/><glyph d="M416 83c9 -8 25 -21 15 -31c-43 -43 -103 -65 -168 -65c-159 0 -217 109 -217 235c1 133 101 238 224 238c114 0 170 -75 170 -209l-307 -15c1 -113 54 -191 155 -191c35 0 79 1 128 38zM254 419c-59 0 -112 -31 -120 -147l218 19c0 56 -28 128 -98 128zM108 613 c0 9 1 22 12 31c9 8 25 12 39 13c9 2 27 -1 36 -11c9 -9 12 -26 11 -33c-1 -16 -7 -26 -14 -35c-9 -11 -29 -16 -39 -16c-16 0 -26 8 -35 19c-6 9 -10 19 -10 32zM310 613c0 9 1 22 11 31c9 8 26 12 39 13c9 2 27 -1 36 -11c9 -9 13 -26 11 -33c-1 -16 -6 -26 -13 -35 c-9 -11 -29 -16 -39 -16c-16 0 -26 8 -35 19c-7 9 -10 19 -10 32z" glyph-name="edieresis" horiz-adv-x="475" unicode="ë"/><glyph d="M69 319c-2 24 -2 30 9 46c7 10 21 15 34 16c27 3 47 -5 55 -15c6 -8 8 -21 7 -46c-1 -11 -2 -24 -12 -33c-12 -11 -22 -13 -50 -13c-13 0 -28 7 -35 16c-5 6 -7 22 -8 29zM153 92c21 -28 22 -63 22 -92c0 -20 -13 -65 -27 -91c-32 -59 -82 -106 -92 -108 c-7 -2 -25 4 -27 11c-1 3 3 7 7 11c40 46 56 62 63 118c1 10 4 26 -4 43c-26 56 -27 49 -21 59c8 13 35 41 52 52c11 7 19 8 27 -3z" glyph-name="semicolon" horiz-adv-x="193" unicode=";"/><glyph d="M100 609c0 15 1 28 12 37c8 8 25 13 39 14s32 -1 41 -12c9 -8 12 -25 11 -39c-1 -15 -6 -25 -13 -34c-9 -12 -29 -16 -45 -16s-26 8 -35 19c-6 9 -10 19 -10 31z" glyph-name="dotaccent" horiz-adv-x="295" unicode="˙"/><glyph d="M107 609c0 15 1 28 12 37c8 8 25 13 39 14s32 -1 41 -12c9 -8 12 -25 11 -39c-1 -15 -6 -25 -13 -34c-9 -12 -29 -16 -45 -16s-26 8 -35 19c-6 9 -10 19 -10 31zM37 -3c0 19 0 36 10 36h48s15 -1 15 19c0 0 4 54 4 100v227c0 12 -7 24 -28 24h-40c-4 0 -5 1 -5 4v22 c0 2 0 7 5 8c6 1 121 21 124 21c8 0 10 -3 10 -3l20 -22v-281c0 -44 3 -100 3 -100c0 -19 16 -19 16 -19h48c10 0 10 -18 10 -36c0 0 -74 3 -123 3c-47 0 -117 -3 -117 -3z" glyph-name="i" horiz-adv-x="313" unicode="i"/><glyph d="M37 -3c0 19 0 36 10 36h48s15 -1 15 19c0 0 4 54 4 100v227c0 12 -7 24 -28 24h-40c-4 0 -5 1 -5 4v22c0 2 0 7 5 8c6 1 121 21 124 21c8 0 10 -3 10 -3l20 -22v-281c0 -44 5 -100 5 -100c0 -19 14 -19 14 -19h47c10 0 10 -18 10 -36c0 0 -73 3 -122 3 c-47 0 -117 -3 -117 -3z" glyph-name="dotlessi" horiz-adv-x="312" unicode="ı"/><glyph d="M72 -3c0 19 0 36 10 36h48s15 -1 15 19c0 0 4 54 4 100v227c0 12 -7 24 -28 24h-40c-4 0 -5 1 -5 4v22c0 2 0 7 5 8c6 1 121 21 124 21c8 0 10 -3 10 -3l20 -22v-281c0 -44 5 -100 5 -100c0 -19 14 -19 14 -19h47c10 0 10 -18 10 -36c0 0 -73 3 -122 3 c-47 0 -117 -3 -117 -3zM37 609c0 9 1 22 12 31c9 8 25 12 39 13c9 2 27 -1 36 -11c9 -9 12 -26 11 -33c-1 -16 -7 -26 -14 -35c-9 -11 -29 -16 -39 -16c-16 0 -26 8 -35 19c-6 9 -10 19 -10 32zM239 609c0 9 1 22 11 31c9 8 26 12 39 13c9 2 27 -1 36 -11 c9 -9 13 -26 11 -33c-1 -16 -6 -26 -13 -35c-9 -11 -29 -16 -39 -16c-16 0 -26 8 -35 19c-7 9 -10 19 -10 32z" glyph-name="idieresis" horiz-adv-x="373" unicode="ï"/><glyph d="M37 -3c0 19 0 36 10 36h48s15 -1 15 19c0 0 4 54 4 100v227c0 12 -7 24 -28 24h-40c-4 0 -5 1 -5 4v22c0 2 0 7 5 8c6 1 121 21 124 21c8 0 10 -3 10 -3l20 -22v-281c0 -44 5 -100 5 -100c0 -19 14 -19 14 -19h47c10 0 10 -18 10 -36c0 0 -73 3 -122 3 c-47 0 -117 -3 -117 -3zM183 694c24 -56 73 -143 80 -153c3 -6 4 -10 0 -12c-3 -3 -25 -10 -33 -12c-9 -4 -11 1 -14 3c-16 17 -53 84 -58 93c-4 9 -6 6 -9 1c-6 -12 -42 -70 -51 -85c-7 -12 -22 -15 -35 -15s-12 7 -10 10c13 14 80 143 83 152c4 8 7 12 10 14 c4 1 22 7 30 8c5 1 7 -4 7 -4z" glyph-name="icircumflex" horiz-adv-x="312" unicode="î"/><glyph d="M37 -3c0 19 0 36 10 36h48s15 -1 15 19c0 0 4 54 4 100v227c0 12 -7 24 -28 24h-40c-4 0 -5 1 -5 4v22c0 2 0 7 5 8c6 1 121 21 124 21c8 0 10 -3 10 -3l20 -22v-281c0 -44 5 -100 5 -100c0 -19 14 -19 14 -19h47c10 0 10 -18 10 -36c0 0 -73 3 -122 3 c-47 0 -117 -3 -117 -3zM62 675c2 1 65 11 73 12s11 1 13 -4c1 -2 44 -130 47 -134c2 -5 1 -7 -1 -9c-3 -2 -10 -10 -17 -15c-5 -2 -7 -1 -10 3c-13 12 -100 127 -106 135c-6 7 -2 11 1 12z" glyph-name="igrave" horiz-adv-x="312" unicode="ì"/><glyph d="M298 98v107c-59 -13 -106 -28 -139 -43c-23 -10 -43 -27 -43 -57c0 -36 25 -58 53 -58c39 0 93 24 129 51zM69 373c0 8 0 9 5 13c15 10 88 74 148 74c54 0 161 -27 161 -122v-167c0 -72 2 -98 2 -98c2 -22 13 -38 38 -38h19c4 0 6 -2 6 -4v-21c0 -4 0 -7 -5 -8 c-58 -9 -111 -17 -115 -17c-8 0 -10 3 -10 3l-20 22v53c-40 -38 -91 -76 -146 -76c-66 0 -116 46 -116 117c0 49 45 77 80 89c56 20 97 32 182 45v73c-1 38 -24 93 -115 93c-19 0 -49 -4 -53 -29c-2 -10 -4 -28 -7 -70c0 -3 -1 -3 -3 -4c-1 0 -32 0 -46 2c0 0 -3 0 -3 3z M250 695c24 -56 73 -143 80 -153c3 -6 4 -10 0 -12c-3 -3 -25 -10 -33 -12c-9 -4 -11 1 -14 3c-16 17 -53 84 -58 93c-4 9 -6 6 -9 1c-6 -12 -42 -70 -51 -85c-7 -12 -22 -15 -35 -15s-12 7 -10 10c13 14 80 143 83 152c4 8 7 12 10 14c4 1 22 7 30 8c5 1 7 -4 7 -4z" glyph-name="acircumflex" horiz-adv-x="458" unicode="â"/><glyph d="M329 151c0 0 3 0 3 -3c0 0 8 -42 8 -73c0 -56 -22 -82 -105 -82c-92 0 -200 66 -200 171c0 27 6 65 26 88c21 24 96 90 125 114c26 21 29 50 -6 83c-5 4 -4 12 1 15c0 0 18 9 27 15c9 3 19 -5 22 -7c38 -29 55 -62 54 -90c0 -9 -1 -14 -9 -20c0 0 -71 -50 -131 -103 c-22 -20 -37 -55 -37 -77c1 -72 81 -115 149 -119c21 1 28 7 29 18c1 20 2 38 1 64c0 3 1 3 3 4c1 0 26 2 40 2zM247 642c0 -15 -1 -28 -12 -37c-8 -8 -25 -13 -39 -14s-32 1 -41 12c-9 8 -12 25 -11 39c1 15 6 25 13 34c9 12 29 16 45 16s26 -8 35 -19c6 -9 10 -19 10 -31z" glyph-name="questiondown" horiz-adv-x="378" unicode="¿"/><glyph d="M508 465c-28 -22 -279 -146 -349 -182c-3 -2 -4 -4 0 -6c41 -25 345 -165 375 -192c5 -5 -16 -55 -23 -66c-3 -5 -7 -6 -10 -4c-48 36 -357 194 -465 238c-8 4 4 41 13 45c102 53 429 222 469 254c4 2 7 -1 7 -6c0 -11 -6 -57 -10 -72c-1 -5 -6 -8 -7 -9z" glyph-name="less" unicode="&lt;"/><glyph d="M88 90c28 22 279 146 349 182c3 2 4 4 0 6c-41 25 -345 165 -375 192c-5 5 16 55 23 66c3 5 7 6 10 4c48 -36 357 -194 465 -238c8 -4 -4 -41 -13 -45c-102 -53 -429 -222 -469 -254c-4 -2 -7 1 -7 6c0 11 6 57 10 72c1 5 6 8 7 9z" glyph-name="greater" unicode="&gt;"/><glyph d="M480 318l-441 -1c-2 0 -4 7 -3 9c1 9 12 49 15 55c0 1 1 2 9 1c18 -1 57 -1 438 -1c2 -2 3 -7 2 -10c-1 -5 -14 -51 -20 -53zM478 137l-438 -1c-2 0 -3 6 -3 9c1 8 10 51 13 58c1 2 2 3 9 2c18 -3 36 -2 437 -2c3 -1 2 -7 2 -10c-1 -8 -15 -55 -20 -56z" glyph-name="equal" unicode="="/><glyph d="M286 673c-32 -1 -114 -2 -136 -2c-2 0 -4 -4 -4 -7c-2 -22 -3 -188 -3 -377c0 -230 1 -339 3 -383c1 -6 2 -11 10 -13c15 -5 57 -5 135 -5c5 0 5 -2 5 -4c0 -6 0 -43 -8 -44h-154c-23 2 -36 4 -41 7c0 0 -3 1 -2 5v865c0 2 3 5 5 5h193c5 0 5 -1 5 -3c0 -6 0 -43 -8 -44z" glyph-name="bracketleft" horiz-adv-x="261" unicode="["/><glyph d="M100 673c-8 1 -8 38 -8 44c0 2 0 3 5 3h193c2 0 5 -3 6 -5v-865c0 -4 -3 -5 -3 -5c-5 -3 -18 -5 -41 -7h-154c-8 1 -8 38 -8 44c0 2 0 4 5 4c78 0 120 0 135 5c8 2 9 7 10 13c2 44 3 153 3 383c0 189 -1 355 -3 377c0 3 -2 7 -4 7c-22 0 -104 1 -136 2z" glyph-name="bracketright" horiz-adv-x="261" unicode="]"/><glyph d="M75 732c4 3 5 1 6 -1c55 -150 231 -624 299 -772c2 -5 1 -9 -7 -7c-10 2 -31 9 -43 16l-6 5c-39 72 -224 574 -284 724c-1 3 -2 5 0 6c12 11 25 21 35 29z" glyph-name="backslash" horiz-adv-x="430" unicode="\"/><glyph d="M141 345c-8 -11 -54 -7 -65 -7c-5 0 -8 4 -8 6c23 29 165 301 190 360c1 2 2 4 4 5s22 7 32 9c2 0 4 1 7 -5c32 -73 151 -320 177 -364c1 -1 -1 -4 -2 -6c-11 -7 -53 -19 -56 -17c-23 21 -128 236 -144 266c0 1 -6 2 -7 0c-26 -53 -110 -227 -128 -247z" glyph-name="asciicircum" unicode="^"/><glyph d="M530 -174v-57h-529v57h529z" glyph-name="underscore" unicode="_"/><glyph d="M345 732c10 -8 23 -18 35 -29c2 -1 1 -3 0 -6c-60 -150 -245 -652 -284 -724l-6 -5c-12 -7 -33 -14 -43 -16c-8 -2 -9 2 -7 7c68 148 244 622 299 772c1 2 2 4 6 1z" glyph-name="slash" horiz-adv-x="430" unicode="/"/><glyph d="M52 283c6 1 367 2 413 1c5 0 5 -2 5 -4v-3c0 -11 -4 -47 -8 -48c-8 -2 -406 -2 -421 -1c-4 0 -3 7 -3 7c1 8 6 36 9 45c1 2 1 3 5 3z" glyph-name="endash" horiz-adv-x="518" unicode="–"/><glyph d="M276 224l-208 -1c-2 0 -4 7 -3 9c1 9 12 49 15 55c0 1 1 2 9 1c18 -1 57 -1 205 -1c2 -2 3 -7 2 -10c-1 -5 -14 -51 -20 -53z" glyph-name="hyphen" horiz-adv-x="336" unicode="-"/><glyph d="M153 92c21 -28 22 -63 22 -92c0 -20 -13 -65 -27 -91c-32 -59 -82 -106 -92 -108c-7 -2 -25 4 -27 11c-1 3 3 7 7 11c35 40 64 78 64 136c0 21 -12 40 -22 60c-9 19 -8 17 -4 24c8 13 35 41 52 52c11 7 19 8 27 -3z" glyph-name="comma" horiz-adv-x="193" unicode=","/><glyph d="M233 11l1 216h-195c-2 0 -4 7 -3 9c1 9 11 47 14 53c0 1 2 2 10 2h112h62v193c2 6 48 19 53 20c3 1 8 0 10 -2v-103c0 -50 0 -90 1 -108h105h102c3 0 4 -3 3 -8s-15 -56 -21 -56h-190v-83c0 -50 1 -94 1 -112c0 -8 -2 -10 -3 -10c-6 -3 -44 -13 -53 -14c-2 -1 -9 1 -9 3z" glyph-name="plus" unicode="+"/><glyph d="M298 98v107c-59 -13 -106 -28 -139 -43c-23 -10 -43 -27 -43 -57c0 -36 25 -58 53 -58c39 0 93 24 129 51zM69 373c0 8 0 9 5 13c15 10 88 74 148 74c54 0 161 -27 161 -122v-167c0 -72 2 -98 2 -98c2 -22 13 -38 38 -38h19c4 0 6 -2 6 -4v-21c0 -4 0 -7 -5 -8 c-58 -9 -111 -17 -115 -17c-8 0 -10 3 -10 3l-20 22v53c-40 -38 -91 -76 -146 -76c-66 0 -116 46 -116 117c0 49 45 77 80 89c56 20 97 32 182 45v73c-1 38 -24 93 -115 93c-19 0 -49 -4 -53 -29c-2 -10 -4 -28 -7 -70c0 -3 -1 -3 -3 -4c-1 0 -32 0 -46 2c0 0 -3 0 -3 3z M74 613c0 9 1 22 12 31c9 8 25 12 39 13c9 2 27 -1 36 -11c9 -9 12 -26 11 -33c-1 -16 -7 -26 -14 -35c-9 -11 -29 -16 -39 -16c-16 0 -26 8 -35 19c-6 9 -10 19 -10 32zM276 613c0 9 1 22 11 31c9 8 26 12 39 13c9 2 27 -1 36 -11c9 -9 13 -26 11 -33 c-1 -16 -6 -26 -13 -35c-9 -11 -29 -16 -39 -16c-16 0 -26 8 -35 19c-7 9 -10 19 -10 32z" glyph-name="adieresis" horiz-adv-x="458" unicode="ä"/><glyph d="M402 129v159c0 24 -1 56 -2 80c-2 27 -8 36 -29 36h-37c-4 0 -5 1 -5 4v22c0 2 0 7 5 8c6 1 121 21 124 21c8 0 10 -3 10 -3l20 -22v-359c0 -22 2 -35 28 -35h19c3 0 6 -2 6 -4v-21c0 -4 0 -7 -5 -8c-58 -9 -101 -20 -104 -20c-8 0 -10 3 -10 3l-20 21v52 c-5 -3 -66 -79 -151 -79c-62 0 -148 44 -148 128v176c0 24 -2 56 -3 80c-2 27 -7 36 -28 36h-37c-4 0 -5 1 -5 4v22c0 2 0 7 5 8c6 1 121 21 124 21c8 0 10 -3 10 -3l20 -22v-281c0 -49 16 -107 94 -107c48 0 115 43 119 83zM302 699c24 -56 73 -143 80 -153 c3 -6 4 -10 0 -12c-3 -3 -25 -10 -33 -12c-9 -4 -11 1 -14 3c-16 17 -53 84 -58 93c-4 9 -6 6 -9 1c-6 -12 -42 -70 -51 -85c-7 -12 -22 -15 -35 -15s-12 7 -10 10c13 14 80 143 83 152c4 8 7 12 10 14c4 1 22 7 30 8c5 1 7 -4 7 -4z" glyph-name="ucircumflex" horiz-adv-x="578" unicode="û"/><glyph d="M43 693h292h-292zM325 655h-47c-15 0 -40 -12 -41 -27v-469c0 -44 3 -95 3 -95c0 -14 23 -27 38 -27h47c10 0 10 -22 10 -40c-37 2 -101 3 -149 3c-47 0 -102 -2 -140 -3c0 19 0 40 10 40h48c15 0 37 13 37 27c0 0 3 49 2 95v469c0 15 -24 27 -39 27h-48 c-10 0 -10 21 -10 40c38 -1 93 -3 140 -3c48 0 112 1 149 3c0 -18 0 -40 -10 -40zM36 777c0 9 1 22 12 31c9 8 25 12 39 13c9 2 27 -1 36 -11c9 -9 12 -26 11 -33c-1 -16 -7 -26 -14 -35c-9 -11 -29 -16 -39 -16c-16 0 -26 8 -35 19c-6 9 -10 19 -10 32zM238 777 c0 9 1 22 11 31c9 8 26 12 39 13c9 2 27 -1 36 -11c9 -9 13 -26 11 -33c-1 -16 -6 -26 -13 -35c-9 -11 -29 -16 -39 -16c-16 0 -26 8 -35 19c-7 9 -10 19 -10 32z" glyph-name="Idieresis" horiz-adv-x="372" unicode="Ï"/><glyph d="M315 655h-47c-15 0 -40 -12 -41 -27v-469c0 -44 3 -95 3 -95c0 -14 23 -27 38 -27h47c10 0 10 -22 10 -40c-37 2 -101 3 -149 3c-47 0 -102 -2 -140 -3c0 19 0 40 10 40h48c15 0 37 13 37 27c0 0 3 49 2 95v469c0 15 -24 27 -39 27h-48c-10 0 -10 21 -10 40 c38 -1 93 -3 140 -3c48 0 112 1 149 3c0 -18 0 -40 -10 -40zM218 890l69 -8c3 0 7 -5 1 -12c-6 -8 -95 -128 -108 -140c-3 -4 -5 -5 -10 -3c-7 5 -14 13 -17 15c-2 2 -3 4 -1 9c3 4 51 129 52 131c2 5 6 7 14 8z" glyph-name="Iacute" horiz-adv-x="361" unicode="Í"/><glyph d="M456 0h-310c-45 0 -92 -2 -130 -3c0 19 0 42 10 42h48c37 0 55 14 55 28c0 0 2 26 2 58c0 11 -1 22 -1 34v469c0 15 -24 27 -39 27h-47c-10 0 -10 21 -10 40c38 -1 93 -3 140 -3h336l18 -19s3 -2 3 -10l-5 -105c0 -3 -1 -4 -5 -4l-40 -2c-3 0 -4 1 -4 4 c-1 53 -8 88 -67 88h-157c-20 0 -27 -11 -28 -27v-237c1 -2 3 -3 7 -3h156c28 0 62 7 62 40l4 31c1 10 22 17 39 6c-6 -38 -8 -52 -8 -99c0 -48 1 -72 2 -109c-18 -9 -37 -3 -37 12v26c0 31 -34 45 -62 45h-156c-4 0 -6 -2 -7 -4v-250c3 -15 13 -28 32 -28h181 c29 0 52 4 81 61c8 16 10 29 15 52c1 3 4 4 7 3c10 -2 20 -6 35 -11c4 -2 5 -2 5 -7c0 0 -16 -98 -24 -133c-2 -5 -5 -8 -14 -9c-33 -3 -62 -3 -87 -3zM152 777c0 9 1 22 12 31c9 8 25 12 39 13c9 2 27 -1 36 -11c9 -9 12 -26 11 -33c-1 -16 -7 -26 -14 -35 c-9 -11 -29 -16 -39 -16c-16 0 -26 8 -35 19c-6 9 -10 19 -10 32zM354 777c0 9 1 22 11 31c9 8 26 12 39 13c9 2 27 -1 36 -11c9 -9 13 -26 11 -33c-1 -16 -6 -26 -13 -35c-9 -11 -29 -16 -39 -16c-16 0 -26 8 -35 19c-7 9 -10 19 -10 32z" glyph-name="Edieresis" horiz-adv-x="611" unicode="Ë"/><glyph d="M456 0h-310c-45 0 -92 -2 -130 -3c0 19 0 42 10 42h48c37 0 55 14 55 28c0 0 2 26 2 58c0 11 -1 22 -1 34v469c0 15 -24 27 -39 27h-47c-10 0 -10 21 -10 40c38 -1 93 -3 140 -3h336l18 -19s3 -2 3 -10l-5 -105c0 -3 -1 -4 -5 -4l-40 -2c-3 0 -4 1 -4 4 c-1 53 -8 88 -67 88h-157c-20 0 -27 -11 -28 -27v-237c1 -2 3 -3 7 -3h156c28 0 62 7 62 40l4 31c1 10 22 17 39 6c-6 -38 -8 -52 -8 -99c0 -48 1 -72 2 -109c-18 -9 -37 -3 -37 12v26c0 31 -34 45 -62 45h-156c-4 0 -6 -2 -7 -4v-250c3 -15 13 -28 32 -28h181 c29 0 52 4 81 61c8 16 10 29 15 52c1 3 4 4 7 3c10 -2 20 -6 35 -11c4 -2 5 -2 5 -7c0 0 -16 -98 -24 -133c-2 -5 -5 -8 -14 -9c-33 -3 -62 -3 -87 -3zM216 877c2 1 65 11 73 12s11 1 13 -4c1 -2 44 -130 47 -134c2 -5 1 -7 -1 -9c-3 -2 -10 -10 -17 -15c-5 -2 -7 -1 -10 3 c-13 12 -100 127 -106 135c-6 7 -2 11 1 12z" glyph-name="Egrave" horiz-adv-x="611" unicode="È"/><glyph d="M315 655h-47c-15 0 -40 -12 -41 -27v-469c0 -44 3 -95 3 -95c0 -14 23 -27 38 -27h47c10 0 10 -22 10 -40c-37 2 -101 3 -149 3c-47 0 -102 -2 -140 -3c0 19 0 40 10 40h48c15 0 37 13 37 27c0 0 3 49 2 95v469c0 15 -24 27 -39 27h-48c-10 0 -10 21 -10 40 c38 -1 93 -3 140 -3c48 0 112 1 149 3c0 -18 0 -40 -10 -40zM205 907c24 -56 73 -143 80 -153c3 -6 4 -10 0 -12c-3 -3 -25 -10 -33 -12c-9 -4 -11 1 -14 3c-16 17 -53 84 -58 93c-4 9 -6 6 -9 1c-6 -12 -42 -70 -51 -85c-7 -12 -22 -15 -35 -15s-12 7 -10 10 c13 14 80 143 83 152c4 8 7 12 10 14c4 1 22 7 30 8c5 1 7 -4 7 -4z" glyph-name="Icircumflex" horiz-adv-x="361" unicode="Î"/><glyph d="M315 655h-47c-15 0 -40 -12 -41 -27v-469c0 -44 3 -95 3 -95c0 -14 23 -27 38 -27h47c10 0 10 -22 10 -40c-37 2 -101 3 -149 3c-47 0 -102 -2 -140 -3c0 19 0 40 10 40h48c15 0 37 13 37 27c0 0 3 49 2 95v469c0 15 -24 27 -39 27h-48c-10 0 -10 21 -10 40 c38 -1 93 -3 140 -3c48 0 112 1 149 3c0 -18 0 -40 -10 -40zM77 878c2 1 65 11 73 12s11 1 13 -4c1 -2 44 -130 47 -134c2 -5 1 -7 -1 -9c-3 -2 -10 -10 -17 -15c-5 -2 -7 -1 -10 3c-13 12 -100 127 -106 135c-6 7 -2 11 1 12z" glyph-name="Igrave" horiz-adv-x="361" unicode="Ì"/><glyph d="M418 708c184 0 337 -160 337 -354c0 -230 -148 -373 -348 -373c-257 0 -360 194 -360 370c0 200 141 357 371 357zM380 651c-143 0 -219 -120 -219 -265c0 -251 132 -351 280 -351c89 0 201 77 201 298c0 189 -113 317 -262 318zM429 890l69 -8c3 0 7 -5 1 -12 c-6 -8 -95 -128 -108 -140c-3 -4 -5 -5 -10 -3c-7 5 -14 13 -17 15c-2 2 -3 4 -1 9c3 4 51 129 52 131c2 5 6 7 14 8z" glyph-name="Oacute" horiz-adv-x="802" unicode="Ó"/><glyph d="M418 708c184 0 337 -160 337 -354c0 -230 -148 -373 -348 -373c-257 0 -360 194 -360 370c0 200 141 357 371 357zM380 651c-143 0 -219 -120 -219 -265c0 -251 132 -351 280 -351c89 0 201 77 201 298c0 189 -113 317 -262 318zM425 906c24 -56 73 -143 80 -153 c3 -6 4 -10 0 -12c-3 -3 -25 -10 -33 -12c-9 -4 -11 1 -14 3c-16 17 -53 84 -58 93c-4 9 -6 6 -9 1c-6 -12 -42 -70 -51 -85c-7 -12 -22 -15 -35 -15s-12 7 -10 10c13 14 80 143 83 152c4 8 7 12 10 14c4 1 22 7 30 8c5 1 7 -4 7 -4z" glyph-name="Ocircumflex" horiz-adv-x="802" unicode="Ô"/><glyph d="M456 0h-310c-45 0 -92 -2 -130 -3c0 19 0 42 10 42h48c37 0 55 14 55 28c0 0 2 26 2 58c0 11 -1 22 -1 34v469c0 15 -24 27 -39 27h-47c-10 0 -10 21 -10 40c38 -1 93 -3 140 -3h336l18 -19s3 -2 3 -10l-5 -105c0 -3 -1 -4 -5 -4l-40 -2c-3 0 -4 1 -4 4 c-1 53 -8 88 -67 88h-157c-20 0 -27 -11 -28 -27v-237c1 -2 3 -3 7 -3h156c28 0 62 7 62 40l4 31c1 10 22 17 39 6c-6 -38 -8 -52 -8 -99c0 -48 1 -72 2 -109c-18 -9 -37 -3 -37 12v26c0 31 -34 45 -62 45h-156c-4 0 -6 -2 -7 -4v-250c3 -15 13 -28 32 -28h181 c29 0 52 4 81 61c8 16 10 29 15 52c1 3 4 4 7 3c10 -2 20 -6 35 -11c4 -2 5 -2 5 -7c0 0 -16 -98 -24 -133c-2 -5 -5 -8 -14 -9c-33 -3 -62 -3 -87 -3zM327 907c24 -56 73 -143 80 -153c3 -6 4 -10 0 -12c-3 -3 -25 -10 -33 -12c-9 -4 -11 1 -14 3c-16 17 -53 84 -58 93 c-4 9 -6 6 -9 1c-6 -12 -42 -70 -51 -85c-7 -12 -22 -15 -35 -15s-12 7 -10 10c13 14 80 143 83 152c4 8 7 12 10 14c4 1 22 7 30 8c5 1 7 -4 7 -4z" glyph-name="Ecircumflex" horiz-adv-x="611" unicode="Ê"/><glyph d="M369 577l-92 -251c1 -1 2 -1 4 -1h170c3 0 4 1 5 2zM731 37c10 0 10 -22 10 -40c-37 2 -92 3 -140 3c-47 0 -102 -2 -140 -3c0 19 0 40 10 40h40c14 0 46 4 37 27c0 0 -34 98 -73 212c-2 1 -3 1 -5 1h-208c-2 0 -3 0 -4 -1l-77 -211c-6 -16 9 -27 38 -27h47 c11 0 11 -22 11 -40c-37 2 -68 3 -116 3c-47 0 -102 -2 -140 -3c0 19 0 40 10 40h48c13 0 37 9 44 27c0 0 208 542 238 628l8 -1c7 -1 14 0 22 0c11 0 18 0 27 1c25 -87 225 -621 231 -629c8 -15 24 -27 41 -27h41zM415 888l69 -8c3 0 7 -5 1 -12c-6 -8 -95 -128 -108 -140 c-3 -4 -5 -5 -10 -3c-7 5 -14 13 -17 15c-2 2 -3 4 -1 9c3 4 51 129 52 131c2 5 6 7 14 8z" glyph-name="Aacute" horiz-adv-x="721" unicode="Á"/><glyph d="M418 708c184 0 337 -160 337 -354c0 -230 -148 -373 -348 -373c-257 0 -360 194 -360 370c0 200 141 357 371 357zM380 651c-143 0 -219 -120 -219 -265c0 -251 132 -351 280 -351c89 0 201 77 201 298c0 189 -113 317 -262 318zM302 876c2 1 65 11 73 12s11 1 13 -4 c1 -2 44 -130 47 -134c2 -5 1 -7 -1 -9c-3 -2 -10 -10 -17 -15c-5 -2 -7 -1 -10 3c-13 12 -100 127 -106 135c-6 7 -2 11 1 12z" glyph-name="Ograve" horiz-adv-x="802" unicode="Ò"/><glyph d="M314 655h-47c-16 0 -36 -10 -36 -35v-338c0 -112 41 -236 215 -236s197 123 197 236v136c0 146 0 169 -7 202c-5 20 -31 35 -65 35h-29c-10 0 -10 22 -10 40c37 -2 83 -3 131 -3s92 1 129 3c0 -18 0 -40 -10 -40h-29c-24 0 -52 -15 -53 -35c-4 -28 -4 -66 -4 -104v-234 c0 -88 -24 -295 -261 -295c-229 0 -301 93 -301 295v338c0 23 -21 35 -41 35h-48c-10 0 -10 21 -10 40c38 -1 93 -3 140 -3c48 0 112 1 149 3c0 -18 0 -40 -10 -40zM463 890l69 -8c3 0 7 -5 1 -12c-6 -8 -95 -128 -108 -140c-3 -4 -5 -5 -10 -3c-7 5 -14 13 -17 15 c-2 2 -3 4 -1 9c3 4 51 129 52 131c2 5 6 7 14 8z" glyph-name="Uacute" horiz-adv-x="817" unicode="Ú"/><glyph d="M314 655h-47c-16 0 -36 -10 -36 -35v-338c0 -112 41 -236 215 -236s197 123 197 236v136c0 146 0 169 -7 202c-5 20 -31 35 -65 35h-29c-10 0 -10 22 -10 40c37 -2 83 -3 131 -3s92 1 129 3c0 -18 0 -40 -10 -40h-29c-24 0 -52 -15 -53 -35c-4 -28 -4 -66 -4 -104v-234 c0 -88 -24 -295 -261 -295c-229 0 -301 93 -301 295v338c0 23 -21 35 -41 35h-48c-10 0 -10 21 -10 40c38 -1 93 -3 140 -3c48 0 112 1 149 3c0 -18 0 -40 -10 -40zM438 906c24 -56 73 -143 80 -153c3 -6 4 -10 0 -12c-3 -3 -25 -10 -33 -12c-9 -4 -11 1 -14 3 c-16 17 -53 84 -58 93c-4 9 -6 6 -9 1c-6 -12 -42 -70 -51 -85c-7 -12 -22 -15 -35 -15s-12 7 -10 10c13 14 80 143 83 152c4 8 7 12 10 14c4 1 22 7 30 8c5 1 7 -4 7 -4z" glyph-name="Ucircumflex" horiz-adv-x="817" unicode="Û"/><glyph d="M314 655h-47c-16 0 -36 -10 -36 -35v-338c0 -112 41 -236 215 -236s197 123 197 236v136c0 146 0 169 -7 202c-5 20 -31 35 -65 35h-29c-10 0 -10 22 -10 40c37 -2 83 -3 131 -3s92 1 129 3c0 -18 0 -40 -10 -40h-29c-24 0 -52 -15 -53 -35c-4 -28 -4 -66 -4 -104v-234 c0 -88 -24 -295 -261 -295c-229 0 -301 93 -301 295v338c0 23 -21 35 -41 35h-48c-10 0 -10 21 -10 40c38 -1 93 -3 140 -3c48 0 112 1 149 3c0 -18 0 -40 -10 -40zM320 877c2 1 65 11 73 12s11 1 13 -4c1 -2 44 -130 47 -134c2 -5 1 -7 -1 -9c-3 -2 -10 -10 -17 -15 c-5 -2 -7 -1 -10 3c-13 12 -100 127 -106 135c-6 7 -2 11 1 12z" glyph-name="Ugrave" horiz-adv-x="817" unicode="Ù"/><glyph d="M369 577l-92 -251c1 -1 2 -1 4 -1h170c3 0 4 1 5 2zM731 37c10 0 10 -22 10 -40c-37 2 -92 3 -140 3c-47 0 -102 -2 -140 -3c0 19 0 40 10 40h40c14 0 46 4 37 27c0 0 -34 98 -73 212c-2 1 -3 1 -5 1h-208c-2 0 -3 0 -4 -1l-77 -211c-6 -16 9 -27 38 -27h47 c11 0 11 -22 11 -40c-37 2 -68 3 -116 3c-47 0 -102 -2 -140 -3c0 19 0 40 10 40h48c13 0 37 9 44 27c0 0 208 542 238 628l8 -1c7 -1 14 0 22 0c11 0 18 0 27 1c25 -87 225 -621 231 -629c8 -15 24 -27 41 -27h41zM230 776c0 9 1 22 12 31c9 8 25 12 39 13 c9 2 27 -1 36 -11c9 -9 12 -26 11 -33c-1 -16 -7 -26 -14 -35c-9 -11 -29 -16 -39 -16c-16 0 -26 8 -35 19c-6 9 -10 19 -10 32zM432 776c0 9 1 22 11 31c9 8 26 12 39 13c9 2 27 -1 36 -11c9 -9 13 -26 11 -33c-1 -16 -6 -26 -13 -35c-9 -11 -29 -16 -39 -16 c-16 0 -26 8 -35 19c-7 9 -10 19 -10 32z" glyph-name="Adieresis" horiz-adv-x="721" unicode="Ä"/><glyph d="M456 0h-310c-45 0 -92 -2 -130 -3c0 19 0 42 10 42h48c37 0 55 14 55 28c0 0 2 26 2 58c0 11 -1 22 -1 34v469c0 15 -24 27 -39 27h-47c-10 0 -10 21 -10 40c38 -1 93 -3 140 -3h336l18 -19s3 -2 3 -10l-5 -105c0 -3 -1 -4 -5 -4l-40 -2c-3 0 -4 1 -4 4 c-1 53 -8 88 -67 88h-157c-20 0 -27 -11 -28 -27v-237c1 -2 3 -3 7 -3h156c28 0 62 7 62 40l4 31c1 10 22 17 39 6c-6 -38 -8 -52 -8 -99c0 -48 1 -72 2 -109c-18 -9 -37 -3 -37 12v26c0 31 -34 45 -62 45h-156c-4 0 -6 -2 -7 -4v-250c3 -15 13 -28 32 -28h181 c29 0 52 4 81 61c8 16 10 29 15 52c1 3 4 4 7 3c10 -2 20 -6 35 -11c4 -2 5 -2 5 -7c0 0 -16 -98 -24 -133c-2 -5 -5 -8 -14 -9c-33 -3 -62 -3 -87 -3zM315 890l69 -8c3 0 7 -5 1 -12c-6 -8 -95 -128 -108 -140c-3 -4 -5 -5 -10 -3c-7 5 -14 13 -17 15c-2 2 -3 4 -1 9 c3 4 51 129 52 131c2 5 6 7 14 8z" glyph-name="Eacute" horiz-adv-x="611" unicode="É"/><glyph d="M268 37h47c10 0 10 -23 10 -40c-37 2 -101 3 -149 3c-47 0 -102 -2 -140 -3c0 19 0 40 10 40h48c22 0 44 14 48 44c6 36 7 230 7 376v169c0 24 -40 29 -55 29h-48c-10 0 -10 21 -10 40c38 -1 93 -3 140 -3h45l449 -558v266c0 63 -1 169 -10 228c-4 16 -22 27 -42 27h-63 c-10 0 -10 22 -10 40c37 -2 101 -3 149 -3c47 0 87 2 125 3c0 -19 0 -40 -10 -40h-33c-17 0 -42 -7 -46 -27c-8 -58 -10 -164 -10 -228v-402c-13 1 -24 2 -36 2c-14 0 -31 -2 -31 -2c-92 125 -386 490 -449 567c0 -126 2 -435 5 -484c2 -33 40 -44 59 -44zM286 763 c16 26 69 59 97 59c37 0 67 -27 106 -27c38 0 67 29 75 37c9 8 9 -7 6 -22c-4 -14 -21 -29 -31 -37c-15 -11 -43 -32 -78 -32c-36 0 -68 25 -106 25c-26 0 -44 -16 -64 -33c-9 -8 -10 4 -10 3c0 14 2 22 5 27z" glyph-name="Ntilde" horiz-adv-x="855" unicode="Ñ"/><glyph d="M369 577l-92 -251c1 -1 2 -1 4 -1h170c3 0 4 1 5 2zM731 37c10 0 10 -22 10 -40c-37 2 -92 3 -140 3c-47 0 -102 -2 -140 -3c0 19 0 40 10 40h40c14 0 46 4 37 27c0 0 -34 98 -73 212c-2 1 -3 1 -5 1h-208c-2 0 -3 0 -4 -1l-77 -211c-6 -16 9 -27 38 -27h47 c11 0 11 -22 11 -40c-37 2 -68 3 -116 3c-47 0 -102 -2 -140 -3c0 19 0 40 10 40h48c13 0 37 9 44 27c0 0 208 542 238 628l8 -1c7 -1 14 0 22 0c11 0 18 0 27 1c25 -87 225 -621 231 -629c8 -15 24 -27 41 -27h41zM405 906c24 -56 73 -143 80 -153c3 -6 4 -10 0 -12 c-3 -3 -25 -10 -33 -12c-9 -4 -11 1 -14 3c-16 17 -53 84 -58 93c-4 9 -6 6 -9 1c-6 -12 -42 -70 -51 -85c-7 -12 -22 -15 -35 -15s-12 7 -10 10c13 14 80 143 83 152c4 8 7 12 10 14c4 1 22 7 30 8c5 1 7 -4 7 -4z" glyph-name="Acircumflex" horiz-adv-x="721" unicode="Â"/><glyph d="M418 708c184 0 337 -160 337 -354c0 -230 -148 -373 -348 -373c-257 0 -360 194 -360 370c0 200 141 357 371 357zM380 651c-143 0 -219 -120 -219 -265c0 -251 132 -351 280 -351c89 0 201 77 201 298c0 189 -113 317 -262 318zM250 776c0 9 1 22 12 31c9 8 25 12 39 13 c9 2 27 -1 36 -11c9 -9 12 -26 11 -33c-1 -16 -7 -26 -14 -35c-9 -11 -29 -16 -39 -16c-16 0 -26 8 -35 19c-6 9 -10 19 -10 32zM452 776c0 9 1 22 11 31c9 8 26 12 39 13c9 2 27 -1 36 -11c9 -9 13 -26 11 -33c-1 -16 -6 -26 -13 -35c-9 -11 -29 -16 -39 -16 c-16 0 -26 8 -35 19c-7 9 -10 19 -10 32z" glyph-name="Odieresis" horiz-adv-x="802" unicode="Ö"/><glyph d="M314 655h-47c-16 0 -36 -10 -36 -35v-338c0 -112 41 -236 215 -236s197 123 197 236v136c0 146 0 169 -7 202c-5 20 -31 35 -65 35h-29c-10 0 -10 22 -10 40c37 -2 83 -3 131 -3s92 1 129 3c0 -18 0 -40 -10 -40h-29c-24 0 -52 -15 -53 -35c-4 -28 -4 -66 -4 -104v-234 c0 -88 -24 -295 -261 -295c-229 0 -301 93 -301 295v338c0 23 -21 35 -41 35h-48c-10 0 -10 21 -10 40c38 -1 93 -3 140 -3c48 0 112 1 149 3c0 -18 0 -40 -10 -40zM263 777c0 9 1 22 12 31c9 8 25 12 39 13c9 2 27 -1 36 -11c9 -9 12 -26 11 -33c-1 -16 -7 -26 -14 -35 c-9 -11 -29 -16 -39 -16c-16 0 -26 8 -35 19c-6 9 -10 19 -10 32zM465 777c0 9 1 22 11 31c9 8 26 12 39 13c9 2 27 -1 36 -11c9 -9 13 -26 11 -33c-1 -16 -6 -26 -13 -35c-9 -11 -29 -16 -39 -16c-16 0 -26 8 -35 19c-7 9 -10 19 -10 32z" glyph-name="Udieresis" horiz-adv-x="817" unicode="Ü"/><glyph d="M402 129v159c0 24 -1 56 -2 80c-2 27 -8 36 -29 36h-37c-4 0 -5 1 -5 4v22c0 2 0 7 5 8c6 1 121 21 124 21c8 0 10 -3 10 -3l20 -22v-359c0 -22 2 -35 28 -35h19c3 0 6 -2 6 -4v-21c0 -4 0 -7 -5 -8c-58 -9 -101 -20 -104 -20c-8 0 -10 3 -10 3l-20 21v52 c-5 -3 -66 -79 -151 -79c-62 0 -148 44 -148 128v176c0 24 -2 56 -3 80c-2 27 -7 36 -28 36h-37c-4 0 -5 1 -5 4v22c0 2 0 7 5 8c6 1 121 21 124 21c8 0 10 -3 10 -3l20 -22v-281c0 -49 16 -107 94 -107c48 0 115 43 119 83zM122 610c0 9 1 22 12 31c9 8 25 12 39 13 c9 2 27 -1 36 -11c9 -9 12 -26 11 -33c-1 -16 -7 -26 -14 -35c-9 -11 -29 -16 -39 -16c-16 0 -26 8 -35 19c-6 9 -10 19 -10 32zM324 610c0 9 1 22 11 31c9 8 26 12 39 13c9 2 27 -1 36 -11c9 -9 13 -26 11 -33c-1 -16 -6 -26 -13 -35c-9 -11 -29 -16 -39 -16 c-16 0 -26 8 -35 19c-7 9 -10 19 -10 32z" glyph-name="udieresis" horiz-adv-x="578" unicode="ü"/><glyph d="M135 245c0 -114 53 -214 147 -214c84 0 121 80 121 155c0 83 -42 189 -145 189c-84 0 -123 -48 -123 -130zM428 729c2 1 5 1 7 -1s8 -9 11 -21c1 -3 0 -3 -3 -5c0 0 -212 -108 -269 -269c-5 -13 -10 -37 -2 -36c43 24 97 47 150 47c102 0 173 -97 173 -210 c0 -133 -94 -247 -238 -247c-116 0 -179 59 -202 144c-10 24 -19 63 -19 123c0 162 111 387 392 475z" glyph-name="six" unicode="6"/><glyph d="M407 580c-74 -1 -200 -2 -263 -2c-35 -4 -49 -19 -59 -71c-1 -3 -1 -4 -4 -4h-41c-4 0 -5 1 -5 4l22 133c2 9 6 15 15 15h35s349 1 366 1s10 -18 11 -17l-23 -58s-267 -595 -272 -607s-14 -8 -14 -8s-19 5 -31 13s-4 20 -4 20s265 560 270 572c2 5 0 8 -3 9z" glyph-name="seven" unicode="7"/><glyph d="M106 -45c-2 -1 -5 -1 -7 1s-8 9 -11 21c-1 3 0 3 3 5c0 0 212 108 269 269c4 12 11 37 5 39c-46 -26 -99 -41 -142 -41c-107 0 -179 92 -179 201c0 133 94 246 233 247c94 0 160 -48 191 -121c11 -18 30 -62 30 -146c0 -162 -111 -387 -392 -475zM399 434 c0 83 -33 219 -147 219c-84 0 -121 -80 -121 -155c0 -89 52 -180 155 -180c79 0 112 31 113 116z" glyph-name="nine" unicode="9"/><glyph d="M130 377c0 -114 18 -349 149 -349c113 0 123 205 123 285c0 243 -69 328 -143 328c-87 0 -129 -114 -129 -264zM35 345c0 149 71 336 251 336c127 0 211 -117 211 -338c0 -224 -101 -356 -245 -356c-150 0 -217 143 -217 358z" glyph-name="zero" unicode="0"/><glyph d="M379 93c3 -37 18 -56 40 -56h47c10 0 10 -22 10 -40c-37 2 -105 3 -154 3c-47 0 -109 -2 -147 -3c0 19 0 40 10 40h51c19 0 43 19 43 56c0 45 2 90 2 154c0 20 -1 40 -10 58l-14 27c-49 97 -119 235 -164 296c-10 15 -23 27 -45 27h-48c-10 0 -10 21 -10 40 c38 -1 93 -3 140 -3c48 0 96 1 133 3c0 -18 0 -40 -10 -40h-39c-8 0 -11 -4 -11 -9s2 -11 5 -18c0 0 61 -136 145 -283c52 81 137 242 151 283c10 21 -8 27 -28 27h-48c-10 0 -10 21 -10 40c38 -1 80 -3 127 -3c48 0 91 1 128 3c0 -18 0 -40 -10 -40h-39 c-23 0 -37 -13 -49 -27c-52 -62 -140 -231 -195 -324c-3 -8 -4 -31 -4 -84c0 -49 1 -104 3 -127zM204 777c0 9 1 22 12 31c9 8 25 12 39 13c9 2 27 -1 36 -11c9 -9 12 -26 11 -33c-1 -16 -7 -26 -14 -35c-9 -11 -29 -16 -39 -16c-16 0 -26 8 -35 19c-6 9 -10 19 -10 32z M406 777c0 9 1 22 11 31c9 8 26 12 39 13c9 2 27 -1 36 -11c9 -9 13 -26 11 -33c-1 -16 -6 -26 -13 -35c-9 -11 -29 -16 -39 -16c-16 0 -26 8 -35 19c-7 9 -10 19 -10 32z" glyph-name="Ydieresis" horiz-adv-x="628" unicode="Ÿ"/><glyph d="M132 -193l76 187c-27 89 -148 395 -155 402c-7 13 -22 18 -34 18h-34c-10 0 -10 17 -10 36c38 -1 70 -3 117 -3c49 0 86 0 123 3c0 -18 0 -36 -11 -36h-36c-9 0 -21 -4 -21 -13c0 -1 0 -3 1 -5c0 0 64 -165 108 -286c54 134 110 274 110 274c7 16 -3 30 -20 30h-32 c-10 0 -10 17 -10 36c38 -1 68 -3 101 -3c37 0 55 0 92 3c0 -18 0 -36 -10 -36h-29c-21 0 -39 -13 -46 -30l-214 -535c-18 -45 -25 -61 -65 -107c-7 -7 -9 -12 -20 -12l-78 2c-3 0 -3 3 -3 3c-2 14 -2 46 -2 47c0 2 1 3 4 3c42 3 66 4 76 6c13 3 17 6 22 16zM90 609 c0 9 1 22 12 31c9 8 25 12 39 13c9 2 27 -1 36 -11c9 -9 12 -26 11 -33c-1 -16 -7 -26 -14 -35c-9 -11 -29 -16 -39 -16c-16 0 -26 8 -35 19c-6 9 -10 19 -10 32zM292 609c0 9 1 22 11 31c9 8 26 12 39 13c9 2 27 -1 36 -11c9 -9 13 -26 11 -33c-1 -16 -6 -26 -13 -35 c-9 -11 -29 -16 -39 -16c-16 0 -26 8 -35 19c-7 9 -10 19 -10 32z" glyph-name="ydieresis" horiz-adv-x="492" unicode="ÿ"/><glyph d="M189 -6c-17 2 -90 19 -90 19c-8 2 -11 8 -9 18c2 17 34 443 34 443c0 4 1 6 5 7c5 2 32 6 32 6c5 1 7 -2 7 -5c0 -4 37 -476 37 -476c1 -12 -7 -13 -16 -12zM101 641c0 12 4 22 10 31c9 11 19 19 35 19s36 -4 45 -16c7 -9 12 -19 13 -34c1 -14 -2 -31 -11 -39 c-9 -11 -27 -13 -41 -12s-31 6 -39 14c-11 9 -12 22 -12 37z" glyph-name="exclamdown" horiz-adv-x="287" unicode="¡"/><glyph d="M583 372c7 20 8 27 -9 27h-38c-10 0 -10 17 -10 36c38 -1 68 -2 101 -2c37 0 55 0 92 2c0 -18 0 -36 -10 -36h-32c-18 0 -35 -6 -47 -27l-106 -186c86 -71 158 -130 158 -130c21 -18 34 -19 52 -19h30c10 0 14 -21 14 -39c-19 1 -29 2 -55 2c-12 0 -77 -2 -95 -2 c-9 0 -13 1 -20 8l-52 43s-33 26 -79 64c-44 -62 -117 -125 -224 -125c-124 0 -218 61 -218 199c0 79 43 130 143 189c-44 47 -77 101 -77 157c0 37 15 76 50 115c34 38 72 54 124 54c80 0 151 -46 151 -140c0 -84 -65 -117 -134 -167c-4 -3 -3 -6 3 -12 c29 -28 117 -103 200 -172c27 46 74 121 88 161zM125 201c0 -84 95 -143 180 -143c63 0 87 22 139 78c1 1 1 3 0 5c-75 62 -170 143 -231 200l-5 5c-3 3 -6 3 -10 0c-66 -56 -73 -92 -73 -145zM183 563c0 -66 25 -92 75 -145c43 33 93 70 93 141c0 49 -38 107 -85 107 c-52 0 -83 -40 -83 -103z" glyph-name="ampersand" horiz-adv-x="795" unicode="&amp;"/><glyph d="M281 681c98 0 173 -68 173 -162c0 -53 -26 -102 -117 -163c-3 -2 -2 -4 0 -5c101 -64 136 -99 136 -177c0 -98 -80 -186 -213 -186c-108 0 -209 48 -209 167c0 32 18 89 139 174c4 2 3 6 1 7c-86 58 -108 108 -108 166c0 53 22 101 61 132c36 28 83 47 137 47zM258 643 c-60 0 -98 -40 -98 -103c0 -71 41 -110 133 -163c3 -2 6 -3 10 0c56 47 74 95 74 133c0 79 -49 133 -119 133zM282 31c57 0 110 45 110 98c0 75 -45 117 -162 183c-3 2 -7 2 -10 0c-59 -50 -85 -90 -85 -143c0 -74 57 -138 147 -138z" glyph-name="eight" unicode="8"/><glyph d="M363 616c0 0 -14 21 -55 30c-8 -74 -18 -169 -27 -266c98 -53 180 -81 180 -201c0 -97 -64 -159 -155 -184c-23 -6 -46 -9 -70 -10l-8 -43c-2 -9 -6 -18 -12 -22c-5 -3 -10 -5 -15 -7c-9 -4 -13 -1 -11 7l11 66c-39 2 -77 10 -111 24l-21 6s-3 4 -3 8 c-1 4 -17 109 -17 118c0 5 1 5 3 6l37 10c3 1 5 0 6 -2c10 -33 11 -48 28 -78c0 0 21 -37 84 -50c13 94 24 182 29 266c-75 40 -167 101 -167 203c0 31 4 136 139 178c19 6 43 9 67 9l6 66c1 6 3 9 7 7l28 -17c3 -2 3 -4 3 -8l-6 -49c34 -2 60 -6 60 -6l44 -7l18 -18 s3 -4 2 -13l-5 -107c0 -3 -2 -4 -4 -4c-11 -1 -38 0 -37 0c-3 0 -4 1 -4 4c0 33 -15 73 -24 84zM375 147c0 18 -9 68 -105 127c-10 -96 -19 -186 -28 -250h13c101 1 120 85 120 123zM153 548c0 -57 6 -97 95 -150c9 92 17 181 23 252h-13c-64 -2 -105 -51 -105 -102z" glyph-name="dollar" horiz-adv-x="516" unicode="$"/><glyph d="M319 621c-20 15 -47 23 -75 23c-76 0 -133 -101 -141 -234h204c2 -1 2 -3 2 -5c-1 -2 -9 -32 -12 -35h-195c0 -19 0 -39 2 -58h193c2 -1 1 -7 1 -10c0 -8 -9 -31 -11 -32h-179c16 -130 65 -242 175 -242c83 0 99 38 119 121c1 3 4 4 7 3c10 -2 10 -2 25 -7 c4 -2 5 -2 5 -7c0 0 -11 -84 -22 -116c-2 -5 -5 -5 -14 -9c-37 -16 -66 -26 -117 -26c-183 0 -252 110 -266 283h-60c-1 0 -1 3 -1 4c0 4 5 29 7 36c1 2 2 3 5 3c10 -1 28 -1 46 -1v58h-48c-1 0 -3 7 -2 9c1 8 8 28 9 31c0 1 1 1 5 1c7 -1 23 -1 40 -1 c18 133 92 271 247 271c11 0 21 -1 31 -3c51 -7 100 -25 100 -25l20 -20s4 -2 4 -10c0 -3 -6 -87 -7 -94c-1 -4 -4 -4 -6 -4h-31c-3 0 -7 0 -7 4c0 0 -1 10 -8 33c-8 24 -23 43 -45 59z" glyph-name="Euro" horiz-adv-x="511" unicode="€"/><glyph d="M456 191l-97 -1c0 -43 2 -85 3 -100c2 -34 14 -53 36 -53h47c10 0 10 -22 10 -40c-37 2 -101 3 -150 3c-43 0 -105 -2 -139 -3c0 19 0 40 6 40h51c19 0 42 19 42 53v100h-108c-2 0 -3 6 -3 9c1 8 10 29 11 29h100v76h-109c1 0 11 30 13 36c0 1 0 2 4 1c9 -1 29 -1 78 -1 h3c-49 91 -122 202 -170 264c-10 15 -19 27 -41 27h-48c-10 0 -10 21 -10 40c38 -1 89 -3 136 -3c46 0 92 1 129 3c0 -18 0 -40 -10 -40h-39c-8 0 -11 -4 -11 -9s2 -11 5 -18c0 0 57 -99 141 -231c48 77 129 194 143 231c10 21 -8 27 -24 27h-48c-10 0 -10 21 -10 40 c38 -1 76 -3 123 -3c44 0 87 1 124 3c0 -18 0 -40 -10 -40h-39c-23 0 -35 -13 -45 -27c-51 -57 -131 -174 -183 -264h107c2 -2 3 -7 2 -10c-1 -5 -13 -26 -16 -26h-101c-3 -16 -1 -38 -1 -76h113c-1 0 -12 -36 -15 -37z" glyph-name="yen" horiz-adv-x="638" unicode="¥"/><glyph d="M289 641l28 -17c3 -2 3 -4 3 -8c-3 -18 -5 -37 -8 -58c40 -3 84 -18 107 -35c0 0 5 -3 3 -14l-12 -99c0 -2 -2 -3 -4 -3c-11 -1 -41 -1 -40 -1c-3 0 -4 1 -4 4c-2 23 -4 41 -7 53c-7 28 -27 39 -48 44c-13 -119 -24 -266 -37 -371c35 0 75 2 117 31l23 17 c9 -8 26 -22 16 -32l-10 -9c-45 -40 -101 -54 -152 -56c-4 -31 -9 -56 -13 -72c-2 -9 -6 -14 -12 -18c-5 -3 -10 -5 -15 -7c-9 -4 -13 -1 -11 7c5 27 11 58 15 91c-132 12 -193 131 -193 231c1 130 97 230 240 239l7 76c1 6 3 9 7 7zM271 511c-102 0 -146 -80 -147 -190 c0 -71 39 -155 111 -179c15 118 26 254 36 369z" glyph-name="cent" horiz-adv-x="454" unicode="¢"/><glyph d="M762 83c9 -8 25 -21 15 -31c-43 -43 -103 -65 -168 -65c-94 0 -153 38 -185 95c-42 -57 -108 -95 -191 -95c-150 0 -212 99 -212 226c0 133 94 247 238 247c90 0 148 -36 180 -92c41 56 105 92 177 92c114 0 170 -75 170 -209l-307 -15c1 -113 54 -191 155 -191 c35 0 79 1 128 38zM111 245c0 -114 53 -214 147 -214c90 0 123 91 123 171c0 114 -53 214 -147 214c-90 0 -123 -91 -123 -171zM600 419c-59 0 -112 -31 -120 -147l218 19c0 56 -28 128 -98 128z" glyph-name="oe" horiz-adv-x="842" unicode="œ"/><glyph d="M418 708c184 0 337 -160 337 -354c0 -230 -148 -373 -348 -373c-257 0 -360 194 -360 370c0 200 141 357 371 357zM380 651c-143 0 -219 -120 -219 -265c0 -251 132 -351 280 -351c89 0 201 77 201 298c0 189 -113 317 -262 318zM260 764c16 26 69 59 97 59 c37 0 67 -27 106 -27c38 0 67 29 75 37c9 8 9 -7 6 -22c-4 -14 -21 -29 -31 -37c-15 -11 -43 -32 -78 -32c-36 0 -68 25 -106 25c-26 0 -44 -16 -64 -33c-9 -8 -10 4 -10 3c0 14 2 22 5 27z" glyph-name="Otilde" horiz-adv-x="802" unicode="Õ"/><glyph d="M369 577l-92 -251c1 -1 2 -1 4 -1h170c3 0 4 1 5 2zM731 37c10 0 10 -22 10 -40c-37 2 -92 3 -140 3c-47 0 -102 -2 -140 -3c0 19 0 40 10 40h40c14 0 46 4 37 27c0 0 -34 98 -73 212c-2 1 -3 1 -5 1h-208c-2 0 -3 0 -4 -1l-77 -211c-6 -16 9 -27 38 -27h47 c11 0 11 -22 11 -40c-37 2 -68 3 -116 3c-47 0 -102 -2 -140 -3c0 19 0 40 10 40h48c13 0 37 9 44 27c0 0 208 542 238 628l8 -1c7 -1 14 0 22 0c11 0 18 0 27 1c25 -87 225 -621 231 -629c8 -15 24 -27 41 -27h41zM240 762c16 26 69 59 97 59c37 0 67 -27 106 -27 c38 0 67 29 75 37c9 8 9 -7 6 -22c-4 -14 -21 -29 -31 -37c-15 -11 -43 -32 -78 -32c-36 0 -68 25 -106 25c-26 0 -44 -16 -64 -33c-9 -8 -10 4 -10 3c0 14 2 22 5 27z" glyph-name="Atilde" horiz-adv-x="721" unicode="Ã"/><glyph d="M369 577l-92 -251c1 -1 2 -1 4 -1h170c3 0 4 1 5 2zM731 37c10 0 10 -22 10 -40c-37 2 -92 3 -140 3c-47 0 -102 -2 -140 -3c0 19 0 40 10 40h40c14 0 46 4 37 27c0 0 -34 98 -73 212c-2 1 -3 1 -5 1h-208c-2 0 -3 0 -4 -1l-77 -211c-6 -16 9 -27 38 -27h47 c11 0 11 -22 11 -40c-37 2 -68 3 -116 3c-47 0 -102 -2 -140 -3c0 19 0 40 10 40h48c13 0 37 9 44 27c0 0 208 542 238 628l8 -1c7 -1 14 0 22 0c11 0 18 0 27 1c25 -87 225 -621 231 -629c8 -15 24 -27 41 -27h41zM291 877c2 1 65 11 73 12s11 1 13 -4 c1 -2 44 -130 47 -134c2 -5 1 -7 -1 -9c-3 -2 -10 -10 -17 -15c-5 -2 -7 -1 -10 3c-13 12 -100 127 -106 135c-6 7 -2 11 1 12z" glyph-name="Agrave" horiz-adv-x="721" unicode="À"/><glyph d="M654 83c9 -8 25 -21 15 -31c-43 -43 -103 -65 -168 -65c-86 0 -145 32 -180 80c-4 4 -8 5 -13 -1c-43 -48 -105 -79 -156 -79c-66 0 -116 46 -116 117c0 49 45 77 80 89c56 20 97 32 182 45v73c0 38 -23 93 -115 93c-14 0 -25 -3 -37 -7h1c-10 -5 -15 -9 -17 -22 c-2 -10 -4 -28 -7 -70c0 -3 -1 -3 -3 -4c-1 0 -32 0 -46 2c0 0 -3 0 -3 3l-2 67c0 6 0 10 3 12c9 4 86 75 150 75c39 0 105 -15 139 -59c40 35 93 59 147 59c114 0 169 -74 169 -203l-305 -43c7 -101 59 -169 154 -169c35 0 79 1 128 38zM371 249l221 39 c0 56 -30 131 -100 131c-63 0 -119 -35 -121 -170zM159 162c-23 -10 -43 -27 -43 -57c0 -36 25 -58 53 -58c39 0 93 24 129 51v104c-66 -12 -106 -25 -139 -40z" glyph-name="ae" horiz-adv-x="715" unicode="æ"/><glyph d="M221 38h41c11 0 11 -22 11 -40c-37 2 -62 3 -110 3c-47 0 -102 -2 -140 -3c0 19 0 40 10 40h48c13 0 34 9 44 27c0 0 252 443 322 590h-62c-10 0 -10 21 -10 40c38 -1 123 -3 170 -3h336l18 -19s3 -2 3 -10l-5 -105c0 -3 -1 -4 -5 -4l-40 -2c-3 0 -4 1 -4 4 c-1 53 -8 88 -67 88h-157c-20 0 -27 -11 -28 -27v-237c1 -2 3 -3 7 -3h156c28 0 62 7 62 40l4 31c1 10 22 17 39 6c-6 -38 -8 -52 -8 -99c0 -48 1 -72 2 -109c-18 -9 -37 -3 -37 12v26c0 31 -34 45 -62 45h-156c-4 0 -6 -2 -7 -4v-250c3 -15 13 -28 32 -28h177 c31 0 55 1 85 61c8 16 10 29 15 52c1 3 4 4 7 3c10 -2 20 -6 35 -11c4 -2 5 -2 5 -7c0 0 -16 -98 -24 -133c-2 -5 -5 -8 -14 -9c-33 -3 -62 -3 -87 -3h-310c-45 0 -92 -2 -130 -3c0 19 0 42 10 42h48c37 0 55 14 55 28c0 0 2 26 2 58c0 11 -1 22 -1 34v161s1 9 -10 9h-163 c-4 0 -6 -2 -8 -4l-137 -260c-10 -20 9 -27 38 -27zM495 377c7 0 6 14 6 14v237c0 22 -5 29 -10 22l-140 -266c-1 -4 -1 -7 6 -7h138z" glyph-name="AE" horiz-adv-x="967" unicode="Æ"/><glyph d="M797 0h-236c-33 0 -50 -2 -64 -5c-1 -1 -2 -1 -3 -1l-12 -3c-25 -6 -54 -10 -89 -10c-257 0 -360 194 -360 370c0 200 141 357 371 357c32 0 56 -4 76 -9c15 -3 29 -6 54 -7h351l18 -19s3 -2 3 -10l-5 -105c0 -3 -1 -4 -5 -4l-40 -2c-3 0 -4 1 -4 4c-1 53 -8 88 -67 88 h-157c-20 0 -27 -11 -28 -27v-237c1 -2 3 -3 7 -3h156c28 0 62 7 62 40l4 31c1 10 22 17 39 6c-6 -38 -8 -52 -8 -99c0 -48 1 -72 2 -109c-18 -9 -37 -3 -37 12v26c0 31 -34 45 -62 45h-156c-4 0 -6 -2 -7 -4v-250c3 -15 13 -28 32 -28h181c29 0 52 4 81 61 c8 16 10 29 15 52c1 3 4 4 7 3c10 -2 20 -6 35 -11c4 -2 5 -2 5 -7c0 0 -16 -98 -24 -133c-2 -5 -5 -8 -14 -9c-50 -4 -91 -3 -121 -3zM427 35c23 0 42 4 60 12c16 8 18 24 19 78c0 11 -1 22 -1 34v374c0 45 0 77 -20 87c-33 17 -61 31 -119 31c-143 0 -219 -120 -219 -265 c0 -251 132 -351 280 -351z" glyph-name="OE" horiz-adv-x="1054" unicode="Œ"/><glyph d="M505 158l-233 -1l-62 -137c-2 -3 -5 -2 -9 0c-8 4 -21 22 -26 27c-2 2 -2 5 1 11c5 12 27 58 46 99h-155c-2 0 -3 6 -3 9c1 8 10 51 13 58c1 2 2 3 9 2c9 -2 96 -2 165 -2l51 114h-236c-2 0 -4 7 -3 9c1 9 12 49 15 55c0 1 1 2 9 1c12 -1 105 -1 243 -1l56 127 c2 5 9 5 11 3c3 -3 22 -21 28 -30c2 -3 1 -6 0 -8l-42 -92h142c2 -2 3 -7 2 -10c-1 -5 -14 -51 -20 -53l-153 -1l-52 -114h221c3 -1 2 -7 2 -10c-1 -8 -15 -55 -20 -56z" glyph-name="notequal" unicode="≠"/><glyph d="M452 708c86 0 165 -35 225 -92l91 93c2 2 5 3 10 1l35 -17c3 -2 3 -5 -1 -9l-103 -103c49 -61 80 -141 80 -227c0 -230 -148 -373 -348 -373c-112 0 -194 37 -252 92c-48 -46 -84 -80 -100 -94c-4 -3 -8 -3 -12 -1l-26 12c-4 2 -5 4 -1 8c26 23 66 60 112 105 c-56 70 -81 161 -81 248c0 200 141 357 371 357zM414 651c-143 0 -219 -120 -219 -265c0 -88 16 -156 43 -209c118 116 261 259 373 372c-47 64 -117 101 -197 102zM636 509c-118 -116 -264 -259 -377 -368c53 -74 132 -106 216 -106c89 0 201 77 201 298 c0 68 -15 127 -40 176z" glyph-name="Oslash" horiz-adv-x="863" unicode="Ø"/><glyph d="M20 213c0 133 94 247 238 247c77 0 131 -27 165 -69l66 67c2 2 5 3 10 1l24 -14c3 -2 3 -5 -1 -9l-78 -78c18 -35 26 -78 26 -124c0 -133 -94 -247 -238 -247c-58 0 -104 15 -137 40c-21 -20 -39 -35 -51 -46c-4 -3 -8 -3 -12 -1l-19 9c-4 2 -5 4 -1 8l59 53 c-35 41 -51 98 -51 163zM110 245c0 -49 10 -95 28 -132c72 67 148 142 218 211c-24 55 -66 92 -123 92c-90 0 -123 -91 -123 -171zM369 287c-72 -70 -150 -144 -213 -203c24 -33 58 -53 101 -53c90 0 123 91 123 171c0 30 -4 58 -11 85z" glyph-name="oslash" horiz-adv-x="520" unicode="ø"/><glyph d="M171 490v64c-35 -7 -63 -16 -83 -25c-14 -6 -26 -17 -26 -35c0 -21 15 -35 32 -35c23 0 56 15 77 31zM34 656c0 4 0 5 3 7c9 6 53 45 89 45c32 0 97 -16 97 -73v-101c0 -43 1 -59 1 -59c1 -13 8 -23 23 -23h11c2 0 4 -1 4 -2v-13c0 -2 0 -4 -3 -5c-35 -5 -67 -10 -70 -10 c-4 0 -6 2 -6 2l-12 13v32c-24 -23 -54 -46 -88 -46c-39 0 -69 28 -69 71c0 29 27 46 48 53c34 12 58 19 109 27v44c0 23 -14 56 -69 56c-11 0 -29 -2 -32 -17c-1 -6 -2 -17 -4 -42c0 -2 -1 -2 -2 -3c0 0 -19 0 -27 1c0 0 -2 0 -2 2z" glyph-name="ordfeminine" horiz-adv-x="278" unicode="ª"/><glyph d="M59 576c0 -68 31 -128 88 -128c54 0 74 54 74 102c0 69 -32 129 -89 129c-54 0 -73 -55 -73 -103zM5 557c0 80 56 148 142 148c90 0 128 -59 128 -136c0 -79 -57 -148 -143 -148c-90 0 -127 60 -127 136z" glyph-name="ordmasculine" horiz-adv-x="278" unicode="º"/><glyph d="M116 562c0 -59 45 -89 84 -89s84 30 84 89s-45 89 -84 89s-84 -30 -84 -89zM200 705c80 0 143 -63 143 -143s-63 -143 -143 -143s-143 63 -143 143s63 143 143 143z" glyph-name="degree" horiz-adv-x="393" unicode="°"/><glyph d="M48 39c-2 24 -2 30 9 46c7 10 21 15 34 16c27 3 47 -5 55 -15c6 -8 8 -21 7 -46c-1 -11 -2 -24 -12 -33c-12 -11 -22 -13 -50 -13c-13 0 -28 7 -35 16c-5 6 -7 22 -8 29zM348 39c-2 24 -2 30 9 46c7 10 21 15 34 16c27 3 47 -5 55 -15c6 -8 8 -21 7 -46 c-1 -11 -2 -24 -12 -33c-12 -11 -22 -13 -50 -13c-13 0 -28 7 -35 16c-5 6 -7 22 -8 29zM648 39c-2 24 -2 30 9 46c7 10 21 15 34 16c27 3 47 -5 55 -15c6 -8 8 -21 7 -46c-1 -11 -2 -24 -12 -33c-12 -11 -22 -13 -50 -13c-13 0 -28 7 -35 16c-5 6 -7 22 -8 29z" glyph-name="ellipsis" horiz-adv-x="840" unicode="…"/><glyph d="M54 460c-24 20 -44 40 -44 82c0 15 2 39 9 56c27 65 114 103 124 105h2c8 0 23 -10 23 -17c0 -3 -4 -6 -9 -8c-51 -24 -82 -60 -82 -92c0 -17 9 -32 27 -44c24 -16 34 -21 33 -28c-3 -19 -42 -44 -57 -54c-11 -7 -20 -5 -26 0zM221 460c-24 20 -44 40 -44 82 c0 15 2 39 9 56c27 65 114 103 124 105h2c8 0 23 -10 23 -17c0 -3 -4 -6 -9 -8c-51 -24 -82 -60 -82 -92c0 -17 9 -32 27 -44c24 -16 34 -21 33 -28c-3 -19 -42 -44 -57 -54c-11 -7 -20 -5 -26 0z" glyph-name="quotedblleft" horiz-adv-x="349" unicode="“"/><glyph d="M291 703c24 -20 44 -40 44 -82c0 -15 -2 -39 -9 -56c-27 -65 -114 -103 -124 -105h-2c-8 0 -23 10 -23 17c0 3 4 6 9 8c51 24 82 60 82 92c0 17 -9 32 -27 44c-24 16 -34 21 -33 28c3 19 42 44 57 54c11 7 20 5 26 0zM124 703c24 -20 44 -40 44 -82c0 -15 -2 -39 -9 -56 c-27 -65 -114 -103 -124 -105h-2c-8 0 -23 10 -23 17c0 3 4 6 9 8c51 24 82 60 82 92c0 17 -9 32 -27 44c-24 16 -34 21 -33 28c3 19 42 44 57 54c11 7 20 5 26 0z" glyph-name="quotedblright" horiz-adv-x="370" unicode="”"/><glyph d="M63 460c-24 20 -44 40 -44 82c0 15 2 39 9 56c27 65 114 103 124 105h2c8 0 23 -10 23 -17c0 -3 -4 -6 -9 -8c-51 -24 -82 -60 -82 -92c0 -17 9 -32 27 -44c24 -16 34 -21 33 -28c-3 -19 -42 -44 -57 -54c-11 -7 -20 -5 -26 0z" glyph-name="quoteleft" horiz-adv-x="217" unicode="‘"/><glyph d="M145 703c24 -20 44 -40 44 -82c0 -15 -2 -39 -9 -56c-27 -65 -114 -103 -124 -105h-2c-8 0 -23 10 -23 17c0 3 4 6 9 8c51 24 82 60 82 92c0 17 -9 32 -27 44c-24 16 -34 21 -33 28c3 19 42 44 57 54c11 7 20 5 26 0z" glyph-name="quoteright" horiz-adv-x="205" unicode="’"/><glyph d="M197 151c21 -28 26 -69 26 -111c0 -15 0 -31 -5 -50c-28 -117 -147 -155 -157 -157c-7 -2 -23 9 -25 16c-1 3 4 6 9 9c74 48 105 79 105 124c0 16 -5 32 -16 47c-36 50 -36 52 -30 62c8 13 49 52 66 63c11 7 19 8 27 -3z" glyph-name="quotesinglbase" horiz-adv-x="277" unicode="‚"/><glyph d="M197 151c21 -28 26 -69 26 -111c0 -15 0 -31 -5 -50c-28 -117 -147 -155 -157 -157c-7 -2 -23 9 -25 16c-1 3 4 6 9 9c74 48 105 79 105 124c0 16 -5 32 -16 47c-36 50 -36 52 -30 62c8 13 49 52 66 63c11 7 19 8 27 -3zM377 151c21 -28 26 -69 26 -111 c0 -15 0 -31 -5 -50c-28 -117 -147 -155 -157 -157c-7 -2 -23 9 -25 16c-1 3 4 6 9 9c74 48 105 79 105 124c0 16 -5 32 -16 47c-36 50 -36 52 -30 62c8 13 49 52 66 63c11 7 19 8 27 -3z" glyph-name="quotedblbase" horiz-adv-x="464" unicode="„"/><glyph d="M14 262c0 179 58 334 212 451c3 2 5 3 7 1c5 -6 8 -10 11 -17c2 -3 0 -4 -1 -6c-152 -131 -167 -314 -167 -396c0 -163 39 -306 161 -425c5 -5 6 -7 4 -9c-4 -9 -7 -11 -11 -16c-4 -4 -11 0 -12 1c-149 106 -204 280 -204 416z" glyph-name="parenleft" horiz-adv-x="261" unicode="("/><glyph d="M251 262c0 -136 -55 -310 -204 -416c-1 -1 -8 -5 -12 -1c-4 5 -7 7 -11 16c-2 2 -1 4 4 9c122 119 161 262 161 425c0 82 -15 265 -167 396c-1 2 -3 3 -1 6c3 7 6 11 11 17c2 2 4 1 7 -1c154 -117 212 -272 212 -451z" glyph-name="parenright" horiz-adv-x="261" unicode=")"/><glyph d="M20 263c0 5 0 8 1 13c0 1 1 3 4 3c88 2 109 41 109 104c0 47 -6 94 -6 145c0 125 51 187 172 197c3 0 4 0 5 -1c4 -5 4 -20 4 -24c0 -3 -3 -4 -4 -4c-98 -17 -117 -60 -117 -134c0 -44 8 -122 8 -171c0 -41 -14 -104 -110 -126c-2 -1 -2 -1 -2 -3s0 -2 2 -3 c96 -23 110 -85 110 -126c0 -49 -8 -127 -8 -171c0 -74 19 -117 117 -134c1 0 4 -1 4 -4c0 -4 0 -19 -4 -24c-1 -1 -2 -1 -5 -1c-121 10 -172 72 -172 197c0 35 6 109 6 144c0 62 -21 103 -109 105c-3 0 -4 2 -4 3c-1 5 -1 9 -1 15z" glyph-name="braceleft" horiz-adv-x="261" unicode="{"/><glyph d="M337 263c0 -6 0 -10 -1 -15c0 -1 -1 -3 -4 -3c-88 -2 -109 -43 -109 -105c0 -47 6 -93 6 -144c0 -125 -51 -187 -172 -197c-3 0 -4 0 -5 1c-4 5 -4 20 -4 24c0 3 3 4 4 4c98 17 117 60 117 134c0 44 -8 122 -8 171c0 41 14 103 110 126c2 1 2 1 2 3s0 2 -2 3 c-96 22 -110 85 -110 126c0 49 8 127 8 171c0 74 -19 117 -117 134c-1 0 -4 1 -4 4c0 4 0 19 4 24c1 1 2 1 5 1c121 -10 172 -72 172 -197c0 -47 -6 -93 -6 -145c0 -63 21 -102 109 -104c3 0 4 -2 4 -3c1 -5 1 -8 1 -13z" glyph-name="braceright" horiz-adv-x="261" unicode="}"/><glyph d="M72 726h59v-751h-59v751z" glyph-name="bar" horiz-adv-x="430" unicode="|"/><glyph d="M52 283c6 1 857 2 903 1c5 0 5 -2 5 -4v-3c0 -11 -4 -47 -8 -48c-8 -2 -896 -2 -911 -1c-4 0 -3 7 -3 7c1 8 6 36 9 45c1 2 1 3 5 3z" glyph-name="emdash" horiz-adv-x="1019" unicode="—"/><glyph d="M74 33h36c9 0 14 7 15 19l2 163s0 27 1 70c0 38 2 68 3 95c-1 11 -4 19 -15 19l-42 1c-3 0 -4 1 -4 3v26c0 2 0 7 4 8c6 1 44 8 59 10c3 72 12 131 53 180c6 8 14 16 22 23c15 14 38 30 66 45c32 17 64 30 99 30c31 0 73 -21 95 -50c22 -30 33 -61 33 -97 c0 -78 -66 -137 -83 -152c-14 -14 -27 -24 -27 -38c0 -7 1 -11 6 -18c4 -7 38 -36 94 -86c43 -39 47 -90 47 -111c0 -94 -88 -186 -183 -186c-28 0 -45 7 -56 15c-7 5 -9 10 -9 13c-2 22 4 44 6 56c1 8 6 6 9 3c24 -19 59 -32 90 -32c40 0 74 20 74 74c0 73 -41 99 -49 109 s-100 85 -101 86c-3 2 -7 8 -7 14c-1 8 -2 24 0 37c1 6 3 10 7 14c103 93 112 139 112 162c0 35 -6 57 -8 62c-30 72 -64 73 -98 73c-56 0 -84 -40 -99 -82c-15 -51 -15 -121 -15 -230c0 -56 2 -142 2 -145l3 -164c1 -12 5 -19 14 -19h33c10 0 10 -18 10 -36 c-37 2 -55 3 -103 3c-47 0 -68 -2 -106 -3c0 19 0 36 10 36z" glyph-name="germandbls" horiz-adv-x="575" unicode="ß"/><glyph d="M37 -3c0 19 0 36 10 36h48s15 -1 15 19c0 0 4 54 4 100v227c0 12 -7 24 -28 24h-40c-4 0 -5 1 -5 4v22c0 2 0 7 5 8c6 1 121 21 124 21c8 0 10 -3 10 -3l20 -22v-281c0 -44 5 -100 5 -100c0 -19 14 -19 14 -19h47c10 0 10 -18 10 -36c0 0 -73 3 -122 3 c-47 0 -117 -3 -117 -3zM160 690l69 -8c3 0 7 -5 1 -12c-6 -8 -95 -128 -108 -140c-3 -4 -5 -5 -10 -3c-7 5 -14 13 -17 15c-2 2 -3 4 -1 9c3 4 51 129 52 131c2 5 6 7 14 8z" glyph-name="iacute" horiz-adv-x="312" unicode="í"/><glyph d="M328 356c-40 -34 -138 -103 -180 -130c-3 -2 -4 -4 0 -6c52 -33 167 -114 198 -137c4 -3 -12 -34 -17 -42c-2 -3 -4 -4 -5 -2c-24 29 -213 142 -277 167c-6 4 -5 25 6 29c78 33 230 132 279 169c4 3 6 0 6 -4c0 -7 -2 -32 -6 -40c-1 -2 -3 -4 -4 -4zM568 356 c-40 -34 -138 -103 -180 -130c-3 -2 -4 -4 0 -6c52 -33 167 -114 198 -137c4 -3 -12 -34 -17 -42c-2 -3 -4 -4 -5 -2c-24 29 -213 142 -277 167c-6 4 -5 25 6 29c78 33 230 132 279 169c4 3 6 0 6 -4c0 -7 -2 -32 -6 -40c-1 -2 -3 -4 -4 -4z" glyph-name="guillemotleft" horiz-adv-x="625" unicode="«"/><glyph d="M303 356c-1 0 -3 2 -4 4c-4 8 -6 33 -6 40c0 4 2 7 6 4c49 -37 201 -136 279 -169c11 -4 12 -25 6 -29c-64 -25 -253 -138 -277 -167c-1 -2 -3 -1 -5 2c-5 8 -21 39 -17 42c31 23 146 104 198 137c4 2 3 4 0 6c-42 27 -140 96 -180 130zM63 356c-1 0 -3 2 -4 4 c-4 8 -6 33 -6 40c0 4 2 7 6 4c49 -37 201 -136 279 -169c11 -4 12 -25 6 -29c-64 -25 -253 -138 -277 -167c-1 -2 -3 -1 -5 2c-5 8 -21 39 -17 42c31 23 146 104 198 137c4 2 3 4 0 6c-42 27 -140 96 -180 130z" glyph-name="guillemotright" horiz-adv-x="625" unicode="»"/><glyph d="M371 708c208 0 358 -160 358 -359c0 -204 -160 -361 -358 -361c-204 0 -359 153 -359 361c0 199 160 359 359 359zM371 673c-175 0 -315 -144 -315 -324c0 -177 140 -322 315 -322c188 0 314 142 314 322s-141 324 -314 324zM433 133c-30 -3 -46 -3 -59 -3 c-49 0 -217 25 -217 210c0 200 174 219 218 219c22 0 52 0 76 -3l59 -6l13 -12s3 -1 3 -7c0 -1 -5 -64 -6 -67c0 -3 -3 -3 -4 -3h-22c-3 0 -3 1 -3 3c0 0 0 7 -5 20c-10 27 -23 33 -46 40c0 0 -30 7 -72 7c-87 0 -134 -90 -134 -176c0 -48 9 -197 168 -197c10 0 22 1 32 4 c23 8 45 22 56 47c3 8 6 16 9 30c0 2 1 2 3 2c6 -1 13 -4 21 -6c3 -2 3 -2 3 -5c0 0 -10 -58 -14 -79c-2 -2 -4 -4 -8 -5z" glyph-name="copyright" horiz-adv-x="741" unicode="©"/><glyph d="M371 728c12 -8 26 -19 40 -32c2 -2 1 -4 0 -7c-68 -170 -275 -736 -322 -817c-1 -2 -3 -5 -6 -7c-12 -8 -37 -15 -47 -17s-11 2 -9 7c78 167 274 703 337 872c1 2 2 4 7 1z" glyph-name="fraction" horiz-adv-x="430" unicode="⁄"/><glyph d="M328 356c-40 -34 -138 -103 -180 -130c-3 -2 -4 -4 0 -6c52 -33 167 -114 198 -137c4 -3 -12 -34 -17 -42c-2 -3 -4 -4 -5 -2c-24 29 -213 142 -277 167c-6 4 -5 25 6 29c78 33 230 132 279 169c4 3 6 0 6 -4c0 -7 -2 -32 -6 -40c-1 -2 -3 -4 -4 -4z" glyph-name="guilsinglleft" horiz-adv-x="420" unicode="‹"/><glyph d="M63 356c-1 0 -3 2 -4 4c-4 8 -6 33 -6 40c0 4 2 7 6 4c49 -37 201 -136 279 -169c11 -4 12 -25 6 -29c-64 -25 -253 -138 -277 -167c-1 -2 -3 -1 -5 2c-5 8 -21 39 -17 42c31 23 146 104 198 137c4 2 3 4 0 6c-42 27 -140 96 -180 130z" glyph-name="guilsinglright" horiz-adv-x="420" unicode="›"/><glyph d="M159 706c78 0 135 -58 135 -136c0 -80 -60 -136 -135 -136c-77 0 -134 57 -134 136c0 74 60 136 134 136zM159 684c-60 0 -108 -49 -108 -114c0 -62 49 -113 109 -113c61 0 108 45 108 113c0 62 -47 114 -109 114zM144 512h10c1 0 1 -5 1 -9c-7 1 -20 1 -30 1 c-9 0 -20 0 -28 -1c0 4 0 9 2 9h10c3 0 7 2 7 5c0 0 1 10 1 19v94c0 3 -5 6 -8 6h-10c-2 0 -2 4 -2 8c8 -1 19 -1 28 -1h36c28 0 40 -18 40 -34c0 -7 -3 -23 -20 -34l-8 -5s17 -23 40 -55c3 -2 7 -3 10 -3h6c2 0 4 -5 4 -8h-32c-2 0 -3 0 -3 1l-8 9s-21 33 -29 46 c-3 2 -5 4 -8 4h-16s-1 -1 -1 -2v-26c0 -9 1 -18 1 -19c0 -3 4 -5 7 -5zM156 573c9 0 25 6 25 31c0 18 -9 32 -33 32c-11 0 -11 -2 -12 -5v-57l1 -1h19z" glyph-name="registered" horiz-adv-x="326" unicode="®"/><glyph d="M459 511h13c3 0 3 -6 3 -11c-11 0 -28 1 -41 1s-29 -1 -39 -1c0 5 0 11 3 11h13c4 0 10 3 10 7c0 0 1 12 -2 133l-69 -150h-5l-74 160c0 -17 -1 -56 -1 -88c0 -24 1 -44 2 -50h-19c5 16 6 150 6 150c0 6 -9 8 -13 8h-13c-3 0 -3 6 -3 11c10 0 26 -1 38 -1h17l68 -149 s64 138 63 138l6 12h50c0 -5 0 -11 -2 -11h-14c-4 0 -11 -3 -11 -7c2 -144 4 -156 4 -156c0 -4 6 -7 10 -7zM142 511h13c4 0 4 -6 4 -11c-11 1 -30 1 -44 1c-11 0 -33 -1 -41 -1c0 5 0 11 1 11h16c5 0 13 1 13 7v159s0 1 -1 1h-39c-12 0 -20 -8 -22 -27c0 -1 0 -1 -2 -1h-10 v2c1 33 1 34 1 34l5 5h161l6 -5v-35c0 -1 -1 -1 -3 -1h-9v1c-5 18 -7 26 -20 27h-39c-2 0 -3 0 -3 -1v-159c0 -6 9 -7 13 -7zM288 511h12c3 0 3 -6 3 -11c-10 0 -28 1 -41 1s-28 -1 -39 -1c0 5 0 11 3 11h13c7 0 11 3 14 12h19c0 -9 10 -12 16 -12z" glyph-name="trademark" horiz-adv-x="491" unicode="™"/><glyph d="M76 463c0 -93 28 -174 92 -174c52 0 81 74 81 139c0 93 -23 174 -81 174c-78 0 -92 -74 -92 -139zM4 437c0 108 76 200 184 200c76 0 130 -80 130 -183c0 -125 -74 -200 -175 -200c-86 0 -139 80 -139 183zM454 183c0 -93 28 -174 92 -174c52 0 81 74 81 139 c0 93 -23 174 -81 174c-78 0 -92 -74 -92 -139zM382 157c0 108 76 200 184 200c76 0 130 -80 130 -183c0 -125 -74 -200 -175 -200c-86 0 -139 80 -139 183zM126 -71c-10 10 -14 20 -26 36c-2 2 -1 6 1 9c104 151 393 606 457 675c2 2 5 5 10 7c13 4 32 6 42 6s11 -5 8 -9 c-113 -146 -384 -575 -482 -726c-3 -4 -5 -2 -10 2z" glyph-name="percent" horiz-adv-x="705" unicode="%"/><glyph d="M51 691l59 35c3 2 15 4 16 -9c4 -59 0 -229 -47 -267c-4 -3 -5 -4 -7 -4h-8c-3 0 -2 3 -2 7c4 77 7 115 -14 226c-1 6 -4 8 3 12z" glyph-name="quotesingle" horiz-adv-x="170" unicode="'"/><glyph d="M56 517l96 36c-45 40 -85 70 -100 84c-6 5 -4 9 -2 11c3 3 22 15 29 19c5 3 8 3 13 -1l92 -77l26 115c2 7 3 9 8 11c4 2 21 7 34 8c5 0 8 -3 8 -7l-32 -136c22 9 127 47 140 51c3 1 4 -2 4 -6c0 -12 -13 -40 -23 -44c-32 -12 -69 -24 -108 -39c44 -35 81 -69 109 -91 c5 -4 5 -9 1 -11c-10 -5 -48 -12 -55 -6c-22 19 -52 44 -84 70c-11 -52 -21 -103 -29 -135c-1 -4 -2 -6 -5 -6c-15 0 -35 35 -32 49c9 39 13 66 20 102c-136 -49 -137 -50 -138 -50c-4 0 -7 3 -6 6c1 4 11 23 21 37c5 7 8 8 13 10z" glyph-name="asterisk" horiz-adv-x="400" unicode="*"/><glyph d="M406 -16c-318 3 -384 255 -384 375c0 192 154 354 367 354c199 0 355 -140 355 -313c0 -163 -70 -270 -166 -270s-106 32 -117 55c-9 18 -10 53 -10 53c-47 -25 -82 -65 -125 -65c-55 0 -89 45 -89 96s31 63 59 75c54 20 81 24 155 39v58c0 28 -30 79 -97 79 c-6 0 -19 -4 -41 -10c-7 -9 -9 -13 -10 -22c-1 -8 -2 -20 -3 -53c0 -3 -1 -3 -2 -3c0 0 -25 0 -35 1c0 0 -2 0 -2 3l-1 50c0 5 0 8 2 9c6 3 74 66 122 66c38 0 126 -21 126 -99v-139c0 -26 1 -52 1 -82c3 -31 7 -71 75 -71c77 0 114 95 114 213c0 174 -136 297 -325 297 c-187 0 -288 -155 -288 -334c0 -200 139 -321 341 -321c122 0 185 50 185 50s4 3 5 -1c1 -2 2 -34 -8 -38c-8 -3 -90 -52 -204 -52zM451 266v90c-50 -13 -97 -28 -114 -33c-32 -9 -41 -23 -41 -53c0 -28 13 -42 51 -42c23 0 61 16 104 38z" glyph-name="at" horiz-adv-x="770" unicode="@"/><glyph d="M94 100c25 28 48 115 49 158v35c0 13 -2 23 -15 23l-62 1c-3 0 -4 1 -4 3v26c0 2 0 7 4 8l80 10c1 10 1 19 1 28c3 109 11 189 101 251c37 25 86 54 120 55c24 0 53 -12 65 -37c0 0 2 -4 1 -11l-14 -93c0 -2 -2 -3 -4 -3c-11 -1 -33 0 -32 0c-3 0 -4 1 -4 4l-3 34 c-4 33 -24 41 -60 41c-37 0 -56 -20 -69 -51c-20 -46 -22 -113 -22 -217c1 -1 2 -1 4 -1h155l-17 -48h-136c-3 0 -5 -1 -6 -3c-2 -57 -13 -136 -77 -210c-8 -10 -13 -19 -13 -21c0 -3 2 -10 9 -10c21 -2 152 -2 211 -2c65 0 86 21 104 62c7 16 10 29 15 52c1 3 4 4 7 3 c10 -2 10 -2 25 -7c4 -2 5 -2 5 -7c0 0 -21 -124 -29 -159c-2 -5 -5 -7 -14 -9c-32 -7 -65 -5 -116 -5c-54 0 -205 1 -249 8c-5 1 -9 1 -13 1c-24 0 -41 -10 -51 -11c0 1 -4 6 -4 15c0 3 0 5 1 9c-1 0 22 37 57 78z" glyph-name="sterling" horiz-adv-x="576" unicode="£"/><glyph d="M373 692h52c47 0 102 2 140 3c0 -19 0 -40 -10 -40h-48c-17 0 -40 -9 -40 -27c0 -437 -7 -522 -7 -581c0 -99 -33 -194 -98 -277c-10 -10 -13 -16 -29 -15h-106c-4 0 -4 4 -4 4c-2 20 -2 64 -2 65c1 3 1 4 5 4c58 4 92 10 106 12c19 3 28 6 33 21c3 8 6 39 8 289 c-23 -11 -53 -15 -81 -15c-138 0 -274 118 -274 267c0 121 40 242 218 275c81 15 97 15 137 15zM373 198l1 46v379h-9c-63 0 -100 -89 -100 -172c0 -226 83 -247 108 -253z" glyph-name="paragraph" horiz-adv-x="602" unicode="¶"/><glyph d="M118 670c0 -56 -14 -148 -21 -165c-8 -22 -16 -34 -24 -42c-2 -2 -11 -4 -11 5c-1 80 -3 175 -14 206c-1 4 1 5 4 7c12 8 43 28 54 31c0 0 7 2 9 -1c3 -6 3 -24 3 -41zM253 676c0 -56 -14 -148 -21 -165c-8 -22 -16 -34 -24 -42c-2 -2 -11 -4 -11 5c-1 80 -3 175 -14 206 c-1 4 1 5 4 7c12 8 43 28 54 31c0 0 7 2 9 -1c3 -6 3 -24 3 -41z" glyph-name="quotedbl" horiz-adv-x="269" unicode="&quot;"/><glyph d="M74 283c6 1 367 2 413 1c5 0 5 -2 5 -4v-3c0 -11 -4 -47 -8 -48c-8 -2 -406 -2 -421 -1c-4 0 -3 7 -3 7c1 8 6 36 9 45c1 2 1 3 5 3zM215 102c-2 24 -2 30 9 46c7 10 21 15 34 16c27 3 47 -5 55 -15c6 -8 8 -21 7 -46c-1 -11 -2 -24 -12 -33c-12 -11 -22 -13 -50 -13 c-13 0 -28 7 -35 16c-5 6 -7 22 -8 29zM215 382c-2 24 -2 30 9 46c7 10 21 15 34 16c27 3 47 -5 55 -15c6 -8 8 -21 7 -46c-1 -11 -2 -24 -12 -33c-12 -11 -22 -13 -50 -13c-13 0 -28 7 -35 16c-5 6 -7 22 -8 29z" glyph-name="divide" unicode="÷"/><glyph d="M296 736c34 25 77 48 110 49c24 0 53 -12 65 -37c0 0 2 -4 1 -11l-14 -93c0 -2 -2 -3 -4 -3c-11 -1 -33 0 -32 0c-3 0 -4 1 -4 4l-3 34c-4 33 -24 41 -60 41c-84 0 -87 -126 -87 -198c0 -160 29 -319 29 -491c0 -78 -13 -162 -108 -213c-31 -21 -66 -39 -92 -40 c-24 0 -53 12 -65 37c0 0 -2 4 -1 11l14 93c0 2 2 3 4 3c11 1 33 0 32 0c3 0 4 -1 4 -4l3 -34c4 -33 24 -41 60 -41c63 0 78 69 78 124c0 43 -6 99 -15 176c-13 107 -25 230 -25 342c0 97 19 192 110 251z" glyph-name="integral" horiz-adv-x="500" unicode="∫"/><glyph d="M400 -19h40l-29 -44c20 -4 40 -14 55 -26c18 -15 24 -37 24 -56c0 -70 -86 -103 -120 -103c-27 0 -44 11 -58 28c-2 2 -3 4 -3 8c0 6 0 13 2 19c1 3 2 4 4 3c25 -13 48 -19 70 -19c27 0 54 25 54 47c0 30 -4 55 -90 62c-5 1 -4 7 -1 11c0 0 31 42 52 70z" glyph-name="cedilla" horiz-adv-x="833" unicode="¸"/><glyph d="M669 9c-67 -15 -138 -30 -219 -30c-83 0 -368 45 -368 359c0 338 296 372 370 372c38 0 89 -2 229 -18l21 -20s4 -2 4 -10c0 -3 -8 -109 -9 -116c-1 -4 -4 -4 -6 -4h-38c-3 0 -4 1 -5 4c0 0 1 12 -8 34c-17 47 -41 56 -78 68c0 0 -52 18 -122 18 c-158 0 -245 -139 -245 -296c0 -61 12 -342 302 -342c55 0 122 26 148 86c7 16 10 29 15 52c1 3 4 4 7 3c10 -2 20 -6 35 -11c4 -2 5 -2 5 -7c0 0 -16 -98 -24 -133c-2 -5 -5 -7 -14 -9zM404 -5h40l-29 -44c20 -4 40 -14 55 -26c18 -15 24 -37 24 -56 c0 -70 -86 -103 -120 -103c-27 0 -44 11 -58 28c-2 2 -3 4 -3 8c0 6 0 13 2 19c1 3 2 4 4 3c25 -13 48 -19 70 -19c27 0 54 25 54 47c0 30 -4 55 -90 62c-5 1 -4 7 -1 11c0 0 31 42 52 70z" glyph-name="Ccedilla" horiz-adv-x="752" unicode="Ç"/><glyph d="M415 82c9 -8 26 -22 16 -32l-10 -9c-48 -43 -104 -54 -158 -54c-149 0 -217 127 -217 232c1 137 81 241 236 241c44 0 97 -16 123 -36c0 0 5 -3 3 -14l-12 -99c0 -2 -2 -3 -4 -3c-11 -1 -41 -1 -40 -1c-3 0 -4 1 -4 4c-2 26 -4 45 -7 60c-11 46 -58 48 -86 48 c-100 0 -119 -88 -120 -198c0 -83 54 -185 153 -185c28 0 62 0 104 29zM236 -9h40l-29 -44c20 -4 40 -14 55 -26c18 -15 24 -37 24 -56c0 -70 -86 -103 -120 -103c-27 0 -44 11 -58 28c-2 2 -3 4 -3 8c0 6 0 13 2 19c1 3 2 4 4 3c25 -13 48 -19 70 -19c27 0 54 25 54 47 c0 30 -4 55 -90 62c-5 1 -4 7 -1 11c0 0 31 42 52 70z" glyph-name="ccedilla" horiz-adv-x="470" unicode="ç"/><glyph d="M233 108l1 217l-195 -1c-2 0 -4 7 -3 9c1 9 12 49 15 55c0 1 1 2 9 1c18 -1 62 -1 112 -1h61l1 193c2 6 48 19 53 20c3 1 8 0 10 -2v-103c0 -50 0 -89 1 -107c18 -1 56 -1 105 -1h102c2 -2 3 -7 2 -10c-1 -5 -14 -51 -20 -53l-190 -1v-83c0 -50 1 -94 1 -112 c0 -8 -2 -10 -3 -10c-6 -3 -44 -13 -53 -14c-2 -1 -9 1 -9 3zM480 8l-441 -1c-2 0 -4 7 -3 9c1 9 12 49 15 55c0 1 1 2 9 1c18 -1 57 -1 107 -1h331c2 -2 3 -7 2 -10c-1 -5 -14 -51 -20 -53z" glyph-name="plusminus" unicode="±"/><glyph d="M493 517c-28 -22 -279 -146 -349 -182c-3 -2 -4 -4 0 -6c41 -25 345 -165 375 -192c5 -5 -16 -55 -23 -66c-3 -5 -7 -6 -10 -4c-48 36 -357 194 -465 238c-8 4 4 41 13 45c102 53 429 222 469 254c4 2 7 -1 7 -6c0 -11 -6 -57 -10 -72c-1 -5 -6 -8 -7 -9zM508 -29 l-489 -1c-2 0 -4 7 -3 9c1 9 12 49 15 55c0 1 1 2 9 1c18 -1 57 -1 107 -1h379c2 -2 3 -7 2 -10c-1 -5 -14 -51 -20 -53z" glyph-name="lessequal" horiz-adv-x="572" unicode="≤"/><glyph d="M506 -29l-489 -1c-2 0 -4 7 -3 9c1 9 12 49 15 55c0 1 1 2 9 1c18 -1 57 -1 107 -1h379c2 -2 3 -7 2 -10c-1 -5 -14 -51 -20 -53zM43 148c28 22 279 146 349 182c3 2 4 4 0 6c-41 25 -345 165 -375 192c-5 5 16 55 23 66c3 5 7 6 10 4c48 -36 357 -194 465 -238 c8 -4 -4 -41 -13 -45c-102 -53 -429 -222 -469 -254c-4 -2 -7 1 -7 6c0 11 6 57 10 72c1 5 6 8 7 9z" glyph-name="greaterequal" unicode="≥"/><glyph d="M163 331c28 0 57 -9 77 -27c28 -26 32 -59 32 -86c0 -26 -8 -59 -30 -81s-51 -31 -84 -31c-22 0 -57 9 -77 29c-23 24 -31 52 -31 85c0 27 9 55 35 80c21 20 51 31 78 31z" glyph-name="bullet" horiz-adv-x="335" unicode="•"/><glyph d="M136 245c0 -114 53 -214 147 -214c90 0 123 91 123 171c0 114 -53 214 -147 214c-90 0 -123 -91 -123 -171zM46 213c0 133 94 247 238 247c150 0 212 -99 212 -226c0 -133 -94 -247 -238 -247c-150 0 -212 99 -212 226zM282 690l69 -8c3 0 7 -5 1 -12 c-6 -8 -95 -128 -108 -140c-3 -4 -5 -5 -10 -3c-7 5 -14 13 -17 15c-2 2 -3 4 -1 9c3 4 51 129 52 131c2 5 6 7 14 8z" glyph-name="oacute" horiz-adv-x="542" unicode="ó"/><glyph d="M126 702c50 0 78 -33 78 -73c0 -48 -35 -77 -82 -77c-28 0 -79 18 -79 73c0 45 27 77 83 77zM122 665c-31 0 -47 -16 -47 -39s24 -37 51 -37c25 0 47 15 47 36c0 25 -14 40 -51 40z" glyph-name="ring" horiz-adv-x="241" unicode="˚"/><glyph d="M369 577l-92 -251c1 -1 2 -1 4 -1h170c3 0 4 1 5 2zM731 37c10 0 10 -22 10 -40c-37 2 -92 3 -140 3c-47 0 -102 -2 -140 -3c0 19 0 40 10 40h40c14 0 46 4 37 27c0 0 -34 98 -73 212c-2 1 -3 1 -5 1h-208c-2 0 -3 0 -4 -1l-77 -211c-6 -16 9 -27 38 -27h47 c11 0 11 -22 11 -40c-37 2 -68 3 -116 3c-47 0 -102 -2 -140 -3c0 19 0 40 10 40h48c13 0 37 9 44 27c0 0 208 542 238 628l8 -1c7 -1 14 0 22 0c11 0 18 0 27 1c25 -87 225 -621 231 -629c8 -15 24 -27 41 -27h41zM393 875c50 0 78 -33 78 -73c0 -48 -35 -77 -82 -77 c-28 0 -79 18 -79 73c0 45 27 77 83 77zM389 838c-31 0 -47 -16 -47 -39s24 -37 51 -37c25 0 47 15 47 36c0 25 -14 40 -51 40z" glyph-name="Aring" horiz-adv-x="721" unicode="Å"/><glyph d="M298 98v107c-59 -13 -106 -28 -139 -43c-23 -10 -43 -27 -43 -57c0 -36 25 -58 53 -58c39 0 93 24 129 51zM69 373c0 8 0 9 5 13c15 10 88 74 148 74c54 0 161 -27 161 -122v-167c0 -72 2 -98 2 -98c2 -22 13 -38 38 -38h19c4 0 6 -2 6 -4v-21c0 -4 0 -7 -5 -8 c-58 -9 -111 -17 -115 -17c-8 0 -10 3 -10 3l-20 22v53c-40 -38 -91 -76 -146 -76c-66 0 -116 46 -116 117c0 49 45 77 80 89c56 20 97 32 182 45v73c-1 38 -24 93 -115 93c-19 0 -49 -4 -53 -29c-2 -10 -4 -28 -7 -70c0 -3 -1 -3 -3 -4c-1 0 -32 0 -46 2c0 0 -3 0 -3 3z M231 682c50 0 78 -33 78 -73c0 -48 -35 -77 -82 -77c-28 0 -79 18 -79 73c0 45 27 77 83 77zM227 645c-31 0 -47 -16 -47 -39s24 -37 51 -37c25 0 47 15 47 36c0 25 -14 40 -51 40z" glyph-name="aring" horiz-adv-x="458" unicode="å"/><glyph d="M111 515c-24 56 -73 143 -80 153c-3 6 -4 10 0 12c3 3 25 10 33 12c9 4 11 -1 14 -3c16 -17 53 -84 58 -93c4 -9 6 -6 9 -1c6 12 42 70 51 85c7 12 22 15 35 15s12 -7 10 -10c-13 -14 -80 -143 -83 -152c-4 -8 -7 -12 -10 -14c-4 -1 -22 -7 -30 -8c-5 -1 -7 4 -7 4z" glyph-name="caron" horiz-adv-x="290" unicode="ˇ"/><glyph d="M459 -2c-42 1 -290 3 -385 4l-27 26c80 119 369 535 404 605c3 5 1 8 -1 8h-270c-59 0 -72 -23 -85 -88c-1 -3 -1 -4 -4 -4l-40 2c-4 0 -5 1 -5 4l13 108c0 8 3 10 3 10l18 19h107c-1 0 362 1 362 1l27 -26c-42 -77 -356 -544 -397 -611c-7 -11 4 -8 14 -9 c11 -1 67 -1 125 -1h141c63 0 75 31 96 102c1 3 1 4 4 4l39 -11c4 -1 5 -3 5 -6l-15 -108c-3 -19 -12 -29 -26 -29h-103zM279 730c-24 56 -73 143 -80 153c-3 6 -4 10 0 12c3 3 25 10 33 12c9 4 11 -1 14 -3c16 -17 53 -84 58 -93c4 -9 6 -6 9 -1c6 12 42 70 51 85 c7 12 22 15 35 15s12 -7 10 -10c-13 -14 -80 -143 -83 -152c-4 -8 -7 -12 -10 -14c-4 -1 -22 -7 -30 -8c-5 -1 -7 4 -7 4z" glyph-name="Zcaron" horiz-adv-x="608" unicode="Ž"/><glyph d="M137 447c-1 0 224 1 224 1l18 -18c-43 -78 -185 -313 -226 -380c-7 -11 5 -10 15 -11c8 -1 25 -1 45 -1h77c33 4 39 25 60 95c1 3 2 4 5 4c1 0 24 -4 35 -7c3 -1 3 -3 3 -5l-17 -115c-3 -12 -12 -12 -12 -12l-50 1s-212 1 -266 1l-17 18c58 88 201 310 237 381 c2 5 1 8 -1 8h-125c-42 -1 -46 -4 -69 -80c-1 -3 -2 -4 -5 -3c1 0 -24 4 -35 7c-2 0 -3 1 -3 3l17 103c3 12 12 12 12 12zM189 520c-24 56 -73 143 -80 153c-3 6 -4 10 0 12c3 3 25 10 33 12c9 4 11 -1 14 -3c16 -17 53 -84 58 -93c4 -9 6 -6 9 -1c6 12 42 70 51 85 c7 12 22 15 35 15s12 -7 10 -10c-13 -14 -80 -143 -83 -152c-4 -8 -7 -12 -10 -14c-4 -1 -22 -7 -30 -8c-5 -1 -7 4 -7 4z" glyph-name="zcaron" horiz-adv-x="428" unicode="ž"/><glyph d="M132 -193l76 187c-27 89 -148 395 -155 402c-7 13 -22 18 -34 18h-34c-10 0 -10 17 -10 36c38 -1 70 -3 117 -3c49 0 86 0 123 3c0 -18 0 -36 -11 -36h-36c-9 0 -21 -4 -21 -13c0 -1 0 -3 1 -5c0 0 64 -165 108 -286c54 134 110 274 110 274c7 16 -3 30 -20 30h-32 c-10 0 -10 17 -10 36c38 -1 68 -3 101 -3c37 0 55 0 92 3c0 -18 0 -36 -10 -36h-29c-21 0 -39 -13 -46 -30l-214 -535c-18 -45 -25 -61 -65 -107c-7 -7 -9 -12 -20 -12l-78 2c-3 0 -3 3 -3 3c-2 14 -2 46 -2 47c0 2 1 3 4 3c42 3 66 4 76 6c13 3 17 6 22 16zM262 690l69 -8 c3 0 7 -5 1 -12c-6 -8 -95 -128 -108 -140c-3 -4 -5 -5 -10 -3c-7 5 -14 13 -17 15c-2 2 -3 4 -1 9c3 4 51 129 52 131c2 5 6 7 14 8z" glyph-name="yacute" horiz-adv-x="492" unicode="ý"/><glyph d="M379 93c3 -37 18 -56 40 -56h47c10 0 10 -22 10 -40c-37 2 -105 3 -154 3c-47 0 -109 -2 -147 -3c0 19 0 40 10 40h51c19 0 43 19 43 56c0 45 2 90 2 154c0 20 -1 40 -10 58l-14 27c-49 97 -119 235 -164 296c-10 15 -23 27 -45 27h-48c-10 0 -10 21 -10 40 c38 -1 93 -3 140 -3c48 0 96 1 133 3c0 -18 0 -40 -10 -40h-39c-8 0 -11 -4 -11 -9s2 -11 5 -18c0 0 61 -136 145 -283c52 81 137 242 151 283c10 21 -8 27 -28 27h-48c-10 0 -10 21 -10 40c38 -1 80 -3 127 -3c48 0 91 1 128 3c0 -18 0 -40 -10 -40h-39 c-23 0 -37 -13 -49 -27c-52 -62 -140 -231 -195 -324c-3 -8 -4 -31 -4 -84c0 -49 1 -104 3 -127zM393 889l69 -8c3 0 7 -5 1 -12c-6 -8 -95 -128 -108 -140c-3 -4 -5 -5 -10 -3c-7 5 -14 13 -17 15c-2 2 -3 4 -1 9c3 4 51 129 52 131c2 5 6 7 14 8z" glyph-name="Yacute" horiz-adv-x="628" unicode="Ý"/><glyph d="M40 324c0 90 73 135 166 135c26 0 46 -4 45 -4l46 -7l25 -26c3 -3 3 -8 2 -13l-15 -99c0 -2 -2 -3 -4 -3c-11 -1 -30 0 -29 0c-3 0 -4 1 -4 4c-7 91 -18 92 -36 102c-10 4 -25 11 -48 11c-45 0 -73 -33 -73 -60c0 -38 4 -57 73 -94c68 -37 147 -65 147 -146 c0 -98 -90 -138 -181 -138c-31 0 -60 4 -109 21c-3 1 -8 3 -8 14l-2 109c0 2 1 3 3 3c11 3 30 5 29 4c3 1 4 0 5 -3c12 -62 25 -83 51 -97c17 -9 32 -13 57 -13c47 0 74 22 74 70c0 29 -15 61 -98 98c-58 26 -116 67 -116 132zM163 520c-24 56 -73 143 -80 153 c-3 6 -4 10 0 12c3 3 25 10 33 12c9 4 11 -1 14 -3c16 -17 53 -84 58 -93c4 -9 6 -6 9 -1c6 12 42 70 51 85c7 12 22 15 35 15s12 -7 10 -10c-13 -14 -80 -143 -83 -152c-4 -8 -7 -12 -10 -14c-4 -1 -22 -7 -30 -8c-5 -1 -7 4 -7 4z" glyph-name="scaron" horiz-adv-x="375" unicode="š"/><glyph d="M368 638c0 0 -22 35 -100 35c-66 0 -119 -38 -119 -106c0 -60 6 -102 102 -157c117 -68 219 -90 219 -228c0 -133 -119 -202 -251 -202c-47 0 -94 9 -158 33c0 0 -3 4 -3 8c-1 4 -18 114 -18 123c0 5 1 5 4 6l38 11c3 1 5 0 6 -3c11 -34 12 -50 30 -81 c0 0 31 -56 134 -56c78 0 128 52 128 128c0 21 -11 82 -145 153c-115 62 -174 131 -174 206c0 130 97 201 223 201c49 0 95 -8 94 -8l46 -7l18 -19s4 -4 3 -13l-6 -112c0 -3 -2 -4 -4 -4c-11 -1 -39 0 -38 0c-3 0 -4 1 -4 4c-1 35 -16 76 -25 88zM233 732 c-24 56 -73 143 -80 153c-3 6 -4 10 0 12c3 3 25 10 33 12c9 4 11 -1 14 -3c16 -17 53 -84 58 -93c4 -9 6 -6 9 -1c6 12 42 70 51 85c7 12 22 15 35 15s12 -7 10 -10c-13 -14 -80 -143 -83 -152c-4 -8 -7 -12 -10 -14c-4 -1 -22 -7 -30 -8c-5 -1 -7 4 -7 4z" glyph-name="Scaron" horiz-adv-x="516" unicode="Š"/><glyph d="M55 237c9 15 42 39 44 40c38 32 68 43 95 43c89 0 120 -55 181 -55c51 0 112 51 121 60c11 9 11 -8 7 -25c-4 -16 -23 -32 -35 -41c-18 -14 -72 -56 -121 -56c-46 0 -103 57 -170 57c-39 0 -85 -28 -116 -56c-10 -9 -12 4 -12 3c0 16 3 25 6 30z" glyph-name="asciitilde" horiz-adv-x="578" unicode="~"/><glyph d="M542 418h-103l-21 -147h118c3 -1 2 -7 2 -10c-1 -8 -15 -48 -20 -49h-109c-14 -85 -26 -155 -36 -187c-1 -2 -2 -6 -5 -8c-9 -11 -35 -23 -44 -28c-10 -4 -12 0 -11 5c12 59 24 135 37 218h-133c-14 -85 -26 -155 -36 -187c-1 -2 -2 -6 -5 -8c-9 -11 -35 -23 -44 -28 c-10 -4 -12 0 -11 5c12 59 25 135 38 218h-102c-6 0 -6 6 -6 9c1 8 6 43 9 50c1 2 2 2 9 2c12 -1 35 -1 98 -2c7 49 15 98 21 147h-107c-6 0 -6 6 -6 9c1 8 6 43 9 50c1 2 2 2 9 2c12 -1 36 -1 103 -2l29 218c0 3 1 5 6 3c14 -5 34 -13 51 -22c2 -1 2 -4 1 -7l-28 -192h132 l29 220c0 3 1 5 6 3c6 -2 41 -16 52 -22c2 -1 2 -4 1 -7l-28 -194h113c3 -1 2 -7 2 -10c-1 -8 -15 -48 -20 -49zM226 271h133c7 49 14 98 20 147h-132z" glyph-name="numbersign" horiz-adv-x="594" unicode="#"/><glyph d="M421 289l-364 -1c-2 0 -4 7 -3 9c1 9 12 49 15 55c0 1 1 2 9 1c18 -1 24 -1 405 -1h1c8 0 15 -7 15 -14v-49l-1 -210c-2 -2 -7 -3 -10 -2c-5 1 -51 14 -53 20l-1 169v9c0 9 -2 14 -13 14z" glyph-name="logicalnot" unicode="¬"/><glyph d="M129 690l69 -8c3 0 7 -5 1 -12c-6 -8 -84 -131 -97 -143c-3 -4 -5 -5 -10 -3c-7 5 -14 13 -17 15c-2 2 -3 4 -1 9c3 4 40 132 41 134c2 5 6 7 14 8zM259 690l69 -8c3 0 7 -5 1 -12c-6 -8 -95 -134 -108 -146c-3 -4 -5 -5 -10 -3c-7 5 -14 13 -17 15c-2 2 -3 4 -1 9 c3 4 51 135 52 137c2 5 6 7 14 8z" glyph-name="hungarumlaut" horiz-adv-x="400" unicode="˝"/><glyph d="M726 208c0 -101 -91 -174 -162 -173c-53 1 -110 35 -171 126c-2 3 -4 2 -5 0c-64 -101 -123 -127 -177 -127c-98 0 -178 62 -178 195c0 75 66 178 161 178c19 0 95 13 180 -108c2 -4 6 -3 7 -1c58 86 108 108 166 108c108 0 179 -69 179 -198zM688 231 c0 73 -49 114 -112 114c-71 0 -101 -57 -154 -149c-2 -3 -3 -6 0 -10c47 -56 98 -82 136 -82c79 0 130 46 130 127zM76 207c0 -57 48 -107 101 -107c75 0 114 42 180 159c2 3 2 7 0 10c-50 59 -90 85 -143 85c-74 0 -138 -57 -138 -147z" glyph-name="infinity" horiz-adv-x="801" unicode="∞"/><glyph d="M48 395c-3 35 13 62 51 62c41 0 57 -11 57 -52s-26 -55 -53 -55c-28 0 -53 20 -55 45z" glyph-name="periodcentered" horiz-adv-x="201" unicode="·"/></font>
</defs>
</svg>
