<svg xmlns="http://www.w3.org/2000/svg" xmlns:xlink="http://www.w3.org/1999/xlink" version="1.1"><metadata>Created by FontForge 20170731 at Wed Sep 23 20:07:46 2020 By Aleksey,,, (c) 2020 Microsoft Corporation. All Rights Reserved.</metadata><defs><font id="CascadiaCodePL-Regular" horiz-adv-x="1200"><font-face x-height="1060" ascent="1638" bbox="-3360 -891 1384 2309" cap-height="1420" descent="-410" font-family="Cascadia Code PL" font-stretch="normal" font-weight="400" panose-1="2 11 6 9 2 0 0 2 0 4" underline-position="-175" underline-thickness="50" unicode-range="U+0009-FB02" units-per-em="2048"/><glyph d="M860 0v1420h212v-1420h-212zM128 0v190h944v-190h-944zM128 0v1420h212v-1420h-212zM128 1230v190h944v-190h-944z" glyph-name=".notdef"/><glyph glyph-name=".null" horiz-adv-x="0"/><glyph glyph-name="nonmarkingreturn" horiz-adv-x="682"/><glyph glyph-name="uni0009"/><glyph glyph-name="CR"/><glyph glyph-name="space"/><glyph d="M502 456l-6 974h208l-10 -974h-192zM600 -20q-61 0 -104.5 43.5t-43.5 104.5q0 62 43.5 105t104.5 43q62 0 105 -43t43 -105q0 -61 -43 -104.5t-105 -43.5z" glyph-name="exclam" unicode="!"/><glyph d="M302 780l-20 640h232l-20 -640h-192zM706 780l-20 640h232l-20 -640h-192z" glyph-name="quotedbl" unicode="&quot;"/><glyph d="M690 0l120 1420h176l-120 -1420h-176zM120 360v170h1000v-170h-1000zM254 0l120 1420h176l-120 -1420h-176zM120 890v170h1000v-170h-1000z" glyph-name="numbersign" unicode="#"/><glyph d="M544 -320v2060h138v-2060h-138zM551 -20q-121 0 -226.5 19.5t-195.5 58.5l26 202q110 -47 212.5 -71.5t199.5 -24.5q140 0 208 49t68 149q0 66 -33.5 112t-96.5 74l-246 112q-145 66 -222.5 159t-77.5 231q0 186 112 288t317 102q143 0 253 -42t212 -137l-140 -142 q-88 72 -164.5 104.5t-159.5 32.5q-103 0 -159.5 -49.5t-56.5 -146.5q0 -69 37 -112.5t109 -77.5l208 -98q158 -74 240 -167t82 -239q0 -193 -125.5 -289.5t-380.5 -96.5z" glyph-name="dollar" unicode="$"/><glyph d="M186 306l-92 136l930 664l92 -130zM854 -20q-142 0 -228 88.5t-86 233.5q0 147 86 235.5t228 88.5q141 0 226.5 -88.5t85.5 -235.5q0 -145 -85.5 -233.5t-226.5 -88.5zM854 143q59 0 95 44t36 115q0 73 -36 117t-95 44q-61 0 -97 -44t-36 -117q0 -71 36 -115t97 -44z M368 794q-142 0 -228 88.5t-86 233.5q0 147 86 235.5t228 88.5q141 0 226.5 -87t85.5 -237q0 -145 -85.5 -233.5t-226.5 -88.5zM368 957q59 0 95 44t36 115q0 74 -36 118.5t-95 44.5q-61 0 -97 -44.5t-36 -118.5q0 -71 36 -115t97 -44z" glyph-name="percent" unicode="%"/><glyph d="M962 0l-516 566q-130 143 -187 256.5t-57 219.5q0 191 106.5 294.5t301.5 103.5l4 -184q-91 0 -141.5 -56t-50.5 -160q0 -73 38.5 -143t105.5 -147l658 -750h-262zM462 -20q-183 0 -294.5 99.5t-111.5 264.5q0 161 99.5 264t280.5 130l110 -122q-138 -27 -213 -95.5 t-75 -166.5q0 -85 62.5 -137.5t165.5 -52.5q198 0 306 157t108 445h192q0 -375 -165 -580.5t-465 -205.5zM776 1122q0 65 -42.5 99.5t-119.5 34.5l-4 184q181 0 280.5 -83t99.5 -235h-214z" glyph-name="ampersand" unicode="&amp;"/><glyph d="M502 780l-20 640h232l-20 -640h-192z" glyph-name="quotesingle" unicode="'"/><glyph d="M950 -200q-325 0 -504.5 239.5t-179.5 676.5q0 431 179.5 667.5t504.5 236.5h48l-20 -180h-8q-237 0 -365.5 -190t-128.5 -534q0 -350 128.5 -543t365.5 -193h8l20 -180h-48z" glyph-name="parenleft" unicode="("/><glyph d="M202 -200l20 180h8q237 0 365.5 193t128.5 543q0 344 -128.5 534t-365.5 190h-8l-20 180h48q326 0 505 -236.5t179 -667.5q0 -437 -179 -676.5t-505 -239.5h-48z" glyph-name="parenright" unicode=")"/><glyph d="M824 258l-282 390l112 96l336 -346zM372 258l-166 140l336 346l112 -96zM572 626l-462 132l74 204l440 -196zM524 696l-34 480h216l-34 -480h-148zM624 626l-52 140l440 196l74 -204z" glyph-name="asterisk" unicode="*"/><glyph d="M504 190v1038h192v-1038h-192zM100 617v186h1000v-186h-1000z" glyph-name="plus" unicode="+"/><glyph d="M402 -436l80 690h232l-120 -690h-192z" glyph-name="comma" unicode=","/><glyph d="M100 616v186h1000v-186h-1000z" glyph-name="hyphen" unicode="-"/><glyph d="M600 -20q-61 0 -104.5 43.5t-43.5 104.5q0 62 43.5 105t104.5 43q62 0 105 -43t43 -105q0 -61 -43 -104.5t-105 -43.5z" glyph-name="period" unicode="."/><glyph d="M104 -190l804 1800h212l-804 -1800h-212z" glyph-name="slash" unicode="/"/><glyph d="M600 -20q-484 0 -484 720q0 740 484 740t484 -740q0 -720 -484 -720zM600 550q-67 0 -108.5 41.5t-41.5 108.5q0 68 41.5 109t108.5 41q68 0 109 -41t41 -109q0 -67 -41 -108.5t-109 -41.5zM600 164q270 0 270 536q0 556 -270 556t-270 -556q0 -536 270 -536z" glyph-name="zero" unicode="0"/><glyph d="M524 0v1420h212v-1420h-212zM170 0v186h374v-186h-374zM716 0v186h336v-186h-336zM190 1098v202l334 120v-206z" glyph-name="one" unicode="1"/><glyph d="M172 0v224q329 182 491.5 380t162.5 408q0 122 -60 183t-182 61q-81 0 -169 -47t-151 -125l-138 137q69 99 196 159t266 60q225 0 336.5 -106.5t111.5 -321.5q0 -216 -136.5 -414.5t-415.5 -381.5v-216h-312zM232 0v186h864v-186h-864z" glyph-name="two" unicode="2"/><glyph d="M514 -20q-110 0 -201.5 13t-162.5 35l25 191q61 -17 137.5 -36t193.5 -19q154 0 239 62t85 174q0 80 -49 136t-142.5 85t-226.5 29h-32l-24 130l306 -24q170 -13 276 -110.5t106 -265.5q0 -190 -138.5 -295t-391.5 -105zM380 650l-24 130q156 21 254 62t144 99.5 t46 130.5q0 87 -55.5 135.5t-158.5 48.5q-76 0 -161.5 -38t-161.5 -114l-138 137q92 104 213 151.5t270 47.5q194 0 300 -82.5t106 -235.5q0 -128 -82 -222.5t-214 -129.5v-120h-338z" glyph-name="three" unicode="3"/><glyph d="M74 318l200 1022h206l-202 -1022h-204zM74 318l140 176h590v-176h-730zM966 318v176h154v-176h-154zM784 0v1420h202v-1420h-202z" glyph-name="four" unicode="4"/><glyph d="M614 -20q-230 0 -356 109.5t-126 308.5h214q0 -111 70 -172.5t200 -61.5q126 0 195 77t69 217q0 137 -75.5 212.5t-212.5 75.5q-140 0 -262 -66l18 170q79 45 157 60.5t157 15.5q206 0 319 -122t113 -346q0 -152 -56.5 -259t-163.5 -163t-260 -56zM218 680l20 740h210 l-34 -616l-84 -124h-112zM334 1234l-18 186h688v-186h-670z" glyph-name="five" unicode="5"/><glyph d="M293 325l-175 201v88q0 388 206.5 590t629.5 222l20 -190q-634 -27 -634 -570zM618 -20q-240 0 -370 142.5t-130 403.5l166 -118v260h74q30 111 119.5 171.5t218.5 60.5q186 0 287 -115t101 -325q0 -228 -121 -354t-345 -126zM620 164q117 0 180.5 77.5t63.5 218.5 q0 123 -66.5 189.5t-191.5 66.5q-128 0 -198 -72t-70 -204q0 -138 71 -207t211 -69z" glyph-name="six" unicode="6"/><glyph d="M447 0l488 1420h219l-488 -1420h-219zM112 922v468h206v-468h-206zM112 1230v190h1042l-142 -190h-900z" glyph-name="seven" unicode="7"/><glyph d="M600 -20q-231 0 -357.5 107.5t-126.5 302.5q0 179 126.5 276.5t357.5 97.5t357.5 -97.5t126.5 -276.5q0 -195 -126.5 -302.5t-357.5 -107.5zM600 164q129 0 199.5 62t70.5 174q0 120 -70.5 187t-199.5 67t-199.5 -67t-70.5 -187q0 -112 70.5 -174t199.5 -62zM434 706v102 h334v-102h-334zM600 846q110 0 170 51.5t60 142.5q0 104 -60 160t-170 56q-109 0 -169.5 -56t-60.5 -160q0 -91 60.5 -142.5t169.5 -51.5zM600 746q-211 0 -327.5 87.5t-116.5 246.5q0 171 116.5 265.5t327.5 94.5q212 0 328 -94.5t116 -265.5q0 -159 -116 -246.5 t-328 -87.5z" glyph-name="eight" unicode="8"/><glyph d="M248 -6l-20 190q634 27 634 570v394l222 -254v-48q0 -406 -206.5 -618.5t-629.5 -233.5zM596 704q128 0 197 72t69 204q0 138 -70 207t-210 69q-120 0 -185 -77.5t-65 -218.5q0 -123 68.5 -189.5t195.5 -66.5zM506 520q-186 0 -287 115t-101 325q0 228 121.5 354 t344.5 126q240 0 370 -142.5t130 -403.5l-166 118v-260h-74q-30 -111 -119.5 -171.5t-218.5 -60.5z" glyph-name="nine" unicode="9"/><glyph d="M600 784q-61 0 -104.5 43.5t-43.5 104.5q0 62 43.5 105t104.5 43q62 0 105 -43t43 -105q0 -61 -43 -104.5t-105 -43.5zM600 -20q-61 0 -104.5 43.5t-43.5 104.5q0 62 43.5 105t104.5 43q62 0 105 -43t43 -105q0 -61 -43 -104.5t-105 -43.5z" glyph-name="colon" unicode=":"/><glyph d="M600 784q-61 0 -104.5 43.5t-43.5 104.5q0 62 43.5 105t104.5 43q62 0 105 -43t43 -105q0 -61 -43 -104.5t-105 -43.5zM402 -436l80 690h232l-120 -690h-192z" glyph-name="semicolon" unicode=";"/><glyph d="M1054 214l-958 394v202l958 394v-220l-740 -266v-18l740 -266v-220z" glyph-name="less" unicode="&lt;"/><glyph d="M100 866v186h1000v-186h-1000zM100 366v186h1000v-186h-1000z" glyph-name="equal" unicode="="/><glyph d="M146 214v220l700 266v18l-700 266v220l958 -394v-202z" glyph-name="greater" unicode="&gt;"/><glyph d="M500 456v96q0 99 41 174.5t123 127.5q81 50 121.5 109.5t40.5 128.5q0 75 -50 116.5t-142 41.5l2 190q195 0 302.5 -88.5t107.5 -249.5q0 -111 -55.5 -202t-166.5 -162q-64 -42 -96 -91.5t-32 -108.5v-82h-196zM294 1078l-138 143q70 99 199.5 159t280.5 60l-2 -190 q-94 0 -185 -47t-155 -125zM602 -20q-61 0 -104.5 43.5t-43.5 104.5q0 62 43.5 105t104.5 43q62 0 105 -43t43 -105q0 -61 -43 -104.5t-105 -43.5z" glyph-name="question" unicode="?"/><glyph d="M710 -243q-211 0 -344 87.5t-195.5 273t-62.5 480.5q0 841 512 841q452 0 452 -546v-175v-194h-172v191v172q0 382 -280 382q-344 0 -344 -671q0 -348 103 -504.5t331 -156.5q125 0 197 25v-180q-79 -25 -197 -25zM676 148q-133 0 -206.5 123.5t-73.5 347.5 q0 237 73.5 353.5t208.5 116.5q77 0 132.5 -60.5t77.5 -171.5h74v-477h-74q-18 -111 -73.5 -171.5t-138.5 -60.5zM734 338q80 0 123 60.5t43 171.5q0 172 -39 250.5t-113 78.5q-82 0 -127 -67t-45 -213q0 -134 41.5 -207.5t116.5 -73.5zM900 168v601h172v-601h-172z" glyph-name="at" unicode="@"/><glyph d="M45 0l410 1420h290l410 -1420h-210l-336 1248h-18l-336 -1248h-210zM235 346v190h720v-190h-720z" glyph-name="A" unicode="A"/><glyph d="M346 0v190h300q132 0 205 60.5t73 169.5q0 112 -76 173.5t-216 61.5h-282l-24 91h356q216 0 334 -93t118 -263q0 -186 -112 -288t-318 -102h-358zM160 0v1420h200v-1420h-200zM278 698v98h416v-98h-416zM346 754v91h240q113 0 175.5 50.5t62.5 144.5q0 92 -65.5 141 t-186.5 49h-222l-24 190h256q216 0 334 -93.5t118 -266.5q0 -147 -112 -226.5t-318 -79.5h-258z" glyph-name="B" unicode="B"/><glyph d="M758 -20q-662 0 -662 732q0 347 167 537.5t471 190.5q147 0 256 -46.5t159 -132.5l-148 -147q-45 68 -114.5 105t-150.5 37q-193 0 -309.5 -139t-116.5 -395q0 -558 482 -558q145 0 286 60l46 -176q-174 -68 -366 -68z" glyph-name="C" unicode="C"/><glyph d="M346 0v190h158q219 0 329.5 125t110.5 375q0 271 -110.5 405.5t-329.5 134.5h-154l-24 190h178q650 0 650 -730q0 -690 -650 -690h-158zM160 0v1420h200v-1420h-200z" glyph-name="D" unicode="D"/><glyph d="M160 0v1420h200v-1420h-200zM160 0v190h940v-190h-940zM160 616v190h760v-190h-760zM160 1230v190h940v-190h-940z" glyph-name="E" unicode="E"/><glyph d="M160 0v1420h200v-1420h-200zM160 556v190h760v-190h-760zM160 1230v190h940v-190h-940z" glyph-name="F" unicode="F"/><glyph d="M732 -20q-318 0 -477 183t-159 549q0 347 165 537.5t463 190.5q149 0 261 -46.5t165 -131.5l-149 -148q-46 68 -115.5 105t-149.5 37q-202 0 -314 -139.5t-112 -394.5q0 -279 112 -418.5t334 -139.5q95 0 167.5 18.5t118.5 31.5l78 -174q-42 -13 -147.5 -36.5 t-240.5 -23.5zM930 40v670h190v-670h-190zM640 520v190h474v-190h-474z" glyph-name="G" unicode="G"/><glyph d="M860 0v1420h200v-1420h-200zM140 0v1420h200v-1420h-200zM182 612v190h841v-190h-841z" glyph-name="H" unicode="H"/><glyph d="M499 0v1420h200v-1420h-200zM168 0v190h864v-190h-864zM168 1230v190h864v-190h-864z" glyph-name="I" unicode="I"/><glyph d="M584 -20q-234 0 -361 130.5t-127 365.5h200q0 -150 76.5 -233t216.5 -83q136 0 209.5 82.5t73.5 233.5v944h200v-944q0 -236 -129 -366t-359 -130zM500 1230v190h466v-190h-466z" glyph-name="J" unicode="J"/><glyph d="M286 452l18 198q154 0 266 64.5t184.5 174t108 247t35.5 284.5h206q0 -189 -55 -363t-160 -310.5t-257 -215.5t-346 -79zM160 0v1420h200v-1420h-200zM930 0l-360 692l180 102l422 -794h-242z" glyph-name="K" unicode="K"/><glyph d="M160 0v1420h200v-1420h-200zM160 0v190h940v-190h-940z" glyph-name="L" unicode="L"/><glyph d="M566 580l30 230h12l162 610h142v-252h-58l-162 -588h-126zM128 0v1420h192v-1420h-192zM508 580l-162 588h-58v252h142l162 -610h8l20 -230h-112zM880 0v1420h192v-1420h-192z" glyph-name="M" unicode="M"/><glyph d="M800 0l-440 1080h-92v340h132l440 -1080h50v-340h-90zM148 0v1420h192v-1420h-192zM860 0v1420h192v-1420h-192z" glyph-name="N" unicode="N"/><glyph d="M600 -20q-524 0 -524 720q0 740 524 740t524 -740q0 -720 -524 -720zM600 164q314 0 314 536q0 556 -314 556t-314 -556q0 -536 314 -536z" glyph-name="O" unicode="O"/><glyph d="M336 440v190h242q158 0 245 79t87 221q0 143 -87 221.5t-245 78.5h-238v190h238q259 0 400.5 -128.5t141.5 -361.5q0 -234 -141.5 -362t-400.5 -128h-242zM160 0v1420h200v-1420h-200z" glyph-name="P" unicode="P"/><glyph d="M930 -460q-216 0 -325 110t-109 330v82h198v-84q0 -129 59 -193.5t177 -64.5h102l-20 -180h-82zM600 -20q-524 0 -524 720q0 740 524 740t524 -740q0 -720 -524 -720zM600 164q314 0 314 536q0 556 -314 556t-314 -556q0 -536 314 -536z" glyph-name="Q" unicode="Q"/><glyph d="M326 540v190h302q119 0 185.5 63t66.5 177q0 125 -66.5 192.5t-185.5 67.5h-298l-24 190h322q221 0 341.5 -112t120.5 -318q0 -214 -120.5 -332t-341.5 -118h-302zM140 0v1420h200v-1420h-200zM902 0l-318 668h220l338 -668h-240z" glyph-name="R" unicode="R"/><glyph d="M551 -20q-121 0 -226.5 19.5t-195.5 58.5l26 202q110 -47 212.5 -71.5t199.5 -24.5q140 0 208 49t68 149q0 66 -33.5 112t-96.5 74l-246 112q-145 66 -222.5 159t-77.5 231q0 186 112 288t317 102q143 0 253 -42t212 -137l-140 -142q-88 72 -164.5 104.5t-159.5 32.5 q-103 0 -159.5 -49.5t-56.5 -146.5q0 -69 37 -112.5t109 -77.5l208 -98q158 -74 240 -167t82 -239q0 -193 -125.5 -289.5t-380.5 -96.5z" glyph-name="S" unicode="S"/><glyph d="M500 0v1420h200v-1420h-200zM80 1230v190h1040v-190h-1040z" glyph-name="T" unicode="T"/><glyph d="M596 -20q-456 0 -456 476v964h200v-964q0 -142 62.5 -214t197.5 -72q260 0 260 286v964h200v-964q0 -238 -118 -357t-346 -119z" glyph-name="U" unicode="U"/><glyph d="M445 0l-400 1420h214l332 -1250h18l332 1250h214l-400 -1420h-310z" glyph-name="V" unicode="V"/><glyph d="M180 0l-160 1420h210l120 -1260h20l131 900h200l-67 -198h-40l-105 -862h-309zM711 0l-105 862h-40l-65 198h200l129 -900h20l120 1260h210l-160 -1420h-309z" glyph-name="W" unicode="W"/><glyph d="M906 0l-364 636l-476 784h230l378 -674l462 -746h-230zM66 0l462 746l378 674h230l-476 -784l-364 -636h-230z" glyph-name="X" unicode="X"/><glyph d="M515 474l-490 946h220l346 -710h18l346 710h220l-490 -946h-170zM500 0v700h200v-700h-200z" glyph-name="Y" unicode="Y"/><glyph d="M302 68l-152 122l748 1172l152 -132zM150 0v190h920v-190h-920zM150 1230v190h900v-190h-900z" glyph-name="Z" unicode="Z"/><glyph d="M372 -214v1848h200v-1848h-200zM552 -214v190h446v-190h-446zM552 1444v190h446v-190h-446z" glyph-name="bracketleft" unicode="["/><glyph d="M908 -190l-804 1800h212l804 -1800h-212z" glyph-name="backslash" unicode="\"/><glyph d="M616 -214v1848h212v-1848h-212zM202 -214v190h434v-190h-434zM202 1444v190h434v-190h-434z" glyph-name="bracketright" unicode="]"/><glyph d="M204 820l260 600h270l260 -600h-220l-166 440h-18l-166 -440h-220z" glyph-name="asciicircum" unicode="^"/><glyph d="M100 -176v176h1000v-176h-1000z" glyph-name="underscore" unicode="_"/><glyph d="M479 1248l-190 380h212l170 -380h-192z" glyph-name="grave" unicode="`"/><glyph d="M818 -10l-14 314l-28 88v274q0 106 -74.5 155.5t-221.5 53.5l-254 7l20 188l214 -3q263 -4 390.5 -113.5t127.5 -319.5v-442l180 -22v-170zM444 -20q-166 0 -257 80t-91 226q0 168 125.5 258t354.5 90q95 0 169.5 -11.5t132.5 -34.5l-44 -144q-67 15 -131 17.5t-131 2.5 q-276 0 -276 -158q0 -74 47.5 -115t134.5 -41q99 0 165.5 34t99.5 87t33 109v116l62 -272h-84l34 32q0 -92 -42.5 -153.5t-119.5 -92t-182 -30.5z" glyph-name="a" unicode="a"/><glyph d="M452 -20q-72 0 -142 5.5t-142 14.5l82 194q53 -25 117 -29.5t127 -4.5q191 0 295.5 115t104.5 325q0 144 -63.5 222t-180.5 78q-270 0 -270 -304l-62 272h82q15 212 260 212q212 0 328 -125t116 -355q0 -295 -170.5 -457.5t-481.5 -162.5zM168 0v1500h212v-1482z" glyph-name="b" unicode="b"/><glyph d="M682 -20q-261 0 -403.5 142.5t-142.5 409.5q0 260 139.5 404t398.5 144q155 0 265.5 -57.5t157.5 -162.5l-163 -123q-45 73 -115 113t-153 40q-147 0 -228.5 -90.5t-81.5 -257.5q0 -181 91 -276.5t259 -95.5q80 0 158.5 7t153.5 19l24 -186q-87 -18 -179 -24t-181 -6z" glyph-name="c" unicode="c"/><glyph d="M518 -20q-201 0 -311.5 139.5t-110.5 400.5q0 267 111 413.5t313 146.5q128 0 197.5 -52.5t82.5 -159.5h82l-62 -272q0 304 -270 304q-117 0 -180.5 -99t-63.5 -281q0 -360 246 -360q268 0 268 180v116l72 -292h-92q-10 -91 -86 -137.5t-196 -46.5zM842 -10l-22 208v1302 h212v-1500z" glyph-name="d" unicode="d"/><glyph d="M702 -20q-271 0 -418.5 142.5t-147.5 409.5q0 260 125 404t353 144q215 0 332.5 -130t117.5 -378q0 -73 -6 -136h-744v162h558q0 143 -68 219.5t-188 76.5q-135 0 -209.5 -92t-74.5 -260q0 -184 102.5 -280t291.5 -96q66 0 130 7.5t130 20.5l26 -186q-94 -18 -172 -23 t-138 -5z" glyph-name="e" unicode="e"/><glyph d="M402 0v970q0 550 502 550q114 0 220 -20l-22 -184q-63 8 -111 11t-93 3q-284 0 -284 -350v-980h-212zM68 646v174h980v-174h-980z" glyph-name="f" unicode="f"/><glyph d="M518 -20q-201 0 -311.5 139.5t-110.5 400.5q0 267 111 413.5t313 146.5q128 0 197.5 -52.5t82.5 -159.5h82l-62 -232q0 133 -60 198.5t-180 65.5q-131 0 -202.5 -99t-71.5 -281q0 -178 70 -269t206 -91q120 0 179 45t59 135v116l72 -292h-92q-10 -91 -86 -137.5 t-196 -46.5zM182 -478l-10 194l340 10q161 5 233.5 89t72.5 247v242h214v-210q0 -283 -129 -418t-411 -144zM820 260v576l20 224h192v-800h-212z" glyph-name="g" unicode="g"/><glyph d="M820 0v690q0 101 -50 155.5t-140 54.5q-250 0 -250 -304l-62 272h82q9 107 78 159.5t202 52.5q168 0 260 -102t92 -288v-690h-212zM168 0v1500h212v-1500h-212z" glyph-name="h" unicode="h"/><glyph d="M564 0v1000h212v-1000h-212zM160 0v174h424v-174h-424zM756 0v174h346v-174h-346zM220 884v176h556v-176h-556zM658 1228q-61 0 -104.5 43.5t-43.5 104.5q0 62 43.5 105t104.5 43q62 0 105 -43t43 -105q0 -61 -43 -104.5t-105 -43.5z" glyph-name="i" unicode="i"/><glyph d="M180 -480l-10 188l200 18q161 15 233.5 94t72.5 242v322h212v-290q0 -189 -56 -307.5t-175 -179t-307 -75.5zM264 886v174h428v-174h-428zM676 350v710h212v-710h-212zM760 1228q-61 0 -104.5 43.5t-43.5 104.5q0 62 43.5 105t104.5 43q62 0 105 -43t43 -105 q0 -61 -43 -104.5t-105 -43.5z" glyph-name="j" unicode="j"/><glyph d="M310 402v190h120q132 0 217 45.5t133.5 148.5t71.5 274h220q-42 -331 -188.5 -494.5t-403.5 -163.5h-170zM160 0v1500h212v-1500h-212zM878 0l-302 516l200 82l364 -598h-262z" glyph-name="k" unicode="k"/><glyph d="M748 -20q-184 0 -266 100t-82 320v1100h212v-1090q0 -84 16 -137t62.5 -78t137.5 -25q83 0 212 38l24 -186q-81 -22 -155.5 -32t-160.5 -10zM88 1326v174h330v-174h-330z" glyph-name="l" unicode="l"/><glyph d="M876 0v810q0 110 -82 110q-104 0 -104 -144l-72 152h82q5 62 49.5 107t128.5 45q110 0 160 -59t50 -191v-830h-212zM112 0v1060h188l24 -224v-836h-212zM510 0v830q0 90 -84 90q-102 0 -102 -144l-62 152h68q12 152 182 152q83 0 130.5 -57t47.5 -173v-850h-180z" glyph-name="m" unicode="m"/><glyph d="M820 0v690q0 96 -50 148t-140 52q-250 0 -250 -294l-62 272h82q9 107 78 159.5t202 52.5q168 0 260 -102t92 -288v-690h-212zM168 0v1060h192l20 -224v-836h-212z" glyph-name="n" unicode="n"/><glyph d="M600 -20q-220 0 -342 144t-122 406q0 263 122 406.5t342 143.5q221 0 342.5 -143.5t121.5 -406.5q0 -262 -121.5 -406t-342.5 -144zM600 170q117 0 180.5 94t63.5 266q0 173 -63.5 266.5t-180.5 93.5t-180.5 -93.5t-63.5 -266.5q0 -172 63.5 -266t180.5 -94z" glyph-name="o" unicode="o"/><glyph d="M682 -20q-120 0 -195.5 46.5t-86.5 137.5h-92l72 292v-116q0 -90 59 -135t179 -45q137 0 206.5 91t69.5 269q0 182 -71.5 281t-202.5 99q-120 0 -180 -65.5t-60 -198.5l-62 232h82q14 107 83.5 159.5t196.5 52.5q203 0 313.5 -146.5t110.5 -413.5q0 -261 -110.5 -400.5 t-311.5 -139.5zM168 -460v1520h192l20 -224v-1296h-212z" glyph-name="p" unicode="p"/><glyph d="M518 -20q-201 0 -311.5 139.5t-110.5 400.5q0 267 111 413.5t313 146.5q128 0 197.5 -52.5t82.5 -159.5h82l-62 -232q0 133 -60 198.5t-180 65.5q-131 0 -202.5 -99t-71.5 -281q0 -178 70 -269t206 -91q120 0 179 45t59 135v116l72 -292h-92q-10 -91 -86 -137.5 t-196 -46.5zM820 -460v1296l20 224h192v-1520h-212z" glyph-name="q" unicode="q"/><glyph d="M528 456l-62 332h82q18 292 292 292q164 0 238 -94t74 -304h-210q0 116 -34.5 167t-111.5 51q-135 0 -201.5 -115.5t-66.5 -328.5zM80 0v174h708v-174h-708zM316 0v1060h172l40 -304v-756h-212zM120 886v174h354l20 -174h-374z" glyph-name="r" unicode="r"/><glyph d="M518 -20q-120 0 -205.5 7t-156.5 23l24 192q105 -16 185.5 -24t152.5 -8q161 0 233.5 31.5t72.5 100.5q0 48 -25.5 71.5t-78.5 36.5l-244 62q-157 40 -230.5 99t-73.5 179q0 174 133.5 252t430.5 78q77 0 143.5 -4.5t136.5 -15.5l-22 -184q-81 8 -143 11t-121 3 q-178 0 -258 -30.5t-80 -99.5q0 -46 33 -66.5t101 -37.5l196 -48q167 -40 244.5 -107t77.5 -195q0 -171 -125 -248.5t-401 -77.5z" glyph-name="s" unicode="s"/><glyph d="M782 -20q-241 0 -348.5 100t-107.5 320v180h212v-170q0 -126 61.5 -183t202.5 -57q50 0 106 5.5t128 14.5l24 -186q-70 -12 -136.5 -18t-141.5 -6zM326 500v880h212v-880h-212zM60 886v174h960v-174h-960z" glyph-name="t" unicode="t"/><glyph d="M506 -20q-167 0 -258.5 99.5t-91.5 280.5v700h212v-700q0 -91 52 -140.5t146 -49.5q116 0 175 73.5t59 246.5l54 -286h-70q-25 -108 -98 -166t-180 -58zM818 -10l-18 254v186h212v-238l146 -22v-170zM800 300v760h212v-700z" glyph-name="u" unicode="u"/><glyph d="M459 0l-379 1060h226l285 -880h18l285 880h226l-379 -1060h-282z" glyph-name="v" unicode="v"/><glyph d="M720 0l-124 842h-16l-87 218h194l125 -900h18l90 900h210l-150 -1060h-260zM190 0l-120 1060h200l80 -900h18l125 900h194l-89 -218h-14l-124 -842h-270z" glyph-name="w" unicode="w"/><glyph d="M106 0l422 584l326 476h240l-438 -602l-310 -458h-240zM854 0l-322 458l-426 602h240l326 -476l422 -584h-240z" glyph-name="x" unicode="x"/><glyph d="M75 -480l-10 190l166 20q105 13 179.5 57t127.5 130.5t93 226.5l264 916h220l-306 -966q-60 -190 -134.5 -306t-176 -174t-243.5 -74zM477 0l-422 1060h220l346 -900h32v-160h-176z" glyph-name="y" unicode="y"/><glyph d="M306 54l-146 122l710 826l146 -118zM160 0v176h876v-176h-876zM160 884v176h856v-176h-856z" glyph-name="z" unicode="z"/><glyph d="M826 -214q-163 0 -252.5 97.5t-89.5 272.5q0 84 21 166t21 170q0 56 -47.5 87.5t-111 44t-111.5 12.5v158q35 0 80.5 9.5t89 28t72 45.5t28.5 61q0 92 -21 172t-21 164q0 169 89.5 260.5t252.5 91.5q59 0 98 -5.5t72 -14.5l-24 -170q-35 5 -67.5 7.5t-60.5 2.5 q-71 0 -108.5 -45t-37.5 -127q0 -87 23 -166t23 -166q0 -99 -69 -153.5t-193 -56.5v-34q124 -2 193 -58.5t69 -151.5q0 -91 -23 -170t-23 -162q0 -91 37.5 -140.5t108.5 -49.5q28 0 60.5 3t67.5 7l24 -170q-33 -9 -72 -14.5t-98 -5.5z" glyph-name="braceleft" unicode="{"/><glyph d="M500 -310v2040h200v-2040h-200z" glyph-name="bar" unicode="|"/><glyph d="M376 -214q-58 0 -97.5 5.5t-72.5 14.5l24 170q35 -4 67.5 -7t60.5 -3q71 0 108.5 49.5t37.5 140.5q0 83 -23 162t-23 170q0 95 69 151.5t193 58.5v34q-124 2 -193 56.5t-69 153.5q0 87 23 166t23 166q0 82 -37.5 127t-108.5 45q-28 0 -60.5 -2.5t-67.5 -7.5l-24 170 q33 9 72.5 14.5t97.5 5.5q163 0 252.5 -91.5t89.5 -260.5q0 -84 -21 -164t-21 -172q0 -34 28.5 -61t72 -45.5t89.5 -28t80 -9.5v-158q-48 0 -111.5 -12.5t-111 -44t-47.5 -87.5q0 -88 21 -170t21 -166q0 -175 -89.5 -272.5t-252.5 -97.5z" glyph-name="braceright" unicode="}"/><glyph d="M100 486v80q0 173 64 251.5t206 78.5q73 0 137.5 -27t122.5 -62q49 -29 92.5 -57.5t90.5 -28.5q45 0 65 28.5t20 90.5v90h202v-80q0 -173 -57 -251.5t-183 -78.5q-71 0 -135 27.5t-121 61.5q-51 31 -97.5 58.5t-97.5 27.5q-56 0 -81.5 -28.5t-25.5 -90.5v-90h-202z" glyph-name="asciitilde" unicode="~"/><glyph glyph-name="uni00A0"/><glyph d="M496 -370l6 974h192l10 -974h-208zM600 1080q62 0 105 -43t43 -105q0 -61 -43 -104.5t-105 -43.5q-61 0 -104.5 43.5t-43.5 104.5q0 62 43.5 105t104.5 43z" glyph-name="exclamdown" unicode="¡"/><glyph d="M594 -334v1728h138v-1728h-138zM682 -20q-261 0 -403.5 142.5t-142.5 409.5q0 260 139.5 404t398.5 144q155 0 265.5 -57.5t157.5 -162.5l-163 -123q-45 73 -115 113t-153 40q-147 0 -228.5 -90.5t-81.5 -257.5q0 -181 91 -276.5t259 -95.5q80 0 158.5 7t153.5 19 l24 -186q-87 -18 -179 -24t-181 -6z" glyph-name="cent" unicode="¢"/><glyph d="M132 0v186q81 116 120.5 221t39.5 220v409q0 194 111 299t307 105q144 0 250 -57.5t155 -161.5l-168 -127q-42 74 -106 114t-139 40q-87 0 -141.5 -54.5t-54.5 -158.5v-408q0 -115 -40 -221t-122 -220v-186h-212zM192 0v186h904v-186h-904zM109 581v138h788v-138h-788z" glyph-name="sterling" unicode="£"/><glyph d="M603 300q-128 0 -223.5 50t-148 140t-52.5 210q0 121 52.5 210.5t148 139.5t223.5 50t223.5 -50t148 -139.5t52.5 -210.5q0 -120 -52.5 -210t-148 -140t-223.5 -50zM188 131l-116 132l197 207l143 -86zM1012 131l-228 259l128 101l216 -228zM603 490q92 0 148 57.5 t56 152.5t-56 152.5t-148 57.5t-148 -57.5t-56 -152.5t56 -152.5t148 -57.5zM272 926l-200 209l127 124l220 -251zM929 926l-143 88l215 245l127 -124z" glyph-name="currency" unicode="¤"/><glyph d="M162 501v138h878v-138h-878zM162 191v138h878v-138h-878zM515 474l-490 946h220l346 -710h18l346 710h220l-490 -946h-170zM500 0v700h200v-700h-200z" glyph-name="yen" unicode="¥"/><glyph d="M500 870v860h200v-860h-200zM500 -310v860h200v-860h-200z" glyph-name="brokenbar" unicode="¦"/><glyph d="M1131 674q0 -140 -73.5 -204.5t-235.5 -66.5v-28q107 -43 158 -102.5t51 -166.5q0 -171 -120 -248.5t-386 -77.5q-120 0 -205.5 7t-156.5 23l24 192q105 -16 185.5 -24t152.5 -8q150 0 218 31.5t68 100.5q0 48 -20 71.5t-64 36.5l-354 110q-157 49 -230.5 120.5 t-73.5 217.5q0 134 93.5 202t301.5 67v23q-115 39 -179.5 75.5t-90 86t-25.5 126.5q0 174 124 252t400 78q146 0 280 -20l-22 -184q-81 8 -143 11t-121 3q-157 0 -227.5 -30.5t-70.5 -99.5q0 -46 22.5 -66t71.5 -38l326 -120q110 -40 181 -83t106 -105.5t35 -161.5zM289 668 q0 -75 44 -116.5t120 -57.5t172 -16q150 0 218 46t68 146q0 118 -82 158t-222 40q-168 0 -243 -47t-75 -153z" glyph-name="section" unicode="§"/><glyph d="M810 1238q-55 0 -94.5 39.5t-39.5 94.5q0 56 39.5 95t94.5 39q56 0 95 -39t39 -95q0 -55 -39 -94.5t-95 -39.5zM390 1238q-55 0 -94.5 39.5t-39.5 94.5q0 56 39.5 95t94.5 39q56 0 95 -39t39 -95q0 -55 -39 -94.5t-95 -39.5z" glyph-name="dieresis" unicode="¨"/><glyph d="M600 15q-274 0 -424 178t-150 502q0 338 150 524t424 186t424 -186t150 -524q0 -324 -150 -502t-424 -178zM652 380q-175 0 -270.5 86t-95.5 246q0 155 93 241.5t265 86.5q89 0 152.5 -31.5t90.5 -88.5l-123 -113q-44 73 -128 73q-76 0 -118 -41t-42 -117 q0 -88 51.5 -135t148.5 -47q44 0 87.5 7t84.5 19l24 -156q-52 -18 -108.5 -24t-111.5 -6zM600 169q193 0 298.5 138t105.5 388q0 265 -105.5 410.5t-298.5 145.5t-298.5 -145.5t-105.5 -410.5q0 -250 105.5 -388t298.5 -138z" glyph-name="copyright" unicode="©"/><glyph d="M745 779l-8 185l-16 -1v215q0 56 -44 86t-131 30h-185l11 146l162 -1q180 -1 266.5 -72.5t86.5 -207.5v-249l107 -13v-112zM501 773q-103 0 -160 50.5t-57 142.5q0 104 74.5 160.5t210.5 56.5q67 0 119.5 -6t92.5 -20l-26 -108q-46 8 -91 9t-91 1q-114 0 -114 -76 q0 -74 86 -74q88 0 132 42t44 88v39l36 -164h-61l20 7q-25 -73 -71 -110.5t-144 -37.5z" glyph-name="ordfeminine" unicode="ª"/><glyph d="M1084 74l-488 384v142l488 384v-230l-300 -216v-18l300 -216v-230zM564 74l-488 384v142l488 384v-230l-300 -216v-18l300 -216v-230z" glyph-name="guillemotleft" unicode="«"/><glyph d="M100 717v186h1000v-186h-1000zM908 350v467h192v-467h-192z" glyph-name="logicalnot" unicode="¬"/><glyph d="M100 616v186h1000v-186h-1000z" glyph-name="uni00AD" unicode="­"/><glyph d="M600 15q-274 0 -424 178t-150 502q0 338 150 524t424 186t424 -186t150 -524q0 -324 -150 -502t-424 -178zM348 396v634h160v-634h-160zM717 396l-114 212l154 27l147 -239h-187zM600 169q193 0 298.5 138t105.5 388q0 265 -105.5 410.5t-298.5 145.5t-298.5 -145.5 t-105.5 -410.5q0 -250 105.5 -388t298.5 -138zM494 600v130h154q44 0 68 22.5t24 62.5q0 41 -24 63t-68 22h-174v130h174q116 0 179 -53.5t63 -151.5q0 -107 -63 -166t-179 -59h-154z" glyph-name="registered" unicode="®"/><glyph d="M170 1248v188h860v-188h-860z" glyph-name="macron" unicode="¯"/><glyph d="M600 770q-154 0 -248 92t-94 243q0 152 94 243.5t248 91.5q155 0 248.5 -91.5t93.5 -243.5q0 -151 -93.5 -243t-248.5 -92zM600 920q76 0 121.5 51t45.5 134t-45.5 134t-121.5 51t-121.5 -51t-45.5 -134t45.5 -134t121.5 -51z" glyph-name="degree" unicode="°"/><glyph d="M504 246v978h192v-978h-192zM100 683v186h1000v-186h-1000zM100 186v186h1000v-186h-1000z" glyph-name="plusminus" unicode="±"/><glyph d="M342 802v157q149 53 223 110.5t74 117.5q0 93 -102 93q-74 0 -154 -46l-66 138q44 33 111 50.5t146 17.5q117 0 187.5 -54.5t70.5 -143.5q0 -78 -60.5 -149.5t-183.5 -137.5v-153h-246zM368 802v140h490v-140h-490z" glyph-name="uni00B2" unicode="²"/><glyph d="M554 793q-65 -1 -120 6t-98 20l41 146q31 -6 71.5 -13.5t91.5 -7.5q64 0 99 16.5t35 46.5q0 25 -33 38.5t-94 13.5h-64v96l173 -15q86 -7 138.5 -45.5t52.5 -106.5q0 -93 -76.5 -143t-216.5 -52zM483 1059l-10 116q97 7 140 24.5t43 41.5q0 49 -112 49q-97 0 -175 -29 l-21 149q50 16 106.5 23t119.5 7q123 0 189.5 -35.5t66.5 -102.5q0 -52 -41 -89.5t-108 -51.5v-72z" glyph-name="uni00B3" unicode="³"/><glyph d="M469 1248l170 380h212l-190 -380h-192z" glyph-name="acute" unicode="´"/><glyph d="M566 -20q-162 0 -205 224h-57l-148 156v700h212v-630q0 -115 52 -177.5t146 -62.5q116 0 175 69t59 231l54 -286h-70q-21 -112 -75.5 -168t-142.5 -56zM156 -460v890l184 -193l38 -697h-222zM818 -10l-18 254v186h212v-238l146 -22v-170zM800 300v760h212v-700z" glyph-name="uni00B5" unicode="µ"/><glyph d="M512 640q-227 0 -351.5 98.5t-124.5 283.5q0 188 126.5 293t361.5 105zM422 0v1286h200v-1286h-200zM792 0v1420h200v-1420h-200zM504 1230l20 190h636v-190h-656z" glyph-name="paragraph" unicode="¶"/><glyph d="M600 562q-61 0 -104.5 43.5t-43.5 104.5q0 62 43.5 105t104.5 43q62 0 105 -43t43 -105q0 -61 -43 -104.5t-105 -43.5z" glyph-name="periodcentered" unicode="·"/><glyph d="M514 -480v150q95 0 141.5 18t46.5 54q0 35 -40 51.5t-122 16.5l69 196l136 -11l-25 -95q86 -18 129 -59.5t43 -107.5q0 -106 -94 -159.5t-284 -53.5z" glyph-name="cedilla" unicode="¸"/><glyph d="M541 800v620h156v-620h-156zM342 800v141h207v-141h-207zM688 800v141h172v-141h-172zM351 1209v158l190 53v-160z" glyph-name="uni00B9" unicode="¹"/><glyph d="M600 770q-154 0 -248 92t-94 243q0 152 94 243.5t248 91.5q155 0 248.5 -91.5t93.5 -243.5q0 -151 -93.5 -243t-248.5 -92zM600 920q71 0 114 51t43 134t-43 134t-114 51t-114 -51t-43 -134t43 -134t114 -51z" glyph-name="ordmasculine" unicode="º"/><glyph d="M636 74v230l300 216v18l-300 216v230l488 -384v-142zM116 74v230l300 216v18l-300 216v230l488 -384v-142z" glyph-name="guillemotright" unicode="»"/><glyph d="M186 286l-92 136l930 664l92 -130zM561 106l78 479h164l-78 -479h-164zM560 106l62 140h268v-140h-330zM1028 106v140h78v-140h-78zM881 0v618h156v-618h-156zM281 800v620h156v-620h-156zM82 800v141h207v-141h-207zM428 800v141h172v-141h-172zM91 1209v158l190 53 v-160z" glyph-name="onequarter" unicode="¼"/><glyph d="M186 296l-92 136l930 664l92 -130zM281 800v620h156v-620h-156zM82 800v141h207v-141h-207zM428 800v141h172v-141h-172zM91 1209v158l190 53v-160zM612 -1v157q149 53 223 110.5t74 117.5q0 93 -102 93q-74 0 -154 -46l-66 138q44 33 111 50.5t146 17.5 q117 0 187.5 -54.5t70.5 -143.5q0 -78 -60.5 -149.5t-183.5 -137.5v-153h-246zM638 -1v140h490v-140h-490z" glyph-name="onehalf" unicode="½"/><glyph d="M186 306l-92 136l930 664l92 -130zM561 106l78 479h164l-78 -479h-164zM560 106l62 140h268v-140h-330zM1028 106v140h78v-140h-78zM881 0v618h156v-618h-156zM314 793q-65 -1 -120 6t-98 20l41 146q31 -6 71.5 -13.5t91.5 -7.5q64 0 99 16.5t35 46.5q0 25 -33 38.5 t-94 13.5h-64v96l173 -15q86 -7 138.5 -45.5t52.5 -106.5q0 -93 -76.5 -143t-216.5 -52zM243 1059l-10 116q97 7 140 24.5t43 41.5q0 49 -112 49q-97 0 -175 -29l-21 149q50 16 106.5 23t119.5 7q123 0 189.5 -35.5t66.5 -102.5q0 -52 -41 -89.5t-108 -51.5v-72z" glyph-name="threequarters" unicode="¾"/><glyph d="M564 -380q-195 0 -302.5 89t-107.5 249q0 111 55.5 202t166.5 162q65 42 96.5 92t31.5 108v82h196v-96q0 -99 -40.5 -174t-123.5 -128q-81 -50 -121.5 -109.5t-40.5 -128.5q0 -75 50.5 -116.5t141.5 -41.5zM564 -380l2 190q94 0 185 47t155 125l138 -143 q-70 -99 -199.5 -159t-280.5 -60zM598 1080q62 0 105 -43t43 -105q0 -61 -43 -104.5t-105 -43.5q-61 0 -104.5 43.5t-43.5 104.5q0 62 43.5 105t104.5 43z" glyph-name="questiondown" unicode="¿"/><glyph d="M45 0l410 1420h290l410 -1420h-210l-336 1248h-18l-336 -1248h-210zM235 346v190h720v-190h-720zM499 1580l-260 250h282l220 -250h-242z" glyph-name="Agrave" unicode="À"/><glyph d="M45 0l410 1420h290l410 -1420h-210l-336 1248h-18l-336 -1248h-210zM235 346v190h720v-190h-720zM469 1580l220 250h282l-260 -250h-242z" glyph-name="Aacute" unicode="Á"/><glyph d="M45 0l410 1420h290l410 -1420h-210l-336 1248h-18l-336 -1248h-210zM235 346v190h720v-190h-720zM259 1580l260 260h172l260 -260h-222l-177 205h106l-177 -205h-222z" glyph-name="Acircumflex" unicode="Â"/><glyph d="M45 0l410 1420h290l410 -1420h-210l-336 1248h-18l-336 -1248h-210zM235 346v190h720v-190h-720zM225 1566v50q0 125 52.5 187.5t157.5 62.5q41 0 85.5 -12.5t102.5 -36.5q59 -24 90 -37.5t56 -13.5q54 0 54 64v60h172v-50q0 -120 -47 -180t-141 -60q-34 0 -81 14 t-112 41q-43 18 -79 31.5t-62 13.5q-74 0 -74 -74v-60h-174z" glyph-name="Atilde" unicode="Ã"/><glyph d="M45 0l410 1420h290l410 -1420h-210l-336 1248h-18l-336 -1248h-210zM235 346v190h720v-190h-720zM808 1580q-55 0 -94.5 39.5t-39.5 94.5q0 56 39.5 95t94.5 39q56 0 95 -39t39 -95q0 -55 -39 -94.5t-95 -39.5zM392 1580q-55 0 -94.5 39.5t-39.5 94.5q0 56 39.5 95 t94.5 39q56 0 95 -39t39 -95q0 -55 -39 -94.5t-95 -39.5z" glyph-name="Adieresis" unicode="Ä"/><glyph d="M45 0l410 1420h290l410 -1420h-210l-336 1248h-18l-336 -1248h-210zM235 346v190h720v-190h-720zM600 1488q-113 0 -175.5 54t-62.5 152t62.5 152t175.5 54t175.5 -54t62.5 -152t-62.5 -152t-175.5 -54zM600 1604q47 0 71.5 23.5t24.5 66.5q0 44 -24.5 67.5t-71.5 23.5 q-46 0 -71 -23.5t-25 -67.5q0 -43 25 -66.5t71 -23.5z" glyph-name="Aring" unicode="Å"/><glyph d="M42 0l400 1420h275v-172h-134l-351 -1248h-190zM232 246v165h470v-165h-470zM600 0v180h500v-180h-500zM600 0v1420h180v-1420h-180zM600 621v180h440v-180h-440zM600 1240v180h500v-180h-500z" glyph-name="AE" unicode="Æ"/><glyph d="M758 -20q-662 0 -662 732q0 347 167 537.5t471 190.5q147 0 256 -46.5t159 -132.5l-148 -147q-45 68 -114.5 105t-150.5 37q-193 0 -309.5 -139t-116.5 -395q0 -558 482 -558q145 0 286 60l46 -176q-174 -68 -366 -68zM514 -480v150q95 0 141.5 18t46.5 54q0 35 -40 51.5 t-122 16.5l69 196l136 -11l-25 -95q86 -18 129 -59.5t43 -107.5q0 -106 -94 -159.5t-284 -53.5z" glyph-name="Ccedilla" unicode="Ç"/><glyph d="M160 0v1420h200v-1420h-200zM160 0v190h940v-190h-940zM160 616v190h760v-190h-760zM160 1230v190h940v-190h-940zM529 1580l-260 250h282l220 -250h-242z" glyph-name="Egrave" unicode="È"/><glyph d="M160 0v1420h200v-1420h-200zM160 0v190h940v-190h-940zM160 616v190h760v-190h-760zM160 1230v190h940v-190h-940zM499 1580l220 250h282l-260 -250h-242z" glyph-name="Eacute" unicode="É"/><glyph d="M160 0v1420h200v-1420h-200zM160 0v190h940v-190h-940zM160 616v190h760v-190h-760zM160 1230v190h940v-190h-940zM289 1580l260 260h172l260 -260h-222l-177 205h106l-177 -205h-222z" glyph-name="Ecircumflex" unicode="Ê"/><glyph d="M160 0v1420h200v-1420h-200zM160 0v190h940v-190h-940zM160 616v190h760v-190h-760zM160 1230v190h940v-190h-940zM838 1580q-55 0 -94.5 39.5t-39.5 94.5q0 56 39.5 95t94.5 39q56 0 95 -39t39 -95q0 -55 -39 -94.5t-95 -39.5zM422 1580q-55 0 -94.5 39.5t-39.5 94.5 q0 56 39.5 95t94.5 39q56 0 95 -39t39 -95q0 -55 -39 -94.5t-95 -39.5z" glyph-name="Edieresis" unicode="Ë"/><glyph d="M499 0v1420h200v-1420h-200zM168 0v190h864v-190h-864zM168 1230v190h864v-190h-864zM499 1580l-260 250h282l220 -250h-242z" glyph-name="Igrave" unicode="Ì"/><glyph d="M499 0v1420h200v-1420h-200zM168 0v190h864v-190h-864zM168 1230v190h864v-190h-864zM469 1580l220 250h282l-260 -250h-242z" glyph-name="Iacute" unicode="Í"/><glyph d="M499 0v1420h200v-1420h-200zM168 0v190h864v-190h-864zM168 1230v190h864v-190h-864zM259 1580l260 260h172l260 -260h-222l-177 205h106l-177 -205h-222z" glyph-name="Icircumflex" unicode="Î"/><glyph d="M499 0v1420h200v-1420h-200zM168 0v190h864v-190h-864zM168 1230v190h864v-190h-864zM808 1580q-55 0 -94.5 39.5t-39.5 94.5q0 56 39.5 95t94.5 39q56 0 95 -39t39 -95q0 -55 -39 -94.5t-95 -39.5zM392 1580q-55 0 -94.5 39.5t-39.5 94.5q0 56 39.5 95t94.5 39 q56 0 95 -39t39 -95q0 -55 -39 -94.5t-95 -39.5z" glyph-name="Idieresis" unicode="Ï"/><glyph d="M42 612v190h639v-190h-639zM346 0v190h158q219 0 329.5 125t110.5 375q0 271 -110.5 405.5t-329.5 134.5h-154l-24 190h178q650 0 650 -730q0 -690 -650 -690h-158zM160 0v1420h200v-1420h-200z" glyph-name="Eth" unicode="Ð"/><glyph d="M800 0l-440 1080h-92v340h132l440 -1080h50v-340h-90zM148 0v1420h192v-1420h-192zM860 0v1420h192v-1420h-192zM225 1566v50q0 125 52.5 187.5t157.5 62.5q41 0 85.5 -12.5t102.5 -36.5q59 -24 90 -37.5t56 -13.5q54 0 54 64v60h172v-50q0 -120 -47 -180t-141 -60 q-34 0 -81 14t-112 41q-43 18 -79 31.5t-62 13.5q-74 0 -74 -74v-60h-174z" glyph-name="Ntilde" unicode="Ñ"/><glyph d="M600 -20q-524 0 -524 720q0 740 524 740t524 -740q0 -720 -524 -720zM600 164q314 0 314 536q0 556 -314 556t-314 -556q0 -536 314 -536zM499 1580l-260 250h282l220 -250h-242z" glyph-name="Ograve" unicode="Ò"/><glyph d="M600 -20q-524 0 -524 720q0 740 524 740t524 -740q0 -720 -524 -720zM600 164q314 0 314 536q0 556 -314 556t-314 -556q0 -536 314 -536zM469 1580l220 250h282l-260 -250h-242z" glyph-name="Oacute" unicode="Ó"/><glyph d="M600 -20q-524 0 -524 720q0 740 524 740t524 -740q0 -720 -524 -720zM600 164q314 0 314 536q0 556 -314 556t-314 -556q0 -536 314 -536zM259 1580l260 260h172l260 -260h-222l-177 205h106l-177 -205h-222z" glyph-name="Ocircumflex" unicode="Ô"/><glyph d="M600 -20q-524 0 -524 720q0 740 524 740t524 -740q0 -720 -524 -720zM600 164q314 0 314 536q0 556 -314 556t-314 -556q0 -536 314 -536zM225 1566v50q0 125 52.5 187.5t157.5 62.5q41 0 85.5 -12.5t102.5 -36.5q59 -24 90 -37.5t56 -13.5q54 0 54 64v60h172v-50 q0 -120 -47 -180t-141 -60q-34 0 -81 14t-112 41q-43 18 -79 31.5t-62 13.5q-74 0 -74 -74v-60h-174z" glyph-name="Otilde" unicode="Õ"/><glyph d="M600 -20q-524 0 -524 720q0 740 524 740t524 -740q0 -720 -524 -720zM600 164q314 0 314 536q0 556 -314 556t-314 -556q0 -536 314 -536zM808 1580q-55 0 -94.5 39.5t-39.5 94.5q0 56 39.5 95t94.5 39q56 0 95 -39t39 -95q0 -55 -39 -94.5t-95 -39.5zM392 1580 q-55 0 -94.5 39.5t-39.5 94.5q0 56 39.5 95t94.5 39q56 0 95 -39t39 -95q0 -55 -39 -94.5t-95 -39.5z" glyph-name="Odieresis" unicode="Ö"/><glyph d="M249 188l830 877l-128 123l-830 -879zM951 188l128 121l-830 879l-128 -123z" glyph-name="multiply" unicode="×"/><glyph d="M201 -134l-135 75l913 1591l135 -75zM600 -20q-524 0 -524 720q0 740 524 740t524 -740q0 -720 -524 -720zM600 164q314 0 314 536q0 556 -314 556t-314 -556q0 -536 314 -536z" glyph-name="Oslash" unicode="Ø"/><glyph d="M596 -20q-456 0 -456 476v964h200v-964q0 -142 62.5 -214t197.5 -72q260 0 260 286v964h200v-964q0 -238 -118 -357t-346 -119zM499 1580l-260 250h282l220 -250h-242z" glyph-name="Ugrave" unicode="Ù"/><glyph d="M596 -20q-456 0 -456 476v964h200v-964q0 -142 62.5 -214t197.5 -72q260 0 260 286v964h200v-964q0 -238 -118 -357t-346 -119zM469 1580l220 250h282l-260 -250h-242z" glyph-name="Uacute" unicode="Ú"/><glyph d="M596 -20q-456 0 -456 476v964h200v-964q0 -142 62.5 -214t197.5 -72q260 0 260 286v964h200v-964q0 -238 -118 -357t-346 -119zM259 1580l260 260h172l260 -260h-222l-177 205h106l-177 -205h-222z" glyph-name="Ucircumflex" unicode="Û"/><glyph d="M596 -20q-456 0 -456 476v964h200v-964q0 -142 62.5 -214t197.5 -72q260 0 260 286v964h200v-964q0 -238 -118 -357t-346 -119zM808 1580q-55 0 -94.5 39.5t-39.5 94.5q0 56 39.5 95t94.5 39q56 0 95 -39t39 -95q0 -55 -39 -94.5t-95 -39.5zM392 1580q-55 0 -94.5 39.5 t-39.5 94.5q0 56 39.5 95t94.5 39q56 0 95 -39t39 -95q0 -55 -39 -94.5t-95 -39.5z" glyph-name="Udieresis" unicode="Ü"/><glyph d="M515 474l-490 946h220l346 -710h18l346 710h220l-490 -946h-170zM500 0v700h200v-700h-200zM469 1580l220 250h282l-260 -250h-242z" glyph-name="Yacute" unicode="Ý"/><glyph d="M336 220v190h242q158 0 245 79t87 221q0 144 -87 222t-245 78h-238v190h238q258 0 400 -128t142 -362t-142 -362t-400 -128h-242zM160 0v1420h200v-1420h-200z" glyph-name="Thorn" unicode="Þ"/><glyph d="M818 -20q-79 0 -141 8t-111 22l24 192q73 -15 129 -23.5t99 -8.5q60 0 93 29.5t33 82.5q0 73 -36.5 120.5t-86.5 86.5q-40 35 -79 72.5t-64.5 87t-25.5 121.5q0 70 25 122.5t50 98.5q29 44 55.5 95t26.5 124q0 56 -36.5 87.5t-104.5 32.5q-112 0 -173 -65.5t-61 -184.5 v-1080h-212v1070q0 215 118.5 332.5t333.5 117.5q170 0 262.5 -81t92.5 -229q0 -70 -15.5 -116t-39 -79.5t-46.5 -68.5q-19 -36 -37.5 -72.5t-18.5 -93.5q0 -49 32.5 -91.5t75.5 -89.5q43 -40 85.5 -85.5t70.5 -101t28 -126.5q0 -146 -90.5 -226t-255.5 -80zM68 644v176h300 v-176h-300z" glyph-name="germandbls" unicode="ß"/><glyph d="M818 -10l-14 314l-28 88v274q0 106 -74.5 155.5t-221.5 53.5l-254 7l20 188l214 -3q263 -4 390.5 -113.5t127.5 -319.5v-442l180 -22v-170zM444 -20q-166 0 -257 80t-91 226q0 168 125.5 258t354.5 90q95 0 169.5 -11.5t132.5 -34.5l-44 -144q-67 15 -131 17.5t-131 2.5 q-276 0 -276 -158q0 -74 47.5 -115t134.5 -41q99 0 165.5 34t99.5 87t33 109v116l62 -272h-84l34 32q0 -92 -42.5 -153.5t-119.5 -92t-182 -30.5zM504 1248l-190 380h212l170 -380h-192z" glyph-name="agrave" unicode="à"/><glyph d="M818 -10l-14 314l-28 88v274q0 106 -74.5 155.5t-221.5 53.5l-254 7l20 188l214 -3q263 -4 390.5 -113.5t127.5 -319.5v-442l180 -22v-170zM444 -20q-166 0 -257 80t-91 226q0 168 125.5 258t354.5 90q95 0 169.5 -11.5t132.5 -34.5l-44 -144q-67 15 -131 17.5t-131 2.5 q-276 0 -276 -158q0 -74 47.5 -115t134.5 -41q99 0 165.5 34t99.5 87t33 109v116l62 -272h-84l34 32q0 -92 -42.5 -153.5t-119.5 -92t-182 -30.5zM479 1248l170 380h212l-190 -380h-192z" glyph-name="aacute" unicode="á"/><glyph d="M818 -10l-14 314l-28 88v274q0 106 -74.5 155.5t-221.5 53.5l-254 7l20 188l214 -3q263 -4 390.5 -113.5t127.5 -319.5v-442l180 -22v-170zM444 -20q-166 0 -257 80t-91 226q0 168 125.5 258t354.5 90q95 0 169.5 -11.5t132.5 -34.5l-44 -144q-67 15 -131 17.5t-131 2.5 q-276 0 -276 -158q0 -74 47.5 -115t134.5 -41q99 0 165.5 34t99.5 87t33 109v116l62 -272h-84l34 32q0 -92 -42.5 -153.5t-119.5 -92t-182 -30.5zM254 1248l240 380h172l240 -380h-212l-124 246h20l-124 -246h-212z" glyph-name="acircumflex" unicode="â"/><glyph d="M818 -10l-14 314l-28 88v274q0 106 -74.5 155.5t-221.5 53.5l-254 7l20 188l214 -3q263 -4 390.5 -113.5t127.5 -319.5v-442l180 -22v-170zM444 -20q-166 0 -257 80t-91 226q0 168 125.5 258t354.5 90q95 0 169.5 -11.5t132.5 -34.5l-44 -144q-67 15 -131 17.5t-131 2.5 q-276 0 -276 -158q0 -74 47.5 -115t134.5 -41q99 0 165.5 34t99.5 87t33 109v116l62 -272h-84l34 32q0 -92 -42.5 -153.5t-119.5 -92t-182 -30.5zM230 1256v40q0 250 210 250q40 0 75 -12.5t73 -31.5q50 -25 85.5 -40.5t60.5 -15.5q54 0 54 64v90h172v-80q0 -120 -47 -180 t-141 -60q-28 0 -69 12t-94 38q-33 17 -66 33.5t-65 16.5q-37 0 -55.5 -18t-18.5 -56v-50h-174z" glyph-name="atilde" unicode="ã"/><glyph d="M818 -10l-14 314l-28 88v274q0 106 -74.5 155.5t-221.5 53.5l-254 7l20 188l214 -3q263 -4 390.5 -113.5t127.5 -319.5v-442l180 -22v-170zM444 -20q-166 0 -257 80t-91 226q0 168 125.5 258t354.5 90q95 0 169.5 -11.5t132.5 -34.5l-44 -144q-67 15 -131 17.5t-131 2.5 q-276 0 -276 -158q0 -74 47.5 -115t134.5 -41q99 0 165.5 34t99.5 87t33 109v116l62 -272h-84l34 32q0 -92 -42.5 -153.5t-119.5 -92t-182 -30.5zM792 1238q-55 0 -94.5 39.5t-39.5 94.5q0 56 39.5 95t94.5 39q56 0 95 -39t39 -95q0 -55 -39 -94.5t-95 -39.5zM372 1238 q-55 0 -94.5 39.5t-39.5 94.5q0 56 39.5 95t94.5 39q56 0 95 -39t39 -95q0 -55 -39 -94.5t-95 -39.5z" glyph-name="adieresis" unicode="ä"/><glyph d="M818 -10l-14 314l-28 88v274q0 106 -74.5 155.5t-221.5 53.5l-254 7l20 188l214 -3q263 -4 390.5 -113.5t127.5 -319.5v-442l180 -22v-170zM444 -20q-166 0 -257 80t-91 226q0 168 125.5 258t354.5 90q95 0 169.5 -11.5t132.5 -34.5l-44 -144q-67 15 -131 17.5t-131 2.5 q-276 0 -276 -158q0 -74 47.5 -115t134.5 -41q99 0 165.5 34t99.5 87t33 109v116l62 -272h-84l34 32q0 -92 -42.5 -153.5t-119.5 -92t-182 -30.5zM580 1198q-113 0 -175.5 56.5t-62.5 159.5t62.5 159.5t175.5 56.5t175.5 -56.5t62.5 -159.5t-62.5 -159.5t-175.5 -56.5z M580 1314q96 0 96 100t-96 100t-96 -100t96 -100z" glyph-name="aring" unicode="å"/><glyph d="M299 -20q-133 0 -205.5 80t-72.5 226q0 166 97 257t273 91q65 0 120 -9.5t92 -26.5l-44 -154q-26 23 -71 26.5t-101 3.5q-84 0 -130 -44t-46 -124q0 -74 37.5 -115t104.5 -41q80 0 124 60.5t44 169.5v176l152 -332h-164l84 22q-16 -127 -85 -196.5t-209 -69.5zM521 310 v82v274q0 99 -78 157t-218 62l-94 3l20 182l94 -3q204 -7 316 -119.5t112 -313.5v-324h-152zM963 -20q-193 0 -299.5 140.5t-106.5 411.5q0 261 82.5 404.5t230.5 143.5q146 0 225.5 -133t79.5 -375q0 -34 -1.5 -70t-4.5 -66h-484v152h308q0 161 -34.5 233.5t-111.5 72.5 q-75 0 -109.5 -83.5t-34.5 -268.5q0 -184 74.5 -285t209.5 -101q57 0 120 13l26 -171q-40 -8 -84.5 -13t-85.5 -5z" glyph-name="ae" unicode="æ"/><glyph d="M682 -20q-261 0 -403.5 142.5t-142.5 409.5q0 260 139.5 404t398.5 144q155 0 265.5 -57.5t157.5 -162.5l-163 -123q-45 73 -115 113t-153 40q-147 0 -228.5 -90.5t-81.5 -257.5q0 -181 91 -276.5t259 -95.5q80 0 158.5 7t153.5 19l24 -186q-87 -18 -179 -24t-181 -6z M489 -480v150q95 0 141.5 18t46.5 54q0 35 -40 51.5t-122 16.5l69 196l136 -11l-25 -95q86 -18 129 -59.5t43 -107.5q0 -106 -94 -159.5t-284 -53.5z" glyph-name="ccedilla" unicode="ç"/><glyph d="M702 -20q-271 0 -418.5 142.5t-147.5 409.5q0 260 125 404t353 144q215 0 332.5 -130t117.5 -378q0 -73 -6 -136h-744v162h558q0 143 -68 219.5t-188 76.5q-135 0 -209.5 -92t-74.5 -260q0 -184 102.5 -280t291.5 -96q66 0 130 7.5t130 20.5l26 -186q-94 -18 -172 -23 t-138 -5zM534 1248l-190 380h212l170 -380h-192z" glyph-name="egrave" unicode="è"/><glyph d="M702 -20q-271 0 -418.5 142.5t-147.5 409.5q0 260 125 404t353 144q215 0 332.5 -130t117.5 -378q0 -73 -6 -136h-744v162h558q0 143 -68 219.5t-188 76.5q-135 0 -209.5 -92t-74.5 -260q0 -184 102.5 -280t291.5 -96q66 0 130 7.5t130 20.5l26 -186q-94 -18 -172 -23 t-138 -5zM509 1248l170 380h212l-190 -380h-192z" glyph-name="eacute" unicode="é"/><glyph d="M702 -20q-271 0 -418.5 142.5t-147.5 409.5q0 260 125 404t353 144q215 0 332.5 -130t117.5 -378q0 -73 -6 -136h-744v162h558q0 143 -68 219.5t-188 76.5q-135 0 -209.5 -92t-74.5 -260q0 -184 102.5 -280t291.5 -96q66 0 130 7.5t130 20.5l26 -186q-94 -18 -172 -23 t-138 -5zM284 1248l240 380h172l240 -380h-212l-124 246h20l-124 -246h-212z" glyph-name="ecircumflex" unicode="ê"/><glyph d="M702 -20q-271 0 -418.5 142.5t-147.5 409.5q0 260 125 404t353 144q215 0 332.5 -130t117.5 -378q0 -73 -6 -136h-744v162h558q0 143 -68 219.5t-188 76.5q-135 0 -209.5 -92t-74.5 -260q0 -184 102.5 -280t291.5 -96q66 0 130 7.5t130 20.5l26 -186q-94 -18 -172 -23 t-138 -5zM822 1238q-55 0 -94.5 39.5t-39.5 94.5q0 56 39.5 95t94.5 39q56 0 95 -39t39 -95q0 -55 -39 -94.5t-95 -39.5zM402 1238q-55 0 -94.5 39.5t-39.5 94.5q0 56 39.5 95t94.5 39q56 0 95 -39t39 -95q0 -55 -39 -94.5t-95 -39.5z" glyph-name="edieresis" unicode="ë"/><glyph d="M564 0v1060h212v-1060h-212zM160 0v174h424v-174h-424zM756 0v174h346v-174h-346zM220 886v174h556v-174h-556zM574 1248l-190 380h212l170 -380h-192z" glyph-name="igrave" unicode="ì"/><glyph d="M564 0v1060h212v-1060h-212zM160 0v174h424v-174h-424zM756 0v174h346v-174h-346zM220 886v174h556v-174h-556zM549 1248l170 380h212l-190 -380h-192z" glyph-name="iacute" unicode="í"/><glyph d="M564 0v1060h212v-1060h-212zM160 0v174h424v-174h-424zM756 0v174h346v-174h-346zM220 886v174h556v-174h-556zM324 1248l240 380h172l240 -380h-212l-124 246h20l-124 -246h-212z" glyph-name="icircumflex" unicode="î"/><glyph d="M564 0v1060h212v-1060h-212zM160 0v174h424v-174h-424zM756 0v174h346v-174h-346zM220 886v174h556v-174h-556zM862 1238q-55 0 -94.5 39.5t-39.5 94.5q0 56 39.5 95t94.5 39q56 0 95 -39t39 -95q0 -55 -39 -94.5t-95 -39.5zM442 1238q-55 0 -94.5 39.5t-39.5 94.5 q0 56 39.5 95t94.5 39q56 0 95 -39t39 -95q0 -55 -39 -94.5t-95 -39.5z" glyph-name="idieresis" unicode="ï"/><glyph d="M862 272v394q0 293 -124 471t-400 279l50 100q244 -74 397.5 -196.5t226 -305.5t72.5 -440v-48zM582 164q280 0 280 276q0 142 -69 219t-197 77q-127 0 -195.5 -66.5t-68.5 -189.5q0 -151 65 -233.5t185 -82.5zM584 -20q-223 0 -344.5 131t-121.5 369q0 210 101 325 t287 115q129 0 218.5 -55.5t119.5 -156.5h74v-300l166 118q0 -261 -130 -403.5t-370 -142.5zM278 997l-40 175l826 240l40 -175z" glyph-name="eth" unicode="ð"/><glyph d="M820 0v690q0 96 -50 148t-140 52q-250 0 -250 -294l-62 272h82q9 107 78 159.5t202 52.5q168 0 260 -102t92 -288v-690h-212zM168 0v1060h192l20 -224v-836h-212zM240 1256v40q0 250 210 250q40 0 75 -12.5t73 -31.5q50 -25 85.5 -40.5t60.5 -15.5q54 0 54 64v90h172v-80 q0 -120 -47 -180t-141 -60q-28 0 -69 12t-94 38q-33 17 -66 33.5t-65 16.5q-37 0 -55.5 -18t-18.5 -56v-50h-174z" glyph-name="ntilde" unicode="ñ"/><glyph d="M600 -20q-220 0 -342 144t-122 406q0 263 122 406.5t342 143.5q221 0 342.5 -143.5t121.5 -406.5q0 -262 -121.5 -406t-342.5 -144zM600 170q117 0 180.5 94t63.5 266q0 173 -63.5 266.5t-180.5 93.5t-180.5 -93.5t-63.5 -266.5q0 -172 63.5 -266t180.5 -94zM524 1248 l-190 380h212l170 -380h-192z" glyph-name="ograve" unicode="ò"/><glyph d="M600 -20q-220 0 -342 144t-122 406q0 263 122 406.5t342 143.5q221 0 342.5 -143.5t121.5 -406.5q0 -262 -121.5 -406t-342.5 -144zM600 170q117 0 180.5 94t63.5 266q0 173 -63.5 266.5t-180.5 93.5t-180.5 -93.5t-63.5 -266.5q0 -172 63.5 -266t180.5 -94zM499 1248 l170 380h212l-190 -380h-192z" glyph-name="oacute" unicode="ó"/><glyph d="M600 -20q-220 0 -342 144t-122 406q0 263 122 406.5t342 143.5q221 0 342.5 -143.5t121.5 -406.5q0 -262 -121.5 -406t-342.5 -144zM600 170q117 0 180.5 94t63.5 266q0 173 -63.5 266.5t-180.5 93.5t-180.5 -93.5t-63.5 -266.5q0 -172 63.5 -266t180.5 -94zM274 1248 l240 380h172l240 -380h-212l-124 246h20l-124 -246h-212z" glyph-name="ocircumflex" unicode="ô"/><glyph d="M600 -20q-220 0 -342 144t-122 406q0 263 122 406.5t342 143.5q221 0 342.5 -143.5t121.5 -406.5q0 -262 -121.5 -406t-342.5 -144zM600 170q117 0 180.5 94t63.5 266q0 173 -63.5 266.5t-180.5 93.5t-180.5 -93.5t-63.5 -266.5q0 -172 63.5 -266t180.5 -94zM250 1256v40 q0 250 210 250q40 0 75 -12.5t73 -31.5q50 -25 85.5 -40.5t60.5 -15.5q54 0 54 64v90h172v-80q0 -120 -47 -180t-141 -60q-28 0 -69 12t-94 38q-33 17 -66 33.5t-65 16.5q-37 0 -55.5 -18t-18.5 -56v-50h-174z" glyph-name="otilde" unicode="õ"/><glyph d="M600 -20q-220 0 -342 144t-122 406q0 263 122 406.5t342 143.5q221 0 342.5 -143.5t121.5 -406.5q0 -262 -121.5 -406t-342.5 -144zM600 170q117 0 180.5 94t63.5 266q0 173 -63.5 266.5t-180.5 93.5t-180.5 -93.5t-63.5 -266.5q0 -172 63.5 -266t180.5 -94zM812 1238 q-55 0 -94.5 39.5t-39.5 94.5q0 56 39.5 95t94.5 39q56 0 95 -39t39 -95q0 -55 -39 -94.5t-95 -39.5zM392 1238q-55 0 -94.5 39.5t-39.5 94.5q0 56 39.5 95t94.5 39q56 0 95 -39t39 -95q0 -55 -39 -94.5t-95 -39.5z" glyph-name="odieresis" unicode="ö"/><glyph d="M100 616v186h1000v-186h-1000zM600 151q-58 0 -99.5 41t-41.5 99q0 59 41.5 100t99.5 41q59 0 100 -41t41 -100q0 -58 -41 -99t-100 -41zM600 984q-58 0 -99.5 41.5t-41.5 99.5t41.5 99t99.5 41q59 0 100 -41t41 -99t-41.5 -99.5t-99.5 -41.5z" glyph-name="divide" unicode="÷"/><glyph d="M301 -134l-105 75l700 1257l115 -65zM600 -20q-220 0 -342 144t-122 406q0 263 122 406.5t342 143.5q221 0 342.5 -143.5t121.5 -406.5q0 -262 -121.5 -406t-342.5 -144zM600 170q117 0 180.5 94t63.5 266q0 173 -63.5 266.5t-180.5 93.5t-180.5 -93.5t-63.5 -266.5 q0 -172 63.5 -266t180.5 -94z" glyph-name="oslash" unicode="ø"/><glyph d="M506 -20q-167 0 -258.5 99.5t-91.5 280.5v700h212v-700q0 -91 52 -140.5t146 -49.5q116 0 175 73.5t59 246.5l54 -286h-70q-25 -108 -98 -166t-180 -58zM818 -10l-18 254v186h212v-238l146 -22v-170zM800 300v760h212v-700zM514 1248l-190 380h212l170 -380h-192z" glyph-name="ugrave" unicode="ù"/><glyph d="M506 -20q-167 0 -258.5 99.5t-91.5 280.5v700h212v-700q0 -91 52 -140.5t146 -49.5q116 0 175 73.5t59 246.5l54 -286h-70q-25 -108 -98 -166t-180 -58zM818 -10l-18 254v186h212v-238l146 -22v-170zM800 300v760h212v-700zM489 1248l170 380h212l-190 -380h-192z" glyph-name="uacute" unicode="ú"/><glyph d="M506 -20q-167 0 -258.5 99.5t-91.5 280.5v700h212v-700q0 -91 52 -140.5t146 -49.5q116 0 175 73.5t59 246.5l54 -286h-70q-25 -108 -98 -166t-180 -58zM818 -10l-18 254v186h212v-238l146 -22v-170zM800 300v760h212v-700zM264 1248l240 380h172l240 -380h-212l-124 246 h20l-124 -246h-212z" glyph-name="ucircumflex" unicode="û"/><glyph d="M506 -20q-167 0 -258.5 99.5t-91.5 280.5v700h212v-700q0 -91 52 -140.5t146 -49.5q116 0 175 73.5t59 246.5l54 -286h-70q-25 -108 -98 -166t-180 -58zM818 -10l-18 254v186h212v-238l146 -22v-170zM800 300v760h212v-700zM802 1238q-55 0 -94.5 39.5t-39.5 94.5 q0 56 39.5 95t94.5 39q56 0 95 -39t39 -95q0 -55 -39 -94.5t-95 -39.5zM382 1238q-55 0 -94.5 39.5t-39.5 94.5q0 56 39.5 95t94.5 39q56 0 95 -39t39 -95q0 -55 -39 -94.5t-95 -39.5z" glyph-name="udieresis" unicode="ü"/><glyph d="M75 -480l-10 190l166 20q105 13 179.5 57t127.5 130.5t93 226.5l264 916h220l-306 -966q-60 -190 -134.5 -306t-176 -174t-243.5 -74zM477 0l-422 1060h220l346 -900h32v-160h-176zM514 1248l170 380h212l-190 -380h-192z" glyph-name="yacute" unicode="ý"/><glyph d="M682 -20q-120 0 -195.5 46.5t-86.5 137.5h-92l72 292v-116q0 -90 66.5 -135t201.5 -45q122 0 184 91t62 269q0 182 -63.5 281t-180.5 99q-135 0 -202.5 -75.5t-67.5 -228.5l-62 272h82q14 107 83.5 159.5t196.5 52.5q203 0 313.5 -146.5t110.5 -413.5 q0 -261 -110.5 -400.5t-311.5 -139.5zM168 -460v1960h212v-1960h-212z" glyph-name="thorn" unicode="þ"/><glyph d="M75 -480l-10 190l166 20q105 13 179.5 57t127.5 130.5t93 226.5l264 916h220l-306 -966q-60 -190 -134.5 -306t-176 -174t-243.5 -74zM477 0l-422 1060h220l346 -900h32v-160h-176zM827 1238q-55 0 -94.5 39.5t-39.5 94.5q0 56 39.5 95t94.5 39q56 0 95 -39t39 -95 q0 -55 -39 -94.5t-95 -39.5zM407 1238q-55 0 -94.5 39.5t-39.5 94.5q0 56 39.5 95t94.5 39q56 0 95 -39t39 -95q0 -55 -39 -94.5t-95 -39.5z" glyph-name="ydieresis" unicode="ÿ"/><glyph d="M45 0l410 1420h290l410 -1420h-210l-336 1248h-18l-336 -1248h-210zM235 346v190h720v-190h-720zM213 1580v188h774v-188h-774z" glyph-name="Amacron" unicode="Ā"/><glyph d="M818 -10l-14 314l-28 88v274q0 106 -74.5 155.5t-221.5 53.5l-254 7l20 188l214 -3q263 -4 390.5 -113.5t127.5 -319.5v-442l180 -22v-170zM444 -20q-166 0 -257 80t-91 226q0 168 125.5 258t354.5 90q95 0 169.5 -11.5t132.5 -34.5l-44 -144q-67 15 -131 17.5t-131 2.5 q-276 0 -276 -158q0 -74 47.5 -115t134.5 -41q99 0 165.5 34t99.5 87t33 109v116l62 -272h-84l34 32q0 -92 -42.5 -153.5t-119.5 -92t-182 -30.5zM150 1248v188h860v-188h-860z" glyph-name="amacron" unicode="ā"/><glyph d="M45 0l410 1420h290l410 -1420h-210l-336 1248h-18l-336 -1248h-210zM235 346v190h720v-190h-720zM600 1570q-178 0 -276 76t-98 214h175q0 -73 52.5 -113.5t146.5 -40.5q95 0 147 40.5t52 113.5h175q0 -138 -98 -214t-276 -76z" glyph-name="Abreve" unicode="Ă"/><glyph d="M818 -10l-14 314l-28 88v274q0 106 -74.5 155.5t-221.5 53.5l-254 7l20 188l214 -3q263 -4 390.5 -113.5t127.5 -319.5v-442l180 -22v-170zM444 -20q-166 0 -257 80t-91 226q0 168 125.5 258t354.5 90q95 0 169.5 -11.5t132.5 -34.5l-44 -144q-67 15 -131 17.5t-131 2.5 q-276 0 -276 -158q0 -74 47.5 -115t134.5 -41q99 0 165.5 34t99.5 87t33 109v116l62 -272h-84l34 32q0 -92 -42.5 -153.5t-119.5 -92t-182 -30.5zM580 1238q-166 0 -257.5 84t-91.5 238v43h175v-43q0 -89 45 -137.5t129 -48.5t129 48.5t45 137.5v43h175v-43q0 -154 -91 -238 t-258 -84z" glyph-name="abreve" unicode="ă"/><glyph d="M1018 -424q-115 0 -177.5 55.5t-62.5 156.5q0 81 44 136.5t123 75.5l17 50l170 -18l20 -32q-106 0 -165 -41t-59 -117q0 -98 116 -98q35 0 82 11l-18 -170q-23 -4 -46.5 -6.5t-43.5 -2.5zM45 0l410 1420h290l410 -1420h-210l-336 1248h-18l-336 -1248h-210zM235 346v190 h720v-190h-720z" glyph-name="Aogonek" unicode="Ą"/><glyph d="M1020 -424q-115 0 -177.5 55.5t-62.5 156.5q0 68 29.5 114.5t84.5 62.5v65l240 2l20 -32q-106 0 -165 -44t-59 -124q0 -42 30.5 -65t85.5 -23q35 0 82 11l-18 -170q-23 -4 -46.5 -6.5t-43.5 -2.5zM818 -10l-14 314l-28 88v274q0 106 -74.5 155.5t-221.5 53.5l-254 7 l20 188l214 -3q263 -4 390.5 -113.5t127.5 -319.5v-442l180 -22v-170zM444 -20q-166 0 -257 80t-91 226q0 168 125.5 258t354.5 90q95 0 169.5 -11.5t132.5 -34.5l-44 -144q-67 15 -131 17.5t-131 2.5q-276 0 -276 -158q0 -74 47.5 -115t134.5 -41q99 0 165.5 34t99.5 87 t33 109v116l62 -272h-84l34 32q0 -92 -42.5 -153.5t-119.5 -92t-182 -30.5z" glyph-name="aogonek" unicode="ą"/><glyph d="M758 -20q-662 0 -662 732q0 347 167 537.5t471 190.5q147 0 256 -46.5t159 -132.5l-148 -147q-45 68 -114.5 105t-150.5 37q-193 0 -309.5 -139t-116.5 -395q0 -558 482 -558q145 0 286 60l46 -176q-174 -68 -366 -68zM574 1580l220 250h282l-260 -250h-242z" glyph-name="Cacute" unicode="Ć"/><glyph d="M682 -20q-261 0 -403.5 142.5t-142.5 409.5q0 260 139.5 404t398.5 144q155 0 265.5 -57.5t157.5 -162.5l-163 -123q-45 73 -115 113t-153 40q-147 0 -228.5 -90.5t-81.5 -257.5q0 -181 91 -276.5t259 -95.5q80 0 158.5 7t153.5 19l24 -186q-87 -18 -179 -24t-181 -6z M549 1248l170 380h212l-190 -380h-192z" glyph-name="cacute" unicode="ć"/><glyph d="M758 -20q-662 0 -662 732q0 347 167 537.5t471 190.5q147 0 256 -46.5t159 -132.5l-148 -147q-45 68 -114.5 105t-150.5 37q-193 0 -309.5 -139t-116.5 -395q0 -558 482 -558q145 0 286 60l46 -176q-174 -68 -366 -68zM364 1580l260 260h172l260 -260h-222l-177 205h106 l-177 -205h-222z" glyph-name="Ccircumflex" unicode="Ĉ"/><glyph d="M682 -20q-261 0 -403.5 142.5t-142.5 409.5q0 260 139.5 404t398.5 144q155 0 265.5 -57.5t157.5 -162.5l-163 -123q-45 73 -115 113t-153 40q-147 0 -228.5 -90.5t-81.5 -257.5q0 -181 91 -276.5t259 -95.5q80 0 158.5 7t153.5 19l24 -186q-87 -18 -179 -24t-181 -6z M324 1248l240 380h172l240 -380h-212l-124 246h20l-124 -246h-212z" glyph-name="ccircumflex" unicode="ĉ"/><glyph d="M758 -20q-662 0 -662 732q0 347 167 537.5t471 190.5q147 0 256 -46.5t159 -132.5l-148 -147q-45 68 -114.5 105t-150.5 37q-193 0 -309.5 -139t-116.5 -395q0 -558 482 -558q145 0 286 60l46 -176q-174 -68 -366 -68zM705 1580q-55 0 -94.5 39.5t-39.5 94.5 q0 56 39.5 95t94.5 39q56 0 95 -39t39 -95q0 -55 -39 -94.5t-95 -39.5z" glyph-name="Cdotaccent" unicode="Ċ"/><glyph d="M682 -20q-261 0 -403.5 142.5t-142.5 409.5q0 260 139.5 404t398.5 144q155 0 265.5 -57.5t157.5 -162.5l-163 -123q-45 73 -115 113t-153 40q-147 0 -228.5 -90.5t-81.5 -257.5q0 -181 91 -276.5t259 -95.5q80 0 158.5 7t153.5 19l24 -186q-87 -18 -179 -24t-181 -6z M648 1238q-55 0 -94.5 39.5t-39.5 94.5q0 56 39.5 95t94.5 39q56 0 95 -39t39 -95q0 -55 -39 -94.5t-95 -39.5z" glyph-name="cdotaccent" unicode="ċ"/><glyph d="M758 -20q-662 0 -662 732q0 347 167 537.5t471 190.5q147 0 256 -46.5t159 -132.5l-148 -147q-45 68 -114.5 105t-150.5 37q-193 0 -309.5 -139t-116.5 -395q0 -558 482 -558q145 0 286 60l46 -176q-174 -68 -366 -68zM619 1580l-260 260h222l134 -156h-20l134 156h222 l-260 -260h-172z" glyph-name="Ccaron" unicode="Č"/><glyph d="M682 -20q-261 0 -403.5 142.5t-142.5 409.5q0 260 139.5 404t398.5 144q155 0 265.5 -57.5t157.5 -162.5l-163 -123q-45 73 -115 113t-153 40q-147 0 -228.5 -90.5t-81.5 -257.5q0 -181 91 -276.5t259 -95.5q80 0 158.5 7t153.5 19l24 -186q-87 -18 -179 -24t-181 -6z M564 1210l-240 380h212l124 -246h-20l124 246h212l-240 -380h-172z" glyph-name="ccaron" unicode="č"/><glyph d="M346 0v190h158q219 0 329.5 125t110.5 375q0 271 -110.5 405.5t-329.5 134.5h-154l-24 190h178q650 0 650 -730q0 -690 -650 -690h-158zM160 0v1420h200v-1420h-200zM464 1580l-260 260h222l134 -156h-20l134 156h222l-260 -260h-172z" glyph-name="Dcaron" unicode="Ď"/><glyph d="M1122 1188l50 380h212l-90 -380h-172zM518 -20q-201 0 -311.5 139.5t-110.5 400.5q0 267 111 413.5t313 146.5q128 0 197.5 -52.5t82.5 -159.5h82l-62 -272q0 304 -270 304q-117 0 -180.5 -99t-63.5 -281q0 -360 246 -360q268 0 268 180v116l72 -292h-92 q-10 -91 -86 -137.5t-196 -46.5zM842 -10l-22 208v1302h212v-1500z" glyph-name="dcaron" unicode="ď"/><glyph d="M42 612v190h639v-190h-639zM346 0v190h158q219 0 329.5 125t110.5 375q0 271 -110.5 405.5t-329.5 134.5h-154l-24 190h178q650 0 650 -730q0 -690 -650 -690h-158zM160 0v1420h200v-1420h-200z" glyph-name="Dcroat" unicode="Đ"/><glyph d="M462 1218v174h676v-174h-676zM518 -20q-201 0 -311.5 139.5t-110.5 400.5q0 267 111 413.5t313 146.5q128 0 197.5 -52.5t82.5 -159.5h82l-62 -272q0 304 -270 304q-117 0 -180.5 -99t-63.5 -281q0 -360 246 -360q268 0 268 180v116l72 -292h-92q-10 -91 -86 -137.5 t-196 -46.5zM842 -10l-22 208v1302h212v-1500z" glyph-name="dcroat" unicode="đ"/><glyph d="M160 0v1420h200v-1420h-200zM160 0v190h940v-190h-940zM160 616v190h760v-190h-760zM160 1230v190h940v-190h-940zM243 1580v188h774v-188h-774z" glyph-name="Emacron" unicode="Ē"/><glyph d="M702 -20q-271 0 -418.5 142.5t-147.5 409.5q0 260 125 404t353 144q215 0 332.5 -130t117.5 -378q0 -73 -6 -136h-744v162h558q0 143 -68 219.5t-188 76.5q-135 0 -209.5 -92t-74.5 -260q0 -184 102.5 -280t291.5 -96q66 0 130 7.5t130 20.5l26 -186q-94 -18 -172 -23 t-138 -5zM180 1248v188h860v-188h-860z" glyph-name="emacron" unicode="ē"/><glyph d="M160 0v1420h200v-1420h-200zM160 0v190h940v-190h-940zM160 616v190h760v-190h-760zM160 1230v190h940v-190h-940zM630 1570q-178 0 -276 76t-98 214h175q0 -73 52.5 -113.5t146.5 -40.5q95 0 147 40.5t52 113.5h175q0 -138 -98 -214t-276 -76z" glyph-name="Ebreve" unicode="Ĕ"/><glyph d="M702 -20q-271 0 -418.5 142.5t-147.5 409.5q0 260 125 404t353 144q215 0 332.5 -130t117.5 -378q0 -73 -6 -136h-744v162h558q0 143 -68 219.5t-188 76.5q-135 0 -209.5 -92t-74.5 -260q0 -184 102.5 -280t291.5 -96q66 0 130 7.5t130 20.5l26 -186q-94 -18 -172 -23 t-138 -5zM610 1238q-166 0 -257.5 84t-91.5 238v43h175v-43q0 -89 45 -137.5t129 -48.5t129 48.5t45 137.5v43h175v-43q0 -154 -91 -238t-258 -84z" glyph-name="ebreve" unicode="ĕ"/><glyph d="M160 0v1420h200v-1420h-200zM160 0v190h940v-190h-940zM160 616v190h760v-190h-760zM160 1230v190h940v-190h-940zM630 1580q-55 0 -94.5 39.5t-39.5 94.5q0 56 39.5 95t94.5 39q56 0 95 -39t39 -95q0 -55 -39 -94.5t-95 -39.5z" glyph-name="Edotaccent" unicode="Ė"/><glyph d="M702 -20q-271 0 -418.5 142.5t-147.5 409.5q0 260 125 404t353 144q215 0 332.5 -130t117.5 -378q0 -73 -6 -136h-744v162h558q0 143 -68 219.5t-188 76.5q-135 0 -209.5 -92t-74.5 -260q0 -184 102.5 -280t291.5 -96q66 0 130 7.5t130 20.5l26 -186q-94 -18 -172 -23 t-138 -5zM608 1238q-55 0 -94.5 39.5t-39.5 94.5q0 56 39.5 95t94.5 39q56 0 95 -39t39 -95q0 -55 -39 -94.5t-95 -39.5z" glyph-name="edotaccent" unicode="ė"/><glyph d="M966 -424q-115 0 -177.5 55.5t-62.5 156.5q0 74 29.5 124t84.5 68v50l240 2l20 -32q-106 0 -165 -44t-59 -124q0 -42 30.5 -65t85.5 -23q35 0 82 11l-18 -170q-23 -4 -46.5 -6.5t-43.5 -2.5zM160 0v1420h200v-1420h-200zM160 0v190h940v-190h-940zM160 616v190h760v-190 h-760zM160 1230v190h940v-190h-940z" glyph-name="Eogonek" unicode="Ę"/><glyph d="M878 -424q-115 0 -177.5 50.5t-62.5 141.5q0 74 30 124t84 68v70l240 10l20 -32q-51 -12 -102.5 -31.5t-86.5 -54t-35 -90.5q0 -26 23 -57t93 -31q17 0 37 2.5t45 8.5l-18 -170q-25 -4 -47.5 -6.5t-42.5 -2.5zM702 -20q-271 0 -418.5 142.5t-147.5 409.5q0 260 125 404 t353 144q215 0 332.5 -130t117.5 -378q0 -73 -6 -136h-744v162h558q0 143 -68 219.5t-188 76.5q-135 0 -209.5 -92t-74.5 -260q0 -184 102.5 -280t291.5 -96q66 0 130 7.5t130 20.5l26 -186q-94 -18 -172 -23t-138 -5z" glyph-name="eogonek" unicode="ę"/><glyph d="M160 0v1420h200v-1420h-200zM160 0v190h940v-190h-940zM160 616v190h760v-190h-760zM160 1230v190h940v-190h-940zM544 1580l-260 260h222l134 -156h-20l134 156h222l-260 -260h-172z" glyph-name="Ecaron" unicode="Ě"/><glyph d="M702 -20q-271 0 -418.5 142.5t-147.5 409.5q0 260 125 404t353 144q215 0 332.5 -130t117.5 -378q0 -73 -6 -136h-744v162h558q0 143 -68 219.5t-188 76.5q-135 0 -209.5 -92t-74.5 -260q0 -184 102.5 -280t291.5 -96q66 0 130 7.5t130 20.5l26 -186q-94 -18 -172 -23 t-138 -5zM524 1210l-240 380h212l124 -246h-20l124 246h212l-240 -380h-172z" glyph-name="ecaron" unicode="ě"/><glyph d="M732 -20q-318 0 -477 183t-159 549q0 347 165 537.5t463 190.5q149 0 261 -46.5t165 -131.5l-149 -148q-46 68 -115.5 105t-149.5 37q-202 0 -314 -139.5t-112 -394.5q0 -279 112 -418.5t334 -139.5q95 0 167.5 18.5t118.5 31.5l78 -174q-42 -13 -147.5 -36.5 t-240.5 -23.5zM930 40v670h190v-670h-190zM640 520v190h474v-190h-474zM354 1580l260 260h172l260 -260h-222l-177 205h106l-177 -205h-222z" glyph-name="Gcircumflex" unicode="Ĝ"/><glyph d="M518 -20q-201 0 -311.5 139.5t-110.5 400.5q0 267 111 413.5t313 146.5q128 0 197.5 -52.5t82.5 -159.5h82l-62 -232q0 133 -60 198.5t-180 65.5q-131 0 -202.5 -99t-71.5 -281q0 -178 70 -269t206 -91q120 0 179 45t59 135v116l72 -292h-92q-10 -91 -86 -137.5 t-196 -46.5zM182 -478l-10 194l340 10q161 5 233.5 89t72.5 247v242h214v-210q0 -283 -129 -418t-411 -144zM820 260v576l20 224h192v-800h-212zM254 1248l240 380h172l240 -380h-212l-124 246h20l-124 -246h-212z" glyph-name="gcircumflex" unicode="ĝ"/><glyph d="M732 -20q-318 0 -477 183t-159 549q0 347 165 537.5t463 190.5q149 0 261 -46.5t165 -131.5l-149 -148q-46 68 -115.5 105t-149.5 37q-202 0 -314 -139.5t-112 -394.5q0 -279 112 -418.5t334 -139.5q95 0 167.5 18.5t118.5 31.5l78 -174q-42 -13 -147.5 -36.5 t-240.5 -23.5zM930 40v670h190v-670h-190zM640 520v190h474v-190h-474zM695 1570q-178 0 -276 76t-98 214h175q0 -73 52.5 -113.5t146.5 -40.5q95 0 147 40.5t52 113.5h175q0 -138 -98 -214t-276 -76z" glyph-name="Gbreve" unicode="Ğ"/><glyph d="M518 -20q-201 0 -311.5 139.5t-110.5 400.5q0 267 111 413.5t313 146.5q128 0 197.5 -52.5t82.5 -159.5h82l-62 -232q0 133 -60 198.5t-180 65.5q-131 0 -202.5 -99t-71.5 -281q0 -178 70 -269t206 -91q120 0 179 45t59 135v116l72 -292h-92q-10 -91 -86 -137.5 t-196 -46.5zM182 -478l-10 194l340 10q161 5 233.5 89t72.5 247v242h214v-210q0 -283 -129 -418t-411 -144zM820 260v576l20 224h192v-800h-212zM580 1238q-166 0 -257.5 84t-91.5 238v43h175v-43q0 -89 45 -137.5t129 -48.5t129 48.5t45 137.5v43h175v-43q0 -154 -91 -238 t-258 -84z" glyph-name="gbreve" unicode="ğ"/><glyph d="M732 -20q-318 0 -477 183t-159 549q0 347 165 537.5t463 190.5q149 0 261 -46.5t165 -131.5l-149 -148q-46 68 -115.5 105t-149.5 37q-202 0 -314 -139.5t-112 -394.5q0 -279 112 -418.5t334 -139.5q95 0 167.5 18.5t118.5 31.5l78 -174q-42 -13 -147.5 -36.5 t-240.5 -23.5zM930 40v670h190v-670h-190zM640 520v190h474v-190h-474zM695 1580q-55 0 -94.5 39.5t-39.5 94.5q0 56 39.5 95t94.5 39q56 0 95 -39t39 -95q0 -55 -39 -94.5t-95 -39.5z" glyph-name="Gdotaccent" unicode="Ġ"/><glyph d="M518 -20q-201 0 -311.5 139.5t-110.5 400.5q0 267 111 413.5t313 146.5q128 0 197.5 -52.5t82.5 -159.5h82l-62 -232q0 133 -60 198.5t-180 65.5q-131 0 -202.5 -99t-71.5 -281q0 -178 70 -269t206 -91q120 0 179 45t59 135v116l72 -292h-92q-10 -91 -86 -137.5 t-196 -46.5zM182 -478l-10 194l340 10q161 5 233.5 89t72.5 247v242h214v-210q0 -283 -129 -418t-411 -144zM820 260v576l20 224h192v-800h-212zM578 1238q-55 0 -94.5 39.5t-39.5 94.5q0 56 39.5 95t94.5 39q56 0 95 -39t39 -95q0 -55 -39 -94.5t-95 -39.5z" glyph-name="gdotaccent" unicode="ġ"/><glyph d="M732 -20q-318 0 -477 183t-159 549q0 347 165 537.5t463 190.5q149 0 261 -46.5t165 -131.5l-149 -148q-46 68 -115.5 105t-149.5 37q-202 0 -314 -139.5t-112 -394.5q0 -279 112 -418.5t334 -139.5q95 0 167.5 18.5t118.5 31.5l78 -174q-42 -13 -147.5 -36.5 t-240.5 -23.5zM930 40v670h190v-670h-190zM640 520v190h474v-190h-474zM530 -480l77 340h222l-117 -340h-182z" glyph-name="uni0122" unicode="Ģ"/><glyph d="M518 -20q-201 0 -311.5 139.5t-110.5 400.5q0 267 111 413.5t313 146.5q128 0 197.5 -52.5t82.5 -159.5h82l-62 -232q0 133 -60 198.5t-180 65.5q-131 0 -202.5 -99t-71.5 -281q0 -178 70 -269t206 -91q120 0 179 45t59 135v116l72 -292h-92q-10 -91 -86 -137.5 t-196 -46.5zM182 -478l-10 194l340 10q161 5 233.5 89t72.5 247v242h214v-210q0 -283 -129 -418t-411 -144zM820 260v576l20 224h192v-800h-212zM482 1208l90 380h172l-50 -380h-212z" glyph-name="uni0123" unicode="ģ"/><glyph d="M860 0v1420h200v-1420h-200zM140 0v1420h200v-1420h-200zM182 612v190h841v-190h-841zM259 1580l260 260h172l260 -260h-222l-177 205h106l-177 -205h-222z" glyph-name="Hcircumflex" unicode="Ĥ"/><glyph d="M820 0v690q0 101 -50 155.5t-140 54.5q-250 0 -250 -304l-62 272h82q9 107 78 159.5t202 52.5q168 0 260 -102t92 -288v-690h-212zM168 0v1500h212v-1500h-212zM-67 1660l260 260h172l260 -260h-222l-177 205h106l-177 -205h-222z" glyph-name="hcircumflex" unicode="ĥ"/><glyph d="M62 1002v190h1076v-190h-1076zM860 0v1420h200v-1420h-200zM140 0v1420h200v-1420h-200zM182 612v190h841v-190h-841z" glyph-name="Hbar" unicode="Ħ"/><glyph d="M62 1218v174h676v-174h-676zM820 0v690q0 101 -50 155.5t-140 54.5q-250 0 -250 -304l-62 272h82q9 107 78 159.5t202 52.5q168 0 260 -102t92 -288v-690h-212zM168 0v1500h212v-1500h-212z" glyph-name="hbar" unicode="ħ"/><glyph d="M499 0v1420h200v-1420h-200zM168 0v190h864v-190h-864zM168 1230v190h864v-190h-864zM225 1566v50q0 125 52.5 187.5t157.5 62.5q41 0 85.5 -12.5t102.5 -36.5q59 -24 90 -37.5t56 -13.5q54 0 54 64v60h172v-50q0 -120 -47 -180t-141 -60q-34 0 -81 14t-112 41 q-43 18 -79 31.5t-62 13.5q-74 0 -74 -74v-60h-174z" glyph-name="Itilde" unicode="Ĩ"/><glyph d="M564 0v1060h212v-1060h-212zM160 0v174h424v-174h-424zM756 0v174h346v-174h-346zM220 886v174h556v-174h-556zM300 1256v40q0 250 210 250q40 0 75 -12.5t73 -31.5q50 -25 85.5 -40.5t60.5 -15.5q54 0 54 64v90h172v-80q0 -120 -47 -180t-141 -60q-28 0 -69 12t-94 38 q-33 17 -66 33.5t-65 16.5q-37 0 -55.5 -18t-18.5 -56v-50h-174z" glyph-name="itilde" unicode="ĩ"/><glyph d="M499 0v1420h200v-1420h-200zM168 0v190h864v-190h-864zM168 1230v190h864v-190h-864zM213 1580v188h774v-188h-774z" glyph-name="Imacron" unicode="Ī"/><glyph d="M564 0v1060h212v-1060h-212zM160 0v174h424v-174h-424zM756 0v174h346v-174h-346zM220 886v174h556v-174h-556zM220 1248v188h860v-188h-860z" glyph-name="imacron" unicode="ī"/><glyph d="M499 0v1420h200v-1420h-200zM168 0v190h864v-190h-864zM168 1230v190h864v-190h-864zM600 1570q-178 0 -276 76t-98 214h175q0 -73 52.5 -113.5t146.5 -40.5q95 0 147 40.5t52 113.5h175q0 -138 -98 -214t-276 -76z" glyph-name="Ibreve" unicode="Ĭ"/><glyph d="M564 0v1060h212v-1060h-212zM160 0v174h424v-174h-424zM756 0v174h346v-174h-346zM220 886v174h556v-174h-556zM650 1238q-166 0 -257.5 84t-91.5 238v43h175v-43q0 -89 45 -137.5t129 -48.5t129 48.5t45 137.5v43h175v-43q0 -154 -91 -238t-258 -84z" glyph-name="ibreve" unicode="ĭ"/><glyph d="M636 -424q-115 0 -177.5 55.5t-62.5 156.5q0 74 29.5 124t84.5 68v50l260 2v-32q-106 0 -165 -44t-59 -124q0 -42 30.5 -65t85.5 -23q35 0 82 11l-18 -170q-23 -4 -46.5 -6.5t-43.5 -2.5zM499 0v1420h200v-1420h-200zM168 0v190h864v-190h-864zM168 1230v190h864v-190 h-864z" glyph-name="Iogonek" unicode="Į"/><glyph d="M670 -424q-115 0 -177.5 55.5t-62.5 156.5q0 74 29.5 124t84.5 68v50l240 2l20 -32q-106 0 -165 -44t-59 -124q0 -42 30.5 -65t85.5 -23q35 0 82 11l-18 -170q-23 -4 -46.5 -6.5t-43.5 -2.5zM564 0v1000h212v-1000h-212zM160 0v174h424v-174h-424zM756 0v174h346v-174 h-346zM220 884v176h556v-176h-556zM658 1228q-61 0 -104.5 43.5t-43.5 104.5q0 62 43.5 105t104.5 43q62 0 105 -43t43 -105q0 -61 -43 -104.5t-105 -43.5z" glyph-name="iogonek" unicode="į"/><glyph d="M499 0v1420h200v-1420h-200zM168 0v190h864v-190h-864zM168 1230v190h864v-190h-864zM600 1580q-55 0 -94.5 39.5t-39.5 94.5q0 56 39.5 95t94.5 39q56 0 95 -39t39 -95q0 -55 -39 -94.5t-95 -39.5z" glyph-name="Idotaccent" unicode="İ"/><glyph d="M564 0v1060h212v-1060h-212zM160 0v174h424v-174h-424zM756 0v174h346v-174h-346zM220 886v174h556v-174h-556z" glyph-name="dotlessi" unicode="ı"/><glyph d="M624 0q-205 0 -306.5 94t-101.5 282h200q0 -98 53.5 -147t159.5 -49q122 0 182.5 68.5t60.5 207.5v964h200v-964q0 -229 -111.5 -342.5t-336.5 -113.5zM45 517v190h544v-190h-544zM221 517v903h190v-903h-190zM45 1230v190h524v-190h-524zM680 1230v190h286v-190h-286z" glyph-name="IJ" unicode="Ĳ"/><glyph d="M252 -480l-10 188l200 18q161 14 233.5 93.5t72.5 242.5v322h212v-290q0 -283 -128 -412.5t-410 -149.5zM244 0v1060h212v-1060h-212zM748 350v710h212v-710h-212zM348 1228q-61 0 -104.5 43.5t-43.5 104.5q0 62 43.5 105t104.5 43q62 0 105 -43t43 -105 q0 -61 -43 -104.5t-105 -43.5zM852 1228q-61 0 -104.5 43.5t-43.5 104.5q0 62 43.5 105t104.5 43q62 0 105 -43t43 -105q0 -61 -43 -104.5t-105 -43.5z" glyph-name="ij" unicode="ĳ"/><glyph d="M584 -20q-234 0 -361 130.5t-127 365.5h200q0 -150 76.5 -233t216.5 -83q136 0 209.5 82.5t73.5 233.5v944h200v-944q0 -236 -129 -366t-359 -130zM500 1230v190h466v-190h-466zM449 1580l260 260h172l260 -260h-222l-177 205h106l-177 -205h-222z" glyph-name="Jcircumflex" unicode="Ĵ"/><glyph d="M180 -480l-10 188l200 18q161 14 233.5 93.5t72.5 242.5v322h212v-290q0 -283 -128 -412.5t-410 -149.5zM264 886v174h428v-174h-428zM676 350v710h212v-710h-212zM456 1248l240 380h172l240 -380h-212l-124 246h20l-124 -246h-212z" glyph-name="jcircumflex" unicode="ĵ"/><glyph d="M286 452l18 198q154 0 266 64.5t184.5 174t108 247t35.5 284.5h206q0 -189 -55 -363t-160 -310.5t-257 -215.5t-346 -79zM160 0v1420h200v-1420h-200zM930 0l-360 692l180 102l422 -794h-242zM435 -480l77 340h222l-117 -340h-182z" glyph-name="uni0136" unicode="Ķ"/><glyph d="M310 402v190h120q132 0 217 45.5t133.5 148.5t71.5 274h220q-42 -331 -188.5 -494.5t-403.5 -163.5h-170zM160 0v1500h212v-1500h-212zM878 0l-302 516l200 82l364 -598h-262zM435 -480l77 340h222l-117 -340h-182z" glyph-name="uni0137" unicode="ķ"/><glyph d="M310 402v190h120q132 0 217 45.5t133.5 148.5t71.5 274h220q-42 -331 -188.5 -494.5t-403.5 -163.5h-170zM160 0v1060h212v-1060h-212zM878 0l-302 516l200 82l364 -598h-262z" glyph-name="kgreenlandic" unicode="ĸ"/><glyph d="M160 0v1420h200v-1420h-200zM160 0v190h940v-190h-940zM129 1580l220 250h282l-260 -250h-242z" glyph-name="Lacute" unicode="Ĺ"/><glyph d="M748 -20q-184 0 -266 100t-82 320v1100h212v-1090q0 -84 16 -137t62.5 -78t137.5 -25q83 0 212 38l24 -186q-81 -22 -155.5 -32t-160.5 -10zM88 1326v174h330v-174h-330zM375 1660l220 250h282l-260 -250h-242z" glyph-name="lacute" unicode="ĺ"/><glyph d="M160 0v1420h200v-1420h-200zM160 0v190h940v-190h-940zM435 -480l77 340h222l-117 -340h-182z" glyph-name="uni013B" unicode="Ļ"/><glyph d="M748 -20q-184 0 -266 100t-82 320v1100h212v-1090q0 -84 16 -137t62.5 -78t137.5 -25q83 0 212 38l24 -186q-81 -22 -155.5 -32t-160.5 -10zM88 1326v174h330v-174h-330zM485 -480l77 340h222l-117 -340h-182z" glyph-name="uni013C" unicode="ļ"/><glyph d="M762 1188l50 380h212l-90 -380h-172zM160 0v1420h200v-1420h-200zM160 0v190h940v-190h-940z" glyph-name="Lcaron" unicode="Ľ"/><glyph d="M762 1188l50 380h212l-90 -380h-172zM748 -20q-184 0 -266 100t-82 320v1100h212v-1090q0 -84 16 -137t62.5 -78t137.5 -25q83 0 212 38l24 -186q-81 -22 -155.5 -32t-160.5 -10zM88 1326v174h330v-174h-330z" glyph-name="lcaron" unicode="ľ"/><glyph d="M160 0v1420h200v-1420h-200zM160 0v190h940v-190h-940zM800 882q-61 0 -104.5 43.5t-43.5 104.5q0 62 43.5 105t104.5 43q62 0 105 -43t43 -105q0 -61 -43 -104.5t-105 -43.5z" glyph-name="Ldot" unicode="Ŀ"/><glyph d="M748 -20q-184 0 -266 100t-82 320v1100h212v-1090q0 -84 16 -137t62.5 -78t137.5 -25q83 0 212 38l24 -186q-81 -22 -155.5 -32t-160.5 -10zM88 1326v174h330v-174h-330zM916 862q-61 0 -104.5 43.5t-43.5 104.5q0 62 43.5 105t104.5 43q62 0 105 -43t43 -105 q0 -61 -43 -104.5t-105 -43.5z" glyph-name="ldot" unicode="ŀ"/><glyph d="M58 455v185l806 420v-185zM260 0v190h840v-190h-840zM260 0v1420h200v-1420h-200z" glyph-name="Lslash" unicode="Ł"/><glyph d="M118 455v185l806 420v-185zM748 -20q-184 0 -266 100t-82 320v1100h212v-1090q0 -84 16 -137t62.5 -78t137.5 -25q83 0 212 38l24 -186q-81 -22 -155.5 -32t-160.5 -10zM88 1326v174h330v-174h-330z" glyph-name="lslash" unicode="ł"/><glyph d="M800 0l-440 1080h-92v340h132l440 -1080h50v-340h-90zM148 0v1420h192v-1420h-192zM860 0v1420h192v-1420h-192zM469 1580l220 250h282l-260 -250h-242z" glyph-name="Nacute" unicode="Ń"/><glyph d="M820 0v690q0 96 -50 148t-140 52q-250 0 -250 -294l-62 272h82q9 107 78 159.5t202 52.5q168 0 260 -102t92 -288v-690h-212zM168 0v1060h192l20 -224v-836h-212zM489 1248l170 380h212l-190 -380h-192z" glyph-name="nacute" unicode="ń"/><glyph d="M800 0l-440 1080h-92v340h132l440 -1080h50v-340h-90zM148 0v1420h192v-1420h-192zM860 0v1420h192v-1420h-192zM415 -480l77 340h222l-117 -340h-182z" glyph-name="uni0145" unicode="Ņ"/><glyph d="M820 0v690q0 96 -50 148t-140 52q-250 0 -250 -294l-62 272h82q9 107 78 159.5t202 52.5q168 0 260 -102t92 -288v-690h-212zM168 0v1060h192l20 -224v-836h-212zM415 -480l77 340h222l-117 -340h-182z" glyph-name="uni0146" unicode="ņ"/><glyph d="M800 0l-440 1080h-92v340h132l440 -1080h50v-340h-90zM148 0v1420h192v-1420h-192zM860 0v1420h192v-1420h-192zM514 1580l-260 260h222l134 -156h-20l134 156h222l-260 -260h-172z" glyph-name="Ncaron" unicode="Ň"/><glyph d="M820 0v690q0 96 -50 148t-140 52q-250 0 -250 -294l-62 272h82q9 107 78 159.5t202 52.5q168 0 260 -102t92 -288v-690h-212zM168 0v1060h192l20 -224v-836h-212zM504 1210l-240 380h212l124 -246h-20l124 246h212l-240 -380h-172z" glyph-name="ncaron" unicode="ň"/><glyph d="M0 1248l70 380h232l-140 -380h-162zM820 0v690q0 96 -50 148t-140 52q-250 0 -250 -294l-62 272h82q9 107 78 159.5t202 52.5q168 0 260 -102t92 -288v-690h-212zM168 0v1060h192l20 -224v-836h-212z" glyph-name="napostrophe" unicode="ŉ"/><glyph d="M593 -480l-10 168l120 18q78 12 117 62t39 144v272h193v-280q0 -108 -38.5 -188t-112 -127t-178.5 -57zM800 0l-440 1080h-92v340h132l440 -1080h50v-340h-90zM148 0v1420h192v-1420h-192zM860 0v1420h192v-1420h-192z" glyph-name="Eng" unicode="Ŋ"/><glyph d="M820 389v301q0 101 -50 155.5t-140 54.5q-250 0 -250 -304l-62 272h82q9 107 78 159.5t202 52.5q168 0 260 -102t92 -288v-301h-212zM464 -480l-10 188l130 18q124 15 180 94t56 242v382h212v-350q0 -189 -49 -307.5t-152 -179t-267 -75.5zM168 0v1060h192l20 -224v-836 h-212z" glyph-name="eng" unicode="ŋ"/><glyph d="M600 -20q-524 0 -524 720q0 740 524 740t524 -740q0 -720 -524 -720zM600 164q314 0 314 536q0 556 -314 556t-314 -556q0 -536 314 -536zM213 1580v188h774v-188h-774z" glyph-name="Omacron" unicode="Ō"/><glyph d="M600 -20q-220 0 -342 144t-122 406q0 263 122 406.5t342 143.5q221 0 342.5 -143.5t121.5 -406.5q0 -262 -121.5 -406t-342.5 -144zM600 170q117 0 180.5 94t63.5 266q0 173 -63.5 266.5t-180.5 93.5t-180.5 -93.5t-63.5 -266.5q0 -172 63.5 -266t180.5 -94zM170 1248 v188h860v-188h-860z" glyph-name="omacron" unicode="ō"/><glyph d="M600 -20q-524 0 -524 720q0 740 524 740t524 -740q0 -720 -524 -720zM600 164q314 0 314 536q0 556 -314 556t-314 -556q0 -536 314 -536zM600 1570q-178 0 -276 76t-98 214h175q0 -73 52.5 -113.5t146.5 -40.5q95 0 147 40.5t52 113.5h175q0 -138 -98 -214t-276 -76z" glyph-name="Obreve" unicode="Ŏ"/><glyph d="M600 -20q-220 0 -342 144t-122 406q0 263 122 406.5t342 143.5q221 0 342.5 -143.5t121.5 -406.5q0 -262 -121.5 -406t-342.5 -144zM600 170q117 0 180.5 94t63.5 266q0 173 -63.5 266.5t-180.5 93.5t-180.5 -93.5t-63.5 -266.5q0 -172 63.5 -266t180.5 -94zM600 1238 q-166 0 -257.5 84t-91.5 238v43h175v-43q0 -89 45 -137.5t129 -48.5t129 48.5t45 137.5v43h175v-43q0 -154 -91 -238t-258 -84z" glyph-name="obreve" unicode="ŏ"/><glyph d="M600 -20q-524 0 -524 720q0 740 524 740t524 -740q0 -720 -524 -720zM600 164q314 0 314 536q0 556 -314 556t-314 -556q0 -536 314 -536zM659 1580l160 250h282l-200 -250h-242zM249 1580l160 250h282l-200 -250h-242z" glyph-name="Ohungarumlaut" unicode="Ő"/><glyph d="M600 -20q-220 0 -342 144t-122 406q0 263 122 406.5t342 143.5q221 0 342.5 -143.5t121.5 -406.5q0 -262 -121.5 -406t-342.5 -144zM600 170q117 0 180.5 94t63.5 266q0 173 -63.5 266.5t-180.5 93.5t-180.5 -93.5t-63.5 -266.5q0 -172 63.5 -266t180.5 -94zM669 1248 l150 380h222l-170 -380h-202zM289 1248l150 380h222l-170 -380h-202z" glyph-name="ohungarumlaut" unicode="ő"/><glyph d="M520 -20q-211 0 -327.5 188.5t-116.5 531.5q0 353 116.5 546.5t327.5 193.5q54 0 94 -10t86 -10h80v-1420h-80q-35 0 -79.5 -10t-100.5 -10zM650 0v180h450v-180h-450zM530 164q40 0 70 6v1064q-35 22 -80 22q-112 0 -173 -145.5t-61 -410.5q0 -256 64 -396t180 -140z M670 621v180h370v-180h-370zM640 1240v180h460v-180h-460z" glyph-name="OE" unicode="Œ"/><glyph d="M364 -20q-344 0 -344 550t344 550q304 0 304 -550t-304 -550zM364 170q144 0 144 360q0 181 -35.5 270.5t-108.5 89.5q-82 0 -122 -89.5t-40 -270.5q0 -360 162 -360zM962 -20q-193 0 -299.5 144.5t-106.5 407.5q0 261 82.5 404.5t230.5 143.5q146 0 225.5 -133 t79.5 -375q0 -34 -1.5 -70t-4.5 -66h-484v152h308q0 161 -34.5 233.5t-111.5 72.5q-75 0 -109.5 -83.5t-34.5 -268.5q0 -184 74.5 -285t209.5 -101q57 0 120 13l26 -171q-40 -8 -84.5 -13t-85.5 -5z" glyph-name="oe" unicode="œ"/><glyph d="M326 540v190h302q119 0 185.5 63t66.5 177q0 125 -66.5 192.5t-185.5 67.5h-298l-24 190h322q221 0 341.5 -112t120.5 -318q0 -214 -120.5 -332t-341.5 -118h-302zM140 0v1420h200v-1420h-200zM902 0l-318 668h220l338 -668h-240zM429 1580l220 250h282l-260 -250h-242z" glyph-name="Racute" unicode="Ŕ"/><glyph d="M528 456l-62 332h82q18 292 292 292q164 0 238 -94t74 -304h-210q0 116 -34.5 167t-111.5 51q-135 0 -201.5 -115.5t-66.5 -328.5zM80 0v174h708v-174h-708zM316 0v1060h172l40 -304v-756h-212zM120 886v174h354l20 -174h-374zM499 1248l170 380h212l-190 -380h-192z" glyph-name="racute" unicode="ŕ"/><glyph d="M326 540v190h302q119 0 185.5 63t66.5 177q0 125 -66.5 192.5t-185.5 67.5h-298l-24 190h322q221 0 341.5 -112t120.5 -318q0 -214 -120.5 -332t-341.5 -118h-302zM140 0v1420h200v-1420h-200zM902 0l-318 668h220l338 -668h-240zM425 -480l77 340h222l-117 -340h-182z" glyph-name="uni0156" unicode="Ŗ"/><glyph d="M528 456l-62 332h82q18 292 292 292q164 0 238 -94t74 -304h-210q0 116 -34.5 167t-111.5 51q-135 0 -201.5 -115.5t-66.5 -328.5zM80 0v174h708v-174h-708zM316 0v1060h172l40 -304v-756h-212zM120 886v174h354l20 -174h-374zM245 -480l77 340h222l-117 -340h-182z" glyph-name="uni0157" unicode="ŗ"/><glyph d="M326 540v190h302q119 0 185.5 63t66.5 177q0 125 -66.5 192.5t-185.5 67.5h-298l-24 190h322q221 0 341.5 -112t120.5 -318q0 -214 -120.5 -332t-341.5 -118h-302zM140 0v1420h200v-1420h-200zM902 0l-318 668h220l338 -668h-240zM474 1580l-260 260h222l134 -156h-20 l134 156h222l-260 -260h-172z" glyph-name="Rcaron" unicode="Ř"/><glyph d="M528 456l-62 332h82q18 292 292 292q164 0 238 -94t74 -304h-210q0 116 -34.5 167t-111.5 51q-135 0 -201.5 -115.5t-66.5 -328.5zM80 0v174h708v-174h-708zM316 0v1060h172l40 -304v-756h-212zM120 886v174h354l20 -174h-374zM514 1210l-240 380h212l124 -246h-20 l124 246h212l-240 -380h-172z" glyph-name="rcaron" unicode="ř"/><glyph d="M551 -20q-121 0 -226.5 19.5t-195.5 58.5l26 202q110 -47 212.5 -71.5t199.5 -24.5q140 0 208 49t68 149q0 66 -33.5 112t-96.5 74l-246 112q-145 66 -222.5 159t-77.5 231q0 186 112 288t317 102q143 0 253 -42t212 -137l-140 -142q-88 72 -164.5 104.5t-159.5 32.5 q-103 0 -159.5 -49.5t-56.5 -146.5q0 -69 37 -112.5t109 -77.5l208 -98q158 -74 240 -167t82 -239q0 -193 -125.5 -289.5t-380.5 -96.5zM489 1580l220 250h282l-260 -250h-242z" glyph-name="Sacute" unicode="Ś"/><glyph d="M518 -20q-120 0 -205.5 7t-156.5 23l24 192q105 -16 185.5 -24t152.5 -8q161 0 233.5 31.5t72.5 100.5q0 48 -25.5 71.5t-78.5 36.5l-244 62q-157 40 -230.5 99t-73.5 179q0 174 133.5 252t430.5 78q77 0 143.5 -4.5t136.5 -15.5l-22 -184q-81 8 -143 11t-121 3 q-178 0 -258 -30.5t-80 -99.5q0 -46 33 -66.5t101 -37.5l196 -48q167 -40 244.5 -107t77.5 -195q0 -171 -125 -248.5t-401 -77.5zM529 1248l170 380h212l-190 -380h-192z" glyph-name="sacute" unicode="ś"/><glyph d="M551 -20q-121 0 -226.5 19.5t-195.5 58.5l26 202q110 -47 212.5 -71.5t199.5 -24.5q140 0 208 49t68 149q0 66 -33.5 112t-96.5 74l-246 112q-145 66 -222.5 159t-77.5 231q0 186 112 288t317 102q143 0 253 -42t212 -137l-140 -142q-88 72 -164.5 104.5t-159.5 32.5 q-103 0 -159.5 -49.5t-56.5 -146.5q0 -69 37 -112.5t109 -77.5l208 -98q158 -74 240 -167t82 -239q0 -193 -125.5 -289.5t-380.5 -96.5zM279 1580l260 260h172l260 -260h-222l-177 205h106l-177 -205h-222z" glyph-name="Scircumflex" unicode="Ŝ"/><glyph d="M518 -20q-120 0 -205.5 7t-156.5 23l24 192q105 -16 185.5 -24t152.5 -8q161 0 233.5 31.5t72.5 100.5q0 48 -25.5 71.5t-78.5 36.5l-244 62q-157 40 -230.5 99t-73.5 179q0 174 133.5 252t430.5 78q77 0 143.5 -4.5t136.5 -15.5l-22 -184q-81 8 -143 11t-121 3 q-178 0 -258 -30.5t-80 -99.5q0 -46 33 -66.5t101 -37.5l196 -48q167 -40 244.5 -107t77.5 -195q0 -171 -125 -248.5t-401 -77.5zM304 1248l240 380h172l240 -380h-212l-124 246h20l-124 -246h-212z" glyph-name="scircumflex" unicode="ŝ"/><glyph d="M551 -20q-121 0 -226.5 19.5t-195.5 58.5l26 202q110 -47 212.5 -71.5t199.5 -24.5q140 0 208 49t68 149q0 66 -33.5 112t-96.5 74l-246 112q-145 66 -222.5 159t-77.5 231q0 186 112 288t317 102q143 0 253 -42t212 -137l-140 -142q-88 72 -164.5 104.5t-159.5 32.5 q-103 0 -159.5 -49.5t-56.5 -146.5q0 -69 37 -112.5t109 -77.5l208 -98q158 -74 240 -167t82 -239q0 -193 -125.5 -289.5t-380.5 -96.5zM449 -480v150q95 0 141.5 18t46.5 54q0 35 -40 51.5t-122 16.5l69 196l136 -11l-25 -95q86 -18 129 -59.5t43 -107.5q0 -106 -94 -159.5 t-284 -53.5z" glyph-name="Scedilla" unicode="Ş"/><glyph d="M518 -20q-120 0 -205.5 7t-156.5 23l24 192q105 -16 185.5 -24t152.5 -8q161 0 233.5 31.5t72.5 100.5q0 48 -25.5 71.5t-78.5 36.5l-244 62q-157 40 -230.5 99t-73.5 179q0 174 133.5 252t430.5 78q77 0 143.5 -4.5t136.5 -15.5l-22 -184q-81 8 -143 11t-121 3 q-178 0 -258 -30.5t-80 -99.5q0 -46 33 -66.5t101 -37.5l196 -48q167 -40 244.5 -107t77.5 -195q0 -171 -125 -248.5t-401 -77.5zM429 -480v150q95 0 141.5 18t46.5 54q0 35 -40 51.5t-122 16.5l69 196l136 -11l-25 -95q86 -18 129 -59.5t43 -107.5q0 -106 -94 -159.5 t-284 -53.5z" glyph-name="scedilla" unicode="ş"/><glyph d="M551 -20q-121 0 -226.5 19.5t-195.5 58.5l26 202q110 -47 212.5 -71.5t199.5 -24.5q140 0 208 49t68 149q0 66 -33.5 112t-96.5 74l-246 112q-145 66 -222.5 159t-77.5 231q0 186 112 288t317 102q143 0 253 -42t212 -137l-140 -142q-88 72 -164.5 104.5t-159.5 32.5 q-103 0 -159.5 -49.5t-56.5 -146.5q0 -69 37 -112.5t109 -77.5l208 -98q158 -74 240 -167t82 -239q0 -193 -125.5 -289.5t-380.5 -96.5zM534 1580l-260 260h222l134 -156h-20l134 156h222l-260 -260h-172z" glyph-name="Scaron" unicode="Š"/><glyph d="M518 -20q-120 0 -205.5 7t-156.5 23l24 192q105 -16 185.5 -24t152.5 -8q161 0 233.5 31.5t72.5 100.5q0 48 -25.5 71.5t-78.5 36.5l-244 62q-157 40 -230.5 99t-73.5 179q0 174 133.5 252t430.5 78q77 0 143.5 -4.5t136.5 -15.5l-22 -184q-81 8 -143 11t-121 3 q-178 0 -258 -30.5t-80 -99.5q0 -46 33 -66.5t101 -37.5l196 -48q167 -40 244.5 -107t77.5 -195q0 -171 -125 -248.5t-401 -77.5zM544 1210l-240 380h212l124 -246h-20l124 246h212l-240 -380h-172z" glyph-name="scaron" unicode="š"/><glyph d="M500 0v1420h200v-1420h-200zM80 1230v190h1040v-190h-1040zM434 -480v150q95 0 141.5 18t46.5 54q0 35 -40 51.5t-122 16.5l69 196l136 -11l-25 -95q86 -18 129 -59.5t43 -107.5q0 -106 -94 -159.5t-284 -53.5z" glyph-name="uni0162" unicode="Ţ"/><glyph d="M782 -20q-241 0 -348.5 100t-107.5 320v180h212v-170q0 -126 61.5 -183t202.5 -57q50 0 106 5.5t128 14.5l24 -186q-70 -12 -136.5 -18t-141.5 -6zM326 500v880h212v-880h-212zM60 886v174h960v-174h-960zM494 -480v150q95 0 141.5 18t46.5 54q0 35 -40 51.5t-122 16.5 l69 196l136 -11l-25 -95q86 -18 129 -59.5t43 -107.5q0 -106 -94 -159.5t-284 -53.5z" glyph-name="uni0163" unicode="ţ"/><glyph d="M500 0v1420h200v-1420h-200zM80 1230v190h1040v-190h-1040zM514 1580l-260 260h222l134 -156h-20l134 156h222l-260 -260h-172z" glyph-name="Tcaron" unicode="Ť"/><glyph d="M702 1228l50 380h212l-90 -380h-172zM782 -20q-241 0 -348.5 100t-107.5 320v180h212v-170q0 -126 61.5 -183t202.5 -57q50 0 106 5.5t128 14.5l24 -186q-70 -12 -136.5 -18t-141.5 -6zM326 500v880h212v-880h-212zM60 886v174h960v-174h-960z" glyph-name="tcaron" unicode="ť"/><glyph d="M192 587v190h816v-190h-816zM500 0v1420h200v-1420h-200zM80 1230v190h1040v-190h-1040z" glyph-name="Tbar" unicode="Ŧ"/><glyph d="M60 496v174h960v-174h-960zM782 -20q-241 0 -348.5 100t-107.5 320v180h212v-170q0 -126 61.5 -183t202.5 -57q50 0 106 5.5t128 14.5l24 -186q-70 -12 -136.5 -18t-141.5 -6zM326 500v880h212v-880h-212zM60 886v174h960v-174h-960z" glyph-name="tbar" unicode="ŧ"/><glyph d="M596 -20q-456 0 -456 476v964h200v-964q0 -142 62.5 -214t197.5 -72q260 0 260 286v964h200v-964q0 -238 -118 -357t-346 -119zM225 1566v50q0 125 52.5 187.5t157.5 62.5q41 0 85.5 -12.5t102.5 -36.5q59 -24 90 -37.5t56 -13.5q54 0 54 64v60h172v-50q0 -120 -47 -180 t-141 -60q-34 0 -81 14t-112 41q-43 18 -79 31.5t-62 13.5q-74 0 -74 -74v-60h-174z" glyph-name="Utilde" unicode="Ũ"/><glyph d="M506 -20q-167 0 -258.5 99.5t-91.5 280.5v700h212v-700q0 -91 52 -140.5t146 -49.5q116 0 175 73.5t59 246.5l54 -286h-70q-25 -108 -98 -166t-180 -58zM818 -10l-18 254v186h212v-238l146 -22v-170zM800 300v760h212v-700zM240 1256v40q0 250 210 250q40 0 75 -12.5 t73 -31.5q50 -25 85.5 -40.5t60.5 -15.5q54 0 54 64v90h172v-80q0 -120 -47 -180t-141 -60q-28 0 -69 12t-94 38q-33 17 -66 33.5t-65 16.5q-37 0 -55.5 -18t-18.5 -56v-50h-174z" glyph-name="utilde" unicode="ũ"/><glyph d="M596 -20q-456 0 -456 476v964h200v-964q0 -142 62.5 -214t197.5 -72q260 0 260 286v964h200v-964q0 -238 -118 -357t-346 -119zM213 1580v188h774v-188h-774z" glyph-name="Umacron" unicode="Ū"/><glyph d="M506 -20q-167 0 -258.5 99.5t-91.5 280.5v700h212v-700q0 -91 52 -140.5t146 -49.5q116 0 175 73.5t59 246.5l54 -286h-70q-25 -108 -98 -166t-180 -58zM818 -10l-18 254v186h212v-238l146 -22v-170zM800 300v760h212v-700zM160 1248v188h860v-188h-860z" glyph-name="umacron" unicode="ū"/><glyph d="M596 -20q-456 0 -456 476v964h200v-964q0 -142 62.5 -214t197.5 -72q260 0 260 286v964h200v-964q0 -238 -118 -357t-346 -119zM600 1570q-178 0 -276 76t-98 214h175q0 -73 52.5 -113.5t146.5 -40.5q95 0 147 40.5t52 113.5h175q0 -138 -98 -214t-276 -76z" glyph-name="Ubreve" unicode="Ŭ"/><glyph d="M506 -20q-167 0 -258.5 99.5t-91.5 280.5v700h212v-700q0 -91 52 -140.5t146 -49.5q116 0 175 73.5t59 246.5l54 -286h-70q-25 -108 -98 -166t-180 -58zM818 -10l-18 254v186h212v-238l146 -22v-170zM800 300v760h212v-700zM590 1238q-166 0 -257.5 84t-91.5 238v43h175 v-43q0 -89 45 -137.5t129 -48.5t129 48.5t45 137.5v43h175v-43q0 -154 -91 -238t-258 -84z" glyph-name="ubreve" unicode="ŭ"/><glyph d="M596 -20q-456 0 -456 476v964h200v-964q0 -142 62.5 -214t197.5 -72q260 0 260 286v964h200v-964q0 -238 -118 -357t-346 -119zM600 1488q-113 0 -175.5 54t-62.5 152t62.5 152t175.5 54t175.5 -54t62.5 -152t-62.5 -152t-175.5 -54zM600 1604q47 0 71.5 23.5t24.5 66.5 q0 44 -24.5 67.5t-71.5 23.5q-46 0 -71 -23.5t-25 -67.5q0 -43 25 -66.5t71 -23.5z" glyph-name="Uring" unicode="Ů"/><glyph d="M506 -20q-167 0 -258.5 99.5t-91.5 280.5v700h212v-700q0 -91 52 -140.5t146 -49.5q116 0 175 73.5t59 246.5l54 -286h-70q-25 -108 -98 -166t-180 -58zM818 -10l-18 254v186h212v-238l146 -22v-170zM800 300v760h212v-700zM590 1198q-113 0 -175.5 56.5t-62.5 159.5 t62.5 159.5t175.5 56.5t175.5 -56.5t62.5 -159.5t-62.5 -159.5t-175.5 -56.5zM590 1314q96 0 96 100t-96 100t-96 -100t96 -100z" glyph-name="uring" unicode="ů"/><glyph d="M596 -20q-456 0 -456 476v964h200v-964q0 -142 62.5 -214t197.5 -72q260 0 260 286v964h200v-964q0 -238 -118 -357t-346 -119zM659 1580l160 250h282l-200 -250h-242zM249 1580l160 250h282l-200 -250h-242z" glyph-name="Uhungarumlaut" unicode="Ű"/><glyph d="M506 -20q-167 0 -258.5 99.5t-91.5 280.5v700h212v-700q0 -91 52 -140.5t146 -49.5q116 0 175 73.5t59 246.5l54 -286h-70q-25 -108 -98 -166t-180 -58zM818 -10l-18 254v186h212v-238l146 -22v-170zM800 300v760h212v-700zM659 1248l150 380h222l-170 -380h-202z M279 1248l150 380h222l-170 -380h-202z" glyph-name="uhungarumlaut" unicode="ű"/><glyph d="M668 -424q-115 0 -177.5 50.5t-62.5 141.5q0 154 114 192v70l220 10l44 -27q-52 -17 -104.5 -36.5t-88 -53t-35.5 -91.5q0 -26 23 -57t93 -31q17 0 37 2.5t45 8.5l-18 -170q-25 -4 -47.5 -6.5t-42.5 -2.5zM596 -20q-456 0 -456 476v964h200v-964q0 -142 62.5 -214 t197.5 -72q260 0 260 286v964h200v-964q0 -238 -118 -357t-346 -119z" glyph-name="Uogonek" unicode="Ų"/><glyph d="M1020 -424q-115 0 -177.5 55.5t-62.5 156.5q0 68 29.5 114.5t84.5 62.5v65l240 2l20 -32q-106 0 -165 -44t-59 -124q0 -42 30.5 -65t85.5 -23q35 0 82 11l-18 -170q-23 -4 -46.5 -6.5t-43.5 -2.5zM506 -20q-167 0 -258.5 99.5t-91.5 280.5v700h212v-700q0 -91 52 -140.5 t146 -49.5q116 0 175 73.5t59 246.5l54 -286h-70q-25 -108 -98 -166t-180 -58zM818 -10l-18 254v186h212v-238l146 -22v-170zM800 300v760h212v-700z" glyph-name="uogonek" unicode="ų"/><glyph d="M180 0l-160 1420h210l120 -1260h20l131 900h200l-67 -198h-40l-105 -862h-309zM711 0l-105 862h-40l-65 198h200l129 -900h20l120 1260h210l-160 -1420h-309zM259 1580l260 260h172l260 -260h-222l-177 205h106l-177 -205h-222z" glyph-name="Wcircumflex" unicode="Ŵ"/><glyph d="M720 0l-124 842h-16l-87 218h194l125 -900h18l90 900h210l-150 -1060h-260zM190 0l-120 1060h200l80 -900h18l125 900h194l-89 -218h-14l-124 -842h-270zM264 1248l240 380h172l240 -380h-212l-124 246h20l-124 -246h-212z" glyph-name="wcircumflex" unicode="ŵ"/><glyph d="M515 474l-490 946h220l346 -710h18l346 710h220l-490 -946h-170zM500 0v700h200v-700h-200zM259 1580l260 260h172l260 -260h-222l-177 205h106l-177 -205h-222z" glyph-name="Ycircumflex" unicode="Ŷ"/><glyph d="M75 -480l-10 190l166 20q105 13 179.5 57t127.5 130.5t93 226.5l264 916h220l-306 -966q-60 -190 -134.5 -306t-176 -174t-243.5 -74zM477 0l-422 1060h220l346 -900h32v-160h-176zM289 1248l240 380h172l240 -380h-212l-124 246h20l-124 -246h-212z" glyph-name="ycircumflex" unicode="ŷ"/><glyph d="M515 474l-490 946h220l346 -710h18l346 710h220l-490 -946h-170zM500 0v700h200v-700h-200zM808 1580q-55 0 -94.5 39.5t-39.5 94.5q0 56 39.5 95t94.5 39q56 0 95 -39t39 -95q0 -55 -39 -94.5t-95 -39.5zM392 1580q-55 0 -94.5 39.5t-39.5 94.5q0 56 39.5 95t94.5 39 q56 0 95 -39t39 -95q0 -55 -39 -94.5t-95 -39.5z" glyph-name="Ydieresis" unicode="Ÿ"/><glyph d="M302 68l-152 122l748 1172l152 -132zM150 0v190h920v-190h-920zM150 1230v190h900v-190h-900zM469 1580l220 250h282l-260 -250h-242z" glyph-name="Zacute" unicode="Ź"/><glyph d="M306 54l-146 122l710 826l146 -118zM160 0v176h876v-176h-876zM160 884v176h856v-176h-856zM499 1248l170 380h212l-190 -380h-192z" glyph-name="zacute" unicode="ź"/><glyph d="M302 68l-152 122l748 1172l152 -132zM150 0v190h920v-190h-920zM150 1230v190h900v-190h-900zM600 1580q-55 0 -94.5 39.5t-39.5 94.5q0 56 39.5 95t94.5 39q56 0 95 -39t39 -95q0 -55 -39 -94.5t-95 -39.5z" glyph-name="Zdotaccent" unicode="Ż"/><glyph d="M306 54l-146 122l710 826l146 -118zM160 0v176h876v-176h-876zM160 884v176h856v-176h-856zM598 1238q-55 0 -94.5 39.5t-39.5 94.5q0 56 39.5 95t94.5 39q56 0 95 -39t39 -95q0 -55 -39 -94.5t-95 -39.5z" glyph-name="zdotaccent" unicode="ż"/><glyph d="M302 68l-152 122l748 1172l152 -132zM150 0v190h920v-190h-920zM150 1230v190h900v-190h-900zM514 1580l-260 260h222l134 -156h-20l134 156h222l-260 -260h-172z" glyph-name="Zcaron" unicode="Ž"/><glyph d="M306 54l-146 122l710 826l146 -118zM160 0v176h876v-176h-876zM160 884v176h856v-176h-856zM514 1210l-240 380h212l124 -246h-20l124 246h212l-240 -380h-172z" glyph-name="zcaron" unicode="ž"/><glyph d="M422 0v970q0 550 472 550q120 0 230 -20l-22 -184q-66 8 -116.5 11t-97.5 3q-254 0 -254 -350v-980h-212zM68 644v176h500v-176h-500z" glyph-name="longs" unicode="ſ"/><glyph d="M476 -20q-135 0 -252.5 43t-206.5 128l144 141q59 -49 108.5 -77t101 -39.5t116.5 -11.5q194 0 302 144t108 397q0 263 -120 407t-356 144q-148 0 -289 -60l-46 176q174 68 369 68q320 0 484.5 -187t164.5 -540q0 -343 -157 -538t-471 -195z" glyph-name="uni0186" unicode="Ɔ"/><glyph d="M1040 0h-200v1420h200v-1420zM1040 0h-940v190h940v-190zM1040 616h-760v190h760v-190zM1040 1230h-940v190h940v-190z" glyph-name="uni018E" unicode="Ǝ"/><glyph d="M600 -20q-524 0 -524 700q0 31 1 60.5t3 57.5l209 -16q-3 -49 -3 -102q0 -516 314 -516t314 536q0 556 -414 556q-163 0 -304 -39l-28 177q156 46 332 46q624 0 624 -740q0 -720 -524 -720zM80 608v190h941v-190h-941z" glyph-name="uni018F" unicode="Ə"/><glyph d="M690 1440q163 0 273 -46.5t162 -132.5l-148 -147q-44 70 -118 106t-168 36q-162 0 -232.5 -57t-70.5 -141q0 -106 104 -158t346 -60l-22 -188h-150q-148 0 -239 -61.5t-91 -175.5q0 -118 88.5 -184.5t244.5 -66.5q82 0 141 5t115.5 17.5t128.5 35.5l46 -174 q-64 -26 -124 -41t-131.5 -21t-170.5 -6q-168 0 -290.5 51t-189 144.5t-66.5 218.5q0 117 59 197t154.5 121.5t204.5 43.5l-17 -54v117l17 -56q-193 27 -277.5 115t-84.5 215q0 155 119 251t387 96z" glyph-name="uni0190" unicode="Ɛ"/><glyph d="M412 360v530q0 550 502 550q114 0 220 -20l-22 -184q-63 8 -111 11t-93 3q-284 0 -284 -350v-540h-212zM88 -477l-10 188l108 15q118 17 172 95t54 241v322h212v-290q0 -189 -48 -306t-149 -177t-261 -79zM78 564v174h980v-174h-980z" glyph-name="florin" unicode="ƒ"/><glyph d="M600 -462v190q57 0 86.5 29t29.5 81q0 39 -31.5 87.5t-118.5 140.5l145 45q124 -88 169.5 -164.5t45.5 -152.5q0 -123 -85.5 -189.5t-240.5 -66.5zM600 -462q-154 0 -240 66.5t-86 189.5q0 76 45.5 152.5t169.5 164.5l145 -45q-87 -92 -118.5 -140.5t-31.5 -87.5 q0 -52 29.5 -81t86.5 -29v-190zM445 0l-400 1420h214l332 -1250h18l332 1250h214l-400 -1420l-156 56z" glyph-name="uni0194" unicode="Ɣ"/><glyph d="M748 -20q-184 0 -266 100t-82 320v1100h212v-1090q0 -84 16 -137t62.5 -78t137.5 -25q83 0 212 38l24 -186q-81 -22 -155.5 -32t-160.5 -10zM88 1326v174h330v-174h-330z" glyph-name="uni0196" unicode="Ɩ"/><glyph d="M88 647v190h836v-190h-836zM748 -20q-184 0 -266 100t-82 320v1100h212v-1090q0 -84 16 -137t62.5 -78t137.5 -25q83 0 212 38l24 -186q-81 -22 -155.5 -32t-160.5 -10zM88 1326v174h330v-174h-330z" glyph-name="uni019A" unicode="ƚ"/><glyph d="M138 897l-40 175l866 280l40 -175zM1068 -20q-130 0 -210 58.5t-124 212.5l-255 889q-27 95 -67.5 132.5t-98.5 37.5q-27 0 -62 -8l-24 186q51 12 106 12q128 0 206 -56t120 -204l258 -900q27 -95 68.5 -132.5t102.5 -37.5q27 0 62 8l24 -186q-51 -12 -106 -12zM67 0 l459 1108l136 -191l-135 -41q16 -66 13.5 -127t-22.5 -118l-224 -631h-227z" glyph-name="uni019B" unicode="ƛ"/><glyph d="M-118 -480l-10 168l120 18q78 9 117 60.5t39 145.5v272h193v-280q0 -110 -38.5 -190.5t-112 -127t-178.5 -54.5zM800 0l-440 1080h-92v340h132l440 -1080h50v-340h-90zM148 0v1420h192v-1420h-192zM860 0v1420h192v-1420h-192z" glyph-name="uni019D" unicode="Ɲ"/><glyph d="M600 -20q-524 0 -524 720q0 740 524 740t524 -740q0 -720 -524 -720zM600 164q314 0 314 536q0 556 -314 556t-314 -556q0 -536 314 -536zM841 1205l-50 165l60 10q103 17 154 85.5t51 187.5h192q0 -190 -86.5 -299.5t-260.5 -138.5z" glyph-name="Ohorn" unicode="Ơ"/><glyph d="M600 -20q-220 0 -342 144t-122 406q0 263 122 406.5t342 143.5q221 0 342.5 -143.5t121.5 -406.5q0 -262 -121.5 -406t-342.5 -144zM600 170q117 0 180.5 94t63.5 266q0 173 -63.5 266.5t-180.5 93.5t-180.5 -93.5t-63.5 -266.5q0 -172 63.5 -266t180.5 -94zM778 895 l-50 165l60 10q94 16 140.5 85t46.5 188h210q0 -190 -86.5 -299.5t-260.5 -138.5z" glyph-name="ohorn" unicode="ơ"/><glyph d="M296 54l-146 122l441 537l-441 517l162 132l535 -649zM150 0v176h920v-176h-920zM150 1230v190h900v-190h-900z" glyph-name="uni01A9" unicode="Ʃ"/><glyph d="M911 1255l-51 165l61 10q93 15 139 70.5t46 152.5h192q0 -169 -81.5 -265t-245.5 -123zM596 -20q-456 0 -456 476v964h200v-964q0 -142 62.5 -214t197.5 -72q260 0 260 286v964h200v-964q0 -238 -118 -357t-346 -119z" glyph-name="Uhorn" unicode="Ư"/><glyph d="M851 895l-50 165l40 10q93 23 135 88t42 185h220q0 -184 -82.5 -288t-264.5 -150zM506 -20q-167 0 -258.5 99.5t-91.5 280.5v700h212v-700q0 -91 52 -140.5t146 -49.5q116 0 175 73.5t59 246.5l54 -286h-70q-25 -108 -98 -166t-180 -58zM818 -10l-18 254v186h212v-238 l146 -22v-170zM800 300v760h212v-700z" glyph-name="uhorn" unicode="ư"/><glyph d="M350 1293l180 -59q-122 -46 -183 -194.5t-61 -399.5q0 -227 82 -351.5t232 -124.5t232 124.5t82 351.5q0 256 -55 404.5t-165 189.5l180 51v-71q84 -26 139.5 -99t83 -191.5t27.5 -283.5q0 -210 -61.5 -357.5t-178.5 -225t-284 -77.5q-166 0 -283.5 77.5t-179 225 t-61.5 357.5q0 163 30.5 281t91.5 192t152 104v76zM104 1420h426v-186h-426v186zM694 1420h402v-186h-402v186z" glyph-name="uni01B1" unicode="Ʊ"/><glyph d="M628 1420h128q168 0 236 -67t68 -233v-664q0 -238 -118 -357t-346 -119q-456 0 -456 476v964h200v-964q0 -142 62.5 -214t197.5 -72q260 0 260 286v614q0 95 -32 133.5t-112 38.5h-88v178z" glyph-name="uni01B2" unicode="Ʋ"/><glyph d="M546 -20q-296 0 -482 171l144 141q59 -46 110.5 -74t106.5 -41t126 -13q147 0 230 64t83 177q0 128 -104.5 197.5t-295.5 69.5h-135l-20 124l522 499l-1 -61h-677v186h853v-201l-462 -436v43q252 -4 390 -113t138 -304q0 -130 -64 -226.5t-182 -149.5t-280 -53z" glyph-name="uni01B7" unicode="Ʒ"/><glyph d="M45 0l410 1420h290l410 -1420h-210l-336 1248h-18l-336 -1248h-210zM235 346v190h720v-190h-720zM514 1580l-260 260h222l134 -156h-20l134 156h222l-260 -260h-172z" glyph-name="uni01CD" unicode="Ǎ"/><glyph d="M818 -10l-14 314l-28 88v274q0 106 -74.5 155.5t-221.5 53.5l-254 7l20 188l214 -3q263 -4 390.5 -113.5t127.5 -319.5v-442l180 -22v-170zM444 -20q-166 0 -257 80t-91 226q0 168 125.5 258t354.5 90q95 0 169.5 -11.5t132.5 -34.5l-44 -144q-67 15 -131 17.5t-131 2.5 q-276 0 -276 -158q0 -74 47.5 -115t134.5 -41q99 0 165.5 34t99.5 87t33 109v116l62 -272h-84l34 32q0 -92 -42.5 -153.5t-119.5 -92t-182 -30.5zM494 1210l-240 380h212l124 -246h-20l124 246h212l-240 -380h-172z" glyph-name="uni01CE" unicode="ǎ"/><glyph d="M586 -20q-214 0 -332 130.5t-118 377.5q0 73 6 136h744v-162h-558q0 -142 68 -219t188 -77q135 0 209.5 92t74.5 260q0 185 -102.5 280.5t-291.5 95.5q-66 0 -130 -10t-130 -28l-26 176q95 31 172.5 39.5t137.5 8.5q272 0 419 -142.5t147 -409.5q0 -259 -125 -403.5 t-353 -144.5z" glyph-name="uni01DD" unicode="ǝ"/><glyph d="M732 -20q-318 0 -477 183t-159 549q0 347 165 537.5t463 190.5q149 0 261 -46.5t165 -131.5l-149 -148q-46 68 -115.5 105t-149.5 37q-202 0 -314 -139.5t-112 -394.5q0 -279 112 -418.5t334 -139.5q88 0 155.5 18.5t110.5 31.5l78 -174q-40 -13 -140 -36.5t-228 -23.5z M910 40v670h190v-670h-190zM640 370v190h560v-190h-560z" glyph-name="uni01E4" unicode="Ǥ"/><glyph d="M1156 -85v-108h-1112v108h1112zM518 -20q-201 0 -311.5 139.5t-110.5 400.5q0 267 111 413.5t313 146.5q128 0 197.5 -52.5t82.5 -159.5h82l-62 -232q0 133 -60 198.5t-180 65.5q-131 0 -202.5 -99t-71.5 -281q0 -178 70 -269t206 -91q120 0 179 45t59 135v116l72 -292 h-92q-10 -91 -86 -137.5t-196 -46.5zM182 -478l-10 194l340 10q161 5 233.5 89t72.5 247v242h214v-210q0 -283 -129 -418t-411 -144zM820 260v576l20 224h192v-800h-212z" glyph-name="uni01E5" unicode="ǥ"/><glyph d="M732 -20q-318 0 -477 183t-159 549q0 347 165 537.5t463 190.5q149 0 261 -46.5t165 -131.5l-149 -148q-46 68 -115.5 105t-149.5 37q-202 0 -314 -139.5t-112 -394.5q0 -279 112 -418.5t334 -139.5q95 0 167.5 18.5t118.5 31.5l78 -174q-42 -13 -147.5 -36.5 t-240.5 -23.5zM930 40v670h190v-670h-190zM640 520v190h474v-190h-474zM609 1580l-260 260h222l134 -156h-20l134 156h222l-260 -260h-172z" glyph-name="Gcaron" unicode="Ǧ"/><glyph d="M518 -20q-201 0 -311.5 139.5t-110.5 400.5q0 267 111 413.5t313 146.5q128 0 197.5 -52.5t82.5 -159.5h82l-62 -232q0 133 -60 198.5t-180 65.5q-131 0 -202.5 -99t-71.5 -281q0 -178 70 -269t206 -91q120 0 179 45t59 135v116l72 -292h-92q-10 -91 -86 -137.5 t-196 -46.5zM182 -478l-10 194l340 10q161 5 233.5 89t72.5 247v242h214v-210q0 -283 -129 -418t-411 -144zM820 260v576l20 224h192v-800h-212zM494 1210l-240 380h212l124 -246h-20l124 246h212l-240 -380h-172z" glyph-name="gcaron" unicode="ǧ"/><glyph d="M658 -424q-115 0 -177.5 50.5t-62.5 141.5q0 154 114 192v70l210 10l44 -32q-49 -17 -99.5 -36t-84.5 -51.5t-34 -88.5q0 -26 23 -57t93 -31q37 0 82 11l-18 -170q-25 -4 -47.5 -6.5t-42.5 -2.5zM600 -20q-524 0 -524 720q0 740 524 740t524 -740q0 -720 -524 -720z M600 164q314 0 314 536q0 556 -314 556t-314 -556q0 -536 314 -536z" glyph-name="uni01EA" unicode="Ǫ"/><glyph d="M669 -424q-115 0 -177.5 50.5t-62.5 141.5q0 74 30 124t84 68v70l220 6l19 -25q-41 -16 -88.5 -35.5t-81 -52.5t-33.5 -91q0 -26 23 -57t93 -31q17 0 37 2.5t45 8.5l-18 -170q-25 -4 -47.5 -6.5t-42.5 -2.5zM600 -20q-220 0 -342 144t-122 406q0 263 122 406.5t342 143.5 q221 0 342.5 -143.5t121.5 -406.5q0 -262 -121.5 -406t-342.5 -144zM600 170q117 0 180.5 94t63.5 266q0 173 -63.5 266.5t-180.5 93.5t-180.5 -93.5t-63.5 -266.5q0 -172 63.5 -266t180.5 -94z" glyph-name="uni01EB" unicode="ǫ"/><glyph d="M180 -480l-10 188l200 18q161 14 233.5 93.5t72.5 242.5v322h212v-290q0 -283 -128 -412.5t-410 -149.5zM264 886v174h428v-174h-428zM676 350v710h212v-710h-212zM696 1210l-240 380h212l124 -246h-20l124 246h212l-240 -380h-172z" glyph-name="uni01F0" unicode="ǰ"/><glyph d="M469 1820l220 250h282l-260 -250h-242zM45 0l410 1420h290l410 -1420h-210l-336 1248h-18l-336 -1248h-210zM235 346v190h720v-190h-720zM600 1488q-113 0 -175.5 54t-62.5 152t62.5 152t175.5 54t175.5 -54t62.5 -152t-62.5 -152t-175.5 -54zM600 1604q47 0 71.5 23.5 t24.5 66.5q0 44 -24.5 67.5t-71.5 23.5q-46 0 -71 -23.5t-25 -67.5q0 -43 25 -66.5t71 -23.5z" glyph-name="Aringacute" unicode="Ǻ"/><glyph d="M818 -10l-14 314l-28 88v274q0 106 -74.5 155.5t-221.5 53.5l-254 7l20 188l214 -3q263 -4 390.5 -113.5t127.5 -319.5v-442l180 -22v-170zM444 -20q-166 0 -257 80t-91 226q0 168 125.5 258t354.5 90q95 0 169.5 -11.5t132.5 -34.5l-44 -144q-67 15 -131 17.5t-131 2.5 q-276 0 -276 -158q0 -74 47.5 -115t134.5 -41q99 0 165.5 34t99.5 87t33 109v116l62 -272h-84l34 32q0 -92 -42.5 -153.5t-119.5 -92t-182 -30.5zM580 1198q-113 0 -175.5 56.5t-62.5 159.5t62.5 159.5t175.5 56.5t175.5 -56.5t62.5 -159.5t-62.5 -159.5t-175.5 -56.5z M580 1314q96 0 96 100t-96 100t-96 -100t96 -100zM479 1528l170 380h212l-190 -380h-192z" glyph-name="aringacute" unicode="ǻ"/><glyph d="M42 0l400 1420h275v-172h-134l-351 -1248h-190zM232 246v165h470v-165h-470zM600 0v180h500v-180h-500zM600 0v1420h180v-1420h-180zM600 621v180h440v-180h-440zM600 1240v180h500v-180h-500zM509 1580l220 250h282l-260 -250h-242z" glyph-name="AEacute" unicode="Ǽ"/><glyph d="M299 -20q-133 0 -205.5 80t-72.5 226q0 166 97 257t273 91q65 0 120 -9.5t92 -26.5l-44 -154q-26 23 -71 26.5t-101 3.5q-84 0 -130 -44t-46 -124q0 -74 37.5 -115t104.5 -41q80 0 124 60.5t44 169.5v176l152 -332h-164l84 22q-16 -127 -85 -196.5t-209 -69.5zM521 310 v82v274q0 99 -78 157t-218 62l-94 3l20 182l94 -3q204 -7 316 -119.5t112 -313.5v-324h-152zM963 -20q-193 0 -299.5 140.5t-106.5 411.5q0 261 82.5 404.5t230.5 143.5q146 0 225.5 -133t79.5 -375q0 -34 -1.5 -70t-4.5 -66h-484v152h308q0 161 -34.5 233.5t-111.5 72.5 q-75 0 -109.5 -83.5t-34.5 -268.5q0 -184 74.5 -285t209.5 -101q57 0 120 13l26 -171q-40 -8 -84.5 -13t-85.5 -5zM499 1248l170 380h212l-190 -380h-192z" glyph-name="aeacute" unicode="ǽ"/><glyph d="M201 -134l-135 75l913 1591l135 -75zM600 -20q-524 0 -524 720q0 740 524 740t524 -740q0 -720 -524 -720zM600 164q314 0 314 536q0 556 -314 556t-314 -556q0 -536 314 -536zM469 1580l220 250h282l-260 -250h-242z" glyph-name="Oslashacute" unicode="Ǿ"/><glyph d="M301 -134l-105 75l700 1257l115 -65zM600 -20q-220 0 -342 144t-122 406q0 263 122 406.5t342 143.5q221 0 342.5 -143.5t121.5 -406.5q0 -262 -121.5 -406t-342.5 -144zM600 170q117 0 180.5 94t63.5 266q0 173 -63.5 266.5t-180.5 93.5t-180.5 -93.5t-63.5 -266.5 q0 -172 63.5 -266t180.5 -94zM499 1248l170 380h212l-190 -380h-192z" glyph-name="oslashacute" unicode="ǿ"/><glyph d="M551 -20q-121 0 -226.5 19.5t-195.5 58.5l26 202q110 -47 212.5 -71.5t199.5 -24.5q140 0 208 49t68 149q0 66 -33.5 112t-96.5 74l-246 112q-145 66 -222.5 159t-77.5 231q0 186 112 288t317 102q143 0 253 -42t212 -137l-140 -142q-88 72 -164.5 104.5t-159.5 32.5 q-103 0 -159.5 -49.5t-56.5 -146.5q0 -69 37 -112.5t109 -77.5l208 -98q158 -74 240 -167t82 -239q0 -193 -125.5 -289.5t-380.5 -96.5zM425 -480l77 340h222l-117 -340h-182z" glyph-name="uni0218" unicode="Ș"/><glyph d="M518 -20q-120 0 -205.5 7t-156.5 23l24 192q105 -16 185.5 -24t152.5 -8q161 0 233.5 31.5t72.5 100.5q0 48 -25.5 71.5t-78.5 36.5l-244 62q-157 40 -230.5 99t-73.5 179q0 174 133.5 252t430.5 78q77 0 143.5 -4.5t136.5 -15.5l-22 -184q-81 8 -143 11t-121 3 q-178 0 -258 -30.5t-80 -99.5q0 -46 33 -66.5t101 -37.5l196 -48q167 -40 244.5 -107t77.5 -195q0 -171 -125 -248.5t-401 -77.5zM405 -480l77 340h222l-117 -340h-182z" glyph-name="uni0219" unicode="ș"/><glyph d="M500 0v1420h200v-1420h-200zM80 1230v190h1040v-190h-1040zM410 -480l77 340h222l-117 -340h-182z" glyph-name="uni021A" unicode="Ț"/><glyph d="M782 -20q-241 0 -348.5 100t-107.5 320v180h212v-170q0 -126 61.5 -183t202.5 -57q50 0 106 5.5t128 14.5l24 -186q-70 -12 -136.5 -18t-141.5 -6zM326 500v880h212v-880h-212zM60 886v174h960v-174h-960zM470 -480l77 340h222l-117 -340h-182z" glyph-name="uni021B" unicode="ț"/><glyph d="M860 0v1420h200v-1420h-200zM140 0v1420h200v-1420h-200zM182 612v190h841v-190h-841zM514 1580l-260 260h222l134 -156h-20l134 156h222l-260 -260h-172z" glyph-name="uni021E" unicode="Ȟ"/><glyph d="M820 0v690q0 101 -50 155.5t-140 54.5q-250 0 -250 -304l-62 272h82q9 107 78 159.5t202 52.5q168 0 260 -102t92 -288v-690h-212zM168 0v1500h212v-1500h-212zM188 1660l-260 260h222l134 -156h-20l134 156h222l-260 -260h-172z" glyph-name="uni021F" unicode="ȟ"/><glyph d="M515 474l-490 946h220l346 -710h18l346 710h220l-490 -946h-170zM500 0v700h200v-700h-200zM213 1580v188h774v-188h-774z" glyph-name="uni0232" unicode="Ȳ"/><glyph d="M75 -480l-10 190l166 20q105 13 179.5 57t127.5 130.5t93 226.5l264 916h220l-306 -966q-60 -190 -134.5 -306t-176 -174t-243.5 -74zM477 0l-422 1060h220l346 -900h32v-160h-176zM185 1248v188h860v-188h-860z" glyph-name="uni0233" unicode="ȳ"/><glyph d="M180 -480l-10 188l200 18q161 14 233.5 93.5t72.5 242.5v322h212v-290q0 -283 -128 -412.5t-410 -149.5zM264 886v174h428v-174h-428zM676 350v710h212v-710h-212z" glyph-name="uni0237" unicode="ȷ"/><glyph d="M513 -330l-136 24l132 747l10 55l134 767l8 44l72 409l136 -24l-99 -561l-20 -117l-92 -522l-7 -40zM45 0l410 1420h290l410 -1420h-210l-336 1248h-18l-336 -1248h-210zM235 346v190h720v-190h-720z" glyph-name="uni023A" unicode="Ⱥ"/><glyph d="M573 -330l-136 24l356 2022l136 -24zM758 -20q-662 0 -662 732q0 347 167 537.5t471 190.5q147 0 256 -46.5t159 -132.5l-148 -147q-45 68 -114.5 105t-150.5 37q-193 0 -309.5 -139t-116.5 -395q0 -558 482 -558q145 0 286 60l46 -176q-174 -68 -366 -68z" glyph-name="uni023B" unicode="Ȼ"/><glyph d="M-20 647v190h836v-190h-836zM160 0v1420h200v-1420h-200zM160 0v190h940v-190h-940z" glyph-name="uni023D" unicode="Ƚ"/><glyph d="M373 -330l-136 24l756 2022l136 -24zM500 0v1420h200v-1420h-200zM80 1230v190h1040v-190h-1040z" glyph-name="uni023E" unicode="Ⱦ"/><glyph d="M45 0l410 1420h290l410 -1420h-220l-326 1248h-18l-326 -1248h-220z" glyph-name="uni0245" unicode="Ʌ"/><glyph d="M528 -20q-215 0 -333.5 139.5t-118.5 400.5q0 267 118.5 413.5t335.5 146.5q114 0 176 -52.5t74 -159.5h82l-62 -272q0 304 -270 304q-117 0 -180.5 -99t-63.5 -281q0 -360 246 -360q135 0 201.5 45t66.5 135v116l72 -292h-92q-10 -91 -77.5 -137.5t-174.5 -46.5z M818 -10l-18 254v186h212v-238l146 -22v-170zM800 300v760h212v-700z" glyph-name="uni0251" unicode="ɑ"/><glyph d="M526 -20q-129 0 -232 35.5t-162 87.5l104 160q50 -37 128 -65t170 -28q152 0 236 91t84 257q0 182 -99 277t-281 95q-67 0 -126 -9t-136 -32l-32 184q77 26 148.5 36.5t169.5 10.5q271 0 418.5 -142.5t147.5 -409.5q0 -259 -139.5 -403.5t-398.5 -144.5z" glyph-name="uni0254" unicode="ɔ"/><glyph d="M586 -20q-214 0 -332 130.5t-118 377.5q0 73 6 136h744v-162h-558q0 -142 68 -219t188 -77q135 0 209.5 92t74.5 260q0 185 -102.5 280.5t-291.5 95.5q-66 0 -130 -10t-130 -28l-26 176q95 31 172.5 39.5t137.5 8.5q272 0 419 -142.5t147 -409.5q0 -259 -125 -403.5 t-353 -144.5z" glyph-name="uni0259" unicode="ə"/><glyph d="M626 -20q-460 0 -460 300q0 226 362 256l306 80l-24 -181h-32q-391 0 -391 -145q0 -126 247 -126q124 0 205.5 19t145.5 36l55 -191q-80 -22 -184.5 -35t-229.5 -13zM472 435v115q-276 70 -276 272q0 258 446 258q283 0 408 -58l-65 -181q-138 55 -321 55 q-247 0 -247 -124q0 -140 417 -156l-24 -181h-338z" glyph-name="uni025B" unicode="ɛ"/><glyph d="M692 -15q-298 0 -447.5 139t-149.5 417q0 263 154.5 408t434.5 145q156 0 277.5 -33t180.5 -96l-121 -147q-55 46 -140.5 72.5t-184.5 26.5q-181 0 -281.5 -96t-100.5 -272q0 -193 101.5 -289.5t300.5 -96.5q109 0 191 14t135 24l80 -171q-46 -10 -162.5 -27.5 t-267.5 -17.5zM926 30v524h196v-524h-196zM670 380v174h446v-174h-446z" glyph-name="uni0262" unicode="ɢ"/><glyph d="M459 0l-379 1060h226l285 -880h18l285 880h226l-379 -1060l-142 61zM600 -462v190q57 0 86.5 29t29.5 81q0 39 -31.5 87.5t-118.5 140.5l145 45q124 -88 169.5 -164.5t45.5 -152.5q0 -123 -85.5 -189.5t-240.5 -66.5zM600 -462q-154 0 -240 66.5t-86 189.5 q0 76 45.5 152.5t169.5 164.5l145 -45q-87 -92 -118.5 -140.5t-31.5 -87.5q0 -52 29.5 -81t86.5 -29v-190z" glyph-name="uni0263" unicode="ɣ"/><glyph d="M764 -20q-177 0 -255.5 100t-78.5 320v660h212v-650q0 -84 15 -137t58.5 -78t128.5 -25q78 0 196 38l24 -186q-77 -22 -148 -32t-152 -10zM130 884v176h318v-176h-318z" glyph-name="uni0269" unicode="ɩ"/><glyph d="M500 0v1060h200v-1060h-200zM168 0v190h864v-190h-864zM168 870v190h864v-190h-864z" glyph-name="uni026A" unicode="ɪ"/><glyph d="M65 589v84q0 128 54 186t172 58q45 0 86 -10.5t79 -26.5t73 -34q53 -27 92 -48t84 -21q31 0 44.5 18t13.5 57v92h182v-84q0 -128 -48 -186t-154 -58q-43 0 -84 10.5t-78.5 26.5t-72.5 34q-54 29 -95.5 49t-90.5 20q-40 0 -57.5 -18t-17.5 -57v-92h-182zM748 -20 q-184 0 -266 100t-82 320v1100h212v-1090q0 -84 16 -137t62.5 -78t137.5 -25q83 0 212 38l24 -186q-81 -22 -155.5 -32t-160.5 -10zM88 1326v174h330v-174h-330z" glyph-name="uni026B" unicode="ɫ"/><glyph d="M300 547q-150 0 -232.5 80t-82.5 226q0 139 61.5 215t173.5 76q74 0 113.5 -33t49.5 -101h35l-18 -188q0 69 -32 100.5t-78 31.5q-40 0 -62.5 -28t-22.5 -78q0 -53 25 -82t70 -29h624v-190h-624zM748 -20q-184 0 -266 100t-82 320v1100h212v-1090q0 -84 16 -137t62.5 -78 t137.5 -25q83 0 212 38l24 -186q-81 -22 -155.5 -32t-160.5 -10zM88 1326v174h330v-174h-330z" glyph-name="uni026C" unicode="ɬ"/><glyph d="M820 0v690q0 101 -50 155.5t-140 54.5q-250 0 -250 -304l-62 272h82q9 107 78 159.5t202 52.5q168 0 260 -102t92 -288v-690h-212zM-188 -480l-10 188l130 18q124 17 180 95t56 241v382h212v-350q0 -189 -49 -305.5t-152.5 -176.5t-266.5 -80zM168 230v830h192l20 -224 v-606h-212z" glyph-name="uni0272" unicode="ɲ"/><glyph d="M402 360v530q0 550 502 550q114 0 220 -20l-22 -184q-63 8 -111 11t-93 3q-284 0 -284 -350v-540h-212zM78 -477l-10 188l108 15q118 17 172 95t54 241v322h212v-290q0 -189 -48 -306t-149 -177t-261 -79z" glyph-name="uni0283" unicode="ʃ"/><glyph d="M350 927l180 -44q-112 -29 -173 -133.5t-61 -265.5q0 -98 36 -167t103.5 -105.5t164.5 -36.5t164.5 36.5t103.5 105.5t36 167q0 164 -55 268.5t-155 130.5l180 38v-61q119 -40 184.5 -142.5t65.5 -248.5q0 -154 -61.5 -262t-178.5 -165t-284 -57q-166 0 -283.5 57 t-179 165t-61.5 262q0 144 72 247t202 146v65zM104 1059h426v-176h-426v176zM694 1059h402v-176h-402v176z" glyph-name="uni028A" unicode="ʊ"/><glyph d="M600 -20q-440 0 -444 430v650h212v-650q0 -240 232 -240t232 240v320q0 77 -25 108.5t-87 31.5h-68v190h108q157 0 220 -62.5t64 -217.5v-370q0 -430 -444 -430z" glyph-name="uni028B" unicode="ʋ"/><glyph d="M95 0l360 1060h290l360 -1060h-220l-276 888h-18l-276 -888h-220z" glyph-name="uni028C" unicode="ʌ"/><glyph d="M541 -460q-289 0 -462 179l140 148q80 -72 154 -104.5t179 -32.5q138 0 214.5 76t76.5 205q0 125 -87 193.5t-245 68.5h-111l-8 153h180q233 -4 361 -116.5t128 -312.5q0 -134 -61 -237t-177 -161.5t-282 -58.5zM467 273h-128l-20 124l497 529l24 -49h-667v174h823v-201 l-437 -466z" glyph-name="uni0292" unicode="ʒ"/><glyph d="M500 0v442q0 76 23.5 141t69 126.5t111.5 124.5q63 60 92.5 114.5t29.5 123.5q0 85 -50 131.5t-142 46.5l2 190q195 0 302.5 -94t107.5 -264q0 -111 -46.5 -194.5t-135.5 -169.5q-88 -85 -128 -156.5t-40 -143.5v-418h-196zM294 1078l-138 143q70 99 199.5 159t280.5 60 l-2 -190q-94 0 -185 -47t-155 -125z" glyph-name="uni0294" unicode="ʔ"/><glyph d="M700 0h-196v418q0 72 -39.5 143.5t-128.5 156.5q-89 86 -135.5 169.5t-46.5 194.5q0 170 107.5 264t302.5 94l2 -190q-91 0 -141.5 -46.5t-50.5 -131.5q0 -69 29.5 -123.5t92.5 -114.5q66 -63 111.5 -124.5t69 -126.5t23.5 -141v-442zM906 1078q-64 78 -155 125t-185 47 l-2 190q151 0 280.5 -60t199.5 -159z" glyph-name="uni0295" unicode="ʕ"/><glyph d="M159 0v1079h205v-1079h-205zM159 0v174h943v-174h-943z" glyph-name="uni029F" unicode="ʟ"/><glyph d="M502 -20q-166 0 -241 71.5t-75 228.5v220h212v-210q0 -63 29.5 -91.5t94.5 -28.5q18 0 38.5 3t45.5 7l24 -186q-32 -7 -62.5 -10.5t-65.5 -3.5zM186 420v960h212v-960h-212zM0 886v174h870v-174h-870zM752 360v700q0 191 83 285.5t249 94.5q36 0 72.5 -3.5t67.5 -11.5 l-22 -184q-39 9 -84 9q-73 0 -113.5 -47t-40.5 -133v-710h-212zM378 -477l-10 188l118 12q140 14 203 75.5t63 183.5v402h212v-370q0 -237 -118 -352t-380 -133z" glyph-name="uni02A7" unicode="ʧ"/><glyph d="M672 790l-64 449h-31l-31 182h96l77 -444h32l40 444h180l-81 -631h-218zM291 790l-61 631h189l18 -444h32l77 444h96l-33 -182h-29l-64 -449h-225z" glyph-name="uni02B7" unicode="ʷ"/><glyph d="M258 504v165h62q89 0 160.5 46.5t105.5 160.5l166 545h196l-193 -575q-34 -102 -85.5 -179t-131.5 -120t-202 -43h-78zM455 790l-223 631h195l161 -476h33v-155h-166z" glyph-name="uni02B8" unicode="ʸ"/><glyph d="M432 780l270 690h162l-150 -690h-282z" glyph-name="uni02BB" unicode="ʻ"/><glyph d="M382 730l160 690h302l-310 -690h-152z" glyph-name="uni02BC" unicode="ʼ"/><glyph d="M506 806v114q0 67 33 105t102 69q47 21 69 42.5t22 52.5q0 36 -33.5 55.5t-94.5 19.5l18 176q152 0 236 -55t84 -155q0 -102 -46.5 -167t-153.5 -115q-23 -11 -36.5 -25t-13.5 -45v-72h-186zM364 1182l-97 132q54 60 147 93t208 33l-18 -176q-66 0 -128.5 -21.5 t-111.5 -60.5z" glyph-name="uni02C0" unicode="ˀ"/><glyph d="M274 1248l240 380h172l240 -380h-212l-124 246h20l-124 -246h-212z" glyph-name="circumflex" unicode="ˆ"/><glyph d="M514 1210l-240 380h212l124 -246h-20l124 246h212l-240 -380h-172z" glyph-name="caron" unicode="ˇ"/><glyph d="M170 1248v188h860v-188h-860z" glyph-name="uni02C9" unicode="ˉ"/><glyph d="M600 700l-200 360h400zM400 0l200 360l200 -360h-400z" glyph-name="uni02D0" unicode="ː"/><glyph d="M600 1238q-166 0 -257.5 84t-91.5 238v43h175v-43q0 -89 45 -137.5t129 -48.5t129 48.5t45 137.5v43h175v-43q0 -154 -91 -238t-258 -84z" glyph-name="breve" unicode="˘"/><glyph d="M600 1238q-55 0 -94.5 39.5t-39.5 94.5q0 56 39.5 95t94.5 39q56 0 95 -39t39 -95q0 -55 -39 -94.5t-95 -39.5z" glyph-name="dotaccent" unicode="˙"/><glyph d="M600 1198q-113 0 -175.5 56.5t-62.5 159.5t62.5 159.5t175.5 56.5t175.5 -56.5t62.5 -159.5t-62.5 -159.5t-175.5 -56.5zM600 1314q96 0 96 100t-96 100t-96 -100t96 -100z" glyph-name="ring" unicode="˚"/><glyph d="M652 -424q-115 0 -177.5 50.5t-62.5 141.5q0 74 35 124t99 68v70l240 2v-32q-106 0 -165 -44t-59 -124q0 -42 30.5 -65t85.5 -23q35 0 82 11l-18 -170q-22 -4 -46 -6.5t-44 -2.5z" glyph-name="ogonek" unicode="˛"/><glyph d="M240 1256v40q0 250 210 250q40 0 75 -12.5t73 -31.5q50 -25 85.5 -40.5t60.5 -15.5q54 0 54 64v90h172v-80q0 -120 -47 -180t-141 -60q-28 0 -69 12t-94 38q-33 17 -66 33.5t-65 16.5q-37 0 -55.5 -18t-18.5 -56v-50h-174z" glyph-name="tilde" unicode="˜"/><glyph d="M599 1248l150 380h222l-170 -380h-202zM219 1248l150 380h222l-170 -380h-202z" glyph-name="hungarumlaut" unicode="˝"/><glyph d="M479 1248l-190 380h212l170 -380h-192z" glyph-name="gravecomb" horiz-adv-x="0" unicode="̀"/><glyph d="M469 1248l170 380h212l-190 -380h-192z" glyph-name="acutecomb" horiz-adv-x="0" unicode="́"/><glyph d="M274 1248l240 380h172l240 -380h-212l-124 246h20l-124 -246h-212z" glyph-name="uni0302" horiz-adv-x="0" unicode="̂"/><glyph d="M240 1256v40q0 250 210 250q40 0 75 -12.5t73 -31.5q50 -25 85.5 -40.5t60.5 -15.5q54 0 54 64v90h172v-80q0 -120 -47 -180t-141 -60q-28 0 -69 12t-94 38q-33 17 -66 33.5t-65 16.5q-37 0 -55.5 -18t-18.5 -56v-50h-174z" glyph-name="tildecomb" horiz-adv-x="0" unicode="̃"/><glyph d="M170 1248v188h860v-188h-860z" glyph-name="uni0304" horiz-adv-x="0" unicode="̄"/><glyph d="M600 1238q-166 0 -257.5 84t-91.5 238v43h175v-43q0 -89 45 -137.5t129 -48.5t129 48.5t45 137.5v43h175v-43q0 -154 -91 -238t-258 -84z" glyph-name="uni0306" horiz-adv-x="0" unicode="̆"/><glyph d="M600 1238q-55 0 -94.5 39.5t-39.5 94.5q0 56 39.5 95t94.5 39q56 0 95 -39t39 -95q0 -55 -39 -94.5t-95 -39.5z" glyph-name="uni0307" horiz-adv-x="0" unicode="̇"/><glyph d="M810 1238q-55 0 -94.5 39.5t-39.5 94.5q0 56 39.5 95t94.5 39q56 0 95 -39t39 -95q0 -55 -39 -94.5t-95 -39.5zM390 1238q-55 0 -94.5 39.5t-39.5 94.5q0 56 39.5 95t94.5 39q56 0 95 -39t39 -95q0 -55 -39 -94.5t-95 -39.5z" glyph-name="uni0308" horiz-adv-x="0" unicode="̈"/><glyph d="M502 1248v36q0 39 16 66.5t37.5 48.5t37.5 41t16 45q0 26 -17 41t-45 15l21 151q94 0 150.5 -53t56.5 -140q0 -48 -18 -77.5t-41 -52t-41 -48t-18 -64.5v-9h-155zM423 1498l-67 119q31 34 89 54.5t123 20.5l-21 -151q-73 0 -124 -43z" glyph-name="hookabovecomb" horiz-adv-x="0" unicode="̉"/><glyph d="M600 1198q-113 0 -175.5 56.5t-62.5 159.5t62.5 159.5t175.5 56.5t175.5 -56.5t62.5 -159.5t-62.5 -159.5t-175.5 -56.5zM600 1314q96 0 96 100t-96 100t-96 -100t96 -100z" glyph-name="uni030A" horiz-adv-x="0" unicode="̊"/><glyph d="M599 1248l150 380h222l-170 -380h-202zM219 1248l150 380h222l-170 -380h-202z" glyph-name="uni030B" horiz-adv-x="0" unicode="̋"/><glyph d="M514 1210l-240 380h212l124 -246h-20l124 246h212l-240 -380h-172z" glyph-name="uni030C" horiz-adv-x="0" unicode="̌"/><glyph d="M492 1208l90 380h172l-50 -380h-212z" glyph-name="uni0312" horiz-adv-x="0" unicode="̒"/><glyph d="M492 1208l50 380h212l-90 -380h-172z" glyph-name="uni0313" horiz-adv-x="0" unicode="̓"/><glyph d="M492 1208l50 380h212l-90 -380h-172z" glyph-name="uni0315" horiz-adv-x="0" unicode="̕"/><glyph d="M501 895l-50 165l60 10q94 16 140.5 85t46.5 188h210q0 -190 -86.5 -299.5t-260.5 -138.5z" glyph-name="uni031B" horiz-adv-x="0" unicode="̛"/><glyph d="M600 -420q-55 0 -94.5 39.5t-39.5 94.5q0 56 39.5 95t94.5 39q56 0 95 -39t39 -95q0 -55 -39 -94.5t-95 -39.5z" glyph-name="dotbelowcomb" horiz-adv-x="0" unicode="̣"/><glyph d="M600 -500q-113 0 -175.5 56.5t-62.5 159.5t62.5 159.5t175.5 56.5t175.5 -56.5t62.5 -159.5t-62.5 -159.5t-175.5 -56.5zM600 -384q96 0 96 100t-96 100t-96 -100t96 -100z" glyph-name="uni0325" horiz-adv-x="0" unicode="̥"/><glyph d="M415 -480l77 340h222l-117 -340h-182z" glyph-name="uni0326" horiz-adv-x="0" unicode="̦"/><glyph d="M514 -480v150q95 0 141.5 18t46.5 54q0 35 -40 51.5t-122 16.5l69 196l136 -11l-25 -95q86 -18 129 -59.5t43 -107.5q0 -106 -94 -159.5t-284 -53.5z" glyph-name="uni0327" horiz-adv-x="0" unicode="̧"/><glyph d="M652 -424q-115 0 -177.5 50.5t-62.5 141.5q0 74 35 124t99 68v70l240 2v-32q-106 0 -165 -44t-59 -124q0 -42 30.5 -65t85.5 -23q35 0 82 11l-18 -170q-22 -4 -46 -6.5t-44 -2.5z" glyph-name="uni0328" horiz-adv-x="0" unicode="̨"/><glyph d="M0 -396v188h1200v-188h-1200z" glyph-name="uni0331" horiz-adv-x="0" unicode="̱"/><glyph d="M0 -396v188h1200v-188h-1200z" glyph-name="uni0332" horiz-adv-x="0" unicode="̲"/><glyph d="M479 1248l-190 380h212l170 -380h-192z" glyph-name="uni0340" horiz-adv-x="0" unicode="̀"/><glyph d="M469 1248l170 380h212l-190 -380h-192z" glyph-name="uni0341" horiz-adv-x="0" unicode="́"/><glyph d="M240 1256v40q0 250 210 250q40 0 75 -12.5t73 -31.5q50 -25 85.5 -40.5t60.5 -15.5q54 0 54 64v90h172v-80q0 -120 -47 -180t-141 -60q-28 0 -69 12t-94 38q-33 17 -66 33.5t-65 16.5q-37 0 -55.5 -18t-18.5 -56v-50h-174z" glyph-name="uni0342" horiz-adv-x="0" unicode="͂"/><glyph d="M382 730l160 690h302l-310 -690h-152z" glyph-name="uni0374" unicode="ʹ"/><glyph d="M402 -436l80 690h232l-120 -690h-192z" glyph-name="uni0375" unicode="͵"/><glyph d="M600 784q-61 0 -104.5 43.5t-43.5 104.5q0 62 43.5 105t104.5 43q62 0 105 -43t43 -105q0 -61 -43 -104.5t-105 -43.5zM402 -436l80 690h232l-120 -690h-192z" glyph-name="uni037E" unicode=";"/><glyph d="M469 1248l170 380h212l-190 -380h-192z" glyph-name="tonos" unicode="΄"/><glyph d="M458 1248l130 380h212l-150 -380h-192zM270 1238q-55 0 -94.5 39.5t-39.5 94.5q0 56 39.5 95t94.5 39q56 0 95 -39t39 -95q0 -55 -39 -94.5t-95 -39.5zM940 1238q-55 0 -94.5 39.5t-39.5 94.5q0 56 39.5 95t94.5 39q56 0 95 -39t39 -95q0 -55 -39 -94.5t-95 -39.5z" glyph-name="dieresistonos" unicode="΅"/><glyph d="M245 0l310 1420h290l310 -1420h-210l-236 1248h-18l-236 -1248h-210zM435 346v190h520v-190h-520zM-1 1040l90 380h212l-110 -380h-192z" glyph-name="Alphatonos" unicode="Ά"/><glyph d="M600 784q-61 0 -104.5 43.5t-43.5 104.5q0 62 43.5 105t104.5 43q62 0 105 -43t43 -105q0 -61 -43 -104.5t-105 -43.5z" glyph-name="anoteleia" unicode="·"/><glyph d="M360 0v1420h200v-1420h-200zM360 0v190h740v-190h-740zM360 616v190h560v-190h-560zM-1 1040l90 380h212l-110 -380h-192zM360 1230v190h740v-190h-740z" glyph-name="Epsilontonos" unicode="Έ"/><glyph d="M860 0v1420h200v-1420h-200zM340 0v1420h200v-1420h-200zM-1 1040l90 380h212l-110 -380h-192zM382 612v190h641v-190h-641z" glyph-name="Etatonos" unicode="Ή"/><glyph d="M599 0v1420h200v-1420h-200zM368 0v190h664v-190h-664zM-1 1040l90 380h212l-110 -380h-192zM368 1230v190h664v-190h-664z" glyph-name="Iotatonos" unicode="Ί"/><glyph d="M700 -20q-424 0 -424 720q0 740 424 740t424 -740q0 -720 -424 -720zM-1 1040l90 380h212l-110 -380h-192zM700 164q214 0 214 536q0 556 -214 556t-214 -556q0 -536 214 -536z" glyph-name="Omicrontonos" unicode="Ό"/><glyph d="M668 470l-332 950h220l186 -710h18l196 710h220l-338 -950h-170zM653 0v700h200v-700h-200zM-1 1040l90 380h212l-110 -380h-192z" glyph-name="Upsilontonos" unicode="Ύ"/><glyph d="M540 127v76q-264 59 -264 557q0 680 424 680t424 -680q0 -506 -240 -554v-71l-130 51q160 79 160 574q0 496 -214 496t-214 -496q0 -486 184 -574zM304 0v186h366v-186h-366zM754 0v186h342v-186h-342zM-1 1040l90 380h212l-110 -380h-192z" glyph-name="Omegatonos" unicode="Ώ"/><glyph d="M764 -20q-177 0 -255.5 100t-78.5 320v660h212v-650q0 -84 15 -137t58.5 -78t128.5 -25q78 0 196 38l24 -186q-77 -22 -148 -32t-152 -10zM130 884v176h318v-176h-318zM416 1248l130 380h212l-150 -380h-192zM228 1238q-55 0 -94.5 39.5t-39.5 94.5q0 56 39.5 95t94.5 39 q56 0 95 -39t39 -95q0 -55 -39 -94.5t-95 -39.5zM898 1238q-55 0 -94.5 39.5t-39.5 94.5q0 56 39.5 95t94.5 39q56 0 95 -39t39 -95q0 -55 -39 -94.5t-95 -39.5z" glyph-name="iotadieresistonos" unicode="ΐ"/><glyph d="M45 0l410 1420h290l410 -1420h-210l-336 1248h-18l-336 -1248h-210zM235 346v190h720v-190h-720z" glyph-name="Alpha" unicode="Α"/><glyph d="M346 0v190h300q132 0 205 60.5t73 169.5q0 112 -76 173.5t-216 61.5h-282l-24 91h356q216 0 334 -93t118 -263q0 -186 -112 -288t-318 -102h-358zM160 0v1420h200v-1420h-200zM278 698v98h416v-98h-416zM346 754v91h240q113 0 175.5 50.5t62.5 144.5q0 92 -65.5 141 t-186.5 49h-222l-24 190h256q216 0 334 -93.5t118 -266.5q0 -147 -112 -226.5t-318 -79.5h-258z" glyph-name="Beta" unicode="Β"/><glyph d="M180 0v1420h200v-1420h-200zM180 1230v190h910v-190h-910z" glyph-name="Gamma" unicode="Γ"/><glyph d="M45 0l410 1420h290l410 -1420h-210l-336 1248h-18l-336 -1248h-210zM175 0v190h840v-190h-840z" glyph-name="uni0394" unicode="Δ"/><glyph d="M160 0v1420h200v-1420h-200zM160 0v190h940v-190h-940zM160 616v190h760v-190h-760zM160 1230v190h940v-190h-940z" glyph-name="Epsilon" unicode="Ε"/><glyph d="M302 68l-152 122l748 1172l152 -132zM150 0v190h920v-190h-920zM150 1230v190h900v-190h-900z" glyph-name="Zeta" unicode="Ζ"/><glyph d="M860 0v1420h200v-1420h-200zM140 0v1420h200v-1420h-200zM182 612v190h841v-190h-841z" glyph-name="Eta" unicode="Η"/><glyph d="M213 616v188h774v-188h-774zM600 -20q-524 0 -524 720q0 740 524 740t524 -740q0 -720 -524 -720zM600 164q314 0 314 536q0 556 -314 556t-314 -556q0 -536 314 -536z" glyph-name="Theta" unicode="Θ"/><glyph d="M499 0v1420h200v-1420h-200zM168 0v190h864v-190h-864zM168 1230v190h864v-190h-864z" glyph-name="Iota" unicode="Ι"/><glyph d="M286 452l18 198q154 0 266 64.5t184.5 174t108 247t35.5 284.5h206q0 -189 -55 -363t-160 -310.5t-257 -215.5t-346 -79zM160 0v1420h200v-1420h-200zM930 0l-360 692l180 102l422 -794h-242z" glyph-name="Kappa" unicode="Κ"/><glyph d="M45 0l410 1420h290l410 -1420h-220l-326 1248h-18l-326 -1248h-220z" glyph-name="Lambda" unicode="Λ"/><glyph d="M566 580l30 230h12l162 610h142v-252h-58l-162 -588h-126zM128 0v1420h192v-1420h-192zM508 580l-162 588h-58v252h142l162 -610h8l20 -230h-112zM880 0v1420h192v-1420h-192z" glyph-name="Mu" unicode="Μ"/><glyph d="M800 0l-440 1080h-92v340h132l440 -1080h50v-340h-90zM148 0v1420h192v-1420h-192zM860 0v1420h192v-1420h-192z" glyph-name="Nu" unicode="Ν"/><glyph d="M100 1230v190h1000v-190h-1000zM100 0v190h1000v-190h-1000zM190 616v190h820v-190h-820z" glyph-name="Xi" unicode="Ξ"/><glyph d="M600 -20q-524 0 -524 720q0 740 524 740t524 -740q0 -720 -524 -720zM600 164q314 0 314 536q0 556 -314 556t-314 -556q0 -536 314 -536z" glyph-name="Omicron" unicode="Ο"/><glyph d="M860 0v1420h200v-1420h-200zM140 0v1420h200v-1420h-200zM182 1230v190h841v-190h-841z" glyph-name="Pi" unicode="Π"/><glyph d="M336 440v190h242q158 0 245 79t87 221q0 143 -87 221.5t-245 78.5h-238v190h238q259 0 400.5 -128.5t141.5 -361.5q0 -234 -141.5 -362t-400.5 -128h-242zM160 0v1420h200v-1420h-200z" glyph-name="Rho" unicode="Ρ"/><glyph d="M296 54l-146 122l441 537l-441 517l162 132l535 -649zM150 0v176h920v-176h-920zM150 1230v190h900v-190h-900z" glyph-name="Sigma" unicode="Σ"/><glyph d="M500 0v1420h200v-1420h-200zM80 1230v190h1040v-190h-1040z" glyph-name="Tau" unicode="Τ"/><glyph d="M515 474l-490 946h220l346 -710h18l346 710h220l-490 -946h-170zM500 0v700h200v-700h-200z" glyph-name="Upsilon" unicode="Υ"/><glyph d="M600 140q-534 0 -534 570q0 590 534 590t534 -590q0 -570 -534 -570zM514 -20v228l10 63v918l-10 59v212h170v-212l-10 -59v-918l10 -63v-228h-170zM600 304q334 0 334 406q0 426 -334 426t-334 -426q0 -406 334 -406z" glyph-name="Phi" unicode="Φ"/><glyph d="M906 0l-364 636l-476 784h230l378 -674l462 -746h-230zM66 0l462 746l378 674h230l-476 -784l-364 -636h-230z" glyph-name="Chi" unicode="Χ"/><glyph d="M600 310q-524 0 -524 540v570h200v-570q0 -356 324 -356t324 356v570h200v-570q0 -540 -524 -540zM499 410h200v-410h-200v410zM699 410h-200v1010h200v-1010z" glyph-name="Psi" unicode="Ψ"/><glyph d="M350 127v76q-91 20 -152 88t-91.5 185.5t-30.5 283.5q0 680 524 680t524 -680q0 -169 -27.5 -287t-83 -184.5t-139.5 -82.5v-71l-180 51q110 40 165 183.5t55 390.5q0 496 -314 496t-314 -496q0 -243 61 -386.5t183 -187.5zM104 0v186h426v-186h-426zM694 0v186h402v-186 h-402z" glyph-name="uni03A9" unicode="Ω"/><glyph d="M499 0v1420h200v-1420h-200zM168 0v190h864v-190h-864zM168 1230v190h864v-190h-864zM808 1580q-55 0 -94.5 39.5t-39.5 94.5q0 56 39.5 95t94.5 39q56 0 95 -39t39 -95q0 -55 -39 -94.5t-95 -39.5zM392 1580q-55 0 -94.5 39.5t-39.5 94.5q0 56 39.5 95t94.5 39 q56 0 95 -39t39 -95q0 -55 -39 -94.5t-95 -39.5z" glyph-name="Iotadieresis" unicode="Ϊ"/><glyph d="M515 474l-490 946h220l346 -710h18l346 710h220l-490 -946h-170zM500 0v700h200v-700h-200zM808 1580q-55 0 -94.5 39.5t-39.5 94.5q0 56 39.5 95t94.5 39q56 0 95 -39t39 -95q0 -55 -39 -94.5t-95 -39.5zM392 1580q-55 0 -94.5 39.5t-39.5 94.5q0 56 39.5 95t94.5 39 q56 0 95 -39t39 -95q0 -55 -39 -94.5t-95 -39.5z" glyph-name="Upsilondieresis" unicode="Ϋ"/><glyph d="M528 -20q-215 0 -333.5 139.5t-118.5 400.5q0 267 118.5 413.5t335.5 146.5q114 0 176 -52.5t74 -159.5h82l-62 -272q0 304 -270 304q-117 0 -180.5 -99t-63.5 -281q0 -360 246 -360q135 0 201.5 45t66.5 135v116l72 -292h-92q-10 -91 -77.5 -137.5t-174.5 -46.5z M818 -10l-18 254v186h212v-238l146 -22v-170zM800 300v760h212v-700zM499 1248l170 380h212l-190 -380h-192z" glyph-name="alphatonos" unicode="ά"/><glyph d="M626 -20q-460 0 -460 300q0 226 362 256l306 80l-24 -181h-32q-391 0 -391 -145q0 -126 247 -126q124 0 205.5 19t145.5 36l55 -191q-80 -22 -184.5 -35t-229.5 -13zM472 435v115q-276 70 -276 272q0 258 446 258q283 0 408 -58l-65 -181q-138 55 -321 55 q-247 0 -247 -124q0 -140 417 -156l-24 -181h-338zM539 1248l170 380h212l-190 -380h-192z" glyph-name="epsilontonos" unicode="έ"/><glyph d="M820 -460v1150q0 101 -50 155.5t-140 54.5q-250 0 -250 -304l-62 272h82q9 107 78 159.5t202 52.5q168 0 260 -102t92 -288v-1150h-212zM168 0v1060h192l20 -224v-836h-212zM489 1248l170 380h212l-190 -380h-192z" glyph-name="etatonos" unicode="ή"/><glyph d="M764 -20q-177 0 -255.5 100t-78.5 320v660h212v-650q0 -84 15 -137t58.5 -78t128.5 -25q78 0 196 38l24 -186q-77 -22 -148 -32t-152 -10zM130 884v176h318v-176h-318zM435 1248l170 380h212l-190 -380h-192z" glyph-name="iotatonos" unicode="ί"/><glyph d="M640 -20q-405 0 -405 430v320q0 77 -25 108.5t-87 31.5h-118v190h158q157 0 220.5 -62.5t63.5 -217.5v-370q0 -240 193 -240q192 0 192 240v650h212v-650q0 -430 -404 -430zM480 1248l130 380h212l-150 -380h-192zM292 1238q-55 0 -94.5 39.5t-39.5 94.5q0 56 39.5 95 t94.5 39q56 0 95 -39t39 -95q0 -55 -39 -94.5t-95 -39.5zM962 1238q-55 0 -94.5 39.5t-39.5 94.5q0 56 39.5 95t94.5 39q56 0 95 -39t39 -95q0 -55 -39 -94.5t-95 -39.5z" glyph-name="upsilondieresistonos" unicode="ΰ"/><glyph d="M528 -20q-215 0 -333.5 139.5t-118.5 400.5q0 267 118.5 413.5t335.5 146.5q114 0 176 -52.5t74 -159.5h82l-62 -272q0 304 -270 304q-117 0 -180.5 -99t-63.5 -281q0 -360 246 -360q135 0 201.5 45t66.5 135v116l72 -292h-92q-10 -91 -77.5 -137.5t-174.5 -46.5z M818 -10l-18 254v186h212v-238l146 -22v-170zM800 300v760h212v-700z" glyph-name="alpha" unicode="α"/><glyph d="M654 -20q-126 0 -195 62t-69 174l34 -40h-93q-171 110 -171 294v473q0 497 452 497q201 0 311.5 -94.5t110.5 -265.5q0 -145 -97 -225.5t-273 -80.5h-156v91h98q99 0 153.5 54t54.5 151q0 86 -53 133t-149 47q-240 0 -240 -310v-470q0 -300 244 -300q113 0 175.5 65.5 t62.5 184.5q0 122 -63 188.5t-179 66.5h-104v91h234q158 0 245 -95.5t87 -270.5q0 -200 -110 -310t-310 -110zM160 -460v1168h212v-1168h-212zM508 718v98h246v-98h-246z" glyph-name="beta" unicode="β"/><glyph d="M364 -20v190q564 0 564 890h212q0 -1080 -776 -1080zM286 -460q5 98 7.5 215.5t2.5 254.5q0 213 -11.5 361t-40.5 249t-79.5 172.5t-128.5 132.5l122 175q105 -76 173 -163.5t107 -207.5t54.5 -294t15.5 -425q0 -137 -2.5 -254.5t-7.5 -215.5h-212z" glyph-name="gamma" unicode="γ"/><glyph d="M603 -20q-144 0 -251.5 55.5t-166.5 156t-59 234.5q0 167 88.5 264t251.5 106v66l41 -56q-107 31 -175 71.5t-100 95.5t-32 128q0 162 113.5 250.5t320.5 88.5q220 0 400 -107l-102 -163q-127 80 -298 80q-117 0 -169.5 -30.5t-52.5 -98.5q0 -58 46 -94t158 -67 q149 -41 253.5 -97t159.5 -151.5t55 -255.5q0 -143 -60 -250.5t-168 -166.5t-253 -59zM605 164q120 0 192.5 85.5t72.5 226.5q0 122 -75 196t-199 74q-115 0 -185.5 -79.5t-70.5 -210.5q0 -132 72.5 -212t192.5 -80z" glyph-name="delta" unicode="δ"/><glyph d="M626 -20q-460 0 -460 300q0 226 362 256l306 80l-24 -181h-32q-391 0 -391 -145q0 -126 247 -126q124 0 205.5 19t145.5 36l55 -191q-80 -22 -184.5 -35t-229.5 -13zM472 435v115q-276 70 -276 272q0 258 446 258q283 0 408 -58l-65 -181q-138 55 -321 55 q-247 0 -247 -124q0 -140 417 -156l-24 -181h-338z" glyph-name="epsilon" unicode="ε"/><glyph d="M767 -480l-95 180q101 29 150.5 72.5t49.5 101.5q0 50 -36.5 78t-103.5 28q-265 0 -410.5 135t-145.5 387q0 465 626 785v74l274 -47q-363 -231 -526.5 -421t-163.5 -381q0 -167 104.5 -254.5t295.5 -87.5q141 0 218.5 -77.5t77.5 -218.5q0 -137 -78.5 -225t-236.5 -129z M232 1314v186h844v-186h-844z" glyph-name="zeta" unicode="ζ"/><glyph d="M820 -460v1150q0 101 -50 155.5t-140 54.5q-250 0 -250 -304l-62 272h82q9 107 78 159.5t202 52.5q168 0 260 -102t92 -288v-1150h-212zM168 0v1060h192l20 -224v-836h-212z" glyph-name="eta" unicode="η"/><glyph d="M600 -20q-244 0 -354 173t-110 557t110 557t354 173t354 -173t110 -557t-110 -557t-354 -173zM600 164q139 0 201.5 129.5t62.5 416.5t-62.5 416.5t-201.5 129.5t-201.5 -129.5t-62.5 -416.5t62.5 -416.5t201.5 -129.5zM192 618v190h841v-190h-841z" glyph-name="theta" unicode="θ"/><glyph d="M764 -20q-177 0 -255.5 100t-78.5 320v660h212v-650q0 -84 15 -137t58.5 -78t128.5 -25q78 0 196 38l24 -186q-77 -22 -148 -32t-152 -10zM130 884v176h318v-176h-318z" glyph-name="iota" unicode="ι"/><glyph d="M360 0l-38 171h80q15 110 54.5 210t111.5 190l406 509l153 -119zM168 0v1060h212v-953l-20 -107h-192zM923 0l-306 468l149 140l394 -608h-237z" glyph-name="kappa" unicode="κ"/><glyph d="M1068 -20q-130 0 -210 58.5t-124 212.5l-255 889q-27 95 -67.5 132.5t-98.5 37.5q-27 0 -62 -8l-24 186q51 12 106 12q128 0 206 -56t120 -204l258 -900q27 -95 68.5 -132.5t102.5 -37.5q27 0 62 8l24 -186q-51 -12 -106 -12zM67 0l459 1108l136 -191l-135 -41 q16 -66 13.5 -127t-22.5 -118l-224 -631h-227z" glyph-name="lambda" unicode="λ"/><glyph d="M566 -20q-162 0 -205 224h-57l-148 156v700h212v-630q0 -115 52 -177.5t146 -62.5q116 0 175 69t59 231l54 -286h-70q-21 -112 -75.5 -168t-142.5 -56zM156 -460v890l184 -193l38 -697h-222zM818 -10l-18 254v186h212v-238l146 -22v-170zM800 300v760h212v-700z" glyph-name="uni03BC" unicode="μ"/><glyph d="M444 0l142 180h18l290 880h226l-384 -1060h-292zM444 0l-113 390q-39 134 -79.5 237.5t-98 173.5t-147.5 104l122 175q103 -38 172 -109t115.5 -174t80.5 -237l122 -481z" glyph-name="nu" unicode="ν"/><glyph d="M614 -20q-458 0 -458 340q0 161 99 256t333 125l406 94l-14 -190h-32q-582 0 -582 -265q0 -170 315 -170h95l-54 -190h-108zM757 -480l-75 180q85 29 132.5 72.5t47.5 101.5q0 50 -36.5 78t-103.5 28l54 190q141 0 218.5 -77.5t77.5 -218.5q0 -137 -78.5 -225 t-236.5 -129zM562 605v110q-206 15 -291 91.5t-85 215.5q0 116 64 181.5t192 89.5v72l442 -50q-488 0 -488 -253q0 -267 598 -267l-14 -190h-418zM142 1314v186h904v-186h-904z" glyph-name="xi" unicode="ξ"/><glyph d="M600 -20q-220 0 -342 144t-122 406q0 263 122 406.5t342 143.5q221 0 342.5 -143.5t121.5 -406.5q0 -262 -121.5 -406t-342.5 -144zM600 170q117 0 180.5 94t63.5 266q0 173 -63.5 266.5t-180.5 93.5t-180.5 -93.5t-63.5 -266.5q0 -172 63.5 -266t180.5 -94z" glyph-name="omicron" unicode="ο"/><glyph d="M998 -20q-147 0 -212.5 78.5t-65.5 251.5v750h212v-740q0 -79 23.5 -114.5t102.5 -35.5q14 0 28.5 2t33.5 6l24 -186q-37 -7 -68 -9.5t-78 -2.5zM258 0v1060h212v-1060h-212zM90 870v190h1040v-190h-1040z" glyph-name="pi" unicode="π"/><glyph d="M662 -20q-112 0 -182 46.5t-80 137.5h-92l72 292v-116q0 -90 66.5 -135t201.5 -45q122 0 184 91t62 269q0 191 -64.5 285.5t-193.5 94.5q-122 0 -189 -79.5t-67 -224.5l-212 9q0 227 122.5 351t345.5 124q235 0 351.5 -139.5t116.5 -420.5q0 -261 -115.5 -400.5 t-326.5 -139.5zM168 -460v1065h212v-1065h-212z" glyph-name="rho" unicode="ρ"/><glyph d="M697 -480l-95 180q98 28 152 73.5t54 100.5q0 103 -117 106h-89q-223 0 -344.5 142.5t-121.5 409.5q0 173 62.5 295.5t183 187.5t292.5 65q155 0 265.5 -57.5t157.5 -162.5l-163 -123q-45 73 -115 113t-153 40q-98 0 -167.5 -40.5t-106 -118.5t-36.5 -189 q0 -181 78 -276.5t222 -95.5h90q130 -2 201 -79.5t71 -216.5q0 -130 -84 -222.5t-237 -131.5z" glyph-name="uni03C2" unicode="ς"/><glyph d="M595 -20q-218 0 -338.5 144t-120.5 406q0 253 120.5 391.5t338.5 138.5l224 -63v-151q65 -10 115.5 -63t80 -134.5t29.5 -178.5q0 -147 -56 -257.5t-156.5 -171.5t-236.5 -61zM595 170q110 0 169.5 94t59.5 266q0 163 -59.5 251.5t-169.5 88.5q-115 0 -177 -88.5 t-62 -251.5q0 -172 62 -266t177 -94zM595 870v190h605v-190h-605z" glyph-name="sigma" unicode="σ"/><glyph d="M764 -20q-177 0 -255.5 100t-78.5 320v660h212v-650q0 -126 37.5 -183t164.5 -57q41 0 88 9.5t108 28.5l24 -186q-77 -22 -148 -32t-152 -10zM130 870v190h940v-190h-940z" glyph-name="tau" unicode="τ"/><glyph d="M640 -20q-405 0 -405 430v320q0 77 -25 108.5t-87 31.5h-118v190h158q157 0 220.5 -62.5t63.5 -217.5v-370q0 -240 193 -240q192 0 192 240v650h212v-650q0 -430 -404 -430z" glyph-name="upsilon" unicode="υ"/><glyph d="M600 -20q-258 0 -386 137t-128 413t128 413t386 137t386 -137t128 -413t-128 -413t-386 -137zM494 -440l25 471h162l25 -471h-212zM600 140q158 0 236 97t78 293t-78 293t-236 97q-157 0 -235.5 -97t-78.5 -293t78.5 -293t235.5 -97zM519 102v871h162v-871h-162z M519 1018l-25 482h212l-25 -482h-162z" glyph-name="phi" unicode="φ"/><glyph d="M1023 -440q-134 0 -211 61.5t-134 209.5l-344 889q-36 93 -81 131.5t-110 38.5q-27 0 -62 -8l-24 186q51 12 106 12q132 0 206.5 -59t129.5 -201l348 -900q37 -94 83 -132t113 -38q14 0 28.5 2t33.5 6l24 -186q-28 -7 -52 -9.5t-54 -2.5zM86 -420l462 814l326 666h240 l-468 -812l-320 -668h-240z" glyph-name="chi" unicode="χ"/><glyph d="M600 -20q-494 0 -494 550v530h202v-530q0 -370 292 -370t292 370v530h202v-530q0 -550 -494 -550zM499 -440l20 581l-15 1359h192l-15 -1359l20 -581h-202z" glyph-name="psi" unicode="ψ"/><glyph d="M827 -20q-106 0 -160.5 86.5t-70.5 277.5h1l87 16q0 -109 23.5 -154.5t69.5 -45.5t69.5 42t23.5 118v740h212v-740q0 -163 -65 -251.5t-190 -88.5zM351 -20q-119 0 -182 88.5t-63 251.5v740h212v-740q0 -76 23.5 -118t69.5 -42t69.5 45.5t23.5 154.5l87 -16h1 q-16 -191 -73 -277.5t-168 -86.5zM504 324v536h180v-536h-180z" glyph-name="omega" unicode="ω"/><glyph d="M764 -20q-177 0 -255.5 100t-78.5 320v660h212v-650q0 -84 15 -137t58.5 -78t128.5 -25q78 0 196 38l24 -186q-77 -22 -148 -32t-152 -10zM130 884v176h318v-176h-318zM748 1238q-55 0 -94.5 39.5t-39.5 94.5q0 56 39.5 95t94.5 39q56 0 95 -39t39 -95q0 -55 -39 -94.5 t-95 -39.5zM328 1238q-55 0 -94.5 39.5t-39.5 94.5q0 56 39.5 95t94.5 39q56 0 95 -39t39 -95q0 -55 -39 -94.5t-95 -39.5z" glyph-name="iotadieresis" unicode="ϊ"/><glyph d="M640 -20q-405 0 -405 430v320q0 77 -25 108.5t-87 31.5h-118v190h158q157 0 220.5 -62.5t63.5 -217.5v-370q0 -240 193 -240q192 0 192 240v650h212v-650q0 -430 -404 -430zM812 1238q-55 0 -94.5 39.5t-39.5 94.5q0 56 39.5 95t94.5 39q56 0 95 -39t39 -95 q0 -55 -39 -94.5t-95 -39.5zM392 1238q-55 0 -94.5 39.5t-39.5 94.5q0 56 39.5 95t94.5 39q56 0 95 -39t39 -95q0 -55 -39 -94.5t-95 -39.5z" glyph-name="upsilondieresis" unicode="ϋ"/><glyph d="M600 -20q-220 0 -342 144t-122 406q0 263 122 406.5t342 143.5q221 0 342.5 -143.5t121.5 -406.5q0 -262 -121.5 -406t-342.5 -144zM600 170q117 0 180.5 94t63.5 266q0 173 -63.5 266.5t-180.5 93.5t-180.5 -93.5t-63.5 -266.5q0 -172 63.5 -266t180.5 -94zM499 1248 l170 380h212l-190 -380h-192z" glyph-name="omicrontonos" unicode="ό"/><glyph d="M640 -20q-405 0 -405 430v320q0 77 -25 108.5t-87 31.5h-118v190h158q157 0 220.5 -62.5t63.5 -217.5v-370q0 -240 193 -240q192 0 192 240v650h212v-650q0 -430 -404 -430zM499 1248l170 380h212l-190 -380h-192z" glyph-name="upsilontonos" unicode="ύ"/><glyph d="M827 -20q-106 0 -160.5 86.5t-70.5 277.5h1l87 16q0 -109 23.5 -154.5t69.5 -45.5t69.5 42t23.5 118v740h212v-740q0 -163 -65 -251.5t-190 -88.5zM351 -20q-119 0 -182 88.5t-63 251.5v740h212v-740q0 -76 23.5 -118t69.5 -42t69.5 45.5t23.5 154.5l87 -16h1 q-16 -191 -73 -277.5t-168 -86.5zM504 324v536h180v-536h-180zM499 1248l170 380h212l-190 -380h-192z" glyph-name="omegatonos" unicode="ώ"/><glyph d="M286 452l18 198q154 0 266 64.5t184.5 174t108 247t35.5 284.5h206q0 -189 -55 -363t-160 -310.5t-257 -215.5t-346 -79zM160 0v1420h200v-1420h-200zM972 -395v422q0 36 -12 67t-44 79l-346 519l180 102l366 -561q32 -49 44 -88.5t12 -97.5v-442h-200z" glyph-name="uni03CF" unicode="Ϗ"/><glyph d="M360 0l-38 171h80q15 110 54.5 210t111.5 190l406 509l153 -119zM168 0v1060h212v-953l-20 -107h-192zM903 -395v407q0 51 -9 82.5t-31 59.5l-246 314l149 140l288 -373q34 -42 47.5 -83.5t13.5 -101.5v-445h-212z" glyph-name="uni03D7" unicode="ϗ"/><glyph d="M160 0v1420h200v-1420h-200zM160 0v190h940v-190h-940zM160 616v190h760v-190h-760zM160 1230v190h940v-190h-940zM529 1580l-260 250h282l220 -250h-242z" glyph-name="uni0400" unicode="Ѐ"/><glyph d="M160 0v1420h200v-1420h-200zM160 0v190h940v-190h-940zM160 616v190h760v-190h-760zM160 1230v190h940v-190h-940zM838 1580q-55 0 -94.5 39.5t-39.5 94.5q0 56 39.5 95t94.5 39q56 0 95 -39t39 -95q0 -55 -39 -94.5t-95 -39.5zM422 1580q-55 0 -94.5 39.5t-39.5 94.5 q0 56 39.5 95t94.5 39q56 0 95 -39t39 -95q0 -55 -39 -94.5t-95 -39.5z" glyph-name="uni0401" unicode="Ё"/><glyph d="M642 0v190q136 0 203 64t67 191q0 125 -63 187t-189 62h-287v190h287q227 0 339.5 -109t112.5 -330q0 -223 -117 -334t-353 -111zM270 0v1410h200v-1410h-200zM20 1230v190h820v-190h-820z" glyph-name="uni0402" unicode="Ђ"/><glyph d="M180 0v1420h200v-1420h-200zM180 1230v190h910v-190h-910zM489 1580l220 250h282l-260 -250h-242z" glyph-name="uni0403" unicode="Ѓ"/><glyph d="M758 -20q-662 0 -662 732q0 347 167 537.5t471 190.5q147 0 256 -46.5t159 -132.5l-148 -147q-45 68 -114.5 105t-150.5 37q-198 0 -317 -139t-119 -395q0 -558 492 -558q145 0 286 60l46 -176q-174 -68 -366 -68zM182 632v190h680v-190h-680z" glyph-name="uni0404" unicode="Є"/><glyph d="M551 -20q-121 0 -226.5 19.5t-195.5 58.5l26 202q110 -47 212.5 -71.5t199.5 -24.5q140 0 208 49t68 149q0 66 -33.5 112t-96.5 74l-246 112q-145 66 -222.5 159t-77.5 231q0 186 112 288t317 102q143 0 253 -42t212 -137l-140 -142q-88 72 -164.5 104.5t-159.5 32.5 q-103 0 -159.5 -49.5t-56.5 -146.5q0 -69 37 -112.5t109 -77.5l208 -98q158 -74 240 -167t82 -239q0 -193 -125.5 -289.5t-380.5 -96.5z" glyph-name="uni0405" unicode="Ѕ"/><glyph d="M499 0v1420h200v-1420h-200zM168 0v190h864v-190h-864zM168 1230v190h864v-190h-864z" glyph-name="uni0406" unicode="І"/><glyph d="M499 0v1420h200v-1420h-200zM168 0v190h864v-190h-864zM168 1230v190h864v-190h-864zM808 1580q-55 0 -94.5 39.5t-39.5 94.5q0 56 39.5 95t94.5 39q56 0 95 -39t39 -95q0 -55 -39 -94.5t-95 -39.5zM392 1580q-55 0 -94.5 39.5t-39.5 94.5q0 56 39.5 95t94.5 39 q56 0 95 -39t39 -95q0 -55 -39 -94.5t-95 -39.5z" glyph-name="uni0407" unicode="Ї"/><glyph d="M584 -20q-234 0 -361 130.5t-127 365.5h200q0 -150 76.5 -233t216.5 -83q136 0 209.5 82.5t73.5 233.5v944h200v-944q0 -236 -129 -366t-359 -130zM500 1230v190h466v-190h-466z" glyph-name="uni0408" unicode="Ј"/><glyph d="M53 0v190q96 0 131.5 54.5t35.5 200.5v975h160v-968q0 -173 -30 -272t-101 -139.5t-196 -40.5zM565 0v1420h180v-1420h-180zM721 0v190h85q58 0 93 73.5t35 194.5q0 122 -35 195t-93 73h-105v190h163q79 0 137 -57t90.5 -160t32.5 -241t-32.5 -241t-90.5 -160t-137 -57 h-143zM262 1230v190h435v-190h-435z" glyph-name="uni0409" unicode="Љ"/><glyph d="M720 0v190h76q62 0 100 73.5t38 194.5q0 122 -38 195t-100 73h-76v190h134q82 0 142.5 -57t94 -160t33.5 -241t-33.5 -241t-94 -160t-142.5 -57h-134zM128 0v1420h200v-1420h-200zM170 612v190h531v-190h-531zM544 0v1420h200v-593v-20v-807h-200z" glyph-name="uni040A" unicode="Њ"/><glyph d="M862 0v390q0 152 -50 221t-162 69h-228v190h228q217 0 314.5 -113.5t97.5 -366.5v-390h-200zM240 0v1420h200v-1420h-200zM20 1230v190h820v-190h-820z" glyph-name="uni040B" unicode="Ћ"/><glyph d="M535 724l11 81q98 0 135 39.5t56 129.5l38 184q21 101 50 159t80 83t138 25h68v-190h-48q-46 0 -64 -24t-32 -80l-53 -213q-22 -88 -68.5 -141t-167.5 -53h-143zM140 0v1420h200v-1420h-200zM295 615v190h333v-190h-333zM1053 -5q-87 0 -138 25t-80 83.5t-50 158.5 l-38 184q-18 89 -57 129t-144 40l-11 81h143q128 0 180.5 -53t74.5 -141l53 -213q14 -56 32 -80t64 -24h48v-190h-77zM469 1580l220 250h282l-260 -250h-242z" glyph-name="uni040C" unicode="Ќ"/><glyph d="M258 0v350h102l480 1070h60v-350h-60l-480 -1070h-102zM148 0v1420h192v-1420h-192zM860 0v1420h192v-1420h-192zM499 1580l-260 250h282l220 -250h-242z" glyph-name="uni040D" unicode="Ѝ"/><glyph d="M203 0v190q140 0 229.5 25t145 86t93.5 169l285 950h220l-349 -1060q-52 -138 -126.5 -216.5t-193 -111t-304.5 -32.5zM578 200l-482 1220h220l351 -910h34zM650 1570q-163 0 -253.5 76t-90.5 214h195q0 -88 39 -121t110 -33t110 33t39 121h195q0 -138 -90 -214t-254 -76 z" glyph-name="uni040E" unicode="Ў"/><glyph d="M860 0v1420h200v-1420h-200zM500 -290v420h200v-420h-200zM140 0v190h920v-190h-920zM140 0v1420h200v-1420h-200z" glyph-name="uni040F" unicode="Џ"/><glyph d="M45 0l410 1420h290l410 -1420h-210l-336 1248h-18l-336 -1248h-210zM235 346v190h720v-190h-720z" glyph-name="uni0410" unicode="А"/><glyph d="M346 0v190h286q133 0 205.5 66t72.5 187q0 111 -72.5 172t-205.5 61h-282l-24 190h364q205 0 317.5 -110.5t112.5 -312.5q0 -211 -112.5 -327t-317.5 -116h-344zM160 0v1420h200v-1420h-200zM202 1230v190h814v-190h-814z" glyph-name="uni0411" unicode="Б"/><glyph d="M346 0v190h300q132 0 205 60.5t73 169.5q0 112 -76 173.5t-216 61.5h-282l-24 91h356q216 0 334 -93t118 -263q0 -186 -112 -288t-318 -102h-358zM160 0v1420h200v-1420h-200zM278 698v98h416v-98h-416zM346 754v91h240q113 0 175.5 50.5t62.5 144.5q0 92 -65.5 141 t-186.5 49h-222l-24 190h256q216 0 334 -93.5t118 -266.5q0 -147 -112 -226.5t-318 -79.5h-258z" glyph-name="uni0412" unicode="В"/><glyph d="M180 0v1420h200v-1420h-200zM180 1230v190h910v-190h-910z" glyph-name="uni0413" unicode="Г"/><glyph d="M296 155l-180 25q30 43 52.5 123.5t37.5 179.5t23 200.5t8 185.5v551h185v-545q0 -87 -7.5 -191t-23 -207t-39 -188.5t-56.5 -133.5zM30 -290v420h200v-420h-200zM970 -290v420h200v-420h-200zM844 0v1420h200v-1420h-200zM341 1230v190h620v-190h-620zM1170 190v-190 h-1140v190h1140z" glyph-name="uni0414" unicode="Д"/><glyph d="M160 0v1420h200v-1420h-200zM160 0v190h940v-190h-940zM160 616v190h760v-190h-760zM160 1230v190h940v-190h-940z" glyph-name="uni0415" unicode="Е"/><glyph d="M783 724l48 81q39 0 55.5 7.5t19.5 27.5t3 56v332q0 104 44.5 150.5t129.5 46.5h90v-190h-23q-19 0 -34 -15t-15 -49v-296q0 -64 -42.5 -100t-111.5 -41zM27 -5v190h23q19 0 34 15t15 49v296q0 65 42.5 101t111.5 40l164 10l-48 -81q-39 0 -55 -7.5t-19.5 -27t-3.5 -56.5 v-332q0 -103 -44 -150t-130 -47h-90zM279 615v190h236v-190h-236zM417 724l-164 10q-69 5 -111.5 41t-42.5 100v296q0 34 -15 49t-34 15h-23v190h90q86 0 130 -46.5t44 -150.5v-332q0 -36 3.5 -56t19.5 -27.5t55 -7.5zM515 0v1420h170v-1420h-170zM1083 -5q-85 0 -129.5 47 t-44.5 150v332q0 37 -3 56.5t-19.5 27t-55.5 7.5l-48 81l164 -10q69 -4 111.5 -40t42.5 -101v-296q0 -34 15 -49t34 -15h23v-190h-90zM685 615v190h226v-190h-226z" glyph-name="uni0416" unicode="Ж"/><glyph d="M566 -20q-308 0 -502 171l144 141q63 -46 117 -74t112 -41t134 -13q137 0 215 66.5t78 184.5q0 114 -91 175.5t-239 61.5h-150l-22 188q242 8 346 60t104 158q0 83 -79.5 140t-262.5 57q-40 0 -83 -6t-87 -15t-87 -19l-25 184q31 10 75.5 19t98.5 15.5t111 6.5 q287 0 415 -96t128 -251q0 -127 -84 -207.5t-278 -122.5l17 56v-117l-17 54q109 -2 204.5 -43.5t154.5 -121.5t59 -197q0 -125 -61.5 -218.5t-175 -144.5t-269.5 -51z" glyph-name="uni0417" unicode="З"/><glyph d="M258 0v350h102l480 1070h60v-350h-60l-480 -1070h-102zM148 0v1420h192v-1420h-192zM860 0v1420h192v-1420h-192z" glyph-name="uni0418" unicode="И"/><glyph d="M258 0v350h102l480 1070h60v-350h-60l-480 -1070h-102zM148 0v1420h192v-1420h-192zM860 0v1420h192v-1420h-192zM600 1570q-163 0 -253.5 76t-90.5 214h195q0 -88 39 -121t110 -33t110 33t39 121h195q0 -138 -90 -214t-254 -76z" glyph-name="uni0419" unicode="Й"/><glyph d="M535 724l11 81q98 0 135 39.5t56 129.5l38 184q21 101 50 159t80 83t138 25h68v-190h-48q-46 0 -64 -24t-32 -80l-53 -213q-22 -88 -68.5 -141t-167.5 -53h-143zM140 0v1420h200v-1420h-200zM295 615v190h333v-190h-333zM1053 -5q-87 0 -138 25t-80 83.5t-50 158.5 l-38 184q-18 89 -57 129t-144 40l-11 81h143q128 0 180.5 -53t74.5 -141l53 -213q14 -56 32 -80t64 -24h48v-190h-77z" glyph-name="uni041A" unicode="К"/><glyph d="M37 1v190q104 0 149.5 51.5t56.5 146.5t11 225v806h185v-799q0 -144 -11.5 -258.5t-50.5 -195t-120 -123.5t-220 -43zM860 0v1420h200v-1420h-200zM342 1230v190h681v-190h-681z" glyph-name="uni041B" unicode="Л"/><glyph d="M566 580l30 230h12l162 610h142v-252h-58l-162 -588h-126zM128 0v1420h192v-1420h-192zM508 580l-162 588h-58v252h142l162 -610h8l20 -230h-112zM880 0v1420h192v-1420h-192z" glyph-name="uni041C" unicode="М"/><glyph d="M860 0v1420h200v-1420h-200zM140 0v1420h200v-1420h-200zM182 612v190h841v-190h-841z" glyph-name="uni041D" unicode="Н"/><glyph d="M600 -20q-524 0 -524 720q0 740 524 740t524 -740q0 -720 -524 -720zM600 164q314 0 314 536q0 556 -314 556t-314 -556q0 -536 314 -536z" glyph-name="uni041E" unicode="О"/><glyph d="M860 0v1420h200v-1420h-200zM140 0v1420h200v-1420h-200zM182 1230v190h841v-190h-841z" glyph-name="uni041F" unicode="П"/><glyph d="M336 440v190h242q158 0 245 79t87 221q0 143 -87 221.5t-245 78.5h-238v190h238q259 0 400.5 -128.5t141.5 -361.5q0 -234 -141.5 -362t-400.5 -128h-242zM160 0v1420h200v-1420h-200z" glyph-name="uni0420" unicode="Р"/><glyph d="M758 -20q-662 0 -662 732q0 347 167 537.5t471 190.5q147 0 256 -46.5t159 -132.5l-148 -147q-45 68 -114.5 105t-150.5 37q-193 0 -309.5 -139t-116.5 -395q0 -558 482 -558q145 0 286 60l46 -176q-174 -68 -366 -68z" glyph-name="uni0421" unicode="С"/><glyph d="M500 0v1420h200v-1420h-200zM80 1230v190h1040v-190h-1040z" glyph-name="uni0422" unicode="Т"/><glyph d="M203 0v190q140 0 229.5 25t145 86t93.5 169l285 950h220l-349 -1060q-52 -138 -126.5 -216.5t-193 -111t-304.5 -32.5zM578 200l-482 1220h220l351 -910h34z" glyph-name="uni0423" unicode="У"/><glyph d="M600 140q-534 0 -534 570q0 590 534 590t534 -590q0 -570 -534 -570zM514 -20v228l10 63v918l-10 59v212h170v-212l-10 -59v-918l10 -63v-228h-170zM600 304q334 0 334 406q0 426 -334 426t-334 -426q0 -406 334 -406z" glyph-name="uni0424" unicode="Ф"/><glyph d="M906 0l-364 636l-476 784h230l378 -674l462 -746h-230zM66 0l462 746l378 674h230l-476 -784l-364 -636h-230z" glyph-name="uni0425" unicode="Х"/><glyph d="M850 0v1420h200v-1420h-200zM182 0v190h976v-190h-976zM140 0v1420h200v-1420h-200zM960 -290v480h200v-480h-200z" glyph-name="uni0426" unicode="Ц"/><glyph d="M580 545q-232 0 -336 113.5t-104 366.5v395h200v-395q0 -152 57 -221t183 -69h298v-190h-298zM860 0v1420h200v-1420h-200z" glyph-name="uni0427" unicode="Ч"/><glyph d="M872 0v1420h200v-1420h-200zM170 0v180h865v-180h-865zM128 0v1420h200v-1420h-200zM515 0v1420h170v-1420h-170z" glyph-name="uni0428" unicode="Ш"/><glyph d="M872 0v1420h200v-1420h-200zM170 0v180h865v-180h-865zM128 0v1420h200v-1420h-200zM960 -290v470h200v-470h-200zM515 0v1420h170v-1420h-170z" glyph-name="uni0429" unicode="Щ"/><glyph d="M436 0v190h210q126 0 202 73.5t76 194.5q0 122 -76 195t-202 73h-230v190h288q130 0 226.5 -57t150 -160t53.5 -241t-53.5 -241t-150 -160t-226.5 -57h-268zM250 0v1420h200v-1420h-200zM0 1230v190h324v-190h-324z" glyph-name="uni042A" unicode="Ъ"/><glyph d="M314 0v190h82q76 0 122 73.5t46 194.5q0 122 -46 195t-122 73h-102v190h160q91 0 158 -57t104.5 -160t37.5 -241t-37.5 -241t-104.5 -160t-158 -57h-140zM128 0v1420h200v-1420h-200zM882 0v1420h190v-1420h-190z" glyph-name="uni042B" unicode="Ы"/><glyph d="M346 0v190h300q126 0 202 73.5t76 194.5q0 122 -76 195t-202 73h-320v190h378q130 0 226.5 -57t150 -160t53.5 -241t-53.5 -241t-150 -160t-226.5 -57h-358zM160 0v1420h200v-1420h-200z" glyph-name="uni042C" unicode="Ь"/><glyph d="M476 -20q-135 0 -252.5 43t-206.5 128l144 141q59 -49 108.5 -77t101 -39.5t116.5 -11.5q194 0 302 144t108 397q0 263 -120 407t-356 144q-76 0 -147 -12.5t-142 -37.5l-46 176q175 58 369 58q320 0 484.5 -187t164.5 -540q0 -343 -157 -538t-471 -195zM333 632v190h685 v-190h-685z" glyph-name="uni042D" unicode="Э"/><glyph d="M775 -20q-184 0 -266.5 170.5t-82.5 549.5q0 389 82.5 564.5t266.5 175.5t266.5 -175.5t82.5 -564.5q0 -379 -82.5 -549.5t-266.5 -170.5zM80 0v1420h190v-1420h-190zM162 612v190h331v-190h-331zM765 164q84 0 121.5 127t37.5 409q0 293 -37.5 424.5t-121.5 131.5 t-121.5 -131.5t-37.5 -424.5q0 -282 37.5 -409t121.5 -127z" glyph-name="uni042E" unicode="Ю"/><glyph d="M564 628q-39 0 -96.5 3.5t-119 20t-115.5 55.5t-87.5 109t-33.5 180q0 203 126 313.5t346 110.5h312l-24 -190h-288q-119 0 -190.5 -62.5t-71.5 -187.5q0 -121 71.5 -190.5t190.5 -69.5h292v-92h-312zM72 -5v190h33q39 0 70 19.5t50 90.5l36 130q21 75 52.5 113.5t72 52 t89.5 13.5h191v-74q-83 0 -127 -13.5t-64 -42t-32 -73.5l-51 -204q-23 -93 -80.5 -147.5t-196.5 -54.5h-43zM495 530v190h403v-190h-403zM862 0v1420h200v-1420h-200z" glyph-name="uni042F" unicode="Я"/><glyph d="M818 -10l-14 314l-28 88v274q0 106 -74.5 155.5t-221.5 53.5l-254 7l20 188l214 -3q263 -4 390.5 -113.5t127.5 -319.5v-442l180 -22v-170zM444 -20q-166 0 -257 80t-91 226q0 168 125.5 258t354.5 90q95 0 169.5 -11.5t132.5 -34.5l-44 -144q-67 15 -131 17.5t-131 2.5 q-276 0 -276 -158q0 -74 47.5 -115t134.5 -41q99 0 165.5 34t99.5 87t33 109v116l62 -272h-84l34 32q0 -92 -42.5 -153.5t-119.5 -92t-182 -30.5z" glyph-name="uni0430" unicode="а"/><glyph d="M618 -20q-239 0 -367.5 158.5t-128.5 447.5v118q0 200 56.5 334.5t176.5 213t308 110.5l369 63l10 -190l-324 -55q-145 -24 -228.5 -67.5t-119 -117t-35.5 -189.5v-98h23q31 111 123 171.5t225 60.5q180 0 279 -123t99 -347q0 -233 -122 -361.5t-344 -128.5zM620 164 q119 0 184.5 80t65.5 226q0 137 -66.5 211.5t-187.5 74.5q-132 0 -204 -69t-72 -197q0 -326 280 -326z" glyph-name="uni0431" unicode="б"/><glyph d="M366 0v190h340q74 0 115 36.5t41 103.5t-44.5 103.5t-125.5 36.5h-346v71h396q163 0 252.5 -68t89.5 -193q0 -133 -84 -206.5t-236 -73.5h-398zM168 0v1060h212v-1060h-212zM298 498v98h456v-98h-456zM346 559v71h320q74 0 115 31.5t41 88.5t-44.5 88.5t-125.5 31.5h-286 v190h336q163 0 252.5 -73t89.5 -207q0 -106 -84 -163.5t-236 -57.5h-378z" glyph-name="uni0432" unicode="в"/><glyph d="M316 0v1060h212v-1060h-212zM378 870v190h692v-190h-692z" glyph-name="uni0433" unicode="г"/><glyph d="M318 145l-190 25q59 86 85 210.5t26 293.5v386h185v-379q0 -173 -24 -306t-82 -230zM40 -270v400h200v-400h-200zM930 -270v400h200v-400h-200zM792 0v1060h212v-1060h-212zM341 870v190h580v-190h-580zM1130 190v-190h-1090v190h1090z" glyph-name="uni0434" unicode="д"/><glyph d="M702 -20q-271 0 -418.5 142.5t-147.5 409.5q0 260 125 404t353 144q215 0 332.5 -130t117.5 -378q0 -73 -6 -136h-744v162h558q0 143 -68 219.5t-188 76.5q-135 0 -209.5 -92t-74.5 -260q0 -184 102.5 -280t291.5 -96q66 0 130 7.5t130 20.5l26 -186q-94 -18 -172 -23 t-138 -5z" glyph-name="uni0435" unicode="е"/><glyph d="M806 536v81q54 0 62.5 18t8.5 73v170q0 101 55 146.5t158 45.5h73v-190h-43q-22 0 -40.5 -13.5t-18.5 -45.5v-134q0 -64 -42 -100t-103 -41zM37 -10v190h43q23 0 41 14t18 45v134q0 65 42 100.5t103 40.5l110 10v-81q-54 0 -62.5 -18t-8.5 -73v-170q0 -101 -54.5 -146.5 t-158.5 -45.5h-73zM322 443v174h203v-174h-203zM394 536l-110 10q-61 5 -103 41t-42 100v134q0 32 -18 45.5t-41 13.5h-43v190h73q104 0 158.5 -45.5t54.5 -146.5v-170q0 -55 8.5 -73t62.5 -18v-81zM509 0v1060h180v-1060h-180zM1090 -10q-103 0 -158 45.5t-55 146.5v170 q0 55 -8.5 73t-62.5 18v81l110 -10q61 -5 103 -40.5t42 -100.5v-134q0 -31 18.5 -45t40.5 -14h43v-190h-73zM669 443v174h209v-174h-209z" glyph-name="uni0436" unicode="ж"/><glyph d="M556 -20q-122 0 -239.5 26t-201.5 104l102 148q72 -52 164.5 -73t166.5 -21q125 0 196.5 38.5t71.5 102.5q0 83 -80.5 123.5t-281.5 40.5h-42l-11 164h56q138 0 206 16t90 47.5t22 75.5q0 62 -81.5 93t-205.5 31q-69 0 -123 -6.5t-140 -15.5l-25 180q74 10 139.5 18 t170.5 8q223 0 354 -65.5t131 -207.5q0 -54 -30 -104t-89 -85.5t-146 -47.5v-20q103 -15 170.5 -49t101.5 -86.5t34 -124.5q0 -140 -130 -225t-350 -85z" glyph-name="uni0437" unicode="з"/><glyph d="M308 0v290h92l415 770h70v-290h-85l-415 -770h-77zM168 0v1060h212v-1060h-212zM820 0v1060h212v-1060h-212z" glyph-name="uni0438" unicode="и"/><glyph d="M308 0v290h92l415 770h70v-290h-85l-415 -770h-77zM168 0v1060h212v-1060h-212zM820 0v1060h212v-1060h-212zM600 1238q-179 0 -263 90.5t-84 274.5h188q0 -120 36 -174.5t123 -54.5q89 0 124 55.5t35 173.5h188q0 -185 -84.5 -275t-262.5 -90z" glyph-name="uni0439" unicode="й"/><glyph d="M546 544v81q64 0 89.5 19.5t42.5 62.5l69 171q31 77 64 117.5t82 55t127 14.5h43v-190h-43q-37 0 -56 -10t-33 -44l-70 -164q-25 -57 -72.5 -85t-128.5 -28h-114zM168 0v1060h212v-1060h-212zM365 435v190h309v-190h-309zM1030 -5q-78 0 -129.5 14.5t-87 55t-66.5 117.5 l-69 171q-17 43 -42.5 62.5t-89.5 19.5v81h124q162 0 211 -113l70 -164q14 -34 33 -44t56 -10h33v-190h-43z" glyph-name="uni043A" unicode="к"/><glyph d="M63 0v190q80 0 125.5 27.5t64.5 93.5t19 183v566h185v-559q0 -193 -35.5 -302t-121.5 -154t-237 -45zM826 0v1060h212v-1060h-212zM324 870v190h677v-190h-677z" glyph-name="uni043B" unicode="л"/><glyph d="M566 220l30 230h12l172 610h122v-252h-58l-162 -588h-116zM128 0v1060h202v-1060h-202zM518 220l-162 588h-58v252h122l172 -610h8l20 -230h-102zM870 0v1060h202v-1060h-202z" glyph-name="uni043C" unicode="м"/><glyph d="M820 0v1060h212v-1060h-212zM168 0v1060h212v-1060h-212zM230 443v174h771v-174h-771z" glyph-name="uni043D" unicode="н"/><glyph d="M600 -20q-220 0 -342 144t-122 406q0 263 122 406.5t342 143.5q221 0 342.5 -143.5t121.5 -406.5q0 -262 -121.5 -406t-342.5 -144zM600 170q117 0 180.5 94t63.5 266q0 173 -63.5 266.5t-180.5 93.5t-180.5 -93.5t-63.5 -266.5q0 -172 63.5 -266t180.5 -94z" glyph-name="uni043E" unicode="о"/><glyph d="M820 0v1060h212v-1060h-212zM168 0v1060h212v-1060h-212zM230 870v190h771v-190h-771z" glyph-name="uni043F" unicode="п"/><glyph d="M682 -20q-120 0 -195.5 46.5t-86.5 137.5h-92l72 292v-116q0 -90 59 -135t179 -45q137 0 206.5 91t69.5 269q0 182 -71.5 281t-202.5 99q-120 0 -180 -65.5t-60 -198.5l-62 232h82q14 107 83.5 159.5t196.5 52.5q203 0 313.5 -146.5t110.5 -413.5q0 -261 -110.5 -400.5 t-311.5 -139.5zM168 -460v1520h192l20 -224v-1296h-212z" glyph-name="uni0440" unicode="р"/><glyph d="M682 -20q-261 0 -403.5 142.5t-142.5 409.5q0 260 139.5 404t398.5 144q155 0 265.5 -57.5t157.5 -162.5l-163 -123q-45 73 -115 113t-153 40q-147 0 -228.5 -90.5t-81.5 -257.5q0 -181 91 -276.5t259 -95.5q80 0 158.5 7t153.5 19l24 -186q-87 -18 -179 -24t-181 -6z" glyph-name="uni0441" unicode="с"/><glyph d="M494 0v1060h212v-1060h-212zM90 870v190h1020v-190h-1020z" glyph-name="uni0442" unicode="т"/><glyph d="M75 -480l-10 190l166 20q105 13 179.5 57t127.5 130.5t93 226.5l264 916h220l-306 -966q-60 -190 -134.5 -306t-176 -174t-243.5 -74zM477 0l-422 1060h220l346 -900h32v-160h-176z" glyph-name="uni0443" unicode="у"/><glyph d="M908 -20q-79 0 -129.5 44t-57.5 130h-92l57 302v-116q0 -90 31.5 -135t96.5 -45q69 0 100 85t31 275q0 200 -30.5 290t-98.5 90q-130 0 -130 -304l-47 282h82q9 101 55 151.5t130 50.5q131 0 190 -132.5t59 -427.5q0 -284 -58.5 -412t-188.5 -128zM292 -20 q-130 0 -188.5 128t-58.5 412q0 295 59 427.5t190 132.5q84 0 130 -50.5t55 -151.5h82l-47 -282q0 304 -130 304q-67 0 -98 -90t-31 -290q0 -190 31 -275t100 -85q65 0 96.5 45t31.5 135v116l57 -302h-92q-7 -86 -57 -130t-130 -44zM499 -440v637l15 57v553l-15 33v660h202 v-660l-15 -33v-553l15 -57v-637h-202z" glyph-name="uni0444" unicode="ф"/><glyph d="M106 0l422 584l326 476h240l-438 -602l-310 -458h-240zM854 0l-322 458l-426 602h240l326 -476l422 -584h-240z" glyph-name="uni0445" unicode="х"/><glyph d="M782 0v1060h212v-1060h-212zM202 0v190h875v-190h-875zM140 0v1060h212v-1060h-212zM930 -270v460h200v-460h-200z" glyph-name="uni0446" unicode="ц"/><glyph d="M560 380q-217 0 -324.5 107.5t-107.5 322.5v250h212v-250q0 -128 55 -192t165 -64h318v-174h-318zM820 0v1060h212v-1060h-212z" glyph-name="uni0447" unicode="ч"/><glyph d="M876 0v1060h212v-1060h-212zM154 0v180h897v-180h-897zM112 0v1060h212v-1060h-212zM509 0v1060h180v-1060h-180z" glyph-name="uni0448" unicode="ш"/><glyph d="M856 0v1060h212v-1060h-212zM154 0v180h897v-180h-897zM112 0v1060h212v-1060h-212zM958 -270v450h200v-450h-200zM504 0v1060h170v-1060h-170z" glyph-name="uni0449" unicode="щ"/><glyph d="M446 0v190h250q90 0 139 44t49 124t-49 124t-139 44h-270v190h298q182 0 281 -93.5t99 -264.5t-99 -264.5t-281 -93.5h-278zM248 0v1060h212v-1060h-212zM0 870v190h353v-190h-353z" glyph-name="uni044A" unicode="ъ"/><glyph d="M310 0v170h79q80 0 124 49t44 139t-44 139t-124 49h-99v170h127q158 0 244 -93.5t86 -264.5t-86 -264.5t-244 -93.5h-107zM112 0v1060h212v-1060h-212zM876 0v1060h212v-1060h-212z" glyph-name="uni044B" unicode="ы"/><glyph d="M386 0v190h330q80 0 124 44t44 124t-44 124t-124 44h-350v190h378q172 0 266 -93.5t94 -264.5t-94 -264.5t-266 -93.5h-358zM188 0v1060h212v-1060h-212z" glyph-name="uni044C" unicode="ь"/><glyph d="M526 -20q-129 0 -232 35.5t-162 87.5l104 160q50 -37 128 -65t170 -28q152 0 236 91t84 257q0 182 -104 277t-296 95q-61 0 -123.5 -5t-128.5 -16l18 194q113 17 258 17q281 0 433.5 -142.5t152.5 -409.5q0 -259 -139.5 -403.5t-398.5 -144.5zM416 446v174h534v-174h-534 z" glyph-name="uni044D" unicode="э"/><glyph d="M775 -20q-173 0 -251 128t-78 412q0 295 78 427.5t251 132.5q184 0 266.5 -132.5t82.5 -427.5q0 -284 -82.5 -412t-266.5 -128zM110 0v1060h197v-1060h-197zM182 440v174h331v-174h-331zM765 164q78 0 113.5 84.5t35.5 271.5q0 198 -35.5 287t-113.5 89t-113.5 -89 t-35.5 -287q0 -187 35.5 -271.5t113.5 -84.5z" glyph-name="uni044E" unicode="ю"/><glyph d="M477 450q-154 0 -238 76t-84 215q0 152 105 235.5t297 83.5h292v-190h-292q-87 0 -134.5 -43t-47.5 -122q0 -74 47.5 -114.5t134.5 -40.5h272l-10 -100h-342zM126 -5v190h33q41 0 63.5 17.5t45.5 51.5l50 74q32 47 75.5 70t116.5 23h190l-8 -61q-65 0 -99 -9t-51 -27 t-32 -46l-43 -81q-36 -69 -72.5 -113.5t-88.5 -66.5t-137 -22h-43zM510 360v190h353v-190h-353zM815 0v1060h212v-1060h-212z" glyph-name="uni044F" unicode="я"/><glyph d="M702 -20q-271 0 -418.5 142.5t-147.5 409.5q0 260 125 404t353 144q215 0 332.5 -130t117.5 -378q0 -73 -6 -136h-744v162h558q0 143 -68 219.5t-188 76.5q-135 0 -209.5 -92t-74.5 -260q0 -184 102.5 -280t291.5 -96q66 0 130 7.5t130 20.5l26 -186q-94 -18 -172 -23 t-138 -5zM544 1248l-190 380h212l170 -380h-192z" glyph-name="uni0450" unicode="ѐ"/><glyph d="M702 -20q-271 0 -418.5 142.5t-147.5 409.5q0 260 125 404t353 144q215 0 332.5 -130t117.5 -378q0 -73 -6 -136h-744v162h558q0 143 -68 219.5t-188 76.5q-135 0 -209.5 -92t-74.5 -260q0 -184 102.5 -280t291.5 -96q66 0 130 7.5t130 20.5l26 -186q-94 -18 -172 -23 t-138 -5zM832 1238q-55 0 -94.5 39.5t-39.5 94.5q0 56 39.5 95t94.5 39q56 0 95 -39t39 -95q0 -55 -39 -94.5t-95 -39.5zM412 1238q-55 0 -94.5 39.5t-39.5 94.5q0 56 39.5 95t94.5 39q56 0 95 -39t39 -95q0 -55 -39 -94.5t-95 -39.5z" glyph-name="uni0451" unicode="ё"/><glyph d="M820 140v430q0 101 -45 155.5t-125 54.5q-230 0 -230 -304l-62 272h82q16 212 260 212q158 0 245 -102t87 -288v-430h-212zM208 0v1500h212v-1500h-212zM0 1146v174h770v-174h-770zM514 -480l-10 188l140 18q92 8 134 72t42 194v392h212v-360q0 -165 -42.5 -270.5 t-132.5 -158.5t-233 -63z" glyph-name="uni0452" unicode="ђ"/><glyph d="M316 0v1060h212v-1060h-212zM378 870v190h692v-190h-692zM589 1248l170 380h212l-190 -380h-192z" glyph-name="uni0453" unicode="ѓ"/><glyph d="M682 -20q-261 0 -403.5 142.5t-142.5 409.5q0 260 139.5 404t398.5 144q155 0 265.5 -57.5t157.5 -162.5l-163 -123q-45 73 -115 113t-153 40q-151 0 -235.5 -90.5t-84.5 -257.5q0 -181 94 -276.5t266 -95.5q80 0 158.5 7t153.5 19l24 -186q-87 -18 -179 -24t-181 -6z M215 446v174h569v-174h-569z" glyph-name="uni0454" unicode="є"/><glyph d="M518 -20q-120 0 -205.5 7t-156.5 23l24 192q105 -16 185.5 -24t152.5 -8q161 0 233.5 31.5t72.5 100.5q0 48 -25.5 71.5t-78.5 36.5l-244 62q-157 40 -230.5 99t-73.5 179q0 174 133.5 252t430.5 78q77 0 143.5 -4.5t136.5 -15.5l-22 -184q-81 8 -143 11t-121 3 q-178 0 -258 -30.5t-80 -99.5q0 -46 33 -66.5t101 -37.5l196 -48q167 -40 244.5 -107t77.5 -195q0 -171 -125 -248.5t-401 -77.5z" glyph-name="uni0455" unicode="ѕ"/><glyph d="M564 0v1000h212v-1000h-212zM160 0v174h424v-174h-424zM756 0v174h346v-174h-346zM220 884v176h556v-176h-556zM658 1228q-61 0 -104.5 43.5t-43.5 104.5q0 62 43.5 105t104.5 43q62 0 105 -43t43 -105q0 -61 -43 -104.5t-105 -43.5z" glyph-name="uni0456" unicode="і"/><glyph d="M564 0v1060h212v-1060h-212zM160 0v174h424v-174h-424zM756 0v174h346v-174h-346zM220 886v174h556v-174h-556zM862 1238q-55 0 -94.5 39.5t-39.5 94.5q0 56 39.5 95t94.5 39q56 0 95 -39t39 -95q0 -55 -39 -94.5t-95 -39.5zM442 1238q-55 0 -94.5 39.5t-39.5 94.5 q0 56 39.5 95t94.5 39q56 0 95 -39t39 -95q0 -55 -39 -94.5t-95 -39.5z" glyph-name="uni0457" unicode="ї"/><glyph d="M180 -480l-10 188l200 18q161 15 233.5 94t72.5 242v322h212v-290q0 -189 -56 -307.5t-175 -179t-307 -75.5zM264 886v174h428v-174h-428zM676 350v710h212v-710h-212zM760 1228q-61 0 -104.5 43.5t-43.5 104.5q0 62 43.5 105t104.5 43q62 0 105 -43t43 -105 q0 -61 -43 -104.5t-105 -43.5z" glyph-name="uni0458" unicode="ј"/><glyph d="M63 0v190q79 0 108 32.5t29 121.5v716h185v-709q0 -135 -29 -211.5t-99 -108t-194 -31.5zM571 0v1060h192v-1060h-192zM749 0v190h74q71 0 109.5 44t38.5 124t-38.5 124t-109.5 44h-94v190h112q158 0 244 -93.5t86 -264.5t-86 -264.5t-244 -93.5h-92zM242 886v174h484 v-174h-484z" glyph-name="uni0459" unicode="љ"/><glyph d="M719 0v190h104q71 0 109.5 44t38.5 124q0 74 -38.5 114t-109.5 40h-124v174h142q158 0 244 -85.5t86 -242.5q0 -171 -86 -264.5t-244 -93.5h-122zM88 0v1060h212v-1060h-212zM150 512v174h451v-174h-451zM541 0v1060h192v-443v-50v-567h-192z" glyph-name="uni045A" unicode="њ"/><glyph d="M820 0v570q0 101 -45 155.5t-125 54.5q-230 0 -230 -304l-62 272h82q16 212 260 212q158 0 245 -102t87 -288v-570h-212zM208 0v1500h212v-1500h-212zM0 1146v174h770v-174h-770z" glyph-name="uni045B" unicode="ћ"/><glyph d="M546 544v81q64 0 89.5 19.5t42.5 62.5l69 171q31 77 64 117.5t82 55t127 14.5h43v-190h-43q-37 0 -56 -10t-33 -44l-70 -164q-25 -57 -72.5 -85t-128.5 -28h-114zM168 0v1060h212v-1060h-212zM365 435v190h309v-190h-309zM1030 -5q-78 0 -129.5 14.5t-87 55t-66.5 117.5 l-69 171q-17 43 -42.5 62.5t-89.5 19.5v81h124q162 0 211 -113l70 -164q14 -34 33 -44t56 -10h33v-190h-43zM489 1248l170 380h212l-190 -380h-192z" glyph-name="uni045C" unicode="ќ"/><glyph d="M308 0v290h92l415 770h70v-290h-85l-415 -770h-77zM168 0v1060h212v-1060h-212zM820 0v1060h212v-1060h-212zM524 1248l-190 380h212l170 -380h-192z" glyph-name="uni045D" unicode="ѝ"/><glyph d="M75 -480l-10 190l166 20q105 13 179.5 57t127.5 130.5t93 226.5l264 916h220l-306 -966q-60 -190 -134.5 -306t-176 -174t-243.5 -74zM477 0l-422 1060h220l346 -900h32v-160h-176zM615 1238q-179 0 -263 90.5t-84 274.5h188q0 -120 36 -174.5t123 -54.5q89 0 124 55.5 t35 173.5h188q0 -185 -84.5 -275t-262.5 -90z" glyph-name="uni045E" unicode="ў"/><glyph d="M815 0v1060h212v-1060h-212zM506 -270v400h200v-400h-200zM173 0v174h854v-174h-854zM173 0v1060h212v-1060h-212z" glyph-name="uni045F" unicode="џ"/><glyph d="M180 0v1420h200v-1420h-200zM180 1230v190h930v-190h-930zM910 1270v460h200v-460h-200z" glyph-name="uni0490" unicode="Ґ"/><glyph d="M316 0v1060h212v-1060h-212zM378 870v190h692v-190h-692zM890 870v450h200v-450h-200z" glyph-name="uni0491" unicode="ґ"/><glyph d="M-4 585v190h712v-190h-712zM180 0v1420h200v-1420h-200zM180 1230v190h910v-190h-910z" glyph-name="uni0492" unicode="Ғ"/><glyph d="M106 423v174h682v-174h-682zM316 0v1060h212v-1060h-212zM378 870v190h692v-190h-692z" glyph-name="uni0493" unicode="ғ"/><glyph d="M703 724l68 81q29 0 41 7.5t14.5 27.5t2.5 56v332q0 104 44.5 150.5t129.5 46.5h90v-190h-23q-19 0 -34 -15t-15 -49v-296q0 -64 -42.5 -100t-111.5 -41zM27 -5v190h23q19 0 34 15t15 49v296q0 65 42.5 101t111.5 40l164 10l-68 -81q-29 0 -41 -7.5t-14.5 -27t-2.5 -56.5 v-332q0 -103 -44 -150t-130 -47h-90zM1010 -290v480h190v-480h-190zM287 615v190h188v-190h-188zM417 724l-164 10q-69 5 -111.5 41t-42.5 100v296q0 34 -15 49t-34 15h-23v190h90q86 0 130 -46.5t44 -150.5v-332q0 -36 2.5 -56t14.5 -27.5t41 -7.5zM475 0v1420h170v-1420 h-170zM1003 -5q-85 0 -129.5 47t-44.5 150v332q0 37 -2.5 56.5t-14.5 27t-41 7.5l-68 81l164 -10q69 -4 111.5 -40t42.5 -101v-291q0 -34 15 -49t34 -15h23v-195h-90zM645 615v190h178v-190h-178z" glyph-name="uni0496" unicode="Җ"/><glyph d="M668 536l-32 81q71 0 100 7.5t34.5 27.5t5.5 56v160q0 104 58 150.5t166 46.5h73v-190h-63q-19 0 -34 -15t-15 -49v-124q0 -64 -48 -100t-117 -41zM47 -5v190h63q19 0 34 15t15 49v124q0 65 48 100.5t117 40.5l138 10l22 -81q-70 0 -99.5 -7.5t-35 -27t-5.5 -56.5v-160 q0 -103 -58 -150t-166 -47h-73zM362 443v174h128v-174h-128zM462 536l-138 10q-69 5 -117 41t-48 100v124q0 34 -15 49t-34 15h-63v190h73q108 0 166 -46.5t58 -150.5v-160q0 -36 5.5 -56t35 -27.5t99.5 -7.5zM480 0v1060h160v-1060h-160zM1000 -5q-108 0 -166 47t-58 150 v160q0 37 -5.5 56.5t-34.5 27t-100 7.5l32 81l128 -10q69 -5 117 -40.5t48 -100.5v-119q0 -34 15 -49t34 -15h63v-195h-73zM630 443v174h128v-174h-128zM966 -270v460h200v-460h-200z" glyph-name="uni0497" unicode="җ"/><glyph d="M535 724l11 81q98 0 135 39.5t56 129.5l38 184q21 101 50 159t80 83t138 25h68v-190h-48q-46 0 -64 -24t-32 -80l-53 -213q-22 -88 -68.5 -141t-167.5 -53h-143zM140 0v1420h200v-1420h-200zM970 -290v475h190v-475h-190zM295 615v190h333v-190h-333zM1053 -5 q-87 0 -138 25t-80 83.5t-50 158.5l-38 184q-18 89 -57 129t-144 40l-11 81h143q128 0 180.5 -53t74.5 -141l53 -213q14 -56 32 -80t64 -24h48v-190h-77z" glyph-name="uni049A" unicode="Қ"/><glyph d="M538 544l8 81q64 0 89.5 19.5t42.5 62.5l69 171q31 77 64 117.5t82 55t127 14.5h43v-190h-43q-37 0 -56 -10t-33 -44l-70 -164q-25 -57 -72.5 -85t-128.5 -28h-122zM168 0v1060h212v-1060h-212zM365 435v190h309v-190h-309zM966 -270v455h200v-455h-200zM1030 -5 q-78 0 -129.5 14.5t-87 55t-66.5 117.5l-69 171q-17 43 -42.5 62.5t-89.5 19.5l-8 81h132q162 0 211 -113l70 -164q14 -34 33 -44t56 -10h33v-190h-43z" glyph-name="uni049B" unicode="қ"/><glyph d="M970 -290v480h190v-480h-190zM860 0v1420h200v-1420h-200zM140 0v1420h200v-1420h-200zM182 612v190h841v-190h-841z" glyph-name="uni04A2" unicode="Ң"/><glyph d="M966 -270v460h200v-460h-200zM820 0v1060h212v-1060h-212zM168 0v1060h212v-1060h-212zM230 443v174h771v-174h-771z" glyph-name="uni04A3" unicode="ң"/><glyph d="M515 474l-490 946h220l346 -710h18l346 710h220l-490 -946h-170zM500 0v700h200v-700h-200z" glyph-name="uni04AE" unicode="Ү"/><glyph d="M499 0l-419 1060h226l325 -900h-62l325 900h226l-419 -1060h-202zM494 -460v556h212v-556h-212z" glyph-name="uni04AF" unicode="ү"/><glyph d="M257 295v190h689v-190h-689zM515 474l-490 946h220l346 -710h18l346 710h220l-490 -946h-170zM500 0v700h200v-700h-200z" glyph-name="uni04B0" unicode="Ұ"/><glyph d="M215 -174v174h771v-174h-771zM499 0l-419 1060h226l325 -900h-62l325 900h226l-419 -1060h-202zM494 -460v556h212v-556h-212z" glyph-name="uni04B1" unicode="ұ"/><glyph d="M970 -290v480h190v-480h-190zM906 0l-364 636l-476 784h230l378 -674l462 -746h-230zM66 0l462 746l378 674h230l-476 -784l-364 -636h-230z" glyph-name="uni04B2" unicode="Ҳ"/><glyph d="M956 -270v460h200v-460h-200zM106 0l422 584l326 476h240l-438 -602l-310 -458h-240zM854 0l-322 458l-426 602h240l326 -476l422 -584h-240z" glyph-name="uni04B3" unicode="ҳ"/><glyph d="M970 -290v480h190v-480h-190zM580 545q-232 0 -336 113.5t-104 366.5v395h200v-395q0 -152 57 -221t183 -69h298v-190h-298zM860 0v1420h200v-1420h-200z" glyph-name="uni04B6" unicode="Ҷ"/><glyph d="M966 -270v460h200v-460h-200zM560 380q-217 0 -324.5 107.5t-107.5 322.5v250h212v-250q0 -128 55 -192t165 -64h318v-174h-318zM820 0v1060h212v-1060h-212z" glyph-name="uni04B7" unicode="ҷ"/><glyph d="M860 0v395q0 152 -57 221t-183 69h-298v190h298q232 0 336 -113.5t104 -366.5v-395h-200zM140 0v1420h200v-1420h-200z" glyph-name="uni04BA" unicode="Һ"/><glyph d="M820 0v690q0 101 -50 155.5t-140 54.5q-250 0 -250 -304l-62 272h82q9 107 78 159.5t202 52.5q168 0 260 -102t92 -288v-690h-212zM168 0v1500h212v-1500h-212z" glyph-name="uni04BB" unicode="һ"/><glyph d="M499 0v1420h200v-1420h-200zM168 0v190h864v-190h-864zM168 1230v190h864v-190h-864z" glyph-name="uni04C0" unicode="Ӏ"/><glyph d="M564 0v1060h212v-1060h-212zM160 0v174h424v-174h-424zM756 0v174h346v-174h-346zM220 886v174h556v-174h-556z" glyph-name="uni04CF" unicode="ӏ"/><glyph d="M600 -20q-524 0 -524 700q0 31 1 60.5t3 57.5l209 -16q-3 -49 -3 -102q0 -516 314 -516t314 536q0 556 -414 556q-163 0 -304 -39l-28 177q156 46 332 46q624 0 624 -740q0 -720 -524 -720zM80 608v190h941v-190h-941z" glyph-name="uni04D8" unicode="Ә"/><glyph d="M586 -20q-214 0 -332 130.5t-118 377.5q0 73 6 136h744v-162h-558q0 -142 68 -219t188 -77q135 0 209.5 92t74.5 260q0 185 -102.5 280.5t-291.5 95.5q-66 0 -130 -10t-130 -28l-26 176q95 31 172.5 39.5t137.5 8.5q272 0 419 -142.5t147 -409.5q0 -259 -125 -403.5 t-353 -144.5z" glyph-name="uni04D9" unicode="ә"/><glyph d="M258 0v350h102l480 1070h60v-350h-60l-480 -1070h-102zM148 0v1420h192v-1420h-192zM860 0v1420h192v-1420h-192zM213 1580v188h774v-188h-774z" glyph-name="uni04E2" unicode="Ӣ"/><glyph d="M308 0v290h92l415 770h70v-290h-85l-415 -770h-77zM168 0v1060h212v-1060h-212zM820 0v1060h212v-1060h-212zM170 1248v188h860v-188h-860z" glyph-name="uni04E3" unicode="ӣ"/><glyph d="M182 612v190h841v-190h-841zM600 -20q-524 0 -524 720q0 740 524 740t524 -740q0 -720 -524 -720zM600 164q314 0 314 536q0 556 -314 556t-314 -556q0 -536 314 -536z" glyph-name="uni04E8" unicode="Ө"/><glyph d="M230 449v162h771v-162h-771zM600 -20q-220 0 -342 144t-122 406q0 263 122 406.5t342 143.5q221 0 342.5 -143.5t121.5 -406.5q0 -262 -121.5 -406t-342.5 -144zM600 170q117 0 180.5 94t63.5 266q0 173 -63.5 266.5t-180.5 93.5t-180.5 -93.5t-63.5 -266.5 q0 -172 63.5 -266t180.5 -94z" glyph-name="uni04E9" unicode="ө"/><glyph d="M203 0v190q140 0 229.5 25t145 86t93.5 169l285 950h220l-349 -1060q-52 -138 -126.5 -216.5t-193 -111t-304.5 -32.5zM578 200l-482 1220h220l351 -910h34zM263 1580v188h774v-188h-774z" glyph-name="uni04EE" unicode="Ӯ"/><glyph d="M75 -480l-10 190l166 20q105 13 179.5 57t127.5 130.5t93 226.5l264 916h220l-306 -966q-60 -190 -134.5 -306t-176 -174t-243.5 -74zM477 0l-422 1060h220l346 -900h32v-160h-176zM185 1248v188h860v-188h-860z" glyph-name="uni04EF" unicode="ӯ"/><glyph d="M514 -320v2060h138v-2060h-138zM346 0v190h300q132 0 205 60.5t73 169.5q0 112 -76 173.5t-216 61.5h-282l-24 91h356q216 0 334 -93t118 -263q0 -186 -112 -288t-318 -102h-358zM160 0v1420h200v-1420h-200zM278 698v98h416v-98h-416zM346 754v91h240q113 0 175.5 50.5 t62.5 144.5q0 92 -65.5 141t-186.5 49h-222l-24 190h256q216 0 334 -93.5t118 -266.5q0 -147 -112 -226.5t-318 -79.5h-258z" glyph-name="uni0E3F" unicode="฿"/><glyph d="M46 0l413 1079h281l413 -1079h-203l-342 870h-17l-342 -870h-203zM235 229v164h720v-164h-720z" glyph-name="uni1D00" unicode="ᴀ"/><glyph d="M468 861l-154 79l413 407l144 -76zM314 790v150h570v-150h-570zM314 1271v150h557v-150h-557z" glyph-name="uni1DBB" unicode="ᶻ"/><glyph d="M366 1063v84h486v-84h-486zM600 770q-151 0 -226.5 83.5t-75.5 251.5t75.5 251.5t226.5 83.5q152 0 227 -83.5t75 -251.5t-75 -251.5t-227 -83.5zM600 920q59 0 88 46t29 139t-29 139t-88 46q-58 0 -87.5 -46t-29.5 -139t29.5 -139t87.5 -46z" glyph-name="uni1DBF" unicode="ᶿ"/><glyph d="M860 0v1420h200v-1420h-200zM140 0v1420h200v-1420h-200zM182 612v190h841v-190h-841zM600 -420q-55 0 -94.5 39.5t-39.5 94.5q0 56 39.5 95t94.5 39q56 0 95 -39t39 -95q0 -55 -39 -94.5t-95 -39.5z" glyph-name="uni1E24" unicode="Ḥ"/><glyph d="M820 0v690q0 101 -50 155.5t-140 54.5q-250 0 -250 -304l-62 272h82q9 107 78 159.5t202 52.5q168 0 260 -102t92 -288v-690h-212zM168 0v1500h212v-1500h-212zM600 -420q-55 0 -94.5 39.5t-39.5 94.5q0 56 39.5 95t94.5 39q56 0 95 -39t39 -95q0 -55 -39 -94.5 t-95 -39.5z" glyph-name="uni1E25" unicode="ḥ"/><glyph d="M286 452l18 198q154 0 266 64.5t184.5 174t108 247t35.5 284.5h206q0 -189 -55 -363t-160 -310.5t-257 -215.5t-346 -79zM160 0v1420h200v-1420h-200zM930 0l-360 692l180 102l422 -794h-242zM469 1580l220 250h282l-260 -250h-242z" glyph-name="uni1E30" unicode="Ḱ"/><glyph d="M286 452l18 198q154 0 266 64.5t184.5 174t108 247t35.5 284.5h206q0 -189 -55 -363t-160 -310.5t-257 -215.5t-346 -79zM160 0v1420h200v-1420h-200zM930 0l-360 692l180 102l422 -794h-242zM620 -420q-55 0 -94.5 39.5t-39.5 94.5q0 56 39.5 95t94.5 39q56 0 95 -39 t39 -95q0 -55 -39 -94.5t-95 -39.5z" glyph-name="uni1E32" unicode="Ḳ"/><glyph d="M310 402v190h120q132 0 217 45.5t133.5 148.5t71.5 274h220q-42 -331 -188.5 -494.5t-403.5 -163.5h-170zM160 0v1500h212v-1500h-212zM878 0l-302 516l200 82l364 -598h-262zM620 -420q-55 0 -94.5 39.5t-39.5 94.5q0 56 39.5 95t94.5 39q56 0 95 -39t39 -95 q0 -55 -39 -94.5t-95 -39.5z" glyph-name="uni1E33" unicode="ḳ"/><glyph d="M286 452l18 198q154 0 266 64.5t184.5 174t108 247t35.5 284.5h206q0 -189 -55 -363t-160 -310.5t-257 -215.5t-346 -79zM160 0v1420h200v-1420h-200zM930 0l-360 692l180 102l422 -794h-242zM20 -396v188h1200v-188h-1200z" glyph-name="uni1E34" unicode="Ḵ"/><glyph d="M310 402v190h120q132 0 217 45.5t133.5 148.5t71.5 274h220q-42 -331 -188.5 -494.5t-403.5 -163.5h-170zM160 0v1500h212v-1500h-212zM878 0l-302 516l200 82l364 -598h-262zM20 -396v188h1200v-188h-1200z" glyph-name="uni1E35" unicode="ḵ"/><glyph d="M160 0v1420h200v-1420h-200zM160 0v190h940v-190h-940zM620 -420q-55 0 -94.5 39.5t-39.5 94.5q0 56 39.5 95t94.5 39q56 0 95 -39t39 -95q0 -55 -39 -94.5t-95 -39.5z" glyph-name="uni1E36" unicode="Ḷ"/><glyph d="M748 -20q-184 0 -266 100t-82 320v1100h212v-1090q0 -84 16 -137t62.5 -78t137.5 -25q83 0 212 38l24 -186q-81 -22 -155.5 -32t-160.5 -10zM88 1326v174h330v-174h-330zM670 -420q-55 0 -94.5 39.5t-39.5 94.5q0 56 39.5 95t94.5 39q56 0 95 -39t39 -95q0 -55 -39 -94.5 t-95 -39.5z" glyph-name="uni1E37" unicode="ḷ"/><glyph d="M160 0v1420h200v-1420h-200zM160 0v190h940v-190h-940zM20 -396v188h1200v-188h-1200z" glyph-name="uni1E3A" unicode="Ḻ"/><glyph d="M748 -20q-184 0 -266 100t-82 320v1100h212v-1090q0 -84 16 -137t62.5 -78t137.5 -25q83 0 212 38l24 -186q-81 -22 -155.5 -32t-160.5 -10zM88 1326v174h330v-174h-330zM70 -396v188h1200v-188h-1200z" glyph-name="uni1E3B" unicode="ḻ"/><glyph d="M800 0l-440 1080h-92v340h132l440 -1080h50v-340h-90zM148 0v1420h192v-1420h-192zM860 0v1420h192v-1420h-192zM0 -396v188h1200v-188h-1200z" glyph-name="uni1E48" unicode="Ṉ"/><glyph d="M820 0v690q0 96 -50 148t-140 52q-250 0 -250 -294l-62 272h82q9 107 78 159.5t202 52.5q168 0 260 -102t92 -288v-690h-212zM168 0v1060h192l20 -224v-836h-212zM0 -396v188h1200v-188h-1200z" glyph-name="uni1E49" unicode="ṉ"/><glyph d="M600 -20q-524 0 -524 720q0 740 524 740t524 -740q0 -720 -524 -720zM600 164q314 0 314 536q0 556 -314 556t-314 -556q0 -536 314 -536zM213 1580v188h774v-188h-774zM499 1880l-260 250h282l220 -250h-242z" glyph-name="uni1E50" unicode="Ṑ"/><glyph d="M600 -20q-220 0 -342 144t-122 406q0 263 122 406.5t342 143.5q221 0 342.5 -143.5t121.5 -406.5q0 -262 -121.5 -406t-342.5 -144zM600 170q117 0 180.5 94t63.5 266q0 173 -63.5 266.5t-180.5 93.5t-180.5 -93.5t-63.5 -266.5q0 -172 63.5 -266t180.5 -94zM170 1248 v188h860v-188h-860zM524 1588l-190 380h212l170 -380h-192z" glyph-name="uni1E51" unicode="ṑ"/><glyph d="M600 -20q-524 0 -524 720q0 740 524 740t524 -740q0 -720 -524 -720zM600 164q314 0 314 536q0 556 -314 556t-314 -556q0 -536 314 -536zM213 1580v188h774v-188h-774zM469 1880l220 250h282l-260 -250h-242z" glyph-name="uni1E52" unicode="Ṓ"/><glyph d="M600 -20q-220 0 -342 144t-122 406q0 263 122 406.5t342 143.5q221 0 342.5 -143.5t121.5 -406.5q0 -262 -121.5 -406t-342.5 -144zM600 170q117 0 180.5 94t63.5 266q0 173 -63.5 266.5t-180.5 93.5t-180.5 -93.5t-63.5 -266.5q0 -172 63.5 -266t180.5 -94zM170 1248 v188h860v-188h-860zM499 1588l170 380h212l-190 -380h-192z" glyph-name="uni1E53" unicode="ṓ"/><glyph d="M326 540v190h302q119 0 185.5 63t66.5 177q0 125 -66.5 192.5t-185.5 67.5h-298l-24 190h322q221 0 341.5 -112t120.5 -318q0 -214 -120.5 -332t-341.5 -118h-302zM140 0v1420h200v-1420h-200zM902 0l-318 668h220l338 -668h-240zM610 -420q-55 0 -94.5 39.5t-39.5 94.5 q0 56 39.5 95t94.5 39q56 0 95 -39t39 -95q0 -55 -39 -94.5t-95 -39.5z" glyph-name="uni1E5A" unicode="Ṛ"/><glyph d="M528 456l-62 332h82q18 292 292 292q164 0 238 -94t74 -304h-210q0 116 -34.5 167t-111.5 51q-135 0 -201.5 -115.5t-66.5 -328.5zM80 0v174h708v-174h-708zM316 0v1060h172l40 -304v-756h-212zM120 886v174h354l20 -174h-374zM430 -420q-55 0 -94.5 39.5t-39.5 94.5 q0 56 39.5 95t94.5 39q56 0 95 -39t39 -95q0 -55 -39 -94.5t-95 -39.5z" glyph-name="uni1E5B" unicode="ṛ"/><glyph d="M551 -20q-121 0 -226.5 19.5t-195.5 58.5l26 202q110 -47 212.5 -71.5t199.5 -24.5q140 0 208 49t68 149q0 66 -33.5 112t-96.5 74l-246 112q-145 66 -222.5 159t-77.5 231q0 186 112 288t317 102q143 0 253 -42t212 -137l-140 -142q-88 72 -164.5 104.5t-159.5 32.5 q-103 0 -159.5 -49.5t-56.5 -146.5q0 -69 37 -112.5t109 -77.5l208 -98q158 -74 240 -167t82 -239q0 -193 -125.5 -289.5t-380.5 -96.5zM610 -420q-55 0 -94.5 39.5t-39.5 94.5q0 56 39.5 95t94.5 39q56 0 95 -39t39 -95q0 -55 -39 -94.5t-95 -39.5z" glyph-name="uni1E62" unicode="Ṣ"/><glyph d="M518 -20q-120 0 -205.5 7t-156.5 23l24 192q105 -16 185.5 -24t152.5 -8q161 0 233.5 31.5t72.5 100.5q0 48 -25.5 71.5t-78.5 36.5l-244 62q-157 40 -230.5 99t-73.5 179q0 174 133.5 252t430.5 78q77 0 143.5 -4.5t136.5 -15.5l-22 -184q-81 8 -143 11t-121 3 q-178 0 -258 -30.5t-80 -99.5q0 -46 33 -66.5t101 -37.5l196 -48q167 -40 244.5 -107t77.5 -195q0 -171 -125 -248.5t-401 -77.5zM590 -420q-55 0 -94.5 39.5t-39.5 94.5q0 56 39.5 95t94.5 39q56 0 95 -39t39 -95q0 -55 -39 -94.5t-95 -39.5z" glyph-name="uni1E63" unicode="ṣ"/><glyph d="M500 0v1420h200v-1420h-200zM80 1230v190h1040v-190h-1040zM-5 -396v188h1200v-188h-1200z" glyph-name="uni1E6E" unicode="Ṯ"/><glyph d="M180 0l-160 1420h210l120 -1260h20l131 900h200l-67 -198h-40l-105 -862h-309zM711 0l-105 862h-40l-65 198h200l129 -900h20l120 1260h210l-160 -1420h-309zM499 1580l-260 250h282l220 -250h-242z" glyph-name="Wgrave" unicode="Ẁ"/><glyph d="M720 0l-124 842h-16l-87 218h194l125 -900h18l90 900h210l-150 -1060h-260zM190 0l-120 1060h200l80 -900h18l125 900h194l-89 -218h-14l-124 -842h-270zM514 1248l-190 380h212l170 -380h-192z" glyph-name="wgrave" unicode="ẁ"/><glyph d="M180 0l-160 1420h210l120 -1260h20l131 900h200l-67 -198h-40l-105 -862h-309zM711 0l-105 862h-40l-65 198h200l129 -900h20l120 1260h210l-160 -1420h-309zM469 1580l220 250h282l-260 -250h-242z" glyph-name="Wacute" unicode="Ẃ"/><glyph d="M720 0l-124 842h-16l-87 218h194l125 -900h18l90 900h210l-150 -1060h-260zM190 0l-120 1060h200l80 -900h18l125 900h194l-89 -218h-14l-124 -842h-270zM489 1248l170 380h212l-190 -380h-192z" glyph-name="wacute" unicode="ẃ"/><glyph d="M180 0l-160 1420h210l120 -1260h20l131 900h200l-67 -198h-40l-105 -862h-309zM711 0l-105 862h-40l-65 198h200l129 -900h20l120 1260h210l-160 -1420h-309zM808 1580q-55 0 -94.5 39.5t-39.5 94.5q0 56 39.5 95t94.5 39q56 0 95 -39t39 -95q0 -55 -39 -94.5t-95 -39.5z M392 1580q-55 0 -94.5 39.5t-39.5 94.5q0 56 39.5 95t94.5 39q56 0 95 -39t39 -95q0 -55 -39 -94.5t-95 -39.5z" glyph-name="Wdieresis" unicode="Ẅ"/><glyph d="M720 0l-124 842h-16l-87 218h194l125 -900h18l90 900h210l-150 -1060h-260zM190 0l-120 1060h200l80 -900h18l125 900h194l-89 -218h-14l-124 -842h-270zM802 1238q-55 0 -94.5 39.5t-39.5 94.5q0 56 39.5 95t94.5 39q56 0 95 -39t39 -95q0 -55 -39 -94.5t-95 -39.5z M382 1238q-55 0 -94.5 39.5t-39.5 94.5q0 56 39.5 95t94.5 39q56 0 95 -39t39 -95q0 -55 -39 -94.5t-95 -39.5z" glyph-name="wdieresis" unicode="ẅ"/><glyph d="M140 0v930q0 269 122.5 389.5t393.5 120.5q128 0 239.5 -42t208.5 -128l-171 -140q-70 60 -138.5 90t-138.5 30q-166 1 -241 -75.5t-75 -244.5v-930h-200zM661 -20q-120 0 -202 23l26 187q45 -8 95.5 -13t96.5 -5q127 0 196.5 68t69.5 192q0 96 -58 167t-164 105l-175 50 l333 516h226l-294 -423l-28 29q179 -31 276.5 -143.5t97.5 -286.5q0 -222 -130 -344t-366 -122z" glyph-name="uni1E9E" unicode="ẞ"/><glyph d="M45 0l410 1420h290l410 -1420h-210l-336 1248h-18l-336 -1248h-210zM235 346v190h720v-190h-720zM600 -420q-55 0 -94.5 39.5t-39.5 94.5q0 56 39.5 95t94.5 39q56 0 95 -39t39 -95q0 -55 -39 -94.5t-95 -39.5z" glyph-name="uni1EA0" unicode="Ạ"/><glyph d="M818 -10l-14 314l-28 88v274q0 106 -74.5 155.5t-221.5 53.5l-254 7l20 188l214 -3q263 -4 390.5 -113.5t127.5 -319.5v-442l180 -22v-170zM444 -20q-166 0 -257 80t-91 226q0 168 125.5 258t354.5 90q95 0 169.5 -11.5t132.5 -34.5l-44 -144q-67 15 -131 17.5t-131 2.5 q-276 0 -276 -158q0 -74 47.5 -115t134.5 -41q99 0 165.5 34t99.5 87t33 109v116l62 -272h-84l34 32q0 -92 -42.5 -153.5t-119.5 -92t-182 -30.5zM600 -420q-55 0 -94.5 39.5t-39.5 94.5q0 56 39.5 95t94.5 39q56 0 95 -39t39 -95q0 -55 -39 -94.5t-95 -39.5z" glyph-name="uni1EA1" unicode="ạ"/><glyph d="M45 0l410 1420h290l410 -1420h-210l-336 1248h-18l-336 -1248h-210zM235 346v190h720v-190h-720zM532 1529v21q0 18 15 35.5t51 42.5q39 25 55 41.5t16 32.5q0 51 -82 51q-96 0 -164 -43l-67 119q81 75 252 75q227 0 227 -163q0 -60 -27 -99.5t-92 -77.5 q-16 -9 -22.5 -17t-6.5 -18h-155z" glyph-name="uni1EA2" unicode="Ả"/><glyph d="M818 -10l-14 314l-28 88v274q0 106 -74.5 155.5t-221.5 53.5l-254 7l20 188l214 -3q263 -4 390.5 -113.5t127.5 -319.5v-442l180 -22v-170zM444 -20q-166 0 -257 80t-91 226q0 168 125.5 258t354.5 90q95 0 169.5 -11.5t132.5 -34.5l-44 -144q-67 15 -131 17.5t-131 2.5 q-276 0 -276 -158q0 -74 47.5 -115t134.5 -41q99 0 165.5 34t99.5 87t33 109v116l62 -272h-84l34 32q0 -92 -42.5 -153.5t-119.5 -92t-182 -30.5zM502 1248v36q0 39 16 66.5t37.5 48.5t37.5 41t16 45q0 26 -17 41t-45 15l21 151q94 0 150.5 -53t56.5 -140q0 -48 -18 -77.5 t-41 -52t-41 -48t-18 -64.5v-9h-155zM423 1498l-67 119q31 34 89 54.5t123 20.5l-21 -151q-73 0 -124 -43z" glyph-name="uni1EA3" unicode="ả"/><glyph d="M45 0l410 1420h290l410 -1420h-210l-336 1248h-18l-336 -1248h-210zM235 346v190h720v-190h-720zM259 1580l260 260h172l260 -260h-222l-177 205h106l-177 -205h-222zM820 1828l220 250h282l-260 -250h-242z" glyph-name="uni1EA4" unicode="Ấ"/><glyph d="M818 -10l-14 314l-28 88v274q0 106 -74.5 155.5t-221.5 53.5l-254 7l20 188l214 -3q263 -4 390.5 -113.5t127.5 -319.5v-442l180 -22v-170zM444 -20q-166 0 -257 80t-91 226q0 168 125.5 258t354.5 90q95 0 169.5 -11.5t132.5 -34.5l-44 -144q-67 15 -131 17.5t-131 2.5 q-276 0 -276 -158q0 -74 47.5 -115t134.5 -41q99 0 165.5 34t99.5 87t33 109v116l62 -272h-84l34 32q0 -92 -42.5 -153.5t-119.5 -92t-182 -30.5zM254 1248l240 380h172l240 -380h-212l-124 246h20l-124 -246h-212zM836 1588l170 380h212l-190 -380h-192z" glyph-name="uni1EA5" unicode="ấ"/><glyph d="M45 0l410 1420h290l410 -1420h-210l-336 1248h-18l-336 -1248h-210zM235 346v190h720v-190h-720zM259 1580l260 260h172l260 -260h-222l-177 205h106l-177 -205h-222zM850 1828l-260 250h282l220 -250h-242z" glyph-name="uni1EA6" unicode="Ầ"/><glyph d="M818 -10l-14 314l-28 88v274q0 106 -74.5 155.5t-221.5 53.5l-254 7l20 188l214 -3q263 -4 390.5 -113.5t127.5 -319.5v-442l180 -22v-170zM444 -20q-166 0 -257 80t-91 226q0 168 125.5 258t354.5 90q95 0 169.5 -11.5t132.5 -34.5l-44 -144q-67 15 -131 17.5t-131 2.5 q-276 0 -276 -158q0 -74 47.5 -115t134.5 -41q99 0 165.5 34t99.5 87t33 109v116l62 -272h-84l34 32q0 -92 -42.5 -153.5t-119.5 -92t-182 -30.5zM254 1248l240 380h172l240 -380h-212l-124 246h20l-124 -246h-212zM860 1588l-190 380h212l170 -380h-192z" glyph-name="uni1EA7" unicode="ầ"/><glyph d="M45 0l410 1420h290l410 -1420h-210l-336 1248h-18l-336 -1248h-210zM235 346v190h720v-190h-720zM259 1580l260 260h172l260 -260h-222l-177 205h106l-177 -205h-222zM883 1777v21q0 18 15 35.5t51 42.5q39 25 55 41.5t16 32.5q0 51 -82 51q-96 0 -164 -43l-67 119 q81 75 252 75q227 0 227 -163q0 -60 -27 -99.5t-92 -77.5q-16 -9 -22.5 -17t-6.5 -18h-155z" glyph-name="uni1EA8" unicode="Ẩ"/><glyph d="M818 -10l-14 314l-28 88v274q0 106 -74.5 155.5t-221.5 53.5l-254 7l20 188l214 -3q263 -4 390.5 -113.5t127.5 -319.5v-442l180 -22v-170zM444 -20q-166 0 -257 80t-91 226q0 168 125.5 258t354.5 90q95 0 169.5 -11.5t132.5 -34.5l-44 -144q-67 15 -131 17.5t-131 2.5 q-276 0 -276 -158q0 -74 47.5 -115t134.5 -41q99 0 165.5 34t99.5 87t33 109v116l62 -272h-84l34 32q0 -92 -42.5 -153.5t-119.5 -92t-182 -30.5zM254 1248l240 380h172l240 -380h-212l-124 246h20l-124 -246h-212zM859 1588v36q0 39 16 66.5t37.5 48.5t37.5 41t16 45 q0 26 -17 41t-45 15l21 151q94 0 150.5 -53t56.5 -140q0 -48 -18 -77.5t-41 -52t-41 -48t-18 -64.5v-9h-155zM780 1838l-67 119q31 34 89 54.5t123 20.5l-21 -151q-73 0 -124 -43z" glyph-name="uni1EA9" unicode="ẩ"/><glyph d="M45 0l410 1420h290l410 -1420h-210l-336 1248h-18l-336 -1248h-210zM235 346v190h720v-190h-720zM259 1580l260 260h172l260 -260h-222l-177 205h106l-177 -205h-222zM225 1946v50q0 125 52.5 187.5t157.5 62.5q41 0 85.5 -12.5t102.5 -36.5q59 -24 90 -37.5t56 -13.5 q54 0 54 64v60h172v-50q0 -120 -47 -180t-141 -60q-34 0 -81 14t-112 41q-43 18 -79 31.5t-62 13.5q-74 0 -74 -74v-60h-174z" glyph-name="uni1EAA" unicode="Ẫ"/><glyph d="M818 -10l-14 314l-28 88v274q0 106 -74.5 155.5t-221.5 53.5l-254 7l20 188l214 -3q263 -4 390.5 -113.5t127.5 -319.5v-442l180 -22v-170zM444 -20q-166 0 -257 80t-91 226q0 168 125.5 258t354.5 90q95 0 169.5 -11.5t132.5 -34.5l-44 -144q-67 15 -131 17.5t-131 2.5 q-276 0 -276 -158q0 -74 47.5 -115t134.5 -41q99 0 165.5 34t99.5 87t33 109v116l62 -272h-84l34 32q0 -92 -42.5 -153.5t-119.5 -92t-182 -30.5zM254 1248l240 380h172l240 -380h-212l-124 246h20l-124 -246h-212zM230 1776v40q0 250 210 250q40 0 75 -12.5t73 -31.5 q50 -25 85.5 -40.5t60.5 -15.5q54 0 54 64v90h172v-80q0 -120 -47 -180t-141 -60q-28 0 -69 12t-94 38q-33 17 -66 33.5t-65 16.5q-37 0 -55.5 -18t-18.5 -56v-50h-174z" glyph-name="uni1EAB" unicode="ẫ"/><glyph d="M45 0l410 1420h290l410 -1420h-210l-336 1248h-18l-336 -1248h-210zM235 346v190h720v-190h-720zM600 -420q-55 0 -94.5 39.5t-39.5 94.5q0 56 39.5 95t94.5 39q56 0 95 -39t39 -95q0 -55 -39 -94.5t-95 -39.5zM259 1580l260 260h172l260 -260h-222l-177 205h106 l-177 -205h-222z" glyph-name="uni1EAC" unicode="Ậ"/><glyph d="M818 -10l-14 314l-28 88v274q0 106 -74.5 155.5t-221.5 53.5l-254 7l20 188l214 -3q263 -4 390.5 -113.5t127.5 -319.5v-442l180 -22v-170zM444 -20q-166 0 -257 80t-91 226q0 168 125.5 258t354.5 90q95 0 169.5 -11.5t132.5 -34.5l-44 -144q-67 15 -131 17.5t-131 2.5 q-276 0 -276 -158q0 -74 47.5 -115t134.5 -41q99 0 165.5 34t99.5 87t33 109v116l62 -272h-84l34 32q0 -92 -42.5 -153.5t-119.5 -92t-182 -30.5zM600 -420q-55 0 -94.5 39.5t-39.5 94.5q0 56 39.5 95t94.5 39q56 0 95 -39t39 -95q0 -55 -39 -94.5t-95 -39.5zM254 1248 l240 380h172l240 -380h-212l-124 246h20l-124 -246h-212z" glyph-name="uni1EAD" unicode="ậ"/><glyph d="M45 0l410 1420h290l410 -1420h-210l-336 1248h-18l-336 -1248h-210zM235 346v190h720v-190h-720zM600 1570q-178 0 -276 76t-98 214h175q0 -73 52.5 -113.5t146.5 -40.5q95 0 147 40.5t52 113.5h175q0 -138 -98 -214t-276 -76zM469 1980l220 250h282l-260 -250h-242z" glyph-name="uni1EAE" unicode="Ắ"/><glyph d="M818 -10l-14 314l-28 88v274q0 106 -74.5 155.5t-221.5 53.5l-254 7l20 188l214 -3q263 -4 390.5 -113.5t127.5 -319.5v-442l180 -22v-170zM444 -20q-166 0 -257 80t-91 226q0 168 125.5 258t354.5 90q95 0 169.5 -11.5t132.5 -34.5l-44 -144q-67 15 -131 17.5t-131 2.5 q-276 0 -276 -158q0 -74 47.5 -115t134.5 -41q99 0 165.5 34t99.5 87t33 109v116l62 -272h-84l34 32q0 -92 -42.5 -153.5t-119.5 -92t-182 -30.5zM580 1238q-166 0 -257.5 84t-91.5 238v43h175v-43q0 -89 45 -137.5t129 -48.5t129 48.5t45 137.5v43h175v-43q0 -154 -91 -238 t-258 -84zM479 1728l170 380h212l-190 -380h-192z" glyph-name="uni1EAF" unicode="ắ"/><glyph d="M45 0l410 1420h290l410 -1420h-210l-336 1248h-18l-336 -1248h-210zM235 346v190h720v-190h-720zM600 1570q-178 0 -276 76t-98 214h175q0 -73 52.5 -113.5t146.5 -40.5q95 0 147 40.5t52 113.5h175q0 -138 -98 -214t-276 -76zM499 1980l-260 250h282l220 -250h-242z" glyph-name="uni1EB0" unicode="Ằ"/><glyph d="M818 -10l-14 314l-28 88v274q0 106 -74.5 155.5t-221.5 53.5l-254 7l20 188l214 -3q263 -4 390.5 -113.5t127.5 -319.5v-442l180 -22v-170zM444 -20q-166 0 -257 80t-91 226q0 168 125.5 258t354.5 90q95 0 169.5 -11.5t132.5 -34.5l-44 -144q-67 15 -131 17.5t-131 2.5 q-276 0 -276 -158q0 -74 47.5 -115t134.5 -41q99 0 165.5 34t99.5 87t33 109v116l62 -272h-84l34 32q0 -92 -42.5 -153.5t-119.5 -92t-182 -30.5zM580 1238q-166 0 -257.5 84t-91.5 238v43h175v-43q0 -89 45 -137.5t129 -48.5t129 48.5t45 137.5v43h175v-43q0 -154 -91 -238 t-258 -84zM504 1728l-190 380h212l170 -380h-192z" glyph-name="uni1EB1" unicode="ằ"/><glyph d="M45 0l410 1420h290l410 -1420h-210l-336 1248h-18l-336 -1248h-210zM235 346v190h720v-190h-720zM600 1570q-178 0 -276 76t-98 214h175q0 -73 52.5 -113.5t146.5 -40.5q95 0 147 40.5t52 113.5h175q0 -138 -98 -214t-276 -76zM532 1929v21q0 18 15 35.5t51 42.5 q39 25 55 41.5t16 32.5q0 51 -82 51q-96 0 -164 -43l-67 119q81 75 252 75q227 0 227 -163q0 -60 -27 -99.5t-92 -77.5q-16 -9 -22.5 -17t-6.5 -18h-155z" glyph-name="uni1EB2" unicode="Ẳ"/><glyph d="M818 -10l-14 314l-28 88v274q0 106 -74.5 155.5t-221.5 53.5l-254 7l20 188l214 -3q263 -4 390.5 -113.5t127.5 -319.5v-442l180 -22v-170zM444 -20q-166 0 -257 80t-91 226q0 168 125.5 258t354.5 90q95 0 169.5 -11.5t132.5 -34.5l-44 -144q-67 15 -131 17.5t-131 2.5 q-276 0 -276 -158q0 -74 47.5 -115t134.5 -41q99 0 165.5 34t99.5 87t33 109v116l62 -272h-84l34 32q0 -92 -42.5 -153.5t-119.5 -92t-182 -30.5zM580 1238q-166 0 -257.5 84t-91.5 238v43h175v-43q0 -89 45 -137.5t129 -48.5t129 48.5t45 137.5v43h175v-43q0 -154 -91 -238 t-258 -84zM502 1728v36q0 39 16 66.5t37.5 48.5t37.5 41t16 45q0 26 -17 41t-45 15l21 151q94 0 150.5 -53t56.5 -140q0 -48 -18 -77.5t-41 -52t-41 -48t-18 -64.5v-9h-155zM423 1978l-67 119q31 34 89 54.5t123 20.5l-21 -151q-73 0 -124 -43z" glyph-name="uni1EB3" unicode="ẳ"/><glyph d="M45 0l410 1420h290l410 -1420h-210l-336 1248h-18l-336 -1248h-210zM235 346v190h720v-190h-720zM600 1570q-178 0 -276 76t-98 214h175q0 -73 52.5 -113.5t146.5 -40.5q95 0 147 40.5t52 113.5h175q0 -138 -98 -214t-276 -76zM225 1966v50q0 125 52.5 187.5t157.5 62.5 q41 0 85.5 -12.5t102.5 -36.5q59 -24 90 -37.5t56 -13.5q54 0 54 64v60h172v-50q0 -120 -47 -180t-141 -60q-34 0 -81 14t-112 41q-43 18 -79 31.5t-62 13.5q-74 0 -74 -74v-60h-174z" glyph-name="uni1EB4" unicode="Ẵ"/><glyph d="M818 -10l-14 314l-28 88v274q0 106 -74.5 155.5t-221.5 53.5l-254 7l20 188l214 -3q263 -4 390.5 -113.5t127.5 -319.5v-442l180 -22v-170zM444 -20q-166 0 -257 80t-91 226q0 168 125.5 258t354.5 90q95 0 169.5 -11.5t132.5 -34.5l-44 -144q-67 15 -131 17.5t-131 2.5 q-276 0 -276 -158q0 -74 47.5 -115t134.5 -41q99 0 165.5 34t99.5 87t33 109v116l62 -272h-84l34 32q0 -92 -42.5 -153.5t-119.5 -92t-182 -30.5zM580 1238q-166 0 -257.5 84t-91.5 238v43h175v-43q0 -89 45 -137.5t129 -48.5t129 48.5t45 137.5v43h175v-43q0 -154 -91 -238 t-258 -84zM230 1736v40q0 250 210 250q40 0 75 -12.5t73 -31.5q50 -25 85.5 -40.5t60.5 -15.5q54 0 54 64v90h172v-80q0 -120 -47 -180t-141 -60q-28 0 -69 12t-94 38q-33 17 -66 33.5t-65 16.5q-37 0 -55.5 -18t-18.5 -56v-50h-174z" glyph-name="uni1EB5" unicode="ẵ"/><glyph d="M45 0l410 1420h290l410 -1420h-210l-336 1248h-18l-336 -1248h-210zM235 346v190h720v-190h-720zM600 -420q-55 0 -94.5 39.5t-39.5 94.5q0 56 39.5 95t94.5 39q56 0 95 -39t39 -95q0 -55 -39 -94.5t-95 -39.5zM600 1570q-178 0 -276 76t-98 214h175q0 -73 52.5 -113.5 t146.5 -40.5q95 0 147 40.5t52 113.5h175q0 -138 -98 -214t-276 -76z" glyph-name="uni1EB6" unicode="Ặ"/><glyph d="M818 -10l-14 314l-28 88v274q0 106 -74.5 155.5t-221.5 53.5l-254 7l20 188l214 -3q263 -4 390.5 -113.5t127.5 -319.5v-442l180 -22v-170zM444 -20q-166 0 -257 80t-91 226q0 168 125.5 258t354.5 90q95 0 169.5 -11.5t132.5 -34.5l-44 -144q-67 15 -131 17.5t-131 2.5 q-276 0 -276 -158q0 -74 47.5 -115t134.5 -41q99 0 165.5 34t99.5 87t33 109v116l62 -272h-84l34 32q0 -92 -42.5 -153.5t-119.5 -92t-182 -30.5zM600 -420q-55 0 -94.5 39.5t-39.5 94.5q0 56 39.5 95t94.5 39q56 0 95 -39t39 -95q0 -55 -39 -94.5t-95 -39.5zM580 1238 q-166 0 -257.5 84t-91.5 238v43h175v-43q0 -89 45 -137.5t129 -48.5t129 48.5t45 137.5v43h175v-43q0 -154 -91 -238t-258 -84z" glyph-name="uni1EB7" unicode="ặ"/><glyph d="M160 0v1420h200v-1420h-200zM160 0v190h940v-190h-940zM160 616v190h760v-190h-760zM160 1230v190h940v-190h-940zM630 -420q-55 0 -94.5 39.5t-39.5 94.5q0 56 39.5 95t94.5 39q56 0 95 -39t39 -95q0 -55 -39 -94.5t-95 -39.5z" glyph-name="uni1EB8" unicode="Ẹ"/><glyph d="M702 -20q-271 0 -418.5 142.5t-147.5 409.5q0 260 125 404t353 144q215 0 332.5 -130t117.5 -378q0 -73 -6 -136h-744v162h558q0 143 -68 219.5t-188 76.5q-135 0 -209.5 -92t-74.5 -260q0 -184 102.5 -280t291.5 -96q66 0 130 7.5t130 20.5l26 -186q-94 -18 -172 -23 t-138 -5zM630 -420q-55 0 -94.5 39.5t-39.5 94.5q0 56 39.5 95t94.5 39q56 0 95 -39t39 -95q0 -55 -39 -94.5t-95 -39.5z" glyph-name="uni1EB9" unicode="ẹ"/><glyph d="M160 0v1420h200v-1420h-200zM160 0v190h940v-190h-940zM160 616v190h760v-190h-760zM160 1230v190h940v-190h-940zM562 1529v21q0 18 15 35.5t51 42.5q39 25 55 41.5t16 32.5q0 51 -82 51q-96 0 -164 -43l-67 119q81 75 252 75q227 0 227 -163q0 -60 -27 -99.5t-92 -77.5 q-16 -9 -22.5 -17t-6.5 -18h-155z" glyph-name="uni1EBA" unicode="Ẻ"/><glyph d="M702 -20q-271 0 -418.5 142.5t-147.5 409.5q0 260 125 404t353 144q215 0 332.5 -130t117.5 -378q0 -73 -6 -136h-744v162h558q0 143 -68 219.5t-188 76.5q-135 0 -209.5 -92t-74.5 -260q0 -184 102.5 -280t291.5 -96q66 0 130 7.5t130 20.5l26 -186q-94 -18 -172 -23 t-138 -5zM532 1248v36q0 39 16 66.5t37.5 48.5t37.5 41t16 45q0 26 -17 41t-45 15l21 151q94 0 150.5 -53t56.5 -140q0 -48 -18 -77.5t-41 -52t-41 -48t-18 -64.5v-9h-155zM453 1498l-67 119q31 34 89 54.5t123 20.5l-21 -151q-73 0 -124 -43z" glyph-name="uni1EBB" unicode="ẻ"/><glyph d="M160 0v1420h200v-1420h-200zM160 0v190h940v-190h-940zM160 616v190h760v-190h-760zM160 1230v190h940v-190h-940zM255 1566v50q0 125 52.5 187.5t157.5 62.5q41 0 85.5 -12.5t102.5 -36.5q59 -24 90 -37.5t56 -13.5q54 0 54 64v60h172v-50q0 -120 -47 -180t-141 -60 q-34 0 -81 14t-112 41q-43 18 -79 31.5t-62 13.5q-74 0 -74 -74v-60h-174z" glyph-name="uni1EBC" unicode="Ẽ"/><glyph d="M702 -20q-271 0 -418.5 142.5t-147.5 409.5q0 260 125 404t353 144q215 0 332.5 -130t117.5 -378q0 -73 -6 -136h-744v162h558q0 143 -68 219.5t-188 76.5q-135 0 -209.5 -92t-74.5 -260q0 -184 102.5 -280t291.5 -96q66 0 130 7.5t130 20.5l26 -186q-94 -18 -172 -23 t-138 -5zM260 1256v40q0 250 210 250q40 0 75 -12.5t73 -31.5q50 -25 85.5 -40.5t60.5 -15.5q54 0 54 64v90h172v-80q0 -120 -47 -180t-141 -60q-28 0 -69 12t-94 38q-33 17 -66 33.5t-65 16.5q-37 0 -55.5 -18t-18.5 -56v-50h-174z" glyph-name="uni1EBD" unicode="ẽ"/><glyph d="M160 0v1420h200v-1420h-200zM160 0v190h940v-190h-940zM160 616v190h760v-190h-760zM160 1230v190h940v-190h-940zM289 1580l260 260h172l260 -260h-222l-177 205h106l-177 -205h-222zM850 1828l220 250h282l-260 -250h-242z" glyph-name="uni1EBE" unicode="Ế"/><glyph d="M702 -20q-271 0 -418.5 142.5t-147.5 409.5q0 260 125 404t353 144q215 0 332.5 -130t117.5 -378q0 -73 -6 -136h-744v162h558q0 143 -68 219.5t-188 76.5q-135 0 -209.5 -92t-74.5 -260q0 -184 102.5 -280t291.5 -96q66 0 130 7.5t130 20.5l26 -186q-94 -18 -172 -23 t-138 -5zM284 1248l240 380h172l240 -380h-212l-124 246h20l-124 -246h-212zM866 1588l170 380h212l-190 -380h-192z" glyph-name="uni1EBF" unicode="ế"/><glyph d="M160 0v1420h200v-1420h-200zM160 0v190h940v-190h-940zM160 616v190h760v-190h-760zM160 1230v190h940v-190h-940zM289 1580l260 260h172l260 -260h-222l-177 205h106l-177 -205h-222zM880 1828l-260 250h282l220 -250h-242z" glyph-name="uni1EC0" unicode="Ề"/><glyph d="M702 -20q-271 0 -418.5 142.5t-147.5 409.5q0 260 125 404t353 144q215 0 332.5 -130t117.5 -378q0 -73 -6 -136h-744v162h558q0 143 -68 219.5t-188 76.5q-135 0 -209.5 -92t-74.5 -260q0 -184 102.5 -280t291.5 -96q66 0 130 7.5t130 20.5l26 -186q-94 -18 -172 -23 t-138 -5zM284 1248l240 380h172l240 -380h-212l-124 246h20l-124 -246h-212zM890 1588l-190 380h212l170 -380h-192z" glyph-name="uni1EC1" unicode="ề"/><glyph d="M160 0v1420h200v-1420h-200zM160 0v190h940v-190h-940zM160 616v190h760v-190h-760zM160 1230v190h940v-190h-940zM289 1580l260 260h172l260 -260h-222l-177 205h106l-177 -205h-222zM913 1777v21q0 18 15 35.5t51 42.5q39 25 55 41.5t16 32.5q0 51 -82 51 q-96 0 -164 -43l-67 119q81 75 252 75q227 0 227 -163q0 -60 -27 -99.5t-92 -77.5q-16 -9 -22.5 -17t-6.5 -18h-155z" glyph-name="uni1EC2" unicode="Ể"/><glyph d="M702 -20q-271 0 -418.5 142.5t-147.5 409.5q0 260 125 404t353 144q215 0 332.5 -130t117.5 -378q0 -73 -6 -136h-744v162h558q0 143 -68 219.5t-188 76.5q-135 0 -209.5 -92t-74.5 -260q0 -184 102.5 -280t291.5 -96q66 0 130 7.5t130 20.5l26 -186q-94 -18 -172 -23 t-138 -5zM284 1248l240 380h172l240 -380h-212l-124 246h20l-124 -246h-212zM889 1588v36q0 39 16 66.5t37.5 48.5t37.5 41t16 45q0 26 -17 41t-45 15l21 151q94 0 150.5 -53t56.5 -140q0 -48 -18 -77.5t-41 -52t-41 -48t-18 -64.5v-9h-155zM810 1838l-67 119q31 34 89 54.5 t123 20.5l-21 -151q-73 0 -124 -43z" glyph-name="uni1EC3" unicode="ể"/><glyph d="M160 0v1420h200v-1420h-200zM160 0v190h940v-190h-940zM160 616v190h760v-190h-760zM160 1230v190h940v-190h-940zM289 1580l260 260h172l260 -260h-222l-177 205h106l-177 -205h-222zM255 1946v50q0 125 52.5 187.5t157.5 62.5q41 0 85.5 -12.5t102.5 -36.5 q59 -24 90 -37.5t56 -13.5q54 0 54 64v60h172v-50q0 -120 -47 -180t-141 -60q-34 0 -81 14t-112 41q-43 18 -79 31.5t-62 13.5q-74 0 -74 -74v-60h-174z" glyph-name="uni1EC4" unicode="Ễ"/><glyph d="M702 -20q-271 0 -418.5 142.5t-147.5 409.5q0 260 125 404t353 144q215 0 332.5 -130t117.5 -378q0 -73 -6 -136h-744v162h558q0 143 -68 219.5t-188 76.5q-135 0 -209.5 -92t-74.5 -260q0 -184 102.5 -280t291.5 -96q66 0 130 7.5t130 20.5l26 -186q-94 -18 -172 -23 t-138 -5zM284 1248l240 380h172l240 -380h-212l-124 246h20l-124 -246h-212zM260 1776v40q0 250 210 250q40 0 75 -12.5t73 -31.5q50 -25 85.5 -40.5t60.5 -15.5q54 0 54 64v90h172v-80q0 -120 -47 -180t-141 -60q-28 0 -69 12t-94 38q-33 17 -66 33.5t-65 16.5 q-37 0 -55.5 -18t-18.5 -56v-50h-174z" glyph-name="uni1EC5" unicode="ễ"/><glyph d="M160 0v1420h200v-1420h-200zM160 0v190h940v-190h-940zM160 616v190h760v-190h-760zM160 1230v190h940v-190h-940zM630 -420q-55 0 -94.5 39.5t-39.5 94.5q0 56 39.5 95t94.5 39q56 0 95 -39t39 -95q0 -55 -39 -94.5t-95 -39.5zM289 1580l260 260h172l260 -260h-222 l-177 205h106l-177 -205h-222z" glyph-name="uni1EC6" unicode="Ệ"/><glyph d="M702 -20q-271 0 -418.5 142.5t-147.5 409.5q0 260 125 404t353 144q215 0 332.5 -130t117.5 -378q0 -73 -6 -136h-744v162h558q0 143 -68 219.5t-188 76.5q-135 0 -209.5 -92t-74.5 -260q0 -184 102.5 -280t291.5 -96q66 0 130 7.5t130 20.5l26 -186q-94 -18 -172 -23 t-138 -5zM630 -420q-55 0 -94.5 39.5t-39.5 94.5q0 56 39.5 95t94.5 39q56 0 95 -39t39 -95q0 -55 -39 -94.5t-95 -39.5zM284 1248l240 380h172l240 -380h-212l-124 246h20l-124 -246h-212z" glyph-name="uni1EC7" unicode="ệ"/><glyph d="M499 0v1420h200v-1420h-200zM168 0v190h864v-190h-864zM168 1230v190h864v-190h-864zM532 1529v21q0 18 15 35.5t51 42.5q39 25 55 41.5t16 32.5q0 51 -82 51q-96 0 -164 -43l-67 119q81 75 252 75q227 0 227 -163q0 -60 -27 -99.5t-92 -77.5q-16 -9 -22.5 -17t-6.5 -18 h-155z" glyph-name="uni1EC8" unicode="Ỉ"/><glyph d="M564 0v1060h212v-1060h-212zM160 0v174h424v-174h-424zM756 0v174h346v-174h-346zM220 886v174h556v-174h-556zM572 1248v36q0 39 16 66.5t37.5 48.5t37.5 41t16 45q0 26 -17 41t-45 15l21 151q94 0 150.5 -53t56.5 -140q0 -48 -18 -77.5t-41 -52t-41 -48t-18 -64.5v-9 h-155zM493 1498l-67 119q31 34 89 54.5t123 20.5l-21 -151q-73 0 -124 -43z" glyph-name="uni1EC9" unicode="ỉ"/><glyph d="M499 0v1420h200v-1420h-200zM168 0v190h864v-190h-864zM168 1230v190h864v-190h-864zM600 -420q-55 0 -94.5 39.5t-39.5 94.5q0 56 39.5 95t94.5 39q56 0 95 -39t39 -95q0 -55 -39 -94.5t-95 -39.5z" glyph-name="uni1ECA" unicode="Ị"/><glyph d="M564 0v1000h212v-1000h-212zM160 0v174h424v-174h-424zM756 0v174h346v-174h-346zM220 884v176h556v-176h-556zM658 1228q-61 0 -104.5 43.5t-43.5 104.5q0 62 43.5 105t104.5 43q62 0 105 -43t43 -105q0 -61 -43 -104.5t-105 -43.5zM670 -420q-55 0 -94.5 39.5 t-39.5 94.5q0 56 39.5 95t94.5 39q56 0 95 -39t39 -95q0 -55 -39 -94.5t-95 -39.5z" glyph-name="uni1ECB" unicode="ị"/><glyph d="M600 -20q-524 0 -524 720q0 740 524 740t524 -740q0 -720 -524 -720zM600 164q314 0 314 536q0 556 -314 556t-314 -556q0 -536 314 -536zM600 -420q-55 0 -94.5 39.5t-39.5 94.5q0 56 39.5 95t94.5 39q56 0 95 -39t39 -95q0 -55 -39 -94.5t-95 -39.5z" glyph-name="uni1ECC" unicode="Ọ"/><glyph d="M600 -20q-220 0 -342 144t-122 406q0 263 122 406.5t342 143.5q221 0 342.5 -143.5t121.5 -406.5q0 -262 -121.5 -406t-342.5 -144zM600 170q117 0 180.5 94t63.5 266q0 173 -63.5 266.5t-180.5 93.5t-180.5 -93.5t-63.5 -266.5q0 -172 63.5 -266t180.5 -94zM600 -420 q-55 0 -94.5 39.5t-39.5 94.5q0 56 39.5 95t94.5 39q56 0 95 -39t39 -95q0 -55 -39 -94.5t-95 -39.5z" glyph-name="uni1ECD" unicode="ọ"/><glyph d="M600 -20q-524 0 -524 720q0 740 524 740t524 -740q0 -720 -524 -720zM600 164q314 0 314 536q0 556 -314 556t-314 -556q0 -536 314 -536zM532 1529v21q0 18 15 35.5t51 42.5q39 25 55 41.5t16 32.5q0 51 -82 51q-96 0 -164 -43l-67 119q81 75 252 75q227 0 227 -163 q0 -60 -27 -99.5t-92 -77.5q-16 -9 -22.5 -17t-6.5 -18h-155z" glyph-name="uni1ECE" unicode="Ỏ"/></font>
</defs>
</svg>
